<svg xmlns="http://www.w3.org/2000/svg" xmlns:xlink="http://www.w3.org/1999/xlink" width="148.461" height="94.092" viewBox="0 0 148.461 94.092"><defs><style>.a,.c{fill:none;}.a,.c,.d{stroke:#fff;}.b{clip-path:url(#a);}.c{stroke-linecap:round;stroke-linejoin:round;stroke-width:4px;}.d{fill:#fff;}</style><clipPath id="a"><rect class="a" width="148.461" height="94.092"/></clipPath></defs><g class="b" transform="translate(0 0)"><path class="c" d="M76.776,12.365C68.839,6.437,58.032,2.781,46.115,2.781,21.75,2.781,2,18.031,2,36.842c0,14.7,12.072,27.233,28.985,32-3.309,7.122-8.613,15.053-16.669,18.647,0,0,25.572,2.89,37.584-16.889C66.211,69.149,78.36,62.408,84.945,53" transform="translate(1.863 2.59)"/><path class="c" d="M106.672,30.411C106.672,14.719,90.2,2,69.874,2,58,2,47.439,6.35,40.713,13.093,49,19.285,54.164,27.958,54.164,37.57a28,28,0,0,1-5.283,16.159,43.4,43.4,0,0,0,16.167,4.84C75.069,75.065,96.4,72.658,96.4,72.658c-6.722-3-11.143-9.613-13.905-15.555C96.6,53.128,106.672,42.678,106.672,30.411Z" transform="translate(37.926 1.863)"/><path class="c" d="M48.882,48.379A28,28,0,0,0,54.164,32.22c0-9.611-5.163-18.284-13.451-24.477" transform="translate(37.926 7.213)"/><path class="d" d="M23.476,21.652a3.646,3.646,0,1,1-3.647-3.645,3.647,3.647,0,0,1,3.647,3.645" transform="translate(15.076 16.774)"/><path class="d" d="M30.894,21.652a3.646,3.646,0,1,1-3.647-3.645,3.647,3.647,0,0,1,3.647,3.645" transform="translate(21.986 16.774)"/><path class="d" d="M38.31,21.652a3.645,3.645,0,1,1-3.647-3.645,3.646,3.646,0,0,1,3.647,3.645" transform="translate(28.897 16.774)"/></g></svg>