<svg xmlns="http://www.w3.org/2000/svg" xmlns:xlink="http://www.w3.org/1999/xlink" width="109.857" height="107.452" viewBox="0 0 109.857 107.452"><defs><style>.a,.d{fill:none;}.a,.c,.d{stroke:#fff;}.a{stroke-width:3px;}.b{clip-path:url(#a);}.c{fill:#fff;}.d{stroke-width:1.5px;}</style><clipPath id="a"><rect class="a" width="109.857" height="107.451"/></clipPath></defs><g transform="translate(0 0)"><g class="b"><path class="a" d="M5.211,103.167v-78.8l65.9-23.154L94.265,14.863v88.9" transform="translate(4.793 1.111)"/><line class="a" x1="109.857" transform="translate(-0.001 105.34)"/></g></g><path class="c" d="M10.5,25.691l7.819-1.643V16.228L10.5,17.873Z" transform="translate(9.653 14.926)"/><path class="c" d="M19.287,23.442,27.106,21.8V13.979l-7.819,1.645Z" transform="translate(17.74 12.858)"/><path class="c" d="M28.079,21.193,35.9,19.549V11.73l-7.819,1.645Z" transform="translate(25.826 10.789)"/><path class="c" d="M10.5,34.892l7.819-1.645V25.429L10.5,27.075Z" transform="translate(9.653 23.389)"/><path class="c" d="M19.287,33.643,27.106,32V24.18l-7.819,1.645Z" transform="translate(17.74 22.24)"/><path class="c" d="M28.079,31.994,35.9,30.351V22.532l-7.819,1.645Z" transform="translate(25.826 20.724)"/><path class="c" d="M51.647,21.193l-7.819-1.643V11.73l7.819,1.645Z" transform="translate(40.311 10.789)"/><path class="c" d="M51.647,31.994l-7.819-1.643V22.532l7.819,1.645Z" transform="translate(40.311 20.724)"/><path class="c" d="M51.647,43.32l-7.819-1.643V33.857L51.647,35.5Z" transform="translate(40.311 31.141)"/><path class="c" d="M51.647,54.645,43.827,53V45.182l7.819,1.645Z" transform="translate(40.311 41.557)"/><g transform="translate(0 0)"><g class="b"><line class="d" y2="102.493" transform="translate(75.904 2.318)"/></g></g><path class="c" d="M10.835,38.094v9.224l41.177-2.636V34.141Z" transform="translate(9.966 31.402)"/><path class="c" d="M10.835,47.006v9.225l41.177-.824V44.866Z" transform="translate(9.966 41.266)"/></svg>