<svg id="그룹_21301" data-name="그룹 21301" xmlns="http://www.w3.org/2000/svg" xmlns:xlink="http://www.w3.org/1999/xlink" width="109.857" height="107.452" viewBox="0 0 109.857 107.452">
  <defs>
    <style>
      .cls-1, .cls-4 {
        fill: none;
      }

      .cls-1, .cls-3, .cls-4 {
        stroke: #59e89b;
      }

      .cls-1 {
        stroke-width: 3px;
      }

      .cls-2 {
        clip-path: url(#clip-path);
      }

      .cls-3 {
        fill: #59e89b;
      }

      .cls-4 {
        stroke-width: 1.5px;
      }
    </style>
    <clipPath id="clip-path">
      <rect id="사각형_24762" data-name="사각형 24762" class="cls-1" width="109.857" height="107.451"/>
    </clipPath>
  </defs>
  <g id="그룹_21292" data-name="그룹 21292" transform="translate(0 0)">
    <g id="그룹_21291" data-name="그룹 21291" class="cls-2">
      <path id="패스_9921" data-name="패스 9921" class="cls-1" d="M5.211,103.167v-78.8l65.9-23.154L94.265,14.863v88.9" transform="translate(4.793 1.111)"/>
      <line id="선_67" data-name="선 67" class="cls-1" x1="109.857" transform="translate(-0.001 105.34)"/>
    </g>
  </g>
  <path id="패스_9922" data-name="패스 9922" class="cls-3" d="M10.5,25.691l7.819-1.643V16.228L10.5,17.873Z" transform="translate(9.653 14.926)"/>
  <path id="패스_9923" data-name="패스 9923" class="cls-3" d="M19.287,23.442,27.106,21.8V13.979l-7.819,1.645Z" transform="translate(17.74 12.858)"/>
  <path id="패스_9924" data-name="패스 9924" class="cls-3" d="M28.079,21.193,35.9,19.549V11.73l-7.819,1.645Z" transform="translate(25.826 10.789)"/>
  <path id="패스_9925" data-name="패스 9925" class="cls-3" d="M10.5,34.892l7.819-1.645V25.429L10.5,27.075Z" transform="translate(9.653 23.389)"/>
  <path id="패스_9926" data-name="패스 9926" class="cls-3" d="M19.287,33.643,27.106,32V24.18l-7.819,1.645Z" transform="translate(17.74 22.24)"/>
  <path id="패스_9927" data-name="패스 9927" class="cls-3" d="M28.079,31.994,35.9,30.351V22.532l-7.819,1.645Z" transform="translate(25.826 20.724)"/>
  <path id="패스_9928" data-name="패스 9928" class="cls-3" d="M51.647,21.193l-7.819-1.643V11.73l7.819,1.645Z" transform="translate(40.311 10.789)"/>
  <path id="패스_9929" data-name="패스 9929" class="cls-3" d="M51.647,31.994l-7.819-1.643V22.532l7.819,1.645Z" transform="translate(40.311 20.724)"/>
  <path id="패스_9930" data-name="패스 9930" class="cls-3" d="M51.647,43.32l-7.819-1.643V33.857L51.647,35.5Z" transform="translate(40.311 31.141)"/>
  <path id="패스_9931" data-name="패스 9931" class="cls-3" d="M51.647,54.645,43.827,53V45.182l7.819,1.645Z" transform="translate(40.311 41.557)"/>
  <g id="그룹_21294" data-name="그룹 21294" transform="translate(0 0)">
    <g id="그룹_21293" data-name="그룹 21293" class="cls-2">
      <line id="선_68" data-name="선 68" class="cls-4" y2="102.493" transform="translate(75.904 2.318)"/>
    </g>
  </g>
  <path id="패스_9932" data-name="패스 9932" class="cls-3" d="M10.835,38.094v9.224l41.177-2.636V34.141Z" transform="translate(9.966 31.402)"/>
  <path id="패스_9933" data-name="패스 9933" class="cls-3" d="M10.835,47.006v9.225l41.177-.824V44.866Z" transform="translate(9.966 41.266)"/>
</svg>
