<svg xmlns="http://www.w3.org/2000/svg" xmlns:xlink="http://www.w3.org/1999/xlink" width="90.393" height="97.306" viewBox="0 0 90.393 97.306">
  <defs>
    <style>
      .cls-1 {
        fill: none;
      }

      .cls-1, .cls-3 {
        stroke: #59e89b;
      }

      .cls-2 {
        clip-path: url(#clip-path);
      }

      .cls-3 {
        fill: #59e89b;
      }
    </style>
    <clipPath id="clip-path">
      <rect id="사각형_24750" data-name="사각형 24750" class="cls-1" width="90.393" height="97.306"/>
    </clipPath>
  </defs>
  <g id="그룹_21300" data-name="그룹 21300" transform="translate(0 0)">
    <g id="그룹_21284" data-name="그룹 21284" class="cls-2" transform="translate(0 0)">
      <path id="패스_9915" data-name="패스 9915" class="cls-3" d="M23.977,40.067a2.117,2.117,0,0,1-2.117-2.117V25.7a2.117,2.117,0,1,1,4.233,0V37.951a2.117,2.117,0,0,1-2.117,2.117" transform="translate(1.273 1.374)"/>
      <path id="패스_9916" data-name="패스 9916" class="cls-3" d="M26.531,45.56A2.531,2.531,0,1,1,24,43.03a2.531,2.531,0,0,1,2.531,2.53" transform="translate(1.251 2.507)"/>
      <path id="패스_9917" data-name="패스 9917" class="cls-3" d="M85.077,31.244H67.65c-4.193,0-7.6-3.968-7.6-8.847V2.118A2.145,2.145,0,0,1,61.168.162a1.638,1.638,0,0,1,1.983.459l23.212,27.01a2.378,2.378,0,0,1,.394,2.307,1.838,1.838,0,0,1-1.679,1.306M63.683,7.227V22.4c0,2.544,1.779,4.614,3.966,4.614H80.685Z" transform="translate(3.498 0)"/>
      <path id="패스_9918" data-name="패스 9918" class="cls-3" d="M81.667,97.306H26.844c-4.192,0-7.6-3.97-7.6-8.848V60.4a1.984,1.984,0,0,1,1.817-2.117A1.986,1.986,0,0,1,22.88,60.4V88.458c0,2.545,1.779,4.615,3.964,4.615H81.667c2.187,0,3.966-2.07,3.966-4.615V30L63.487,4.234H26.844c-2.185,0-3.964,2.07-3.964,4.615v7.433A1.985,1.985,0,0,1,21.06,18.4a1.983,1.983,0,0,1-1.817-2.117V8.849c0-4.879,3.41-8.848,7.6-8.848h37.4a1.7,1.7,0,0,1,1.286.62l23.212,27.01a2.307,2.307,0,0,1,.533,1.5V88.458c0,4.879-3.412,8.848-7.6,8.848" transform="translate(1.121 0)"/>
      <path id="패스_9919" data-name="패스 9919" class="cls-3" d="M26.555,60.625a22.9,22.9,0,1,1,22.9-22.9,22.925,22.925,0,0,1-22.9,22.9m0-41.562A18.664,18.664,0,1,0,45.221,37.727,18.686,18.686,0,0,0,26.555,19.063" transform="translate(0.213 0.864)"/>
      <path id="패스_9920" data-name="패스 9920" class="cls-3" d="M2.116,62.543a2.117,2.117,0,0,1-1.5-3.613L10.6,48.948A2.117,2.117,0,1,1,13.6,51.942L3.613,61.923a2.108,2.108,0,0,1-1.5.62" transform="translate(0 2.815)"/>
      <rect id="사각형_24749" data-name="사각형 24749" class="cls-3" width="20.468" height="4.667" rx="1.096" transform="translate(59.342 79.371)"/>
    </g>
  </g>
</svg>
