<svg xmlns="http://www.w3.org/2000/svg" xmlns:xlink="http://www.w3.org/1999/xlink" width="315" height="180" viewBox="0 0 315 180">
  <defs>
    <clipPath id="clip-path">
      <rect id="사각형_241" data-name="사각형 241" width="315" height="180" rx="30" transform="translate(4300 7576)" fill="#f6f6f8"/>
    </clipPath>
    <clipPath id="clip-path-2">
      <rect id="사각형_243" data-name="사각형 243" width="203.848" height="405.781" transform="translate(0 0)" fill="none"/>
    </clipPath>
  </defs>
  <g id="마스크_그룹_32" data-name="마스크 그룹 32" transform="translate(-4300 -7576)" clip-path="url(#clip-path)">
    <g id="그룹_175" data-name="그룹 175" transform="translate(4326.521 7606.466)">
      <g id="그룹_174" data-name="그룹 174" transform="translate(29.055 -8.162)" clip-path="url(#clip-path-2)">
        <path id="패스_194" data-name="패스 194" d="M133.864,570.579a1.069,1.069,0,0,1,.066.092.238.238,0,0,0-.023.034c-.014-.04-.029-.083-.043-.126" transform="translate(-95.567 -407.345)" fill="#fff"/>
        <path id="패스_195" data-name="패스 195" d="M203.523,23.368c.06-3.876-.372-7.744-.578-11.552.114-.764-.853-.864-1.113-.266-3.121-5.25-10.019-4.981-15.366-5.936a252.693,252.693,0,0,0-30.909-2.237c-10.113-.555-20.126-2.217-30.265-2.4C107.589-.088,89.849.249,72.126.1,57.378.083,42.6-.489,27.917,1.3c-7.49.855-15.234,1.5-22.223,4.526C.247,7.827.836,14.161.17,18.9c-.392,4.494.029,9-.057,13.512.023,2.3-.24,4.726.475,6.938-.395,19.474.275,38.919.9,58.384,0,.04,0,.077,0,.114s0,.063,0,.1v.014c.858,25.5,3.264,50.966,3.464,76.494-1.6,47.227-1.127,94.486-.778,141.736.117,18.644.758,37.283.675,55.93-.026,5.747-.263,11.492-.34,17.24.157,1.725-.807,6.571,2.28,5.267,2.729,7.973,18.587,7.261,25.8,8.471,8.159.426,16.3,1.2,24.463,1.516,5.516-.089,11.029-.194,16.536.2h.009c.352.011.707.026,1.059.04,21.514.635,43.047-.435,64.555.844,10.082.352,20.12-.406,30.168-1.13,9.429-1.167,24.512.358,29.916-9.006,2.5-.867,1.3-4.225,1.536-6.271-.126-5.307-.192-10.611-.421-15.912-.257-13.935.5-27.87.418-41.809.22-23.851.24-47.7.395-71.559.02-16.141,1.11-32.265,0-48.394,0-.083,0-.163-.006-.243a.328.328,0,0,0,0,.052c-.807-41.866.083-83.72,1.024-125.572.558-20.836,2.306-41.628,1.264-62.481M17.378,54.946c1.433-4.583,5.233-8.033,9.212-10.5-.272-2.978-1.43-5.836-1.714-8.786.544-2.44,2.878-.784,3.985.272,2.372,1.937,5.012,3.545,7.381,5.464a497.831,497.831,0,0,1,59.683-2.532c16.1-.358,32.348-.318,48.125,3.253,15.729,3.974,20.2,29.172,3.527,35.283-11.607,4.883-24.552,3.353-36.842,3.733-11.618.051-23.233,1.173-34.854.5-5-.292-9.993-.475-14.991-.721h-.014c-7.244-.269-14.493.054-21.717-.735-4.3-.378-8.877-.512-12.748-2.623C18.854,73.069,15.35,63.36,17.378,54.946M171.7,205.573c-4.532,4.623-11.289,5.879-17.443,6.835-16.859,2.709-34.01,3.218-51.055,3.047-.04,0-.077,0-.117,0-.18-.009-.36-.017-.544-.023-12.7-.086-25.424.918-38.109-.177a125.085,125.085,0,0,1-17.66-2.186c.074.014.146.029.217.04-7.235-1.488-15.732-2.257-20.361-8.786-5.45-8.4-6.417-20.841.355-28.78,3.19-3.4,7.988-4.125,12.3-5.2a18.914,18.914,0,0,1-1.239-6.3c-1.339-2.068-.7-3.556,1.31-1.373,1.133-.24,1.714.981,1.662,1.957.632.75,1.293,1.479,1.951,2.206.735.8,1.47,1.6,2.2,2.4.269.257.481.658.844.761a835.972,835.972,0,0,1,90.209-.366c12.084.406,25.65,1.339,33.778,11.532,5.479,6.629,7.307,17.343,1.694,24.412M118.8,41.809h-.009a.663.663,0,0,0-.106,0c.289.011.575.026.861.043-.249-.014-.5-.029-.747-.04M27.359,44l.223-.123a1.29,1.29,0,0,1-.206-.137c-.006.089-.009.175-.017.26m.1-5.973c-.1-.08-.2-.16-.295-.243l.017.249a1.129,1.129,0,0,1,.278-.006" transform="translate(0 -0.001)" fill="#fff"/>
        <path id="패스_196" data-name="패스 196" d="M203.525,23.37c.059-3.877-.374-7.745-.578-11.552a.575.575,0,0,0-1.115-.266C198.713,6.3,191.814,6.57,186.467,5.614a252.985,252.985,0,0,0-30.909-2.235c-10.112-.556-20.125-2.219-30.264-2.4C107.591-.087,89.852.251,72.128.1,57.378.085,42.6-.487,27.917,1.3,20.43,2.159,12.684,2.809,5.7,5.829.248,7.828.836,14.163.17,18.9-.22,23.391.2,27.9.113,32.41c.024,2.3-.239,4.726.476,6.937-.4,19.475.274,38.918.9,58.385l.008.21v.016c.857,25.5,3.264,50.965,3.463,76.493-1.6,47.228-1.126,94.485-.779,141.734.118,18.645.76,37.282.677,55.93-.027,5.749-.263,11.493-.341,17.24.158,1.725-.806,6.571,2.281,5.268,2.73,7.971,18.586,7.259,25.8,8.471,8.159.425,16.3,1.2,24.461,1.515,5.516-.089,11.029-.193,16.536.2h.008l1.059.04c21.515.637,43.048-.432,64.557.844,10.083.355,20.12-.406,30.168-1.128,9.43-1.168,24.513.358,29.915-9.006,2.5-.867,1.306-4.226,1.537-6.273-.126-5.306-.191-10.609-.422-15.91-.255-13.936.505-27.871.419-41.809.22-23.851.239-47.7.4-71.557.019-16.141,1.109-32.266,0-48.4,0-.08,0-.161-.005-.241a.362.362,0,0,0,0,.051c-.808-41.866.084-83.72,1.024-125.572.559-20.834,2.305-41.629,1.266-62.48M4.038,85.589q-.024-.923-.048-1.846L4.044,85.7c0-.038,0-.075-.005-.113M154.231,26.131l-.124,0c-.365-.016-.731-.035-1.1-.054.409.021.814.04,1.22.056M114.222,3.886c-.519-.019-1.034-.04-1.55-.062.518.016,1.032.043,1.55.062m79.972,205.026v-.022c-.021-.653-.032-1.305-.038-1.958q.012.983.038,1.958a.553.553,0,0,1,0,.065Zm1.238-128.385a.113.113,0,0,0,0-.013c.26,18.21-1.988,36.4-1.674,54.589,0,.037,0,.075,0,.113.016,8.538.873,17.052.6,25.593-.93,18.594-2.609,37.177-1.639,55.814.118,33.755.378,67.533-.7,101.272.255,18.21-2.138,36.339-1.029,54.543a.761.761,0,0,1,0,.081c.059,2.19.118,4.374.153,6.563-30.469,1.3-61,1.131-91.5,1.144-28.5.57-57,1.131-85.482,2.117-.578-20.867.024-41.739-1.343-62.584-.481-21.963.054-43.929-.384-65.889-.04-2.778-.161-5.551-.25-8.323,0-.054,0-.11-.005-.164,0,.04,0,.08.005.121-.15-28.919,1.784-57.848.744-86.764-.225-8.149.1-16.308-.451-24.451-.075-13.535-1.1-27.027-1.566-40.549,0-.043,0-.083,0-.126a342.089,342.089,0,0,1-.561-37.586c-.108-9.758-2.018-19.4-2.219-29.147,34.963-.578,70.01-1.225,104.933.677,17.154.693,34.287,1.88,51.449,2.262,10.542.441,21.1.247,31.611,1.319-.5,4.736.475,9.425.639,14.142.4,11.765-1.639,23.484-1.333,35.246" transform="translate(-0.001 -0.002)" fill="#231f20"/>
        <path id="패스_197" data-name="패스 197" d="M201.509,866.524c-9.108-.271-18.224-.657-27.319-1.232-9.792-1.246-19.581-2.5-29.391-3.594-12.229.027-13.989-13.593-14.583-23.123-2.75-20.661,3.945-22.86,22.346-27.337l-.017,0,.039-.009h0c20.249-4.058,41.2-3.959,61.744-2.657a62.651,62.651,0,0,0,9.016.287c6.461-.128,12.884.687,19.323,1.072a80.542,80.542,0,0,0,7.632-8.574c.788-.892,1.273-2.325,2.506-2.663,3.708.147,2.074,9.422,1.91,11.976,6.7-.538,11.183,5.168,13.411,10.847,1.283,3.7.53,7.691,1.035,11.522.355,7.521,1.066,15.2-.807,22.584-.88,6.851-8.773,6.662-14.082,7.492-8.856,1.1-17.8.989-26.655,2.121l.179-.019a145.539,145.539,0,0,1-26.287,1.3m50.5-6.117c.7-.066,1.4-.127,2.092-.2q-1.069.109-2.092.2M145.558,816.5c.216-.019.433-.055.65-.081q-.324.042-.65.081M251.2,808.182a1.266,1.266,0,0,1,.424.091c.005-.323.015-.646.026-.97-.149.293-.3.586-.45.878" transform="translate(-92.54 -570.201)"/>
        <path id="패스_198" data-name="패스 198" d="M257.99,349.216c-25.945-1.156-52.472,1.8-77.917-4.415-10.753-1.646-14.274-27.121-7.388-33.636,8.274-5.045,23.261-5.916,33-6.56,20.8-1.941,41.749-1.423,62.6-.565l-.154-.006q2.76.1,5.52.188c.531-.7,1.1-1.38,1.685-2.041v0c.118-.137.236-.274.354-.411l0,.007.057-.067-.009.013c2.288-2.662,4.84-5.073,7.352-7.519.841-.666,1.489-1.987,2.673-1.972,2.817,1.327-.322,10.126-1.124,12.522,10.63.761,16.506,11.93,15.894,21.7,0-.017,0-.033,0-.05,0,.156.009.314.014.47,0-.06,0-.119,0-.177.08,4.046-.4,8.081-.714,12.111-.115,2.786-1.145,5.584-3.969,6.591-11.975,4.716-25.227,3.749-37.861,3.82m20.91-2.907c.6-.046,1.2-.09,1.792-.154q-.926.089-1.792.154m3.814-45.377a2.456,2.456,0,0,1,.052.348l.143-.682-.2.334" transform="translate(-120.754 -208.629)"/>
        <path id="패스_199" data-name="패스 199" d="M115.38,174.639c.178-2.528,3.151-1.7,4.887-2.038,3.572-.194,7.124-.594,10.693-.824,9.515-.6,19.018-1.215,28.567-1.1,8.34-.032,16.681.4,25.018.041,10.139-.865,20.322-.792,30.49-.678,2.353-.431,2.582,3.151.328,3.336-29.325,1.278-58.733-.012-88.019,1.981l.2-.021c-2.526.312-5.065.45-7.6.677-1.549.041-4.53,1.066-4.562-1.375" transform="translate(-82.371 -121.346)" fill="#fff"/>
        <path id="패스_200" data-name="패스 200" d="M119.152,208.88c-2.187-.045-1.773-3.5.241-3.547,1.171-.044,2.347-.045,3.517-.156,7.556-.4,15.1-1.015,22.661-1.322,11.6-.781,23.22-.4,34.831-.142,11.816-.534,23.616-1.565,35.469-1.352,1.861.324,7.424-1.227,7.423,1.42a1.742,1.742,0,0,1-.954,1.481c-5.11.776-10.387.766-15.556,1.2-16.005.194-31.973,1.895-47.977,1.016h.029c-13.253-.5-26.462.834-39.684,1.4" transform="translate(-84.019 -144.353)" fill="#fff"/>
        <path id="패스_201" data-name="패스 201" d="M124.125,247.548a2.017,2.017,0,0,1,1.3-3.331c4.653-.322,9.295-.044,13.952-.123,15.127-.9,30.319.148,45.426-1.027a279.522,279.522,0,0,1,30.163-.726c2.78.085,5.559.155,8.335.31,1.378.058,3.977.065,3.175,2.137-.788,1.791-6.644.667-8.56,1.009-6.295.058-12.6-.236-18.885.129-16.218,1.035-32.508,1.887-48.762,1.464q-10.769.445-21.529.372c-1.5-.065-3.3.648-4.615-.214" transform="translate(-88.246 -172.928)" fill="#fff"/>
        <path id="패스_202" data-name="패스 202" d="M225.3,367.737c-1.826-1.941.5-3.427,2.531-3.266,3.944-.37,7.9-.6,11.863-.663,11.555-1.337,23.1-2.849,34.723-3.5,13-.383,26.057-.891,39.05-.145,2.083.548,9.746-.779,7.17,3.123-1.584,1.035-5.765.126-7.894.476-8.731.237-17.469.134-26.2.443-19.783.868-39.5,2.651-59.273,3.607l.07-.007-.194.02.1-.01c-.648.025-1.357.319-1.945-.081" transform="translate(-160.37 -256.853)" fill="#fff"/>
        <path id="패스_203" data-name="패스 203" d="M224.893,409.081a1.769,1.769,0,0,1,.259-2.59c-.935-1.293,2.717-.56,3.312-.738a299.592,299.592,0,0,1,30.856-1.979c15.272-.441,30.528-1.719,45.821-1.611,6.779.124,13.6.044,20.34.822a1.368,1.368,0,0,1,1.28,1.606c-.349,2.829-11.368,1.592-13.928,2-6.463-.132-12.918-.29-19.376.131-11.339.189-22.687-.2-34.026.171-7.756.273-15.512.532-23.245,1.2-2.623.291-5.236.68-7.846,1.069-1.121.008-2.482.643-3.448-.087" transform="translate(-160.23 -287.106)" fill="#fff"/>
        <path id="패스_204" data-name="패스 204" d="M243.271,447.266a1.582,1.582,0,0,1-1.137-2.192c-2.292-2.567,10.218-1.783,11.582-2.3,15.237-1.635,30.565-1.17,45.84-1.556,9.8-.287,19.6-.546,29.406-.407,3.286.329,7.1-.371,10.1.966a1.471,1.471,0,0,1-.893,2.247c-18.8-.392-37.572.72-56.355.994-7.3.516-14.624.675-21.931,1.089-5.551.231-11.055,1.436-16.615,1.156" transform="translate(-172.663 -314.676)" fill="#fff"/>
        <path id="패스_205" data-name="패스 205" d="M153.365,627.22c-.709-.082-1.493.163-2.13-.228a1.845,1.845,0,0,1,.628-3.14c4.6-.2,9.242-.358,13.854-.637a382.439,382.439,0,0,1,42.419-.75c12.715.116,25.435.017,38.145.426l-.162-.006a29.562,29.562,0,0,1,5.811.526,1.418,1.418,0,0,1-.039,2.425c-1.6.6-3.452.179-5.136.224l.165.007c-19.723-.167-39.476-.635-59.2-.093-11.46.223-22.89,1.238-34.351,1.246" transform="translate(-107.507 -444.203)" fill="#fff"/>
        <path id="패스_206" data-name="패스 206" d="M170.1,655.6a164.674,164.674,0,0,1-17.876-1.5c-1.26-.1-3.269.652-3.92-.808-.949-.863.524-2.328,1.474-2.369,3.908.076,7.8-.5,11.713-.361,15.2-.781,30.395-.157,45.585.61h-.011l.183.007-.075,0c10.816.425,21.628-.112,32.435-.506,2.774.227,11.177-.756,12.64,1.447.937,3.418-7.151,2.279-9.221,2.859a177.049,177.049,0,0,1-19.736.606c-17.728-.564-35.464.543-53.191.015" transform="translate(-105.655 -464.191)" fill="#fff"/>
        <path id="패스_207" data-name="패스 207" d="M221.82,701.287c-16.143-.353-32.288-.477-48.425-1-2.939-.359-18.487,2.125-18.419-.936-.085-2.512,2.77-1.979,4.446-1.829a52.539,52.539,0,0,0,8.2-.24c12.276-.785,24.547-.667,36.844-.466,14.959.223,29.856-1.8,44.838-1.329,2.081.373,9.479-.913,9.693,1.5,1.813,4.339-33.167,4.013-37.18,4.3" transform="translate(-110.638 -496.468)" fill="#fff"/>
        <path id="패스_208" data-name="패스 208" d="M192.266,869.224c-1.585-3.457,2.74-3.064,4.887-3.186,4.933-.173,9.877-.243,14.8-.537,14.63-1.854,29.428-1.987,44.149-1.57,8.3.029,16.593-.8,24.892-.123l-.168-.006c3.585.317,7.268-.254,10.8.489a1.506,1.506,0,0,1,.658,2.538c-1.147.923-2.792.86-4.184,1.117-7,1.018-14.046-.327-21.065-.456l.042,0c-4.072-.158-8.141-.372-12.211-.558h.065l-.1,0,.039,0-.1,0,.043,0c-13.4-.167-26.738.788-40.116,1.427-4.318.752-8.71.575-13.063.946-2.136-.236-8.281,1.208-9.364-.081" transform="translate(-137.017 -616.495)" fill="#fff"/>
        <path id="패스_209" data-name="패스 209" d="M185.938,905.924c-1.336-.379-1.244-2.377-.138-2.988,1.22-.629,2.73-.265,4.059-.547l-.037,0c4.774-.5,9.518-1.236,14.3-1.662l-.17.018.046,0-.068.008.14-.015-.041,0a156.851,156.851,0,0,1,27.686-1.065c15.5.212,31.016-.876,46.519-.393,3.483.2,6.96.531,10.43.886,1.765-.15,3.094,1.606,1.291,2.77-4.464.642-9.077.344-13.591.42-23.9.335-47.841-1.368-71.69.565l.138-.015c-.316.037-.632.067-.949.1l.066-.007c-6,.5-11.982,1.7-17.989,1.922" transform="translate(-132.04 -641.922)" fill="#fff"/>
        <path id="패스_210" data-name="패스 210" d="M192.441,946.228c-2.386-4.135,5.2-2.674,7.315-3.046,4.857-.012,9.71-.151,14.569-.184,11.384-.336,22.775-1.241,34.171-.991h-.021l.984.038h-.043l.143.006h-.039q.808.031,1.614.065l-.185-.006c11.1.476,22.192-.891,33.3-.473,2.1.375,12.27-.719,9.524,3.228-1.052.932-2.693.6-4,.829-3.3.269-6.6.351-9.911.363-11.124.1-22.248-.354-33.37-.029-9.332.354-18.671-.594-27.992.028a144.324,144.324,0,0,1-17.19.285c-2.839-.239-6.255.766-8.87-.11" transform="translate(-137.058 -672.188)" fill="#fff"/>
        <path id="패스_211" data-name="패스 211" d="M270.445,999.885c-16.34-.105-32.692-.375-49.015-.66-4.188.168-8.378.021-12.561-.2-2.206-.551-8.97,1.745-7.968-2.248-.559-.645.245-1.293.929-1.111,3.892-.575,8-.03,11.953.083l-.075,0,.206.009-.1,0c12.928.018,25.854.083,38.777-.351,15.854.585,31.722-.208,47.59-.156,3.134-.56,3.975,2.481.952,3.042-10.115,1.726-20.446,1.688-30.683,1.6" transform="translate(-143.292 -710.471)" fill="#fff"/>
        <path id="패스_212" data-name="패스 212" d="M354.345,46.243a.785.785,0,0,1-.112-.622c-.174-1.064,1.013-2.077,1.314-.694.047.682-.328,2.078-1.2,1.316" transform="translate(-252.879 -31.594)" fill="#fff"/>
        <path id="패스_213" data-name="패스 213" d="M353.659,47.211c-5.113-1.009-1.966-7.691,1.509-5.132,3.459.913,1.8,5.984-1.509,5.132m.679-2.045c.011-.266.041-.532.065-.8a2.233,2.233,0,0,0-.639-.017,1.443,1.443,0,0,1-.057.709,2.621,2.621,0,0,0,.63.105" transform="translate(-250.565 -29.627)" fill="#fff"/>
      </g>
    </g>
  </g>
</svg>
