<svg xmlns="http://www.w3.org/2000/svg" xmlns:xlink="http://www.w3.org/1999/xlink" width="315" height="180" viewBox="0 0 315 180">
  <defs>
    <clipPath id="clip-path">
      <rect id="사각형_254" data-name="사각형 254" width="315" height="180" rx="30" transform="translate(1475 7140)" fill="#6060f5"/>
    </clipPath>
    <clipPath id="clip-path-2">
      <rect id="사각형_253" data-name="사각형 253" width="314.736" height="208.701" fill="none"/>
    </clipPath>
  </defs>
  <g id="마스크_그룹_37" data-name="마스크 그룹 37" transform="translate(-1475 -7140)" clip-path="url(#clip-path)">
    <g id="그룹_188" data-name="그룹 188" transform="translate(1452.304 7140)">
      <g id="그룹_187" data-name="그룹 187" clip-path="url(#clip-path-2)">
        <path id="패스_459" data-name="패스 459" d="M217.069,362.805l168.861-2.021,3.951-84.229-.745-26.185-80.826-.792-92.436,4.395s-4.262-7.724,1.2,108.832" transform="translate(-133.55 -155.543)" fill="#fff"/>
        <path id="패스_460" data-name="패스 460" d="M41.473,130.6a19.822,19.822,0,0,0,.269-6.7c-.893-2.571-3.022-6.287-5.952-6.666-.2.139-.419-.06-.641.006-.521-.01-1.269.3-1.531-.326a12.267,12.267,0,0,0-4.232.552,15.588,15.588,0,0,0-5.9,4.992,16.437,16.437,0,0,0-1.016,9.433c1.3,3.75,7.32,5.437,10.917,5.507,4.056.113,6.746-3.355,8.088-6.8m17.853-6.059c1.166.322,2.328,1.04,1.92,2.422a72.546,72.546,0,0,1-1.136,7.908c-.246,1.063-1.64.92-2.464,1.252-2.4.615-4.833,1.086-7.164,1.883-.771,1.04-1.378,2.186-2.132,3.238a51.342,51.342,0,0,1,3.956,7.115,1.253,1.253,0,0,1,.163.977,1.708,1.708,0,0,1-.671.844c-1.109.777-2.269,1.634-3.325,2.4-1.6.98-2.843,2.418-4.627,3.006-.754.083-1.315-.621-1.83-1.07-1.714-1.651-3.507-2.893-4.64-5.079-.126-.006-.249-.01-.372-.01a26.907,26.907,0,0,0-3.142.346,22.611,22.611,0,0,1-2.272,6.072c-.359.611-.628,1.484-1.521,1.146-2.438-.648-5.019-.286-7.374-1.235-2.235-.385.485-6.318.711-7.8-.774-.269-2.853-.628-3.464-1.472-1.368,1.262-2.468,2.8-4.092,3.787a8.914,8.914,0,0,1-2.627,1.481c-2.889-1.568-5.793-3.783-7.211-6.836-.326-1.023.382-1.817.923-2.584a36.36,36.36,0,0,1,4.71-5.657c-.435-1.471-1.338-2.77-1.744-4.252a7.3,7.3,0,0,0-.472-1.75c-.86-.6-2.1-.262-3.093-.478-1.949-.066-3.66-1.116-5.55-1.481-1-.2-.778-1.408-.735-2.169a39.179,39.179,0,0,1,1.657-8.659,35.663,35.663,0,0,1,1.226-3.564.432.432,0,0,1,.05-.093.548.548,0,0,1,.076-.339c.2-.173.515-.11.764-.1.143.01.319.046.335.213,1.943.654,3.943.459,5.939.661a51.923,51.923,0,0,1,4.6-5.1c-1.1-2.113-1.989-4.351-3.026-6.477a.956.956,0,0,1,.166-.793c2.133-2.455,5-4.159,7.719-5.9.841-.548,1.628.359,2.192.9a51.952,51.952,0,0,1,4.281,5.1c2.016.282,4.158-.335,6.185-.5.85-2.3,1.953-4.517,2.992-6.71.2-.561.528-1.162,1.212-1.122,2.023-.186,3.933.558,5.836,1.119a19.258,19.258,0,0,1,5.351,2.082c.681,2.026-.787,4.4-1.418,6.331-.116.279-.232.558-.349.841a1.126,1.126,0,0,1,.462.917c.641.913,1.415,1.724,2.02,2.647,2.338-1.1,4.441-3.362,6.593-4.345,2.85.946,4.531,5.613,5.527,8.257a9.676,9.676,0,0,1,.3,1.01,2.283,2.283,0,0,1-.937,1.621c-1.554,1.664-3.587,2.773-5.221,4.331a15.431,15.431,0,0,0-.518,4.421c1.774.342,3.531.744,5.261,1.252" transform="translate(0 -58.6)" fill="#231f20"/>
        <path id="패스_461" data-name="패스 461" d="M246.279,31.993c.847-2.588-.023-5.394-1.123-7.759-1.286-4.1-5.178-4.374-8.8-4.936-3.368-.987-6.716.525-9.054,2.953-3.557,3.039-4.351,8.407-2.541,12.6,2.435,4.178,7.706,5.261,12.163,5.55,4.726.063,7.766-4.478,9.35-8.413m18.653-12.07a12.47,12.47,0,0,1,.555,3.016c-1.113,2.73-4.883,2.979-6.7,5.128a18.21,18.21,0,0,0,.485,4.587c1.189.677,5.4,3.079,4.67,4.663a9,9,0,0,0-1.511,2.677,28.991,28.991,0,0,1-2.478,3.79c-.714.757-1.491,2.049-2.554,2.225-1.966-.837-3.916-1.784-5.935-2.524a16.661,16.661,0,0,0-2.671,3.334c.043,2.182,1.07,4.388.445,6.554-.462.614-1.395.817-2.016,1.179a19.112,19.112,0,0,1-7.889,2.388.734.734,0,0,1-.611-.385c-1.073-1.913-1.4-4.169-2.973-5.743a9.592,9.592,0,0,1-3.311.249,5.007,5.007,0,0,0-2.182-.073c-.813.781-1.777,1.448-2.607,2.225,0,0,0,0,0,0-.372.428-.744.854-1.116,1.282v0c-.066.1-.126.189-.182.289.206.043.136.455-.073.419a.282.282,0,0,1-.219-.166c-.365.349-.711.857-1.252.877-2.056-.668-3.886-1.857-5.889-2.654-.754-.269-1.627-.521-1.471-1.508-.113-2.421,1.146-4.743,1.385-7.088.269-.96-1.269-1.4-1.9-1.877-.8-.372-1.528-.93-2.322-1.319-.721-.266-1.415-.907-2.169-.428-2.006.595-3.863,1.564-5.932,1.84-.608.04-1.484-.013-1.677-.694-.7-2.4-1.614-4.71-2.378-7.088a3,3,0,0,1-.283-2.1c.3-.624,1.173-.917,1.637-1.355a23.172,23.172,0,0,1,4.919-2.418,19.083,19.083,0,0,0-.448-3.767,11.8,11.8,0,0,1,.037-4.042,35.315,35.315,0,0,1-4.085-2.976,1.465,1.465,0,0,1-.571-1.222,7.27,7.27,0,0,1,.332-.97c.634-1.568,1.495-3.022,1.976-4.627a14.537,14.537,0,0,1,1.153-2.515c.176-.186.369-.033.409.159a3.8,3.8,0,0,1,1.089.309,23.7,23.7,0,0,0,4.282,1.146c1.587.282,3.129,1.212,4.746,1.106,1.252-1.232,2.833-2.069,4.092-3.288.04-1.485-.595-6.088.946-6.706a28.551,28.551,0,0,1,5.9-1.793A1.8,1.8,0,0,1,229.864.2c1.734,2.146,2.484,4.939,4.494,6.892a29.3,29.3,0,0,0,6.523-.7c.731-.734,1.259-1.657,2-2.391A31.113,31.113,0,0,1,246.435.745a1.368,1.368,0,0,1,1.1-.316,29.572,29.572,0,0,1,5.71,2.614.964.964,0,0,1,.545,1.226c-.5,1.555-.854,3.146-1.229,4.733a29.236,29.236,0,0,0-.79,3.77,39.362,39.362,0,0,0,3.169,2.4c2.787-.555,5.567-1.206,8.437-.512a.792.792,0,0,1,.448.475c.438,1.561.817,3.192,1.113,4.783" transform="translate(-125.926 0)" fill="#231f20"/>
        <path id="패스_462" data-name="패스 462" d="M218.908,211.892c-.318-.2-.738-.219-1.023-.468a1.06,1.06,0,0,1,.332-1.538c.8-.409,1.967-.2,2.767-.333,4.962-.335,9.91-.532,14.774-1.646,3.836-.68,7.761-.344,11.6-1.034,7.28-.9,14.622.213,21.927-.649,5.836-.414,11.549.776,17.336.669,8.219-1.281,15.638-.658,23.861-.771a95.351,95.351,0,0,0,15.186.4c3.217-.094,6.276.493,9.4.538a80.25,80.25,0,0,1,13.871.574,168.942,168.942,0,0,1,22.05.2c4.826.3,9.63-.765,14.435.122a23.741,23.741,0,0,1,3.608.576c.406.108.447.651.34.98-.5,1.472-3.04.363-4.252.6a57.99,57.99,0,0,1-11.747-.632c-3.572-.294-7.16-.021-10.738-.186-5.079.237-10.111-.436-15.176-.574a119.911,119.911,0,0,1-12.5.165,178.246,178.246,0,0,1-17.882-1.054,132.465,132.465,0,0,1-15.855.257c-3.029.1-6.041.459-9.075.3a71.212,71.212,0,0,0-13.507.254c-5.7.273-11.38-.476-17.07-.629-6.267.358-12.408,1.822-18.732,1.36a84.847,84.847,0,0,1-14.01,1.084c-2.981.133-5.913.772-8.907.93-.15.378-.609.72-1.008.511" transform="translate(-135.659 -128.426)" fill="#231f20"/>
        <path id="패스_463" data-name="패스 463" d="M212.572,341.064a1.489,1.489,0,0,1-.6-1.9,56.646,56.646,0,0,1,.229-8.856c-.249-5.232-1.661-10.319-1.288-15.613-.612-5.472-1.264-10.822-.569-16.315.2-5.106-1.015-10-1.564-15.028a91.17,91.17,0,0,1-.275-15.863c.48-5.67-1.65-11.15-1.41-16.8.2-6.922,2.127-13.4,2.3-20.264a53.494,53.494,0,0,1,1.737-10.617c.5-1.674.564-3.68,1.86-4.964.5-.352,1.256-.055,1.055.634.349.549-.306,1.186-.666,1.587a.335.335,0,0,1-.16.1c-1.544,5.291-.355,10.968-1.31,16.376a39.6,39.6,0,0,0-1.032,10.785c-.014,4.473-.825,8.9-.908,13.371-.162,8.735,1.212,17.383,1.427,26.105-.281,8.838,1.214,17.474,1.132,26.286.5,9.529.6,19.068.939,28.59a3.844,3.844,0,0,0,2.507,1.367c3.076.432,6.179-.229,9.265-.263,2.653-.056,5.251.466,7.9.575,9.145-.823,18.316-.084,27.457-.331,7.04-.575,14.092.006,21.143-.2,6.837-.4,13.661-.1,20.5-.565a80.267,80.267,0,0,0,14.4.188c5.644.471,11.27-.216,16.9-.524,9.108.468,18.22-.009,27.341.1a105.984,105.984,0,0,1,13.169-.49c2.435.028,4.877-.272,7.3-.267a.976.976,0,0,1,.668,1.237,1.535,1.535,0,0,1-1.334,1.258c-4.277-.548-8.557.1-12.849.121-5.4-.158-10.778.358-16.167.258-5.745-1.008-11.365.171-17.051.9-5.233.119-10.331-1.708-15.569-.958-7.186,1.194-14.514.083-21.71.047-3.9,0-7.586,1.269-11.469,1.18-2.924-.336-5.83-.857-8.766-1.117-4.228-.3-8.321,1.284-12.531,1.312a62.569,62.569,0,0,1-6.7-.667c-4.085-.269-8.167.123-12.257.063-5.532.738-11.019-.4-16.517-.406-5.436.356-11.367,1.935-16.529-.427" transform="translate(-129.054 -133.802)" fill="#231f20"/>
        <path id="패스_464" data-name="패스 464" d="M667.133,338.181a.87.87,0,0,1-.209-.826c.369-2.375.583-4.784.777-7.179a89.429,89.429,0,0,1-.436-11.737c.892-9.122,1.614-18.255,2.1-27.4a62.174,62.174,0,0,0,.411-16.164c-.617-8.5,1.132-16.968,1.247-25.451-.254-3.742-1.081-7.423-1.278-11.179.044-8.014.055-16.072.8-24.054-.019-.374.038-.521-.136-.794a18.618,18.618,0,0,0-3.447.026c.474.123.182.874-.227.692a10.518,10.518,0,0,0-1.066-.611c-.528.093-.637-.585-.352-.894,1.4-1.058,3.5-.406,5.156-.6,2.354-.1,1.869,6.521,1.969,8.216a69.907,69.907,0,0,0,.142,14.432c-.26,9.59.218,19.047.39,28.613-.354,7.048-.935,14.079-1.383,21.12-.2,5.342,1.043,10.718.371,16.04-1.692,5.728-1.286,11.653-1.833,17.536-.09,6.351-1.126,12.668-1.5,18.946.181.774-.736,1.839-1.495,1.271" transform="translate(-414.544 -132.114)" fill="#231f20"/>
        <path id="패스_465" data-name="패스 465" d="M475.994,289.877a1.8,1.8,0,0,1,1.8-1.337,6.779,6.779,0,0,0,1.168.068c2.444-.343,4.827-1.163,7.314-1.128,2.056.023,4.047.909,6.04,1.188,6.489.51,12.965-.207,19.448-.124,4.763.095,9.358,1.931,14.149,1.5l0,0,0,0h0c1.791-5.1,1.752-10.559,3.227-15.717,1.314-4.609,1.15-9.243,2.3-13.844,1.136-3.959.9-8.09,1.472-12.13,1.237-5.719,1.264-11.5,1.417-17.319.362-4.258,1.826-8.413,2.146-12.66-.385-7.976.482-15.931-.18-23.9-.17-4.624-.232-9.259-.453-13.879-.081-3.371.833-6.637.821-10a33.773,33.773,0,0,0-2.347-11.729c-5.291-.246-10.16-2.141-15.417-2.552-4.831-.3-9.571-.827-14.4-1.069a53.857,53.857,0,0,1-10.477-1.759c-4.19-.851-8.283-.894-12.477-1.353a139.114,139.114,0,0,0-16.98-.946c-3.351-.136-6.57-1.186-9.884-1.564-5.115-.276-10.231.869-15.342.306-5.987-1.009-12.026-.407-18.057-.573-8.7-.557-17.262,1.857-25.986,1.295-2.862-.08-5.68-.772-8.552-.66a54.751,54.751,0,0,0-8.628,1.766c-5.061,1-10.336,1.013-15.2,2.893a57.346,57.346,0,0,0-1.7,7.017c-.426,3.059.386,6.251-.831,9.146.471.187-.027.766-.349.73-.55.041-.376-.752-.335-1,.764-5.856-1.076-11.87.782-17.59,1.235-1.855,3.9-1.562,5.852-1.928,6.919-1.395,13.851-3.211,20.987-2.558,5.362.265,10.7-.431,16.039-.734,4.435-.1,8.886.473,13.317.081,3.293-.413,6.557-1.041,9.877-1.249,3.416-.336,6.855.394,10.23.7,6.355.091,12.685.639,18.984,1,10,.407,20.112.405,30.009,1.874,2.22.3,4.328,1.137,6.5,1.581,3.35.691,6.8.37,10.184.751,9.321.865,18.731,2.428,28.024,2.919a27.914,27.914,0,0,1,5.072.658,1.4,1.4,0,0,1,.909,1.248c.345,5.978,2.116,11.768,2.374,17.753.172,4.388-1.1,8.744-1.03,13.121a156.212,156.212,0,0,1-.142,30.883,83.138,83.138,0,0,1-1.939,20.142c-1.315,6.539-1.024,13.4-2.39,19.882-1.723,10.714-3.091,21.566-6.387,31.885a1.414,1.414,0,0,1-1.236.7c-1.546.221-3.071.571-4.63.68-5.226.851-10.289-1.532-15.513-1.4a64.033,64.033,0,0,0-13.9.483c-2.474.285-4.948-.33-7.428-.052-2.309.167-4.571.947-6.865.359a4.879,4.879,0,0,1-.847-.138,1.36,1.36,0,0,1-.542-1.709" transform="translate(-224.128 -91.281)" fill="#231f20"/>
        <path id="패스_466" data-name="패스 466" d="M218.171,251.575c-1.546-2.319,6.6-.912,7.611-.911,2.972.208,5.945-.409,8.9-.57,6.763-.61,13.5-1.3,20.208-2.36,3.123-.377,6.3.082,9.425-.3,4.536-.743,9.1-.219,13.617-.157,4.459-.55,8.878-1.366,13.4-1.165a97.442,97.442,0,0,1,15.841.258,99.569,99.569,0,0,1,18.667.589c4.028.438,8.08-.641,12.106-.105a70.855,70.855,0,0,0,8.9.771c5.578.179,11.1-.833,16.661-.882,3.345.2,6.684-.286,10.026-.414a90.853,90.853,0,0,0,11.183-.222,32.2,32.2,0,0,0,4.661-.368.518.518,0,0,1,.576.613.92.92,0,0,1-.694.825c-1.294.168-2.526.627-3.827.737-6.8.463-13.629.2-20.441.5-3.282.321-6.492,1.646-9.832,1.221-6.037-1.138-12.079-.6-18.162-.323-7.745-.763-15.542-1.122-23.321-1.229-3.775-.041-7.471-1.059-11.234-.5-4.023.414-8.051.217-12.082.253a113.276,113.276,0,0,1-13.41.508c-9.461.868-18.984,1.431-28.477,1.445-4.337.51-8.474,2.2-12.893,2.109-5.066-.242-10.1,0-15.144.226a.5.5,0,0,1-.442.09,18.681,18.681,0,0,0-1.818-.629" transform="translate(-135.849 -153.146)" fill="#231f20"/>
        <path id="패스_467" data-name="패스 467" d="M362.3,185.42c-.17-.8.637-.869,1.248-.712,5.29.9,10.512-.875,15.776-.959,7.387-1.163,14.827-1.118,22.287-1.027,7.918-.316,15.835.122,23.738-.478,6.741.791,13.538.094,20.226,1.349,6.385.693,12.817-.511,19.195.721,6.366.492,12.675,1.627,19.04,1.935,6.813-.506,13.527.6,20.3,1.17,5.531.605,11.071.309,16.594.222,4.973.534,9.876,1.737,14.876,2.047a29.249,29.249,0,0,0,2.969.106c.463-.007.646.467.567.861a1.027,1.027,0,0,1-.985.864,35.268,35.268,0,0,0-4.366-.131c-7.956-.123-15.937.333-23.763-1.5-3.856-.731-7.808-.031-11.667-.755-4.626-.788-9.378-.269-13.975-1.275-5.954-1.321-12.115.2-18.058-1.334-5.6-.867-11.458-.523-17.042-1.449-8.754-.335-17.546-.079-26.281-.728-5.934-1.188-11.847.255-17.8.411-3.724.2-7.379-1.055-11.086-.847-2.686.174-5.213,1.061-7.888,1.267-2.35.257-4.734-.066-7.078.193-4.637.927-9.333.562-14.024.685-.918-.173-2.1.03-2.806-.634" transform="translate(-225.779 -113.579)" fill="#231f20"/>
        <path id="패스_468" data-name="패스 468" d="M662.453,252.154c-.329-1.85,2.669-2.215,3.989-2.451.7-.027,2.175-.524,1.986.666a.959.959,0,0,1-.844.795,11.278,11.278,0,0,0-4.571.666c.041.28-.37.624-.56.323" transform="translate(-412.842 -155.543)" fill="#231f20"/>
        <path id="패스_469" data-name="패스 469" d="M231.882,235.92a2.932,2.932,0,0,1-1.046-3.608c.762-1.406,3.956-4.727,5.118-2.221.246-.486.9-.935,1.428-.622,1.118.769.693,2.27.3,3.324-.757,2.327-3.338,4.828-5.8,3.128m1.937-1.692c1.35.331,2.42-1.43,2.441-2.613l-.01-.01c-.465.939-1.15-.188-1.754-.241a.365.365,0,0,0,.059-.02,4.348,4.348,0,0,0-1.9,1.692,1.387,1.387,0,0,0,1.169,1.191" transform="translate(-143.702 -142.832)" fill="#231f20"/>
        <path id="패스_470" data-name="패스 470" d="M265.408,231.44c-2.5-2.566,1.11-6.011,3.756-6.507,1.125-.28,3.151-.228,3.027,1.366,1.009,1.163.423,3.011-.317,4.163a4.217,4.217,0,0,1-6.467.978" transform="translate(-164.884 -140.103)" fill="#231f20"/>
        <path id="패스_471" data-name="패스 471" d="M240.97,231.117c-1.844-1.519.768-4.456,2.677-3.411,1.079.619.833,2.253,0,2.992a4.085,4.085,0,0,1-2.678.419" transform="translate(-149.787 -141.775)" fill="#231f20"/>
        <path id="패스_472" data-name="패스 472" d="M378.573,174.176c-2.444-1.747.372-4.779,2.23-5.727.68-.394,2.04-.815,2.217.3.74-.675,1.426.372,1.776.961,1.35,2.654-4.044,6.033-6.223,4.464m1.5-1.813A3.757,3.757,0,0,0,383.54,171c-.294-.577-1.105-.811-.939-1.539a4.689,4.689,0,0,0-3.1,2.34c.006-.014.011-.028.015-.042a.36.36,0,0,0,.035-.1c-.244.371.219.6.522.706" transform="translate(-235.343 -104.723)" fill="#231f20"/>
        <path id="패스_473" data-name="패스 473" d="M411.759,168.148c-3.62-2.176.583-7.365,3.883-5.984,4.562,1.719-.4,7.748-3.883,5.984" transform="translate(-255.751 -100.921)" fill="#231f20"/>
        <path id="패스_474" data-name="패스 474" d="M253.147,324.295a.948.948,0,0,1,.943-1.043c3.1-.342,6.227-.281,9.342-.476,10.956-2.657,22.146-1.056,33.27-1.6.829.084.4,1.4-.283,1.372a36.352,36.352,0,0,0-6.187.5,27.607,27.607,0,0,1-12.182-.015c-7.565.617-15.141,1.041-22.726,1.547-.469.468-1.154.1-1.72.116l.006-.008a.452.452,0,0,1-.462-.4" transform="translate(-157.761 -200.165)" fill="#231f20"/>
        <path id="패스_475" data-name="패스 475" d="M247.014,377.03c-1.878-6.03-.005-12.376-.685-18.543-.91-4.758-.344-9.489.339-14.224-.225-4.032-.55-8.118.485-12.082.472-2.108,1.068-4.184,1.523-6.3.089-.55.549-1.545,1.244-1.168a2.541,2.541,0,0,0,1.032.836c.308.189-.06.8-.368.608a4.781,4.781,0,0,0-.842-.467,19.564,19.564,0,0,0-1,6.406c-.293,5.6.071,10.882-.075,16.4-.1,4.672-.628,9.225-.989,13.831.138,2.625.361,5.2.272,7.832.245,1.545.568,3.065.667,4.628.063.441.156,1.019.562,1.261,5.734.734,11.411-.914,17.094-1.3,4.486-.882,9.109-.338,13.583-.416a61.745,61.745,0,0,0,8.021-.956c2.313-.285,4.755.255,7.039-.184.093-1.738-.49-3.28-.737-4.96-.235-3.484.055-6.822.131-10.268a176.548,176.548,0,0,1,.987-20.846c-.276-4.075-1.742-8.126-1.079-12.215a3.718,3.718,0,0,0-1.061-.138c-1.272-.145-.606-2.109.43-2.086a3.54,3.54,0,0,1,2.571.7c.592,2.865.31,6.025.334,8.989-.01,5.846.234,11.7.044,17.536A67.921,67.921,0,0,0,296.061,362c-.037,3.358-.5,6.673-.085,10.03.1,1,.09,2.256-1.084,2.568-2.773.844-5.723.886-8.523,1.63-4.178,1.024-8.531.362-12.776.748a54.325,54.325,0,0,1-12.842-.061,45.106,45.106,0,0,0-7.329.963c-2.056.192-5.242,1.525-6.409-.85" transform="translate(-153.224 -201.104)" fill="#231f20"/>
        <path id="패스_476" data-name="패스 476" d="M487.755,360.728c-6.037-2.65-6.655-11.165-2.624-15.835,1.887-2.006,3.979-4.37,6.982-4.189,3.549-1.338,6.99,2.5,8.994,5.04,3.7,4.1,1.821,10.608-2.209,13.782-3.206,1.859-7.67,2.862-11.143,1.2m2.851-2.03c4.949,1.576,10.071-3.063,10.127-8.02a8.608,8.608,0,0,0-5.755-7.662,9.42,9.42,0,0,0-2.614-.184.759.759,0,0,1-.771-.614c-2.149.159-3.8,1.908-5.284,3.3-3.875,4.346-.351,11.02,4.3,13.18" transform="translate(-300.749 -212.164)" fill="#231f20"/>
        <path id="패스_477" data-name="패스 477" d="M470.086,356.605c-5.883-2.783-8.909-8.341-7.555-14.76.4-6.629,5.788-12.328,11.915-14.387,1.19-1.4,3.334-1.152,4.989-1.473,5.759-.582,11.212,2.6,14.73,6.994,2.7,2.984,3.178,7.494,2.452,11.221-1.568,13.268-15.354,18.936-26.53,12.4m6.488-1.9c13.783,3.09,24.525-16.575,9.608-23.223a21.107,21.107,0,0,0-8.251-1.35c-1.174-.043-2.763.924-3.672-.082-6.3,2.4-9.193,7.167-7.983,13.817,1.012,4.972,5.541,9.331,10.3,10.838" transform="translate(-288.062 -203.12)" fill="#231f20"/>
        <path id="패스_478" data-name="패스 478" d="M481.958,339.429c-1.2-1.357-3.413-3.724-1.8-5.484.889-.995,2.254-.236,3.4-.367.818-.371,1.982-1.186,2.84-.612,1.485-.271,3.368-1.467,4.776-1.245a1.4,1.4,0,0,1,.731.116c2.869-.887,1.842,4.057.494,5.044-1.579.947-3.681.24-5.348,1.2-1.615.431-3.524,2.984-5.094,1.348" transform="translate(-298.893 -206.721)" fill="#231f20"/>
        <path id="패스_479" data-name="패스 479" d="M253.95,491.113c-.2-.664.48-1.514,1.181-1.226a86.477,86.477,0,0,0,13.1.255c6.264-.291,12.554.021,18.708-1.257,3.66-.237,7.392.119,11.036-.335a.642.642,0,0,1,.774.327c.275,1.653,2.414,6.843.324,7.548a.756.756,0,0,1-1-.741c0-2.022-.357-4.03-.3-6.056-6.417.874-12.753,2.11-19.252,2.12-4.32.921-8.518-.371-12.816-.219a60.322,60.322,0,0,1-10.22.285c-.5-.057-1.353-.076-1.534-.7" transform="translate(-158.246 -304.468)" fill="#231f20"/>
        <path id="패스_480" data-name="패스 480" d="M252.89,500.754c-.277-2.024-.365-4.113-.494-6.148.232-.924,1.216-.885,1.332.089.075.046.15.092.225.136.215.132.1.468-.094.594.216,1.358.417,2.721.578,4.088,3.646.235,7.232-.514,10.852-.575,4.891.587,9.76-.02,14.643-.07,3.811-.1,7.59.842,11.4.563,2.489.058,5.572-.711,6.994-.707.833.611.046,2.108-.911,1.983-2.1.13-4.257-.021-6.361.134-4.321.457-8.659,1.253-13.012.732-3.718-.677-7.451-.079-11.165-.034-4.239-.437-8.518-1.133-12.746-.287-.5.144-1.092.1-1.238-.5" transform="translate(-157.3 -307.835)" fill="#231f20"/>
        <path id="패스_481" data-name="패스 481" d="M587.455,335.947a3.907,3.907,0,0,1-.884-2.376,1.8,1.8,0,0,1,.465-1.875.719.719,0,0,1,.573-.608c3.411-.666,6.936-.546,10.305-1.249,2.85-.735,5.833-.466,8.661-1.06.933-.159,1.87-.218,2.8-.356a.775.775,0,0,1,.77.636,18.15,18.15,0,0,1,.164,3.508c.075.574-.262,1.354-.937,1.284-3.416-.3-6.657,1.372-10.1,1.316-3.781.744-7.7-.125-11.311.977a.644.644,0,0,1-.508-.2m.906-.785c3.522-.606,7.04-1.325,10.588-1.763a68.661,68.661,0,0,0,10.029-.652c-.039-.279-.077-.558-.107-.822-.084-.595-.14-1.2-.247-1.79a70.864,70.864,0,0,0-8.473.833,77.789,77.789,0,0,0-11.894,1.174,12.646,12.646,0,0,0,.1,3.018" transform="translate(-365.526 -204.68)" fill="#231f20"/>
        <path id="패스_482" data-name="패스 482" d="M588.249,364.285c-.706-.906-.473-2.7-.558-3.858-1.075-2.028,7.147-1.523,8.39-1.831,1.9-.012,13.241-2.206,13.149.129.342,2.261,1.526,6.753-2.363,5.626-6.168-.881-12.516,1.389-18.618-.066m.984-.7c2.445.451,4.838-.414,7.285-.414a50.888,50.888,0,0,0,11.611-.331,20.772,20.772,0,0,0-.038-3.466c-4.032.862-8.11.192-12.172.428-2.3.29-4.695.443-7,.547.02,1.011-.187,2.03-.1,3.037a2.173,2.173,0,0,0,.413.2" transform="translate(-366.204 -222.897)" fill="#231f20"/>
        <path id="패스_483" data-name="패스 483" d="M587.844,390.931c-.338-.44-.177-1.193-.162-1.638-.056-1.269-.62-3.1,1.2-3.363a.736.736,0,0,1,.445-.7c3.707-.122,7.45-.3,11.153-.7,2.205-.237,4.5.33,6.661-.166.781-.193.864.905.364,1.3-.065,4.935-.165,4.476-4.908,4.7a89.469,89.469,0,0,0-12.764.753c-.644-.066-1.494.324-1.986-.187m1.943-3.9c-.041.612-.11,1.22-.156,1.83-.014.175-.034.349-.056.522,3.071-.259,6.119.148,9.171.124,2.461-.15,4.862-1.086,7.32-1.2.059-.492.109-.985.163-1.475.026-.237.043-.482.067-.725-1.9.475-3.81,0-5.685-.277-3.677-.3-7.269.81-10.956.52a1.264,1.264,0,0,1,.132.678" transform="translate(-366.18 -239.534)" fill="#231f20"/>
        <path id="패스_484" data-name="패스 484" d="M574.316,464.879c-.441-1.2-.147-2.633-.172-3.906-.076-.817.366-2.2,1.413-1.849,5.369-.166,10.817-.261,16.211-.217.626.1,1.393-.085,1.808.413.6.981.2,2.25.13,3.33a2.542,2.542,0,0,1-1.1,2.29c-3.568.431-7.434,1.012-11,.474-2.391-.313-4.987-.086-7.283-.534m1.434-3.206c-.135.794-.335,1.578-.468,2.374a24.769,24.769,0,0,0,6.265-.4c3.4-.456,6.88.336,10.243-.343.025-.238.051-.479.073-.722q.084-.779.12-1.565c-5.033-.788-10.053-.383-15.105-.369-.272.555-.667.125-.975-.121-.038.382-.086.762-.153,1.143" transform="translate(-357.776 -285.996)" fill="#231f20"/>
        <path id="패스_485" data-name="패스 485" d="M572.82,490.46a1.944,1.944,0,0,1-.135-.892c.05-.88-.385-1.868.109-2.66-.7-1.968,2.023-1.623,3.216-1.653,4.586-.225,9.156-.575,13.7-.817.577-.014,1.189-.018,1.408.568a7.119,7.119,0,0,1,.288,3.527,1.414,1.414,0,0,1-1.466.762c-4.45.355-8.747,1.182-13.227,1.024-1.261-.025-2.521.184-3.732.269a.375.375,0,0,1-.162-.127m1.408-3.336a9.267,9.267,0,0,1-.364,2.491c2.673-.034,5.2-.819,7.813-1.232,2.713-.491,5.5-.04,8.19-.743a14.725,14.725,0,0,1-.128-1.7c-2.127.471-4.342.035-6.495.275a32.771,32.771,0,0,1-9.183.445.744.744,0,0,1,.167.461" transform="translate(-356.831 -301.912)" fill="#231f20"/>
        <path id="패스_486" data-name="패스 486" d="M572.938,515.539c-.128-1.173-.376-3.085.149-4.133-.84-2.265,5.837-1.219,7.194-1.608,2.655-.214,5.306.146,7.959-.1,1.063.105,2.253-.318,3.249.021.482.487.15,1.287.2,1.883-.107,1.184.385,3.3-1.36,3.348-5.181.317-10.319.943-15.522.534a7.365,7.365,0,0,0-.916.152c-.3.214-.772.312-.954-.1m1.582-3.59c-.144.911-.343,1.806-.494,2.709,2.839-.427,5.661-.891,8.512-1.212a40.594,40.594,0,0,0,7.491-.163,7.867,7.867,0,0,1,.13-2.2c-5.236.079-10.4.936-15.632.485a1.275,1.275,0,0,1-.007.382" transform="translate(-356.963 -317.589)" fill="#231f20"/>
        <path id="패스_487" data-name="패스 487" d="M692.8,358.9c.219-6.488.288-13.161,1.124-19.543.408-1.581-.241-6.813,1.986-6.662,1.472.678,3.085.513,4.643.594.447.16.371.695.283,1.054-.075,2.281-.032,4.722.02,6.97.563,4.547-.793,9.073-.968,13.553-.168,1.689,1.3,5.435-1.334,5.551a10.4,10.4,0,0,0-4.328-.009c-1.2.263-1.477-.423-1.426-1.508m1.77-2.216c-.084.641-.17,1.285-.248,1.924a9.035,9.035,0,0,1,3.718-.73c.193-4.375.613-8.716.773-13.093.336-3.422,1.072-6.565,1.023-9.974a8.7,8.7,0,0,1-3.234.569,196.649,196.649,0,0,1-2.031,21.3" transform="translate(-431.765 -207.343)" fill="#231f20"/>
        <path id="패스_488" data-name="패스 488" d="M723.534,346.144a14.457,14.457,0,0,1,3.8-.288c1.341-5.165,1.39-10.39,1.927-15.642.425-4.608,1.594-9.058,1.953-13.62-1.532.778-3.051.489-4.637.217-.232,3.721-1.081,7.424-1.111,11.148.235,6.153-.908,12.157-1.929,18.186m5.4.567c-.273,1.825-2.313,1.688-3.733,1.69-1.074-.069-2.818.535-3.357-.71-.585-10.544,2.412-20.778,3.675-31.165-1.21-.854-.375-3.173,1.06-3.2a4.8,4.8,0,0,1,2.111.938,6.072,6.072,0,0,0,1.962.621c1.309-.1,2.023.423,1.518,1.779-.546,5.8-.612,11.653-1.764,17.366-.682,4.231-1.648,8.4-1.471,12.681" transform="translate(-449.826 -195.273)" fill="#231f20"/>
        <path id="패스_489" data-name="패스 489" d="M700.332,446.784c-.745-.55-.315-1.8.468-2.089,2.473-.648,5.138-.415,7.684-.606,2.7.092,5.4.035,8.094.031,3.277.146,6.508.691,9.785.251a.8.8,0,0,1,.7.909c-.035,2.25-5.507,1.088-7.1,1.215-6.5.166-13.187,1.426-19.634.289" transform="translate(-436.224 -276.768)" fill="#231f20"/>
        <path id="패스_490" data-name="패스 490" d="M703.115,464.747a1.225,1.225,0,0,1-.388-1.676,1.448,1.448,0,0,1,.847-.781,34.088,34.088,0,0,1,4.795-.3c6.374-.841,12.7,1.122,19.056.349.542-.083.851.417.83.906-.195,2.009-2.755.983-4.089,1.094-7.009-.171-14.088.922-21.051.406" transform="translate(-437.855 -287.792)" fill="#231f20"/>
        <path id="패스_491" data-name="패스 491" d="M701.475,485.2a.987.987,0,0,1-.526-1.084c.478-1.882,3.009-1.047,4.442-1.287,6.217-.857,12.581.711,18.726.558,1.911-.4,1.374,2.944-.272,2.693-4.311-.016-8.573.054-12.868-.341-3.156-.128-6.46.584-9.5-.538" transform="translate(-436.838 -300.751)" fill="#231f20"/>
        <path id="패스_492" data-name="패스 492" d="M693.931,272.329c-.911-1.4-2.467-1.932-3.76-2.823-1.056-1.012.428-3.5,1.709-2.373,3.672-2.241,7.051-5.027,10.543-7.512,1.971-.573,3.621,1.731,4.791,3.035,3.579-2.6,6.581-5.823,10.373-8.107-.217-.894-1.514-2.662.052-2.875,2.752-.089,5.394-1.416,8.121-1.611.614.034,1.446-.381,1.822.266a4.491,4.491,0,0,1-.02,2.3c-.384,2.464-.618,4.947-1.058,7.4-.729,2.279-3-.863-3.775-1.689-3.283,5.005-8.763,7.93-13.016,12-2.337,1.971-4.288-1.925-6-3.1a31.884,31.884,0,0,0-6.935,4.919,1.659,1.659,0,0,1-2.855.165l.011.011m1.905-.908c2.393-2.242,5.251-3.884,7.587-6.185,1.916-1.336,4.118,2.658,5.637,3.508a63.491,63.491,0,0,0,6.193-5.909c2.31-2.078,4.941-3.757,7.048-6.068.3-.355.881-.5,1.085.026a6.391,6.391,0,0,0,1.9,2.157,65.378,65.378,0,0,1,.766-7.269c-2.531.194-5.048.752-7.593.974.53.988,1.511,2.349.224,3.192-2.527,1.866-7.031,5.123-8.9,6.928-3.941,4.8-4.217,1.158-7.281-1.78-3.314,2.258-6.083,5.272-9.711,7.063,1.385.74,2.123,2.252,3.041,3.364" transform="translate(-429.909 -155.783)" fill="#231f20"/>
        <path id="패스_493" data-name="패스 493" d="M450.046,161.078c3.84,2.891-3.286,8.616-6.042,5.422-2.151-3.343,3.054-7.026,6.042-5.422" transform="translate(-276.399 -100.146)" fill="#231f20"/>
        <path id="패스_494" data-name="패스 494" d="M308.7,222.791c2.576,3.195-1.86,8.688-5.575,7.254a3.234,3.234,0,0,1-.3-5.678c1.422-1.51,3.946-3.2,5.88-1.577" transform="translate(-187.768 -138.438)" fill="#231f20"/>
        <path id="패스_495" data-name="패스 495" d="M488.127,454.72c2.088-3-.657-6.609-3.451-7.908-2.129-.951-4.456-.6-6.665-.521a7.549,7.549,0,0,0-3.635,2.915c-.7,3.81,2.224,8.024,5.722,9.341,2.055.658,4.074-.231,5.727-1.434a4.219,4.219,0,0,0,2.3-2.393m-9.829,7.546c7.568,1.743,15.614-3.377,15.115-11.119a2.528,2.528,0,0,1-2.3,1.836,8.236,8.236,0,0,1-5.32,6.734c-3.192,1.445-7.394,2.3-10.212-.366-2.887-2.534-3.557-6.981-2.277-10.475a10.3,10.3,0,0,1,4.249-3.808c.384-1.308,1.9-1.051,2.963-1.034a13.382,13.382,0,0,1,3,.615,2.852,2.852,0,0,1,1.55-1.561,1.818,1.818,0,0,1,.144-.511,19.255,19.255,0,0,0-10.531.375c-6.925,6.555-5.525,16.016,3.619,19.315m16.733-16.36A18.072,18.072,0,0,1,491,463.3c-4.622,4.713-12.908,6.528-17.911,1.419-7.809-7.233-9.191-16.137-.178-23.05-.128-2.41,2.68-3.056,4.5-3.637,6.612-2.422,15.121,1.223,17.617,7.876" transform="translate(-290.849 -272.523)" fill="#231f20"/>
        <path id="패스_496" data-name="패스 496" d="M763.94,339.122c.177,1.9-1.407,3.091-3.18,3.139-1.141.024-2.3.017-3.428-.05a.922.922,0,0,1-.764-.622,66.762,66.762,0,0,1,2.212-19.6c.8-5.172,1.592-10.328,2.572-15.368.073-1.054.529-2.585,1.865-2.411,1.213.232,3.936-.065,3.563,1.846.712-.644,1.114.271.885.934-.184,2.848.431,5.585.061,8.388-.916,5.089-1.451,10.126-2.731,15.106a75.606,75.606,0,0,0-1.055,8.638" transform="translate(-471.5 -189.583)" fill="#231f20"/>
      </g>
    </g>
  </g>
</svg>
