<svg xmlns="http://www.w3.org/2000/svg" xmlns:xlink="http://www.w3.org/1999/xlink" width="315" height="180" viewBox="0 0 315 180">
  <defs>
    <clipPath id="clip-path">
      <rect id="사각형_246" data-name="사각형 246" width="315" height="180" rx="30" transform="translate(1029 6609)" fill="#ffcc7b"/>
    </clipPath>
    <clipPath id="clip-path-2">
      <rect id="사각형_245" data-name="사각형 245" width="198.943" height="248.311" fill="none"/>
    </clipPath>
  </defs>
  <g id="마스크_그룹_33" data-name="마스크 그룹 33" transform="translate(-1029 -6609)" clip-path="url(#clip-path)">
    <g id="그룹_179" data-name="그룹 179" transform="translate(1087.029 6574.844)">
      <g id="그룹_178" data-name="그룹 178" clip-path="url(#clip-path-2)">
        <path id="패스_246" data-name="패스 246" d="M227.191,57.265c.521-1.338,2.077-2.638,2.816-3.66C244.57,39.132,238.774,23.783,242.2,6.017c.371-1.67.438-3.605,1.54-4.984a1.325,1.325,0,0,1,.32-.766c.561-.49,1.248-.205,1.836.047,5.892,2.354,11.775,4.625,17.489,7.4,1.651,1.359,8.178,3.775,8.66,6.247a.753.753,0,0,1,.415,1.252c-.032.13-.055.264-.079.4,0-.043.012-.086.016-.13-.016.119-.032.237-.051.352,0-.008,0-.02.008-.031-.044,27.286,2.045,42.517-22.718,60.357-.071-.024-.138-.044-.2-.067a1.3,1.3,0,0,1-1.422.411c-5.852-2.334-10.855-6.48-15.021-11.139-1.28-1.256-9.355-6.682-5.8-8.1" transform="translate(-144.866 0)" fill="#fff"/>
        <path id="패스_247" data-name="패스 247" d="M246.16,4.084c-.024.064-.044.123-.067.178a56.7,56.7,0,0,0-.537,5.753c-.024.47-.04.944-.055,1.417-.339,11.574,1.552,23.551-3.846,34.106a41.464,41.464,0,0,1-4.687,7.633q-.616.811-1.256,1.6c-1.066,1.319-2.18,2.6-3.309,3.866-.4.509-.833,1.271-1.354,1.82a1.518,1.518,0,0,1-2.164.375,1.987,1.987,0,0,1-.411-2.235c.521-1.338,2.077-2.638,2.815-3.66,14.563-14.472,8.766-29.821,12.194-47.587.371-1.671.438-3.606,1.54-4.984.016-.027.039-.051.059-.078,1.315-.786,1.374.865,1.078,1.8" transform="translate(-146.148 -1.333)"/>
        <path id="패스_248" data-name="패스 248" d="M311.142,40.046c-.032.13-.055.264-.079.4,0-.043.012-.087.016-.13-.016.118-.031.237-.051.352,0-.008,0-.02.008-.032-.044,27.286,2.045,42.517-22.718,60.358-.071-.024-.139-.044-.2-.067-1.706-.608-1.666-1.647-.857-2.823a26.662,26.662,0,0,1,4.5-4.206,10.759,10.759,0,0,0,1.793-1.71c.079-.087.162-.174.241-.261A64.937,64.937,0,0,0,302.585,80.9c5.556-10.152,4.928-21.809,5.816-33.059.075-.912.154-1.824.253-2.729.123-1.177.272-2.342.454-3.5.1-.332.178-.738.284-1.141.2-.778.51-1.532,1.3-1.678a.087.087,0,0,1,.032,0,.753.753,0,0,1,.415,1.252" transform="translate(-183.547 -24.832)"/>
        <path id="패스_249" data-name="패스 249" d="M249.435,177.9a1.3,1.3,0,0,1-1.422.411c-5.852-2.334-10.855-6.48-15.021-11.139-1.279-1.256-9.355-6.681-5.8-8.1.032-.012.067-.028.1-.039.814.643,1.635,1.275,2.472,1.9q2.286,1.718,4.664,3.321c.253.174.5.344.754.51.395.359.79.719,1.181,1.082a63.981,63.981,0,0,0,6.3,5.346c.308.217.62.431.936.636.063.036.127.071.186.11,1.643.979,3.112,2.239,4.794,3.14.217.122.442.233.671.339a1.607,1.607,0,0,1,.186,2.484" transform="translate(-144.866 -101.807)"/>
        <path id="패스_250" data-name="패스 250" d="M302.894,15.005a1.39,1.39,0,0,1-1.149.632,1.16,1.16,0,0,1-.675-.237A43.882,43.882,0,0,0,296,12.3q-.669-.356-1.35-.7c-3.542-1.781-7.226-3.3-10.757-5.122a9.508,9.508,0,0,0-1.035-.478c-.517-.213-1.149-.454-1.828-.723a23.717,23.717,0,0,1-5.122-2.531c-.723-.549-1.173-1.126-1.137-1.718a1.323,1.323,0,0,1,.32-.766c.561-.489,1.248-.205,1.836.047,5.892,2.353,11.775,4.624,17.489,7.4,1.651,1.358,8.178,3.775,8.66,6.247a1.462,1.462,0,0,1-.186,1.042" transform="translate(-175.899 0)"/>
        <path id="패스_251" data-name="패스 251" d="M274.241,17.615c-.837.123-2.814-.855-1.309-1.478l0,0c3.237.408,5.675-2.113,7.436-4.435,4.491.2-3.642,6.768-6.124,5.917" transform="translate(-174.37 -7.489)"/>
        <path id="패스_252" data-name="패스 252" d="M335.565,42.053c-3.231-.209-5.574-3.206-6.329-6.159,0,.013.006.027.009.04-.013-.051-.026-.1-.038-.154l0,.009c-.025-.1-.049-.2-.073-.3.014.051.026.1.039.153-.4-1.507-.71-6.606,1.8-5.846.395.139.223.807-.175.789-.988,3.937,2,7.542,5.467,9a1.372,1.372,0,0,1-.7,2.467" transform="translate(-210.552 -19.027)"/>
        <path id="패스_253" data-name="패스 253" d="M247.813,154.94c-1.58-1.968,3.142-5.183-.918-12.363.679-3.192,3.217,1.567,3.483,2.777.745,2.273,1.3,10.578-2.565,9.587" transform="translate(-158.053 -90.579)"/>
        <path id="패스_254" data-name="패스 254" d="M270.24,188.2c.01-2.181,5.546-4.677,7.655-4.55,1.8-.193,7.332.522,6.43,3.144a1.188,1.188,0,0,1-1.4.662,10.026,10.026,0,0,0-11.637.69c-.3.2-.8.444-1.05.055" transform="translate(-172.998 -117.545)"/>
        <path id="패스_255" data-name="패스 255" d="M296.163,101.954c-2-1.949-1.575-5.22-.566-7.572l-.009.02.071-.167-.029.069c.77-2.013,2.824-3.937,5.086-2.966,1.154-1.367,3.171.295,4.106,1.229,4.844,5.789-2.24,14.454-8.658,9.386m5.154-1.579c2.317.05,3.207-3.165,2.6-5.006-.517-1.549-2.271-1.642-3.291-2.535-4.3-.372-5.152,8.716.692,7.542" transform="translate(-188.69 -58.139)"/>
        <path id="패스_256" data-name="패스 256" d="M.09,178.187c-.478-5.971.995-11.831,2.895-17.45,4.66-12.328,17.26-19.8,20.455-32.538a.9.9,0,0,1,.178-.762,24.285,24.285,0,0,0,.525-3.838,12.034,12.034,0,0,1,.5-2.8c-.79-3.175,17.13-1.674,19.12-1.512,3.329.8,7.882.45,10.318,3.041,2.594,8.032.912,16.573-2.215,24.206a.482.482,0,0,1-.028.067c-.04.095-.079.189-.118.28l-.036.083c-3.258,7.878-9.919,13.837-13.236,21.683-1.828,4.383-2.587,9.078-3.925,13.6-.272.64-.3,1.623-.537,2.4a1.982,1.982,0,0,1-2.444,2.425,156.889,156.889,0,0,1-15.815-3.092l.229.059c-3.143-1.2-15.092-3.052-15.866-5.856" transform="translate(0 -76.046)" fill="#fff"/>
        <path id="패스_257" data-name="패스 257" d="M31.544,188.977a156.81,156.81,0,0,1-15.815-3.092l.229.059c-3.143-1.2-15.093-3.052-15.866-5.856-.478-5.971.995-11.831,2.895-17.45,4.66-12.328,17.26-19.8,20.455-32.538.067-.253.126-.506.177-.762a24.29,24.29,0,0,0,.525-3.838,12.031,12.031,0,0,1,.5-2.8c.336-.9.869-1.394,1.726-.356.063.533.107,1.066.126,1.6a25.574,25.574,0,0,1-.185,4.213c-.107.892-.253,1.781-.427,2.665-.324,1.631-.742,3.242-1.2,4.8C18.757,149.47,8.3,154.761,4.526,168.862c-.173.636-.331,1.287-.474,1.963a44.868,44.868,0,0,0-.913,7.811c1.1.352,2.212.691,3.321,1.023q1.244.373,2.5.727c4.79,1.362,9.639,2.543,14.524,3.495.569.114,1.137.221,1.706.324.356.067.715.134,1.074.2,1.828.391,3.747.462,5.576.841a13.314,13.314,0,0,1,1.43.379,1.6,1.6,0,0,1,.719.932,1.983,1.983,0,0,1-2.444,2.425" transform="translate(0 -77.948)"/>
        <path id="패스_258" data-name="패스 258" d="M95.666,146.533a.46.46,0,0,1-.028.067c-.04.1-.079.19-.118.281l-.036.083c-3.258,7.878-9.919,13.837-13.236,21.683-1.828,4.383-2.587,9.078-3.925,13.6-.273.64-.3,1.623-.537,2.4a1.384,1.384,0,0,1-1.473,1.185c-.671.127-.829-.881-.675-2.5a41.8,41.8,0,0,1,1.05-5.481c.233-.948.49-1.915.754-2.867a72.2,72.2,0,0,1,2.8-8.506c6.2-11.495,15.4-21.28,15.764-34.327.024-.778.016-1.568-.032-2.373a30.714,30.714,0,0,0-.774-5.355c-1.781-.4-3.57-.723-5.37-.976-.486-.067-.968-.134-1.453-.193-3.739-.458-7.507-.667-11.278-.833-.059,0-.122,0-.182-.008a8.209,8.209,0,0,0-1.236-.13c-1.757-.075-3.755.194-5.386-.249a3.99,3.99,0,0,1-1.71-.908,1.136,1.136,0,0,1-.142-.336c-.79-3.175,17.13-1.674,19.12-1.512,3.329.8,7.881.45,10.318,3.041,2.594,8.032.912,16.573-2.215,24.206" transform="translate(-43.798 -76.046)"/>
        <path id="패스_259" data-name="패스 259" d="M11.967,265.765c-2.61-.775,2.742-8.581-4.183-12.116l.069.065c-1.2-1.62.838-2.015,2.019-1.061,3.651,1.159,6.052,12.385,2.095,13.113" transform="translate(-4.793 -161.411)"/>
        <path id="패스_260" data-name="패스 260" d="M64.9,283.1c-.157-4.122,6.381-7.9,10.157-8.132,2.723-.448,2.225,3.114-.225,2.818-6.431.236-8.895,6.924-9.932,5.314" transform="translate(-41.543 -175.999)"/>
        <path id="패스_261" data-name="패스 261" d="M75.115,123.956a5.386,5.386,0,0,1-.15,1.038c-.75,3.222-4.154,5.844-7.416,6.492a7.289,7.289,0,0,1-2.034.134,2.089,2.089,0,0,1-.411-.857.9.9,0,0,1,.178-.762c.462-.6,1.658-.892,2.693-1.181a6.26,6.26,0,0,0,1.311-.47c-.047.016-.095.036-.146.055a8.251,8.251,0,0,0,4.407-3.55,4.542,4.542,0,0,0,.494-1.682c.49-.948,1.181.114,1.074.782" transform="translate(-41.665 -78.61)"/>
        <path id="패스_262" data-name="패스 262" d="M131.445,136.377c-11.19-.8-7.5-14.235-5.97-10.283h0c-1.491,4.8,3.046,7.441,7.025,8.172a1.3,1.3,0,0,1-1.055,2.112" transform="translate(-79.158 -80.256)"/>
        <path id="패스_263" data-name="패스 263" d="M67.24,205.817c-8.718-1.435-1.525-17.381,5.557-10.886,1.343-.669,1.773,1.5,2.137,2.4.712,4.432-2.8,9.7-7.694,8.488m2.39-2.4c2.751-.132,4.79-3.972,3.254-6.259a.575.575,0,0,1-.629-.58c-1.114-1.436-3.941-1.324-5.192-.037-2.242,2.851-2.076,7.379,2.567,6.875" transform="translate(-40.478 -123.796)"/>
        <path id="패스_264" data-name="패스 264" d="M185.724,293.074c5.683,10.575,14.433,19.049,19.764,29.861.995,1.366,8.1,16.028,6.093,17.9a1.627,1.627,0,0,1-.253,2.1c-8.62,4.466-18.2,7.483-27.432,10.437h0a1.87,1.87,0,0,1-.194-.1,1.724,1.724,0,0,1-.774-.158c-5.019-8.044-8.435-17.237-13.845-25.162-5.655-9.9-13.841-19.057-16.084-30.473a1.336,1.336,0,0,1,.312-.944c.059-.051.118-.1.178-.15a13.467,13.467,0,0,1,3.665-2.006,28.575,28.575,0,0,0,4.127-1.86c-.051.027-.107.055-.158.079,5.939-3.357,12.442-5.71,18.287-9.074,2.811.77,4.513,7.116,6.334,9.58,0-.012-.012-.024-.016-.036" transform="translate(-97.942 -181.506)" fill="#fff"/>
        <path id="패스_265" data-name="패스 265" d="M183.7,375.91a1.72,1.72,0,0,1-.774-.158c-5.019-8.044-8.435-17.237-13.844-25.162-5.655-9.9-13.841-19.057-16.084-30.473a1.333,1.333,0,0,1,.312-.943c.059-.051.118-.1.178-.15a.9.9,0,0,1,.446-.139c.537-.035.92.636,1.236,1.489a20.861,20.861,0,0,0,1.13,3.1c.233.521.47,1.039.719,1.552.3.652.624,1.3.952,1.931,5.358,10.488,13,19.689,18.3,30.244.091.166.178.335.268.5.028.048.055.1.079.143.012.02.024.044.035.063s.032.063.051.095c.087.166.174.327.264.494,1.619,2.918,3.005,5.955,4.387,9,.178.395.356.786.537,1.177.644,1.417,1.3,2.831,1.974,4.233a2.453,2.453,0,0,1,.588,1.027c.272.912.095,1.927-.754,1.978" transform="translate(-97.942 -204.138)"/>
        <path id="패스_266" data-name="패스 266" d="M212.123,340.839c-.3.288-.821.276-1.6-.118a.221.221,0,0,0-.016-.047q-.859-2.861-1.935-5.639-.409-1.066-.853-2.121a104.016,104.016,0,0,0-11.037-19.669,111.8,111.8,0,0,1-13-18.338c-.454-.809-.9-1.631-1.323-2.456q-1.4-2.683-2.622-5.481a19.871,19.871,0,0,1-4.691,2.665c-.6.257-1.2.5-1.8.742A46.441,46.441,0,0,0,168.2,292.6c-.723.217-2.906,1.366-5.363,2.527-.533.253-1.086.505-1.635.75a22.451,22.451,0,0,1-5.489,1.868c-1.209.15-1.963-.15-1.86-1.2.059-.051.118-.1.178-.15a13.454,13.454,0,0,1,3.664-2.006,28.563,28.563,0,0,0,4.127-1.86c-.051.028-.107.055-.158.079,5.939-3.357,12.443-5.71,18.287-9.075,2.812.77,4.514,7.116,6.334,9.58,0-.012-.012-.024-.016-.036,5.682,10.575,14.433,19.049,19.764,29.861,1,1.366,8.1,16.028,6.093,17.9" transform="translate(-98.483 -181.506)"/>
        <path id="패스_267" data-name="패스 267" d="M265.207,443.992c-8.62,4.466-18.2,7.483-27.432,10.437h0a1.753,1.753,0,0,1-.193-.1.7.7,0,0,1-.419-.588c0-.4.434-.873,1.173-1.39a27.126,27.126,0,0,1,4.277-2.235c.6-.269,1.236-.537,1.88-.806,4.9-2.018,10.587-3.921,11.424-4.447.312-.11.624-.217.936-.328.466-.158.936-.32,1.4-.481a38.571,38.571,0,0,0,5.6-2.33c.209-.11.415-.225.62-.344a1.111,1.111,0,0,1,.995.51,1.627,1.627,0,0,1-.253,2.1" transform="translate(-151.82 -282.553)"/>
        <path id="패스_268" data-name="패스 268" d="M239.186,459.243c-.623-.14-.857-.853-1.118-1.368-1.286-2.642-4.616-2.935-7.21-3.164a.518.518,0,0,1-.884-.357c.588-1.848,3.765-.621,5.235-.657,1.916-.223,7.528,4.871,3.977,5.546" transform="translate(-147.221 -290.206)"/>
        <path id="패스_269" data-name="패스 269" d="M291.6,431.088c-3.935-5.228,6.967-16.431,5.526-9.886-2.787,1.922-5.189,5.052-4.745,8.621,1.428.178.171,2.167-.781,1.264" transform="translate(-186.118 -268.361)"/>
        <path id="패스_270" data-name="패스 270" d="M227.278,375.662c-5.137-.114-6.018-9.477-1.26-10.894.214-1,1.37-.9,2.163-1.028l-.063.009c8.079-.226,7.061,12.287-.84,11.913m.557-2.412c3.507-.218,5.826-4.778,2.442-6.9l0,0c-1.227-1.3-3.1.883-4.119-.542-2.813,1.518-2.021,8.036,1.673,7.443" transform="translate(-142.689 -232.853)"/>
        <path id="패스_271" data-name="패스 271" d="M162.927,322.976c-2.582-1.334,1.822-3.006,2.191-4.581,1.377-1.731,1.155-4.01,1.812-5.934,2.94-1.383-.277,8.138-1.585,8.825l.014-.018c-.637.731-1.352,1.76-2.431,1.708" transform="translate(-103.783 -199.938)"/>
        <path id="패스_272" data-name="패스 272" d="M213.9,302.908c-2.129.1-9.567-4.975-7.271-7.024v0c.473-.094.794.364,1.06.691a11.153,11.153,0,0,0,4.472,3.273l-.145-.055a10.474,10.474,0,0,0,4.859.524,1.273,1.273,0,0,1,1.032,1.253c-.006,2.013-2.676,1.417-4.006,1.34" transform="translate(-131.997 -189.405)"/>
        <path id="패스_273" data-name="패스 273" d="M194.882,439.746c-6.6-1.876-13.28-3.463-19.965-5.011-12.707-3.151-25.513-6.362-38.544-7.787-.135-.016-.269-.028-.4-.043-.632-2.824-1.406-5.615-2.03-8.439.032-.087.055-.174.083-.269-.016.051-.028.107-.04.158a3.276,3.276,0,0,0,.146-.7c.261-3.293-6.054-3.542-8.387-4.774-5.3-1.485-10.532-3.163-15.871-4.494-19.523-5.216-39.382-9.035-59.291-12.431-.217-.036-.438-.067-.656-.1-.126-.016-.249-.036-.375-.055h-.008c-6.982-1.117-14.018-1.737-21.059-2.365-5.5-.268-11.223-1.564-16.664-.525.083-.035.17-.063.253-.1-1.883.312-4.6,2.271-3.238,4.348,3.277,17.766,8.679,35.16,14.753,52.164,2.085,5.438,4.166,10.855,6.437,16.218,1.244,1.927,2.081,7.9,4.624,7.878,13.09,5.39,27.038,8.281,40.724,11.759,19.452,5.24,39.133,9.382,59,12.711h.008c.012,0,.027,0,.039,0,.083.016.166.028.245.04,4.138.774,8.269,1.647,12.506,1.583,4.332.462,7.3-1.421,9.979-4.652,4.336-3.416,8.458-7.12,12.439-10.954l.47-.458s0,0,.008-.008c11.535-11.684,23.077-23.479,33.407-36.25,3.767-5.007-5.378-6.251-8.585-7.444" transform="translate(-5.419 -251.27)"/>
        <path id="패스_274" data-name="패스 274" d="M356.4,472.8a2.116,2.116,0,0,1-.178.553,1.843,1.843,0,0,1-.861.845,1.261,1.261,0,0,1-1.572-.857c-1.173-3.578-.817-7.4-1.753-11.029-.115-.936-.991-2.136-.146-2.926a.945.945,0,0,1,1.386.181,8.307,8.307,0,0,1,.47.754,15.826,15.826,0,0,1,1.667,5.864,10.117,10.117,0,0,0,.576,3.431,7.8,7.8,0,0,1,.411,3.183" transform="translate(-225.033 -293.937)"/>
        <path id="패스_275" data-name="패스 275" d="M379.145,556.3c-5.14-18.56-8.347-37.646-13.763-56.138-.361-1.165-1.016-2.359-.8-3.608.768-1.725,1.992.065,2.221,1.147l-.012-.026a68.59,68.59,0,0,1,3.536,10.3l-.022-.075c2.859,10.484,4.88,21.178,7.476,31.728,1.4,5.192,2.066,10.547,3.438,15.741.357,1.248-1.488,2.348-2.073.929" transform="translate(-233.364 -317.417)" fill="#fff"/>
        <path id="패스_276" data-name="패스 276" d="M419.155,578.024c-2.263-1.292,1.748-4.111,2.607-5.349,1.942-2.2,3.72-4.544,5.809-6.615l-.017.02c.154-.169.308-.335.461-.5l-.015.016a356.725,356.725,0,0,1,33.027-33.629c1.2-.9,2.448.827,1.642,1.9a11.743,11.743,0,0,1-1.94,1.687l.132-.113-.322.272.133-.111c-.789.677-1.57,1.362-2.379,2.018l.07-.059-.318.267.028-.023c-6.389,5.194-12.039,11.183-17.836,17l.018-.019c-1.705,1.9-3.561,3.662-5.3,5.538.031-.034.062-.066.091-.1q-3.044,3.3-5.983,6.685l.088-.094c-.176.2-.373.4-.556.6l.008-.008c-.526.571-1.068,1.129-1.6,1.7l.086-.1c-2.263,2.71-4.642,5.315-6.947,7.984.134.562-.4,1.239-1,1.027" transform="translate(-267.89 -340.383)" fill="#fff"/>
        <path id="패스_277" data-name="패스 277" d="M436.2,646.114a4.783,4.783,0,0,1,1.84-2.407c2.112.252.294,2.209-.689,2.757.026-.02.051-.042.077-.063-.4.5-1.327.542-1.228-.287" transform="translate(-279.233 -412.078)" fill="#fff"/>
        <path id="패스_278" data-name="패스 278" d="M451.5,629.561c-.776-1.023,2.9-4.668,3.736-3.2,1.284,1.149-3.06,4.672-3.736,3.2" transform="translate(-288.964 -400.753)" fill="#fff"/>
        <path id="패스_279" data-name="패스 279" d="M387.339,517.28c-1.438-.165-2.79-.728-4.2-1.034h.007l-.157-.034.076.017a18.8,18.8,0,0,1-7.759-3.138c-.913-1.638,1.252-1.6,2.2-.948l-.12-.046c3.328,1.414,7.038,1.529,10.284,3.175A35.907,35.907,0,0,0,391,511.919l-.02.021c.281-.308.56-.62.842-.928l-.05.055a45.621,45.621,0,0,0,3.361-3.639c.917-.332,1.433.958.846,1.575-1.371,1.629-3.13,2.868-4.5,4.508l.02-.021c-1.342,1.2-2.364,3.381-4.163,3.791" transform="translate(-240.118 -324.802)" fill="#fff"/>
        <path id="패스_280" data-name="패스 280" d="M389.439,548.833c-2.9-1.1-6.291-2.217-8.253-4.723-.343-3.382,7.478,1.455,9.169,1.593,1.893.593.989,3.647-.916,3.13" transform="translate(-244.015 -347.553)" fill="#fff"/>
        <path id="패스_281" data-name="패스 281" d="M429.468,563.839a23.417,23.417,0,0,1-4.968-2.208l.009.005c-1.233-.409-2.237-2.246-.594-2.832a21.709,21.709,0,0,1,7.876,2.824,1.63,1.63,0,0,1-2.323,2.211" transform="translate(-270.824 -357.726)" fill="#fff"/>
        <path id="패스_282" data-name="패스 282" d="M391.325,569.931c-1.912-1.065-4.547-1.853-5.543-3.93-.048-2.385,2.917-.5,4.064-.067l-.176-.069.312.123-.176-.069c.623.242,1.235.508,1.856.756l-.134-.052c4.587.972,3.43,5.189-.2,3.308" transform="translate(-246.963 -361.576)" fill="#fff"/>
        <path id="패스_283" data-name="패스 283" d="M425.8,583.472c-1.523-.664-6.764-2.154-4.085-4.264h0a14.248,14.248,0,0,1,5.79,1.714,1.6,1.6,0,0,1-1.7,2.552" transform="translate(-269.485 -370.787)" fill="#fff"/>
        <path id="패스_284" data-name="패스 284" d="M397.937,597.3c-1.427-.83-7.813-2.909-5.5-5.036,2.039-.146,5.654,1.254,7.226,2.544.647,1.1-.4,2.9-1.729,2.492" transform="translate(-250.905 -379.141)" fill="#fff"/>
        <path id="패스_285" data-name="패스 285" d="M422.112,605.109a3.127,3.127,0,0,1-1.007-.887c-.758-1.307,1.1-1.52,2-1.357,1.865.337.511,3.53-1,2.244" transform="translate(-269.462 -385.902)" fill="#fff"/>
        <path id="패스_286" data-name="패스 286" d="M399.864,620.569a14.7,14.7,0,0,1-1.853-1.838c-.463-1.959,2.132-.792,2.957-.255,1.019.709.077,2.652-1.1,2.093" transform="translate(-254.757 -395.389)" fill="#fff"/>
        <path id="패스_287" data-name="패스 287" d="M179.022,528c-6.585-.177-11.1-10.414-6.019-14.913,5.327-2.966,10.577,2.533,10.854,7.79,0-.047,0-.094,0-.141,0,.08,0,.159.006.239,0-.017,0-.035,0-.052,0,.026,0,.051,0,.077,0-.017,0-.033,0-.049.217,3.154-1.019,7.213-4.836,7.049" transform="translate(-109.351 -327.926)" fill="#fff"/>
      </g>
    </g>
  </g>
</svg>
