<svg xmlns="http://www.w3.org/2000/svg" xmlns:xlink="http://www.w3.org/1999/xlink" width="315" height="180" viewBox="0 0 315 180">
  <defs>
    <clipPath id="clip-path">
      <rect id="사각형_248" data-name="사각형 248" width="315" height="180" rx="30" transform="translate(986 7184)" fill="#f6f6f8"/>
    </clipPath>
    <clipPath id="clip-path-2">
      <rect id="사각형_247" data-name="사각형 247" width="360.28" height="346.332" transform="translate(0 0)" fill="none"/>
    </clipPath>
  </defs>
  <g id="마스크_그룹_34" data-name="마스크 그룹 34" transform="translate(-986 -7184)" clip-path="url(#clip-path)">
    <g id="그룹_181" data-name="그룹 181" transform="translate(954.36 7148.402)">
      <g id="그룹_180" data-name="그룹 180" transform="translate(0 0.004)" clip-path="url(#clip-path-2)">
        <path id="패스_288" data-name="패스 288" d="M1417.107,775.718a1.022,1.022,0,0,1-.116.118,4.257,4.257,0,0,1,.6-.009.867.867,0,0,1,.2-.079.92.92,0,0,1-.282-.589l-.164-.007a1.046,1.046,0,0,1-.239.566" transform="translate(-1113.387 -609.069)" fill="#161616"/>
        <path id="패스_289" data-name="패스 289" d="M1434.959,781.228c.2.044.407.084.608.125-.2-.065-.407-.086-.61-.132l0,.007" transform="translate(-1127.504 -613.838)" fill="#161616"/>
        <path id="패스_290" data-name="패스 290" d="M1450.75,788.6c.472.377.924.776,1.418,1.126-.588-.451-1.118-.981-1.749-1.373q.168.12.331.247" transform="translate(-1139.653 -619.438)" fill="#161616"/>
        <path id="패스_291" data-name="패스 291" d="M1463.048,798.634l.228.24.18.011a10.131,10.131,0,0,0-1.061-.973c.23.229.44.479.654.722" transform="translate(-1149.062 -626.953)" fill="#161616"/>
        <path id="패스_292" data-name="패스 292" d="M1428.7,790.808c-.23.627-.431,1.263-.649,1.894,1.679.063,3.359.115,5.039.175-.681-.484-1.276-1.066-1.976-1.523l.116.073a4.96,4.96,0,0,0-2.412-.946q-.06.164-.118.326" transform="translate(-1122.079 -621.115)" fill="#161616"/>
        <path id="패스_293" data-name="패스 293" d="M1439.441,792.661l-.108-.07.108.07" transform="translate(-1130.942 -622.772)" fill="#161616"/>
        <path id="패스_294" data-name="패스 294" d="M1450.765,788.6c.468.373.916.77,1.405,1.116-.583-.447-1.107-.972-1.732-1.361.11.079.219.16.327.244" transform="translate(-1139.668 -619.447)" fill="#161616"/>
        <path id="패스_295" data-name="패스 295" d="M1463.06,798.642a11.6,11.6,0,0,1,1.75,2.2h.441a25.229,25.229,0,0,0-2.84-2.916c.228.228.437.476.65.718" transform="translate(-1149.075 -626.962)" fill="#161616"/>
        <path id="패스_296" data-name="패스 296" d="M1427.961,790.807c-.3.807-.538,1.635-.85,2.437a9.327,9.327,0,0,1,4.039,1.841c1.135-.015,2.272-.022,3.407-.051a21.216,21.216,0,0,0-4.181-3.681l.115.073a4.959,4.959,0,0,0-2.412-.946c-.04.109-.079.218-.118.326" transform="translate(-1121.339 -621.114)" fill="#161616"/>
        <path id="패스_297" data-name="패스 297" d="M1439.442,792.661l-.108-.07.108.07" transform="translate(-1130.943 -622.772)" fill="#161616"/>
        <path id="패스_298" data-name="패스 298" d="M1395.833,810.577a13.093,13.093,0,0,0-3.23.445q2.064-.029,4.129-.059a1.968,1.968,0,0,1-.068-.4c-.277,0-.555,0-.831.015" transform="translate(-1094.225 -636.89)" fill="#161616"/>
        <path id="패스_299" data-name="패스 299" d="M862.33,805.094l.116,0q.12-.151.241-.3c0-.018,0-.036-.005-.054l-.351.349" transform="translate(-677.568 -632.322)" fill="#161616"/>
        <path id="패스_300" data-name="패스 300" d="M862.326,806.376l.116,0-.116,0h0" transform="translate(-677.565 -633.603)" fill="#161616"/>
        <path id="패스_301" data-name="패스 301" d="M862.619,806.384h0l-.068,0,.068,0" transform="translate(-677.741 -633.608)" fill="#161616"/>
        <path id="패스_302" data-name="패스 302" d="M1463.061,798.645a12.5,12.5,0,0,1,1.894,2.416l.492.014a26.056,26.056,0,0,0-3.036-3.148c.228.228.437.476.65.718" transform="translate(-1149.076 -626.965)" fill="#161616"/>
        <path id="패스_303" data-name="패스 303" d="M1430.489,797.162c-.974.016-1.948.022-2.923.023-.144.438-.289.873-.457,1.3a9.344,9.344,0,0,1,4.1,1.886c1.143-.017,2.288-.02,3.431.006a18.072,18.072,0,0,0-3.507-3.227l-.641.012" transform="translate(-1121.338 -626.354)" fill="#161616"/>
        <path id="패스_304" data-name="패스 304" d="M1396.34,810.578a13.5,13.5,0,0,0-3.091.4c1.33,0,2.658-.03,3.988-.025a2.011,2.011,0,0,1-.066-.394c-.276-.006-.555,0-.831.016" transform="translate(-1094.732 -636.89)" fill="#161616"/>
        <path id="패스_305" data-name="패스 305" d="M855.888,806.181a1.271,1.271,0,0,1-.389.337l.506-.023c.433-.568.858-1.145,1.313-1.7,0-.018,0-.036-.005-.054q-.719.712-1.425,1.436" transform="translate(-672.2 -632.322)" fill="#161616"/>
        <path id="패스_306" data-name="패스 306" d="M1417.1,776.08a1.088,1.088,0,0,1-.117.118,4.184,4.184,0,0,1,.6-.008.853.853,0,0,1,.2-.08.938.938,0,0,1-.269-.492l-.193,0a1.041,1.041,0,0,1-.224.467" transform="translate(-1113.383 -609.431)" fill="#161616"/>
        <path id="패스_307" data-name="패스 307" d="M1434.952,781.227c.2.043.4.082.6.123-.2-.064-.4-.084-.606-.131l0,.008" transform="translate(-1127.498 -613.836)" fill="#161616"/>
        <path id="패스_308" data-name="패스 308" d="M1450.451,788.371h.009l-.063-.039.054.039" transform="translate(-1139.636 -619.425)" fill="#161616"/>
        <path id="패스_309" data-name="패스 309" d="M545.254.07c-11.577.733-23.39,0-34.988.108-23.228.08-46.439-.027-69.619,1.3-8.861.34-17.413,1.792-26.05,2.959-3.123.622-8.013-.845-9.151,3.478-1.053,2.552-1.07,5.329-1.075,8.043-.082,4.122-.141,8.182-.151,12.288-.053,12.133-.114,24.485.337,36.43a12.07,12.07,0,0,1,5.247-1.754c-.049-2.249-.807-5.441,1.224-7.009q-.005-.293-.011-.585c2.173-2.039,2.9-.1,4.8-.084.731-.4,1.051-1.324,1.842-1.693a3.582,3.582,0,0,1,3.183.15c.564.366.871,1.31,1.614,1.317a11.552,11.552,0,0,1,3.414-.387l-.019-.006c2.037.9,3.191,3.133,4.156,5.032,1.072,2.53.125,5.184-1.179,7.427-1.5,1.51-.43,2.724.145,4.411l-.011-.04a29.114,29.114,0,0,1,1.993,8.194c.962,4.833,1.512,9.644,2.15,14.509l0-.011c.17,1.743.667,3.432.892,5.167.3,2.539.045,5.147.158,7.712l.009-.069a7.667,7.667,0,0,1-.951,4.2c-.544,1.126-.937,2.467-2.023,3.153-1.192.67-2.068,1.857-3.306,2.4-.749.365-1.779.188-2.029,1.218-.92,1.066-.379,2.879-.194,4.153a1.289,1.289,0,0,0,1.388,1.355c3.615-.016,7.219-.778,10.851-.467,3.1.177,6.246.278,9.342.505,3.125.924,6.442,1.745,9.243,3.444,3.6,2.975,5.7,8.717,7.589,12.961l-.007-.019c2.147,6.079,3.447,12.051,5.133,18.21,1.633,5.635,3.814,11.431,5.4,17.142,4.814.144,10.063-.469,15.106-.817,3.83-.215,6.723-.093,10.2-.161-1.052-.5-.5-1.693.194-2.251a.622.622,0,0,0-.07-.028c-1.231,1.893-3.3.189-1.667-1.4a1.04,1.04,0,0,1-1.466-1.143c.262-.816,1.208-1.188,1.763-1.793-.215-.894.559-1.6,1.18-2.089-1.628,0-3.332,0-4.963,0,4.07-4.1,8.145-7.723,12.532-11.579,3.677-3.38,7.192-6.943,11.609-9.331l-.034.02a20.25,20.25,0,0,1,6.063-2.623c2.482-4.8,4.794-9.7,7.517-14.365l-.022.038c2.469-4.075,4.538-8.377,7.035-12.436h0c4.3-6.808,7.522-14.21,11.559-21.17q7.677-14.244,15.77-28.254l-.016.028q.144-.235.293-.469s0,0,0,0c.178-.285.348-.573.525-.858l-.2.318a29.77,29.77,0,0,0,3.511-6.536c1.054-1.351,3.542.282,2.854,1.785-3.713,8.337-8.038,16.405-12.339,24.459l.2-.318a226.757,226.757,0,0,0-13.689,27.2c-5.371,9.677-10.714,19.357-16.782,28.62l.2-.318q-.438.731-.881,1.458h0l-.01.014,0,0a0,0,0,0,1,0,0,0,0,0,0,0,0,0c-.15.244-.3.487-.454.728,3.188.667.718,4.4,2.594,5.742.684.631,1.845.806,2.109,1.809a3.53,3.53,0,0,1-1.056,2.087c-1.422,2.288,3.761,4.2-.924,6.555l0,0c-.02.013-.056.034-.074.049v0c-4.929,3.264-2.8,1.973-5.634,6.383-2.081,2.244-4.72,3.918-6.778,6.222l.428-.4a13.3,13.3,0,0,0-2.379,3.491c14.071.213,28.234-.007,42.277-.315,10.209-.315,22.07.377,32,.5,6.031-.07,12.252-.071,18.256.1,1.621-1.785,6.787-2.7,9.237-2.548a12.557,12.557,0,0,1,.608-2.779c-1.9.015-3.581-.844-2.343-2.91-.871-.078-1.76-.118-2.63-.159.553-5.217,5.812-5.6,9.859-4.234,2.848,1.227,4.884,2.966,7.364,4.944-1.517-.082-2.843-.12-4.522-.173a13.2,13.2,0,0,1,2.662,1.863l0,0,.027.02,0,0,.042.033,0,0,.02.014,0,0,.024.017,0,0c.2.174.391.361.585.544l0,0c.979,1.024,2.04,1.967,3.057,2.955l0,0c.084.081.272.277.36.357l0,0a15.828,15.828,0,0,1,1.805,2.054c5.868.184,11.764-.166,17.622.173a35.024,35.024,0,0,1,7.527.816,3.356,3.356,0,0,0,1.395-.09,6.185,6.185,0,0,0,3.058-.416c1.1-.387,2.276-.628,2.548-1.925.933-2.555.432-5.55.7-8.261.188-4.307.557-8.555.859-12.845,1.693-16.707,2.287-33.908,2.751-50.6.078-11.15.865-22.345,1.269-33.436.074-8.666.645-17.465,1.313-26,.857-9.441,1.2-19.11,1.592-28.62a70.562,70.562,0,0,0,.105-7.9c-.085-1.05.081-3.086-1.5-2.49C665.54,1.434,654.822.066,644.008.807c-10.216.389-19.228-.092-29.269.418-4.9.039-9.474-.352-14.334-.345A160.358,160.358,0,0,1,583.957.688c-6.819-.3-14.6-.111-21.582-.2-5.4-.109-11.436-.677-17.121-.421M428.57,54.4c.014-.044.027-.09.045-.135a.746.746,0,0,0-.035.145Zm101.982,86.831-.151.246.151-.246m13.5,10.557c-.008,0-.155.262-.169.26.058-.087.114-.174.169-.26" transform="translate(-317.584 -0.004)" fill="#161616"/>
        <path id="패스_310" data-name="패스 310" d="M410.911,306.641a11.394,11.394,0,0,0-4.453,2.145,26.681,26.681,0,0,0,.2,3.8c1.259-.459,4.744-2.889,5.507-1.064.361-.308.379-.871.6-1.256-.628-1.129-.472-2.524-.777-3.756a10.393,10.393,0,0,0-1.072.134" transform="translate(-319.371 -240.836)" fill="#161616"/>
        <path id="패스_311" data-name="패스 311" d="M994.037,658.837l.031-.052-.031.052" transform="translate(-781.055 -517.635)" fill="#161616"/>
        <path id="패스_312" data-name="패스 312" d="M993.984,659.107h0" transform="translate(-781.014 -517.888)" fill="#161616"/>
        <path id="패스_313" data-name="패스 313" d="M651.857,769.107a1.425,1.425,0,0,0-1.107,1.925c1.93,1.768,5.055,1.234,7.481,1.736a3.381,3.381,0,0,0-3.184,1.764c-.627-.054-1.7-.16-2.08.343-.386.328-.753,1.113-.216,1.451-4,4.454,6.453,2.881,8.579,3.223-.9-3.242-2.375-6.368-2.582-9.767-1.444-.058-3.245-.07-4.676-.215-.183-.831-1.559-.217-2.215-.46" transform="translate(-511.215 -604.319)" fill="#161616"/>
        <path id="패스_314" data-name="패스 314" d="M1036.156,537.73l0,.006.006-.009,0,0" transform="translate(-814.147 -422.515)" fill="#161616"/>
        <path id="패스_315" data-name="패스 315" d="M1036.035,537.944h0l0,0v0" transform="translate(-814.054 -422.684)" fill="#161616"/>
        <path id="패스_316" data-name="패스 316" d="M994.02,659.035l0,0,0,0" transform="translate(-781.042 -517.828)" fill="#161616"/>
        <path id="패스_317" data-name="패스 317" d="M994,659.059l0-.007,0,.007" transform="translate(-781.027 -517.845)" fill="#161616"/>
        <path id="패스_318" data-name="패스 318" d="M1036.1,537.774l-.01.017.012-.02,0,0" transform="translate(-814.1 -422.549)" fill="#161616"/>
        <path id="패스_319" data-name="패스 319" d="M1036.062,537.867l-.008.013.008-.013" transform="translate(-814.07 -422.625)" fill="#161616"/>
        <path id="패스_320" data-name="패스 320" d="M1036.047,537.932l0,0,0,0" transform="translate(-814.064 -422.674)" fill="#161616"/>
        <path id="패스_321" data-name="패스 321" d="M1164.829,305.249a.154.154,0,0,0,.011-.017l-.011.017" transform="translate(-915.253 -239.834)" fill="#161616"/>
        <path id="패스_322" data-name="패스 322" d="M1035.7,538l-.06.1.085-.141-.025.041" transform="translate(-813.741 -422.697)" fill="#161616"/>
        <path id="패스_323" data-name="패스 323" d="M1396.185,745.507c-.092.057-.182.115-.276.169a15.455,15.455,0,0,0-6.372,1.161c-1.455-.015-2.8.994-1.473,2.326l-.012.036a1.5,1.5,0,0,0-.168,2.845c.13.31.589.331.537-.07.094-.047.182-.116.269-.169a.41.41,0,0,0,.051.005c.46,2.113,2.255-.728,3.271-.9l-.046.013a7.161,7.161,0,0,1,2.517-.242l-.062-.006c.384.035.765.088,1.147.135l-.029,0a26.57,26.57,0,0,1,5.077,1.415l-.1-.041.356.149-.221-.093c1.392.449,4.6,2.242,5.862,1.6.676-1.439-1.228-2.211-2.2-2.8-.318-1.046-1.545-1.307-2.422-1.724-1.057-.365-1.811-1.272-2.791-1.8a2.067,2.067,0,0,0-1.841-1.612c-.247-.293-.687-.589-1.075-.391m-7.927,1.729-.083.023.083-.023m6.021,3.421.087.009-.087-.009" transform="translate(-1089.775 -585.726)" fill="#161616"/>
        <path id="패스_324" data-name="패스 324" d="M72.025,586.527c-9.486.629-24.955-.119-31.447,7.728-5.135,7.377-5.891,18.416-6.849,27.24-.477,5.947-2.029,11.76-2.354,17.719-.254,2.65-.288,5.074-.406,7.634-.947,2.6-.54,5.86-1.691,8.427-3.437,1.69-5.12-2.792-5.523-5.505a105,105,0,0,1-3.112-16.99c-.3-3.069-.671-5.471-.925-8.365a.541.541,0,0,0-.688-.536c.393-2.056-11.6,2.253-12.969,2.6a33.3,33.3,0,0,1-4.254,1.081c-.856.062-1.825.72-1.6,1.658-.493,2.229.03,4.3.207,6.511.321,3.407.919,6.715,1.523,10.082a115.7,115.7,0,0,0,4.114,20.459c1.235,3.885,2.289,8.558,5.056,11.766,6.648,9.227,22.284,10.888,29.4,1.424,8.538-9.81,7.115-15.9,11.317-26.693-.619,5.615-.374,11.163-.667,16.751a114.655,114.655,0,0,0,.051,16.34c.039,1.454.114,2.917.255,4.363-.049,1.088.522,1.614,1.595,1.456.416.672,1.214.023,1.77-.052.454-.019.918-.042,1.372-.063.515.626,1.107-.075,1.666-.169-1.147,5.645,6.6-1.009,7.881-2.434a22.607,22.607,0,0,0,4.651-10.609c.937-4.676.316-9.56,1.056-14.278,2.2-1.325,1.048-6.651,1.467-9.041.491-8.5-.162-16.917-.116-25.378-.22-9.834.574-19.458.7-29.234-.024-2.2.216-4.419.388-6.6.072-1.948-.2-3.969.373-5.925.067-.232.067-.61-.209-.7-.1-.937-1.376-.564-2.026-.674M53.931,689.244l-.275-.013c0-.045,0-.138,0-.183a1.025,1.025,0,0,0,.237-.206c.011.133.027.267.041.4" transform="translate(0 -460.859)" fill="#161616"/>
        <path id="패스_325" data-name="패스 325" d="M247.822,1060.3c-.689,1.247.629,1.949,1.285.683.689-1.247-.628-1.949-1.285-.683" transform="translate(-194.571 -832.597)" fill="#161616"/>
        <path id="패스_326" data-name="패스 326" d="M241.84,1061.221c-.842.354-.427,1.544-.8,2.235a1.082,1.082,0,0,0,.938,1.649c1.6.382,7.072.306,7.382-1.717.732-3.349-5.614.583-7.4-.088.043-.552.7-1.974-.117-2.079" transform="translate(-189.255 -833.845)" fill="#161616"/>
        <path id="패스_327" data-name="패스 327" d="M176.992,589.81c-.457.007-.913.051-1.368.088l.119-.01c-3.3.294-6.6.32-9.895.382l.178-.014q-.9.071-1.8.151l.187-.015c-18.837,2.328-19.278,12.358-22.216,28.221-1.995,9.557-2.268,19.385-3.037,29.1-.058,2.809-.152,5.615-.2,8.426.187,1.194-1.26,4.743.572,4.7,2.294-.738,1.705-9.237,2.146-11.573.466-8.56,1.253-17.107,2.244-25.617l0,.03.034-.217-.018.113c.451-3.735,1.38-7.4,1.774-11.145.836-4.884,1.16-10.448,4.647-14.274l-.15.157c5.771-5.784,14.466-6.141,22.125-6.882l-.137.011c2.674-.2,5.4-.9,8.061-.263.2.048.4-.192.475-.336.606-1.241-3.01-.923-3.734-1.031m-28.185,10.345-.077.118.077-.118m-.13.2-.131.2.131-.2m-4.758,23.292c.025-.156.05-.312.075-.467l-.075.467" transform="translate(-108.897 -463.439)" fill="#161616"/>
        <path id="패스_328" data-name="패스 328" d="M491.029,579.365c-1.618.439-.69,2.219-.72,3.371-.737,2.463-.163,5.07-.407,7.6.047,4.636-.326,8.942-.308,13.533,0,4.92.723,9.46.754,14.241.4,10.459.613,20.915,1.968,31.268a73.157,73.157,0,0,0,2.667,17.869c1.591,4.88,4.351,9.949,9.352,12,2.481.7,5.213.251,7.724-.087,1.437-1.05.638-3.262.673-4.8-.1-1.947-.117-3.925-.172-5.881a.082.082,0,0,1,0-.017h0c-.2-5.589-.821-11.112-.684-16.666-.064-3.724.382-7.442.25-11.163-.269-8.338-.882-16.7-1.02-25.027.021-.023.043-.049.064-.075,2.294,10.949,1.342,22.716,5.183,33.375l-.018-.075a22.236,22.236,0,0,0,3.206,6.422c1.062,1.739,1.939,3.695,3.582,4.974,11.09,8.63,25.067-.416,34.511-7.413,3.993-2.863,7.982-6.011,11.766-9.162,3-2.773,6.742-4.89,9.185-8.2a1.676,1.676,0,0,0-.138-3.122,16.261,16.261,0,0,1-2.552-2.8c-1.417-1.834-2.884-3.683-4.376-5.443-.96-1.41-3.439-2.46-3.832-4.313a.81.81,0,0,0-1.085-.78c-.879-.814-2.355,1.309-3.234,1.692-4.318,3.348-8.3,7.039-12.64,10.306-1.365.632-9.336,8.8-9.72,6.888a1.527,1.527,0,0,0,.014-1.082c-.954-2.936-1.95-5.86-2.832-8.822-2.084-7.6-4.178-15.145-6.362-22.673-2.157-6.238-3.793-12.591-7.1-18.357-3.335-5.243-9.743-6.524-15.514-6.792l.086.013a68.837,68.837,0,0,0-10.619-.592c-2.557-.042-5.168.563-7.646-.208" transform="translate(-384.694 -455.231)" fill="#161616"/>
        <path id="패스_329" data-name="패스 329" d="M1335.826,806.461a21.125,21.125,0,0,0-14.7,6.507c-6.465,6.137-5.1,15.957,1.519,21.4l.018.016c3.528,3.19,6.279,4.45,11.009,4.656a28.06,28.06,0,0,0,7.529-.445c1.7-.51,3.278-1.463,4.954-2.076l-.009,0a.077.077,0,0,1,.012-.009h0c2.882-1.326,5.632-3.7,6.483-6.84,1.325-4.554,1.508-9.825-.568-14.161-2.69-6.65-9.618-8.787-16.249-9.052" transform="translate(-1034.76 -633.67)" fill="#161616"/>
        <path id="패스_330" data-name="패스 330" d="M395.907,378.546c-2.239.049-8.232,2.1-9.612,3.725-4.57,6.268,15.544-1.8,10.752-3.378-.239-.35-.75-.358-1.139-.347m-8.765,5.01-.038.058c.012-.02.024-.039.038-.058" transform="translate(-302.992 -297.438)" fill="#161616"/>
        <path id="패스_331" data-name="패스 331" d="M277.694,256.937c-1.39.068-2.141,1.759-2.5,2.965-1.219-2.694-4.363-1.7-5.147.757a10.285,10.285,0,0,0-.343,5.517c-5.01,1.314-10.1,2.039-14.94,3.936-2.865.954-8.755,2.5-6.988,6.631-5.251,6.827-4.105,16.352-2.934,24.412-3.266,2.934-1.9,9.885,3.091,9.6.1,5.609-.3,11.177.175,16.765a.694.694,0,0,0,.185.7c.029,2.76.376,5.474.665,8.212.208,1.343.033,2.969.768,4.121.8.144,1.522-.551,2.114-1.01.822-.663,1.985-.716,2.884-1.282.944-.515,1.94-.985,2.835-1.564,1.57,1.33,3.171,2.691,4.759,3.973v0l.017.014h0l0,0a22.893,22.893,0,0,0,3.528,2.516c.123,10.121-.237,20.269.027,30.415.036,8.888-.569,17.7-.744,26.567-5.024-.132-9.916.324-14.936.583a4.5,4.5,0,0,1-2.487-.192c-1.089.146-1.214,1.37-1.186,2.268-.059,7.659.722,15.815-3.371,22.7-1.7,2.6-3.969,5.315-7.221,6.072-1.189.234-3.218.27-2.767,2.069-.489,5.162-.056,10.42-.31,15.619.035,7.883.954,15.788.963,23.658.4,8.953.17,18.026.9,26.973.045,12.862.863,25.747.643,38.629-2.459,1.8-5.626,1.966-8.575,1.551-.707-.1-1.6-.577-2.182.06-.715.856-.308,2.246-.277,3.292.515,3.149,4.268,3.985,6.914,4.579,6.307.925,13.22-2.189,17.595-6.558,0,.4-.027.82-.018,1.212-.116,5.145-.651,4,4.173,3.967,1.433-.2,6.163-.161,6.889-1.15a11.922,11.922,0,0,0,.659-3.486l-.009.044c1.607-11.331,1.448-22.853,1.706-34.244.166-7.946.851-15.795.77-23.788-.413-9.692.439-19.439.463-29.105.292-11.171-.6-22.99-.606-34.287a42.008,42.008,0,0,1,6.833.866h0c.133,4.479.577,8.93.724,13.4.219,4.53-.077,8.611.14,13.274.94,18.914,1.513,37.811,1.2,56.729-.164,10.5-.38,20.958-.184,31.452.222,2.482-.3,5.243.536,7.584a13.562,13.562,0,0,0,3.778.2c1.715-.3,6.378.111,7.192-1.222.273-1.076-.226-2.2-.072-3.3,1.543,1.746,4.1,2.13,6.216,2.772,2.219.808,4.612.486,6.893.2,1.585-.153,3.29-.175,4.572-1.288a7.139,7.139,0,0,0,3-1.7l-.15.121a4.259,4.259,0,0,0,1.34-1.761,2.138,2.138,0,0,0,.1-2.46c-.93-1.862-6.322.725-8.522-1.141-.612-23.861.829-47.808.665-71.657.182-11.127.673-22.387-.093-33.479-.3-3.144.913-3.733-2.418-5.528-6.151-4.093-8.094-9.419-9.372-16.356-.613-2.228-.319-4.82-1.421-6.86.62-1.3-.558-1.178-1.456-1.035a41,41,0,0,1-4.475.1c-4-.014-8,.246-11.982.563.189-12.018,1.119-23.973.642-35.995-.081-6.988.423-14.1-.034-21.1,2.848-2.563,5.548-5.378,8.385-7.985.792,1.72,2.868,2.368,4.372,3.388.89.386,2.639,2.128,2.994.333.348-3.447.14-6.969.3-10.422.028-.328.11-.938-.377-.917a.33.33,0,0,0-.054-.079c-.055-2.775-.523-5.578-.659-8.37,11.112-2.786,9.829-10.074,8.574-19.3l0,.059c-1.487-10.242-1.756-21.362-6.581-30.706,7.456-4.018,1.476-17.319-3.212-9.252-.142-1.5-.953-2.872-2.568-2.854m-26.581,49.11c1.131-.541,3.144-.475,3.588-1.793.183-2.684-.433-5.364-.483-8.041-.388-5.911-.575-11.851-.9-17.76,4.324-3.054,9.7-3.835,14.688-5.333,2.17-.624,4.449-1.311,6.619-1.764a51.969,51.969,0,0,1,6.308-1.53,14.9,14.9,0,0,1,2.194,4.522c.474,1.2.839,2.329,1.229,3.648a8.087,8.087,0,0,0-4.346.883c-.933.306-2.127,2.878-.493,2.732a10.778,10.778,0,0,0,5.544-.794c.818,4.243,2.8,19.089,3.275,21.913.385,2.706,1.118,5.257.917,8.037-.392,4.248-4.95,5.661-8.445,6.743-1.753.491-.557,7.673-.471,9.341l0-.092c.079.49,0,1.083.317,1.487-4.8,4.493-9.914,8.695-14.412,13.521a215.625,215.625,0,0,1-16.771-14.787c.2-2.1-.141-4.248-.152-6.36-.043-3.5.158-7.011-.19-10.47-.047-.98-1.113-.743-1.773-1-3.107-.471-4.246-4.959-2.223-7.076a5.144,5.144,0,0,1,3.768-.733c.36,1.221,1.044,4.228,2.214,4.7m-.836,33.386c-.658-3.6-1.029-7.257-1.522-10.867a.218.218,0,0,0,.015-.029,66.54,66.54,0,0,0,7.8,7.279,31.341,31.341,0,0,1-4.523,2.312,10.216,10.216,0,0,1-1.771,1.3m31.215-1.464c-1.757-1.378-4.323-1.876-5.56-3.785,2.041-1.661,3.761-3.638,5.661-5.45-.118,3.12.2,6.15-.1,9.235M225.382,541.986c0-.06,0-.122,0-.185q0,.094,0,.185" transform="translate(-176.163 -201.887)" fill="#161616"/>
        <path id="패스_332" data-name="패스 332" d="M68.283,612.448c-1.3-.21-5.839,5.87-5.207,6.907.517.838,1.178-.228,1.429-.73l-.127.2c1.136-1.492,1.944-4.108,3.89-4.55.309,1.114-.7,2.164-1.013,3.2a25.531,25.531,0,0,0-1.566,6.753c-1.085,6.093-.184,12.4.781,18.457.312.7.123,3.117,1.124,2.889a1.089,1.089,0,0,0,.506-1.122c-1.265-7.587-2.22-15.444-.7-23.054-.022-2.1,4.424-8.521.879-8.954" transform="translate(-49.514 -481.222)" fill="#161616"/>
        <path id="패스_333" data-name="패스 333" d="M876.225,670.648c-11.714,1.758-20.366,11.6-27.405,20.4.041-.064.082-.128.124-.192-.329.549-1.1,1.142-.714,1.835.257.348.71.084.912-.176a69.907,69.907,0,0,1,7.506-8.556,45.462,45.462,0,0,1,14.733-10.335c1.71-.618,7.194-2.241,7.54.388-1.955,1.3-4.229,2.162-5.925,3.857-.828.673-.483,1.989.61,1.081,1.92-.867,4.844-2.682,6.762-1.219-.347,1.328-8.426,4.275-5.6,5.543,1.668-.7,3.956-2.156,5.587-.7a19.244,19.244,0,0,1-4.392,2.859c-.574.339-1.287.552-1.589,1.2-.436,1.051.226,2.239-.682,3.181-1.712,1.9-4.26,2.872-6.049,4.689a32.708,32.708,0,0,0-3.837,5.234c.059-.091.118-.181.178-.272-.836,1.154-1.6,2.353-2.378,3.545l.027-.041c-.442.793-1.82,2.01-.844,2.865,1.274.324,2.186-2.453,3-3.266l-.094.145c.513-.766,1.062-1.5,1.567-2.275l-.121.185a33.581,33.581,0,0,1,3.323-4.536l-.043.045a6.472,6.472,0,0,1,.905-.814l-.14.1c2.793-2.058,6.92-4,6.726-8.041,2.482-1.154,9.568-5.624,3.668-7.153,2.464-1.264,3.369-5.181-.432-4.836,2.858-2.441.113-5.139-2.927-4.745m-.5,12.134-.045.017.045-.017m3.047,2.922-.132.093.132-.093m-3.454,1.987,0,0,0,0m-2.139,4.873-.071.05.071-.05m-4.441,3.245-.13.137.13-.137" transform="translate(-666.405 -526.926)" fill="#161616"/>
        <path id="패스_334" data-name="패스 334" d="M1071.319,943.678c-1.8-.073-3.61.45-5.4.247a.315.315,0,0,0-.327.315c1.362.562,3.221-.055,4.742.084.38-.012.926.177,1.133-.257.087-.139.06-.4-.15-.389" transform="translate(-837.28 -741.481)" fill="#161616"/>
        <path id="패스_335" data-name="패스 335" d="M1072.184,949.7c-.863.238-5.053-.112-4.8,1.037a27.452,27.452,0,0,0,5.257-.309c.635-.481.208-.893-.459-.728" transform="translate(-838.679 -746.188)" fill="#161616"/>
        <path id="패스_336" data-name="패스 336" d="M1074.6,957.781c-1.425.054-2.852.078-4.277.134-.4-.015-.836.8-.283.865,1.42-.046,2.843-.1,4.264-.091.416.023.876-.842.3-.908" transform="translate(-840.57 -752.568)" fill="#161616"/>
        <path id="패스_337" data-name="패스 337" d="M901.532,1006.279a26.312,26.312,0,0,1-4.7.134c-.244-.048-.473.22-.469.451-.073.514,6.764.416,5.169-.585" transform="translate(-704.308 -790.675)" fill="#161616"/>
        <path id="패스_338" data-name="패스 338" d="M905.579,1013.744a20.648,20.648,0,0,1-3.624.2.531.531,0,0,0-.508.227c-1.008,1.425,3.713.418,4.351.4.611-.225.478-1.012-.218-.825" transform="translate(-708.193 -796.518)" fill="#161616"/>
        <path id="패스_339" data-name="패스 339" d="M907.991,1021.661c-.457.094-3.844.012-3.132.767a20.129,20.129,0,0,1,4.068-.084c.871-.76-.407-.713-.936-.683" transform="translate(-710.908 -802.751)" fill="#161616"/>
        <path id="패스_340" data-name="패스 340" d="M1323.98,824.82c-4.294,1.352-7.526,7.461-7.75,11.78-.036,1.832.732,4.044,2.455,4.944,1.332.792,1.9-.288,2.013-1.5l-.023.083c.387-1.145.138-2.256.683-3.26,2.272-1.442,5.3-.668,7.309-2.828,2.985-3.329.96-7.49-3.377-7.872-.02-.482-.742-1.42-1.309-1.342" transform="translate(-1034.215 -648.092)" fill="#fefefe"/>
        <path id="패스_341" data-name="패스 341" d="M1318.945,886.061c-1.228,1.178.23,3.087.612,4.4a14.231,14.231,0,0,0,3.264,3.864,1.146,1.146,0,0,0,.986-1.539,6.275,6.275,0,0,1-1.406-2.619c.012.032.024.064.036.1-.292-.463-1.149-3.284-1.791-2.044-.436-.649-.564-2.937-1.7-2.161m3.67,4.694.032.086-.032-.086m-.15-.413-.028-.076.028.076" transform="translate(-1035.97 -696.09)" fill="#161616"/>
        <path id="패스_342" data-name="패스 342" d="M1331.986,889.328c-.92.448-.215,1.9-.275,2.765.171,1.224,1.435,1.953,1.391,3.225,0-.075-.006-.15-.007-.226.012.407.053.81.068,1.216,0-.06,0-.12-.006-.179-.1.531-.14,1.462.676.944.781-.689.521-2,.573-2.942-.058-1.159-1.189-1.753-1.556-2.77-.279-.571.11-2.233-.865-2.033" transform="translate(-1046.221 -698.769)" fill="#161616"/>
        <path id="패스_343" data-name="패스 343" d="M1410.127,827.819c-.434.036-.709.4-1,.671-3.347-.256-4.19,1.737-6.61,1.789-1.807-.231-4.391.291-4.3,2.572.039.51-.086,1.6.7,1.469-.055,2.365,3.07,2.195,3.218,3.614-.384,1.606.839,2.811.749,4.335.042,1.3.19,2.83,1.231,3.725.984.591,1.921-.174,2.339-1.091.546-1.373,1.472-2.516,1.7-4.013,0-.494.161-1.239.822-1,2.277.835,2.415-.3,3.636.094,1.881.787.89,2.736,2.151,3.961.324.412.888-.015,1-.414a6.656,6.656,0,0,0-.573-2.688c-.452-1.212.481-2.4.675-3.567,1.78-2.09-3.255-9.2-5.727-9.454" transform="translate(-1098.63 -650.452)" fill="#fefefe"/>
        <path id="패스_344" data-name="패스 344" d="M1353.387,925.463c-.726.065-1.256,1.828-.32,1.845.722-.072,1.265-1.83.32-1.845" transform="translate(-1062.766 -727.175)" fill="#161616"/>
        <path id="패스_345" data-name="패스 345" d="M1464.31,923.942c-.707.128-1.806.985-1.126,1.714.48.133,1.094-.273,1.482-.549.438-.369.428-1.488-.355-1.165" transform="translate(-1149.515 -725.934)" fill="#161616"/>
        <path id="패스_346" data-name="패스 346" d="M1386.118,811.065c-1.075.325-2.427.268-2.917,1.463-.447.791.065,1.1.843,1.052,2.32.093,4.641.1,6.961.13a.9.9,0,0,0,.827-1.255c-.95-1.269-4.178-1.415-5.714-1.389" transform="translate(-1086.707 -637.285)" fill="#fefefe"/>
        <path id="패스_347" data-name="패스 347" d="M926.518,773.88c-.916.056-1.649,1.589-.681,1.964.82.085,1.644.076,2.464.113-.2.98-.515,1.94-.7,2.922-.09.5-.48,1.064-.216,1.586,1.8,1.107,1.788-3.378,2.248-4.4,7.2,1.6,11.783,8.813,14.108,15.344,2.4,6.545-.236,14.226-5.129,19.007-3.881,3.107-9.1,4.327-13.938,4.361h.024a14.3,14.3,0,0,1-5.425-.694,1.558,1.558,0,0,0-1.228,2.055c.932.842,2.526.785,3.684.926a42.806,42.806,0,0,1-.146,5.225,7.13,7.13,0,0,0-4.164,1.943c-.717.678-1.69,1.178-1.853,2.276-9.448.225-19.176-.345-28.737.166.369-4.777.28-9.549.358-14.333l0,.037c-.063-2.015.007-4.011,0-6.015-.139-.607.323-1.359-.132-1.834.5-2.99.732-6.021.963-9.017a7.231,7.231,0,0,0,0-2.2,1.729,1.729,0,0,0-2.233-.775c-1.8,2.2-1.321,8.975-2.038,12.068-.913-.089-1.832-.215-2.754-.245.3-3.42.083-7.151.048-10.538,1.431-.119-.055,7.715.421,9,1.762,1.463,1.288-6.062,1.44-6.97a.189.189,0,0,0,0,.034c.04-1.424.175-3.8-1.865-3.453-.011-.934.264-2.39-1.019-2.544a2.493,2.493,0,0,0-1.733.045c-1.4.315-1.374,1.255-1.281,2.448a102.671,102.671,0,0,0-.026,12.064c-.69.056-1.743.059-2.557.09-.035-1.124-.006-2.254-.02-3.379l0,.089a50.148,50.148,0,0,0-.262-5.839,2.107,2.107,0,0,0-2.855.5c-.437.841-.033,1.913-.11,2.822.1,1.978.115,4.023.3,5.992-.824.1-2-.035-2.5.731-1.18.7-.107,2.476-.211,3.658.318,6.079.963,12.217,1.753,18.276-2.686.147-5.542.289-8.73.432,5.931-3.732,3.5-9.852-3.151-10.3a209.289,209.289,0,0,0-33.747,1.062c-.545-.7-1.962-.418-2.8-.46a15.8,15.8,0,0,1-1.576-.491,5.02,5.02,0,0,1-3.5-7.171c5.73-1.734,11.749-1.454,17.649-2.111,9.273-.35,18.6-1.043,27.881-1.037a2.437,2.437,0,0,1-.189.524c-8.861.064-17.674.807-26.495,1.458-4.938.449-10.137-.274-14.9,1.1-1.708,1.066-2.91,4.174-1.182,5.711,3.945,2.682,10.388,1.2,14.986,1.241,9.079-.3,18.148-1.261,27.207-1.007l-.018,0a1.648,1.648,0,0,1,.32.058c.038.6-.492,1.024-.537,1.593.7,1.284,1.684-1.547,1.521-2.19-.075-.584-.815-.557-1.267-.6a7.059,7.059,0,0,1-.346-6.469c.974.184,1.421-.661,1.565-1.532l.026-.016v0c1.822-1.61-2.074-1.3-2.926-1.254-3.608.146-7.364.081-11,.3-6.152.276-12.164.527-18.268,1.045-4.273.432-8.663.386-12.776,1.625-.268-1.1-2.047.849-2.162,1.386a5.975,5.975,0,0,0,4.414,8.79c-2.064.213-4.485.47-6.4.809-1.318.535-4.788-.139-5.1,1.53.044.571-.333,2.59.76,1.99a6.737,6.737,0,0,0,2.2-.13c.173.8.756,1.287.9,2.163.19.855.245,1.729.471,2.573-1.333-.508-1.7.579-1.719,1.7-4.039.273-8.061.408-12.1.62-4.46.443-5.038-.3-5.618,4.579.155,1.185-.907,7.488,1.581,5.492a37.312,37.312,0,0,0,5.342-.181c-.679,8.3.228,16.493.587,24.774.621,8.682.635,17.185,1.24,25.874.285,7.547.57,15.162.8,22.638.018,5.069.043,8.4.4,13.205.3,2.228.058,4.673,1.028,6.6-.235,1.7,1.328,1.09,2.342.762l-.06.013c1.476-.649,4.475-.186,4.236-2.6a105.864,105.864,0,0,0-.16-15.387c7.186.624,14.292.355,21.486.261,13.329.3,26.583.3,39.668.8,22.188.862,44.333,2.145,66.576,1.329A124.9,124.9,0,0,1,939.2,932.1c-.4,2.01,1.494,2.072,2.941,2.315,1.506.1,3.248,1.028,4.54-.087,2.369.064,1.584-3.04,1.585-4.55.031-2.258.246-4.51.209-6.75.278-7.415.615-14.764.59-22.072.256-11.867-.048-23.929.775-35.6.336-9.46.269-18.463,1.206-27.888,1.737.024,3.472-.01,5.191-.059,3.271,1.419,1.781-7.166,1.836-8.838.394-.545.3-1.449-.483-1.339-1.889-.052-3.26-.141-4.932-.2-8.123-.532-15.986-.41-24.055-.5.05-2.831-3.086-4.275-5.54-4.318.12-1.706.446-3.387.514-5.1,5.44.106,11.251-1.292,15.564-4.724,7.469-6.772,9.881-18.058,4.686-26.9-2.824-4.832-6.607-9.955-12.373-11.249-1.648-.4-3.272-.174-4.936-.356m-41.507,30.732c.4-2.568.693-5.135.967-7.715.031-.081-.013-.254.076-.27a1.727,1.727,0,0,0,.786-.227q-.5,4.113-1.281,8.2c-.185,0-.364.007-.548.013m-6.672-5.827c0-.078-.01-.243-.013-.321a.143.143,0,0,0,.034-.008c-.008.108-.015.219-.021.329M872.093,827.3a64.669,64.669,0,0,0-1.082-9.76c-.493-3.806-.732-7.625-1.387-11.407a4.269,4.269,0,0,0,.541.023c.042.064.1.082.152,0,2.813.228,5.689.011,8.512.034,2.2-.055,4.382.362,6.585.155a.507.507,0,0,0,.46.156l.014.017c-.292,6.1-.577,12.213-.365,18.334l0-.153a9.577,9.577,0,0,1-.091,2.03c-4.566.184-8.417.292-13.343.569m-44.28-16.9c11.05-.239,22.038-1.516,33.09-1.625a8.735,8.735,0,0,0-.5,6.36c-8.585.275-17.1.794-25.68,1.311-4.525.07-9.271,1.118-13.642-.492l.033.023c-2.2-.846-1.7-3.992.076-4.977a31.222,31.222,0,0,1,6.627-.6m20.146,8.391c4.729.253,10.418-1.017,14.547,1.9,2.176,1.341,1.493,4.439-.4,5.658-.682.549-2.049.553-2.248,1.572-7.5.5-15.063.644-22.53.49,6.864-.807,14.005-.53,20.742-2.082,7.021-2.093,2.511-5.37-2.281-5.543-7.788-.6-15.64-.421-23.461-.3-7.436.127-14.8,1.338-22.183,2.014a2.435,2.435,0,0,1-.074-.741c12.61-1.583,25.111-2.944,37.892-2.963m-33.267,9.333h0a12.245,12.245,0,0,0-1.365-4.992c5.2-.436,10.347-1.326,15.571-1.5,7.308-.431,14.744-.223,22.077-.128,8.774-.079,15.568,3.552,1.977,4.8-12.748.982-25.475,2.387-38.262,1.821m92.847.413c10.9-.129,21.752-.021,32.641.052l-.043,0c5.559.049,11.212.336,16.779.578-.306,2.067-.543,4.117-.753,6.151-.932.014-1.882.036-2.8.036l.061,0q-.934-.019-1.868-.025l.054,0c-19.332.432-38.683-.041-58,.224-10.627.074-20.931.94-31.578,1.046-10.454.589-20.864.023-31.314.522-12.282.156-22.592.48-34.626,1.693-.008-2.127-.354-4.33.237-6.4,10.444-.776,20.833-1.153,31.233-1.766,8.112-.446,16.286-.16,24.417-.45,18.682-.834,36.916-2.1,55.564-1.665M812.7,829.651a3.876,3.876,0,0,1-.013-.741c.289.032.561.047.844.059.074.624.762.421,1,.04a63.385,63.385,0,0,0,6.637.17c-2.744.263-5.632.336-8.472.471m124.127,8.059c3.858,0,8.114-.011,12.078-.217-1.378,7.1-1.061,14.42-1.614,21.617-.664,15.278-.808,30.568-.788,45.891l0-.049c0,.064,0,.138,0,.2v-.014c0,.012,0,.025,0,.038h0v0h0c0,.051,0,.105,0,.173l0-.129c-.034,3.8-.126,7.5-.188,11.183-1.665.091-3.558.046-5.235.113-.188-.536-.154-1.235-.6-1.623-.963-.466-1.953.836-1.913,1.755-7.444.338-15.015.4-22.443.217l.053,0c-.253,0-.507-.007-.76-.009l.034,0c-.088,0-.309-.005-.4-.006l.03,0v0a.3.3,0,0,1-.044,0h0c-.969-.017-1.938.012-2.907.008l.076,0c-18.032-.092-36.613-1.492-54.792-1.777-8.568-.265-17.195-.31-25.764-.5-6.785.111-13.668.268-20.418-.255-.106-.652-.963-.5-1.262-.085-1.5-.078-2.633-.144-4.058-.337-.145-15.062-.911-30.016-1.287-45.109-.278-9.571-1.41-19.183-1.193-28.755,7.2-.547,14.183-.716,21.367-.7,6.918-.147,13.078-.54,19.909-.479h.026l-.026,0c.053.007.121,0,.176.005l-.1,0c15.382.243,30.618-.916,46.072-1.159,15.309-.218,30.646.069,45.974,0M806.758,931.647a136.624,136.624,0,0,1-.837-15.978c1.149.151,2.313.2,3.465.283-.075,1.833.058,3.666.052,5.5l0-.025c-.049,3.308.212,6.63.228,9.927-.977-.024-1.951.239-2.912.294m137.074-13.253c.8.009,1.6-.032,2.4-.052-.067,2.348-.152,4.749-.117,7.154h0c-.018,2.113-.226,4.575-.045,6.6-1.511-.258-3.048-.361-4.518-.549l.006-.037h0a71.038,71.038,0,0,0-.232-13.116c.829-.02,1.671,0,2.5,0" transform="translate(-623.717 -608.07)" fill="#161616"/>
        <path id="패스_348" data-name="패스 348" d="M1014.792,276.781c-2.565,5.61-6.424,10.551-9.246,16.052-5.615,10.627-11.192,21.249-16.419,32.071l.153-.311c-5.832,12-13.061,23.229-19.255,35.025l.007-.014a14.873,14.873,0,0,0-1.317,2.214c-.434,1.374,1.136,1.3,1.489.142,4.652-9.109,10.414-17.628,15.126-26.713,7.157-13.3,13.618-26.944,20.7-40.287,1.932-3.8,4.115-7.465,6.221-11.168.8-.919,5.813-9.508,2.542-7.011m.956.6v0l-.013.027.012-.025" transform="translate(-761.1 -217.123)" fill="#161616"/>
        <path id="패스_349" data-name="패스 349" d="M1151.571,272.9c-.324.975-2.216,2.667-1.527,3.586,1.078.3,1.8-2.3,2.446-3.006.578-.905-.361-1.491-.919-.579" transform="translate(-903.519 -214.067)" fill="#161616"/>
        <path id="패스_350" data-name="패스 350" d="M1138.2,287.033a15,15,0,0,1-.57,1.413c-.275.709.546.864.837.278.174-.587,1.155-1.835.441-2.251-.325-.06-.612.3-.708.56" transform="translate(-893.839 -225.089)" fill="#161616"/>
        <path id="패스_351" data-name="패스 351" d="M1134.859,305.925a7.215,7.215,0,0,0-.96,1.594c-.279.767.561.917.893.3.225-.705,1.452-1.518.861-2.251-.3-.19-.635.134-.793.36" transform="translate(-890.906 -240.051)" fill="#161616"/>
        <path id="패스_352" data-name="패스 352" d="M1120.111,325.709c-.241.437-1.058,1.036-.581,1.541.246.154.537-.107.66-.3.2-.459,1.03-1.027.562-1.532-.243-.155-.509.11-.641.29" transform="translate(-879.545 -255.659)" fill="#161616"/>
        <path id="패스_353" data-name="패스 353" d="M1107.343,473.176c-.194.723-1.711,2.265-.82,2.8.888-.047,1.394-1.973,1.786-2.7.1-.7-.768-.582-.966-.1m.315,1.467c-.025.052-.05.1-.075.155l.075-.155" transform="translate(-869.221 -371.486)" fill="#161616"/>
        <path id="패스_354" data-name="패스 354" d="M1090.879,497.99c-.235.937-1.714,1.983-1.05,2.922.265.167.613-.035.789-.239.467-.814,1.89-2.206,1.23-3.121-.352-.215-.818.144-.969.439" transform="translate(-856.19 -390.896)" fill="#161616"/>
        <path id="패스_355" data-name="패스 355" d="M1114.513,448.621c-.358.54-1.363,1.387-.738,2.034.811.257,1.254-.985,1.652-1.507.313-.714-.458-1.115-.914-.527" transform="translate(-874.98 -352.278)" fill="#161616"/>
        <path id="패스_356" data-name="패스 356" d="M867.954,695.455c-1.073,1.307-4.047,3.166-4.072,4.819.765.562,1.436-1.394,2.076-1.738.674-.814,2.981-1.936,2.647-3.052a.433.433,0,0,0-.65-.028" transform="translate(-678.787 -546.344)" fill="#161616"/>
        <path id="패스_357" data-name="패스 357" d="M870.137,680.3c-1.046.341-1.732,1.339-2.638,1.932-.585.453-2.191,1.524-1.07,2.2,1.164-.313,2.04-1.492,3.045-2.167.578-.332,1.912-1.732.663-1.967" transform="translate(-680.483 -534.543)" fill="#161616"/>
        <path id="패스_358" data-name="패스 358" d="M897.639,673.347c-.857.662-3.655,1.452-2.693,2.864.972.133,1.825-.953,2.727-1.287.74-.232,1.092-1.937-.034-1.577" transform="translate(-703.039 -529.038)" fill="#161616"/>
        <path id="패스_359" data-name="패스 359" d="M10.627,607.73c-1.619.54-2.243,2.521-3.05,3.882.119-1.7-.638-3.764-2.585-2.281-1.458,1.243-1.73,3.326-2.2,5.083A106.452,106.452,0,0,0,.841,642.088c.264,1.157-.254,2.687.48,3.634.8.338,1.549-.682,1.577-1.4-.075-1.731-.149-3.47-.17-5.205a145.488,145.488,0,0,1,.922-20.55c.406-1.215.709-8.652,2.318-7.766.536,1.574-.323,3.317.077,4.862C7.656,616.941,9,610.4,10.324,609.5c1.407,1.285-.277,3.63-.148,5.279.329,3.378,3.905-4.194,5.094-4.493.725.955.135,2.239-.28,3.209.039-.087.077-.174.115-.26-.155.718-1.569,2.99-.646,3.32.4.057.708-.39.824-.71.624-2,2.167-3.859,1.806-6.06-1.184-3.852-4.264,1.3-5.322,2.736.335-1.552,1.265-4.584-1.141-4.793m-.331,1.76h0l-.042.027c.013-.01.026-.019.039-.028m.012.017-.044.043.044-.043m3.327,2.523-.088.126.088-.126M.845,642.157c0,.031,0,.063.006.094,0-.031,0-.063-.006-.094" transform="translate(-0.529 -477.519)" fill="#161616"/>
        <path id="패스_360" data-name="패스 360" d="M543.981,415.738c-.949.011-1.193,3.405-.034,2.88a1.091,1.091,0,0,0,.562-1.1c-.273-.525.383-1.792-.528-1.775" transform="translate(-426.791 -326.663)" fill="#161616"/>
        <path id="패스_361" data-name="패스 361" d="M545.515,445.317c-1.308.415-1.109,2.25-.721,3.271.484.613,1.271-.182,1.415-.712-.026-.659.348-2.691-.694-2.559" transform="translate(-427.838 -349.9)" fill="#161616"/>
        <path id="패스_362" data-name="패스 362" d="M571.815,422.639c-.845.471-.3,1.541-.321,2.294-.047.346.243.664.586.464a.98.98,0,0,0,.5-.977c-.2-.513.116-2.056-.762-1.782" transform="translate(-448.924 -332.06)" fill="#161616"/>
        <path id="패스_363" data-name="패스 363" d="M272.382,593.15c-1.417,1.547-7.516,7.888-6.592,9.75,1.283,1.378,3.162,1.923,4.645,3.013.7.546,2.07,1.827,2.859.909.256-.322.492-1.038.03-1.306-2.1-1.259-4.351-2.284-6.4-3.648a78.052,78.052,0,0,1,5.12-6.777c.442-.531,1.3-.992,1.144-1.792a.461.461,0,0,0-.81-.15m-5.654,9.011h0l-.01.016.01-.016" transform="translate(-208.768 -465.925)" fill="#fefefe"/>
        <path id="패스_364" data-name="패스 364" d="M280.231,652.734c-1.49,1.55-2.7,3.312-4.063,4.966-.6.529-1.33,1.256-1.051,2.129,2.14,4.852,4.8,9.438,6.984,14.27l-.018-.041c1.219,1.977,1.655,4.591,2.96,6.385,1.4-.26.556-1.9.257-2.752a123.784,123.784,0,0,0-8.786-18.729c1.588-1.686,2.832-3.657,4.473-5.307.646-.679.028-1.846-.754-.92m3.979,26.186-.079-.178.079.178" transform="translate(-216.123 -512.611)" fill="#fefefe"/>
        <path id="패스_365" data-name="패스 365" d="M521.1,583.734c-1.221,1.085.424,2.4.978,3.4a45.963,45.963,0,0,1,3.417,4.912c-1.021,1.072-4.949,3.415-4.834,4.754.085.394.542.392.789.147,1.38-1.174,2.682-2.442,4.153-3.51.553-.475,1.25-.894,1.456-1.638a1.017,1.017,0,0,0-.122-.843,29.489,29.489,0,0,0-4.027-5.8c-.533-.515-.869-2.192-1.809-1.421" transform="translate(-409.101 -458.508)" fill="#fefefe"/>
        <path id="패스_366" data-name="패스 366" d="M513.844,642.554c-2.073,1.889,4.421,5.094,5.755,6.088-1.789,7.332-4.828,14.328-7,21.564-.133.6-1.376,3.176-.9,3.4.232.123.508-.131.6-.326,1.606-3.746,3-7.568,4.366-11.406l-.049.124c.036-.089.072-.178.108-.267l-.051.125c.8-2.923,5.032-12.394,4.017-14.68-1.835-1.729-4.45-2.646-5.992-4.649-.2-.322-.629-.165-.853.026" transform="translate(-401.978 -504.716)" fill="#fefefe"/>
        <path id="패스_367" data-name="패스 367" d="M239.868,746.851c-1.161.6-.088,3.2-.437,4.4.039,6.011.352,12.018.178,18.029a38.73,38.73,0,0,1-.021,4.262c-.233.373-.082,1.288.5.982.82-.631.445-1.905.545-2.813.032-5.988.166-11.971-.218-17.953-.316-1.2.412-6.7-.548-6.9" transform="translate(-188.037 -586.832)" fill="#fefefe"/>
        <path id="패스_368" data-name="패스 368" d="M238.173,720.069a1.273,1.273,0,0,0-.836,1.16c.178.613-.376,2.077.637,2.009s1.322-3.333.2-3.169" transform="translate(-186.485 -565.784)" fill="#fefefe"/>
        <path id="패스_369" data-name="패스 369" d="M129.688,919.011c-.447.359-.634.962-1.024,1.383-.292.4-.947.878-.66,1.43.444.814,3.209-3.356,1.684-2.813" transform="translate(-100.522 -722.067)" fill="#fefefe"/>
        <path id="패스_370" data-name="패스 370" d="M137.575,918.073c-.074.726-1.821,3.89.074,3.009.386-.445,1.78-3.7.792-3.805-.425-.046-.771.442-.866.8" transform="translate(-107.465 -720.74)" fill="#fefefe"/>
        <path id="패스_371" data-name="패스 371" d="M585.719,690.687c-.715-.065-.826,3.351-.13,3.122.742-.243.461-1.151.467-1.735-.092-.412.335-1.4-.337-1.386" transform="translate(-459.753 -542.701)" fill="#fefefe"/>
        <path id="패스_372" data-name="패스 372" d="M721.292,859.932c-.4.683-1.819,1.593-1.244,2.421.207.109.4-.062.538-.2l-.018.019c.48-.7,1.744-1.438,1.437-2.374-.2-.276-.546-.059-.712.138m-.731,2.242-.019.02.025-.026-.006.006" transform="translate(-565.665 -675.474)" fill="#fefefe"/>
        <path id="패스_373" data-name="패스 373" d="M732.309,861.866c-.018.615-.8,1.744-.055,2.094.347.038.63-.361.707-.65.015-.61.77-1.742.046-2.086-.34-.037-.625.355-.7.642" transform="translate(-575.109 -676.698)" fill="#fefefe"/>
        <path id="패스_374" data-name="패스 374" d="M878.487,841.232c-.494.845.463,1.355.893.475.494-.845-.464-1.355-.893-.475" transform="translate(-690.155 -660.63)" fill="#fefefe"/>
        <path id="패스_375" data-name="패스 375" d="M858.345,861.442c-.659,1.19.6,1.86,1.225.652.659-1.19-.6-1.86-1.225-.652" transform="translate(-674.291 -676.37)" fill="#fefefe"/>
        <path id="패스_376" data-name="패스 376" d="M326.325,393.3c-.032.459-.847,2.792.278,1.938a7.752,7.752,0,0,0,.478-2.21c-.147-.478-.726-.055-.756.273" transform="translate(-256.159 -308.653)" fill="#fefefe"/>
        <path id="패스_377" data-name="패스 377" d="M336.085,392.277c-.059.587-.767,2.079.226,2.105.864-.279.635-1.394.9-2.082.261-1.1-.98-.856-1.124-.024" transform="translate(-263.84 -307.667)" fill="#fefefe"/>
        <path id="패스_378" data-name="패스 378" d="M346.89,391.145c-.443.288-.176,1.044-.361,1.507.015.456.552.115.514-.187-.079-.371.228-1.166-.153-1.32" transform="translate(-272.282 -307.339)" fill="#fefefe"/>
        <path id="패스_379" data-name="패스 379" d="M380.955,320.191c-.914.249-2.411,1.273-2.034,2.349.541.522.962-.462,1.365-.715.48-.268,1.144-.5,1.135-1.159.033-.271-.181-.555-.467-.476" transform="translate(-297.687 -251.578)" fill="#fefefe"/>
        <path id="패스_380" data-name="패스 380" d="M387.493,324.5c-.827.225-3.176,1.757-1.8,2.559.676-.109,1.14-.782,1.773-1.046.566-.244.928-1.59.027-1.513" transform="translate(-302.722 -254.968)" fill="#fefefe"/>
        <path id="패스_381" data-name="패스 381" d="M404.943,324.6c-.456.3-1.069.578-1.074,1.208.07,1.163,1.765-.087,1.7-.775a.414.414,0,0,0-.628-.433" transform="translate(-317.336 -254.993)" fill="#fefefe"/>
      </g>
    </g>
  </g>
</svg>
