<svg id="그룹_242" data-name="그룹 242" xmlns="http://www.w3.org/2000/svg" xmlns:xlink="http://www.w3.org/1999/xlink" width="423.948" height="340.785" viewBox="0 0 423.948 340.785">
  <defs>
    <clipPath id="clip-path">
      <rect id="사각형_336" data-name="사각형 336" width="423.948" height="340.785" fill="none"/>
    </clipPath>
  </defs>
  <g id="그룹_241" data-name="그룹 241" clip-path="url(#clip-path)">
    <path id="패스_1185" data-name="패스 1185" d="M28.427,208.968c-3.579-15.339-5.19-31.07-9.038-46.35.154-2.2,2.325-1.207,2.5.486a240.4,240.4,0,0,1,5.444,27.814c.977,5.816,2.2,11.594,3.453,17.348a1.247,1.247,0,1,1-2.241,1.095,1.268,1.268,0,0,1-.117-.395" fill="#fff"/>
    <path id="패스_1186" data-name="패스 1186" d="M43,214.568c-3.894-.333-9.846-.246-12.831-2.937-1.207-1.157-1.8-3.358-.433-4.624,1.353-1.122,3.182-1.439,4.76-2.148,2.928-1.266,5.974-2.217,8.97-3.294.751-.19,1.314.764.982,1.4-.763.846-2.1,1.006-3.117,1.472a97.178,97.178,0,0,0-10.5,4.363c-1.446,3.383,10.914,3.559,13.043,3.623,6.7-.084,13.4-.511,20.019-.513a200.02,200.02,0,0,0,26.194-2.281c5.725-1.06,11.749-1.442,17.107-3.851.006-2.976,3.693,0,1.732,1.648-5.307,3-11.664,3.276-17.548,4.394-15.95,2.789-32.248,2.5-48.379,2.749" fill="#fff"/>
    <path id="패스_1187" data-name="패스 1187" d="M50.147,295.335c-1.056-1.108-.745-2.945-1.213-4.339q-1.05-5.09-1.769-10.237c-1.211-8.025-2.5-16.287-3.093-24.348-1.506-12.13-3.025-24.26-4.128-36.434a46.231,46.231,0,0,0-.719-4.784,1.741,1.741,0,0,1,.033-1.319c.881-1.44,2.366.1,2.432,1.3,1.158,6.2,1.418,12.542,2.082,18.807,2.03,13.433,2.806,27.032,4.751,40.478.725,4.741,1.226,9.516,2.183,14.217.292,1.739.748,3.441,1.177,5.149.407,1.046-.713,2.364-1.735,1.513" fill="#fff"/>
    <path id="패스_1188" data-name="패스 1188" d="M89.833,293.894c-1.613-.969-1.033-3.7-1.31-5.331-.378-3.948-.624-7.907-.919-11.862-1.115-12.7-1.1-25.427-1.258-38.159-.433-6.111-.413-12.231-.5-18.354.029-2.552.064-5.107.088-7.658.045-1.44,1.969-1.27,2.105.1.5,9.3.314,18.63.816,27.935.094,8.417-.013,16.829.354,25.241.4,6.52.87,13.037,1.285,19.557.164,1.848.261,3.7.418,5.549.146,1.04.648,3.329-1.082,2.986" fill="#fff"/>
    <path id="패스_1189" data-name="패스 1189" d="M68.159,289.136c-1.778-.3-1.242-2.527-1.407-3.83-.144-2.876-.188-5.756-.442-8.625-1.372-11.142-1.6-22.362-2.121-33.564-.1-6.522-.256-13.033-.648-19.546-.068-2.318-.146-4.639-.41-6.945-.177-1.118-.711-4.223,1.287-3.239v-.01c1.457,2.1,1.07,5.1,1.442,7.568.177,4.22.518,8.43.651,12.653.11,8.919.55,17.829.858,26.745.534,7.76,1.446,15.5,1.669,23.272-.262,1.525,1.328,5.323-.879,5.521" fill="#fff"/>
    <path id="패스_1190" data-name="패스 1190" d="M11.436,128.125c-18.209-2.432-12.429-17.608,1.7-20.979,1.257-.621,2.925.441,1.958,1.8-.476.421-1.22.4-1.8.631C8.31,111.039,2.865,114.225,2,119.793c-.065,3.92,6.42,5.2,9.475,5.713,1.481.091,1.637,2.866-.035,2.622" fill="#fff"/>
    <path id="패스_1191" data-name="패스 1191" d="M188.89,305.237c-2.022-.328,1.2-7.638,1.4-8.91a37.879,37.879,0,0,1,21.345-22.845,95.236,95.236,0,0,1,17.057-5.2c10.661-1.111,21.458.3,31.846,2.76,11.913,2.8,23.933,5.1,35.881,7.745,5.947,1.448,11.694,3.649,17.78,4.524,4.844.721,9.659,1.617,14.419,2.78,8.709,2.122,17.719,2.209,26.615,1.608,4.627-.087,9.261.142,13.866-.474,7.088-1.087,14.137-3.348,19.38-8.453,3.731-3.132,5.09-8.1,5.734-12.748.655-6.734.434-14.307-3.442-20.1-9.8-14.87-20.7-20.7-38.546-19.166A179.475,179.475,0,0,0,315.269,234c-10.327,2.365-20.8,6.135-31.491,3.7-7.433-1.189-16.238-4.551-18.528-12.465-2.294-8.065,2.339-16.738,8.446-21.876,7.377-5.466,16.7-7.371,25.622-8.629,7.666-1.246,15.435-.918,23.137-1.581,2.381-.3,4.734-.813,7.129-1.012,2.83-.273,5.776-.027,8.472-1.08,6.191-2.494,12.164-7.593,13.582-14.345,1.6-7.6-5.132-12.925-10.667-16.809-4.49-2.8-9.86-3.751-14.834-5.407-6.424-1.694-16.16-6.641-12.24-14.663-9.744,7.618-21.336,13.67-33.868,14.458-5.751-.25-11.751-.723-17.226-2.582-14.842-6.021-9.706-19.126-2.978-29.534,5.48-8.854,12.99-17.57,11.941-28.68-.128-16.674-18.425-24.993-33.077-24.648a79.3,79.3,0,0,0-39.366,7.824c-15.238,7.315-30.245,26.56-8.921,36.993,10.93,3.66,22.827,2.343,34.05,4.747,6.09,1.137,12.885,1.813,17.661,6.152,7.58,6.635,7.17,15.9,2.715,24.235-2.82,4.407-6.156,9.667-11.629,10.815-10.713,2.042-17.558-9.458-27.571-10.213-6.049,0-11.633,2.475-16.778,5.413-7.753,3.689-14.67,9.121-23.235,10.935-5.594,1.053-11.419,1.764-17.077.822-4.969-.594-9.6-2.672-14.531-3.446-9.032-2.028-18.2-3.841-27.5-3.076-4.308.506-8.14,2.613-12.193,3.66l.307-.9-.785-.7a58.3,58.3,0,0,1,11.138-3.927c3.49-.673,7.071-.173,10.6-.215,6.719.184,13.221,2.126,19.814,3.243,4.64.927,9.066,2.768,13.791,3.313a45.517,45.517,0,0,0,25.567-4.423c9.639-4.841,24.717-16.422,35.749-11.446,6.361,2.23,11.14,8.035,17.991,8.9,5.447,1.354,9.42-2.406,12.354-6.481,4.014-5.207,6.928-12.538,4.45-19.006-2.762-7.034-10.257-9.876-17.239-10.75-11.435-2.536-23.294-1.933-34.708-4.392a23.1,23.1,0,0,1-13.589-9.856c-1.861-3.2-1.774-7.122-1.457-10.7,2.257-10.028,11.531-16.9,20.15-21.523a80.327,80.327,0,0,1,38.878-8.011c12.422-.206,26.8,4.15,33.16,15.624,3.919,7.241,3.876,16.139,1.06,23.757-2.539,6.292-6.954,11.616-10.338,17.459-5.2,8.414-11.466,20.189.875,25.618,3.719,1.831,7.923,1.957,11.958,2.513a29.353,29.353,0,0,0,10.891-.21,61.162,61.162,0,0,0,22.858-10.01c6.857-4.134,14.286-12.626,17.079-20.131,1.637-5.748,3.123-12.6.018-18.09-2.028-2.827-4.3-5.82-7.831-6.733-5.713-2.255-11.7-.537-16.91,2.159-9.258,4.282-18.038,13.17-18.311,23.864,1.506,8.075,14.214-5.76,18.441-6.017,8.58-2.325,9.827,6.407,5.715,11.935-5.311,6.393-14.44,9.9-22.6,7.8-11.757-2.313-13.732-10.7-11.027-21.216,1.871-6.189,6.3-12.262,11.084-16.549a58.6,58.6,0,0,1,25.984-12.362c7.334-.544,14.97-1.034,22.1,1.148,4.748,1.15,8.284,4.587,11.316,8.231,5.1,5.742,2.1,14.465-1.511,20.228a42.217,42.217,0,0,1-9.561,9.357,57.307,57.307,0,0,0-8.759,6.376c-3.436,3.048-10.94,10.359-7.078,15.133,7.454,7.663,20.063,5.822,28.006,12.771,4.468,3.352,9.222,7.587,9.758,13.495.875,9.443-6.987,17.355-15.326,20.389-4.448,1.3-9.2.729-13.721,1.78-12.427,1.242-25.17.531-37.271,4.239-5.371,1.6-10.94,3.694-14.855,7.863-7.4,7.674-9.527,20.84,2.1,25.619a41.316,41.316,0,0,0,23.809,2.84c4-.43,7.783-1.868,11.676-2.8,2.929-.67,5.88-1.254,8.754-2.143,8.959-3.026,18.289-4.432,27.638-5.6,8.035-1.037,16.665-1.593,24.422,1.114A38.783,38.783,0,0,1,387.8,238.651c3.678,4.268,7.266,8.894,8.211,14.6,5.228,30.138-15.19,37.924-41.357,36.979-6.353.3-12.735.525-19.049-.416-7.626-1.12-15.036-3.388-22.7-4.339-6.078-.964-11.8-3.324-17.808-4.592-8.2-1.868-16.47-3.433-24.693-5.207-10.739-2.435-21.5-5.354-32.581-5.473a44.891,44.891,0,0,0-16.9,2.414c-8.634,2.275-17.141,6.414-22.78,13.534a41.68,41.68,0,0,0-6.449,12.186c-1.082,2.2-1.053,7.357-2.808,6.9m98.386-170.334A22.219,22.219,0,0,0,305,126.67c1.457-2.041,2.907-7.131-.186-8.273-6.907-1.636-12.561,6.9-18.864,8.595-7.8,1.13-6.069-9.181-3.574-13.5,3.605-7.957,10.681-13.8,18.624-17.148,3.321-1.441,6.808-2.852,10.495-2.676,3.588.3,7.444,1.085,10.27,3.446,2.452,2.377,4.928,5.037,5.894,8.393,1.864,7.491.087,15.931-3.815,22.511,2.947-2.623,6.631-4.224,9.583-6.837,6.162-5.254,12.187-13.461,9.706-21.947C337.93,90.081,328.913,87.785,319,88c-3.5.2-7.058-.009-10.511.711a59.6,59.6,0,0,0-12.14,4.295,41.489,41.489,0,0,0-19.788,17.518c-2.974,4.969-4.282,11.409-2.732,17.046,1.875,5.379,8.412,6.737,13.444,7.338" fill="#fff"/>
    <path id="패스_1192" data-name="패스 1192" d="M223.995,340.675c-12.281-.916-23.081-4.127-30.851-14.323-4.083-5.651-6.638-11.07-5.793-18.211.326-1.207.073-6.7,2.1-5.707a.824.824,0,0,1,.468,1.393c-.406,3.743-.831,7.594-.143,11.326a31.259,31.259,0,0,0,10.815,15.724c6.482,5.573,15.2,7.029,23.46,7.735,4.977.423,9.872-.933,14.8-1.446a167.653,167.653,0,0,0,49.309-16.289c8.521-4.634,17.325-8.7,26.239-12.514,10.6-4.886,21.649-9.215,33.246-10.969,6.787-.384,15.876-.427,21.347,4.047,7.907,6.734,4.951,15.3-2.534,20.887-3.525,3.383-7.782,6.149-10.764,10.037a18.182,18.182,0,0,0-1.027,2.075c-.215.678-.572,1.719-1.474,1.229a1.284,1.284,0,0,1-.529-1.465c1.292-5,5.978-7.812,9.554-11.116,5.126-4.36,13.3-10.344,8.054-17.708-3.308-4.869-9.649-5.87-15.129-6.024a32.929,32.929,0,0,0-9.9.478c-15.425,3-29.616,10.138-43.8,16.636-7.072,3.328-13.781,7.388-20.982,10.441-9.114,3.716-18.317,7.385-27.939,9.565a145.052,145.052,0,0,1-17.137,3.3c-3.773.513-7.567,1.3-11.39.9" fill="#fff"/>
    <path id="패스_1193" data-name="패스 1193" d="M408.6,337.263c-1.014-3.8,3.189-7.224,5.651-9.605,3.162-3.064,8.615-5.817,7.675-11-.268-3.495-3.477-5.81-6.793-5.953-4.753-.984-9.53-1.99-14.331-2.671-7.847-.992-15.517-3-23.285-4.437-5.53-1.387-11.457-1.97-16.73-4.117-.618-.608-.072-1.743.833-1.311,1.543.385,3.056.879,4.622,1.177,6.545,1.5,13.138,2.766,19.755,3.93,10.911,2.513,22.154,3.536,33,6.255,6.735,3.785,6.339,12.2.418,16.622-3,2.53-6.277,4.9-8.45,8.231-.7.858-.678,4.537-2.359,2.877M361.815,298.93q-.15-.344-.3-.689l-.555-.122.85.812" fill="#fff"/>
    <path id="패스_1194" data-name="패스 1194" d="M408.953,338.556c-10.572-.473-21.214-.571-31.806-1.275A117.075,117.075,0,0,1,364.278,337a60.708,60.708,0,0,1-10.707-.931,1.09,1.09,0,0,1-.847-1.836c1.048-.463,2.346.166,3.47.157,2.119.277,4.254.319,6.388.4,6.366.729,12.756.161,19.13.7,7.623.264,15.252.348,22.87.751a13.987,13.987,0,0,0,4.1-.123.968.968,0,0,1,.876.193c.881.6.665,2.476-.606,2.248" fill="#fff"/>
    <path id="패스_1195" data-name="패스 1195" d="M235.84,339.437c-.257-.046-.512-.1-.764-.164q-.1-.025-.2-.057c-1.286.208-1.221-2.652.128-1.632,3.137.76,6.381.181,9.53-.19,6.761-.925,13.361-2.745,20.1-3.822,5.632-1.432,11.395-2.046,17.109-3.021,6.531-1.214,12.9-2.543,19.313-4.2,8.728-1.979,16.792-6.11,24.907-9.772,9.182-3.875,18.309-8.179,27.943-10.784a68.09,68.09,0,0,1,11.354-1.907c2,.027,4.265-.3,6.1.5a1.084,1.084,0,0,1-.008,1.744c-.836.371-1.758-.171-2.609-.07a39.009,39.009,0,0,0-8.393.749c-7.337,1.1-14.3,3.794-21.142,6.561-11.432,4.127-22.1,10.154-33.647,13.96q-12.716,3.357-25.7,5.55c-4.513.679-9.037,1.254-13.476,2.344-4.53.9-9.12,1.657-13.647,2.546-5.546,1-11.255,2.356-16.907,1.66" fill="#fff"/>
    <path id="패스_1196" data-name="패스 1196" d="M266.559,331.029c-3.426-.277-6.853-.06-10.213-.953-6.108-.954-12.353-2.549-16.65-7.332-6.318-6.384-6.546-16.2-4.355-24.414,1.289-4.109,3.857-7.773,6.333-11.259,4.618-5.78,10.248-11.045,17.4-13.428,1.995-.561,4.726-1.343,6.466.061.313.478.212,1.287-.419,1.416-5.91-.879-12.007,3.7-16.365,7.282-5.76,5.788-11.534,12.687-12.454,21.083-1.717,8.709,1.937,18.034,10.479,21.5,4.183,1.96,8.873,2.405,13.323,3.506,2.241.221,4.489.339,6.731.552,1.163-.019,2.307-.448,3.459-.391a1.072,1.072,0,0,1,.421,1.787,1.98,1.98,0,0,1-1.331.275,26.193,26.193,0,0,1-2.821.315" fill="#fff"/>
    <path id="패스_1197" data-name="패스 1197" d="M321.056,285.548a36.466,36.466,0,0,1-4.656-.375l.076.01.135.017c-3.041-.511-6.1-.575-8.993-1.4-1.1-1.694,1.242-2.018,2.443-1.69a88.017,88.017,0,0,0,29.135-.06,34.043,34.043,0,0,0,13.07-6.7c3.8-3.645,6.8-8.65,7.058-14,.309-4.919-2.314-8.335-4.611-12.4-6.035-7.8-14.913-13.781-24.685-15.564a52.177,52.177,0,0,0-17.5,1.187.783.783,0,0,1-1.363-.6c.092-1.454,4.846-2.021,6.089-2.309,11.855-1.792,20.633-.051,30.365,7.155A33.721,33.721,0,0,1,358.1,250.393c1.467,2.526,3.1,5.1,3.111,8.12,1.1,8.824-4.567,17.4-11.837,21.957-8.454,5.213-18.683,5.451-28.314,5.086" fill="#fff"/>
    <path id="패스_1198" data-name="패스 1198" d="M252.729,277.7c-.489-1.441,4.082-2.369,5.139-2.723a33.413,33.413,0,0,1,13.565-.767c2.025.288,4,.849,6.013,1.194a.747.747,0,0,1,.5.833c-.019,1.867-5.161-.3-6.4-.273-.667.5-1.667-.045-2.458.037a26.761,26.761,0,0,0-8.9.272c-2.044.459-4.053,1.057-6.075,1.6-.462.251-1.187.543-1.387-.175" fill="#fff"/>
    <path id="패스_1199" data-name="패스 1199" d="M328.923,285.563c-8-1.858-15.535-5.336-23.186-8.261-6.648-2.659-13.14-5.759-20.06-7.647a78.417,78.417,0,0,0-51.324-2.783,102.855,102.855,0,0,0-19.554,6.921c-.379.064-.68-.329-.672-.686-.031-.782.819-1.041,1.392-1.339a69.594,69.594,0,0,1,8.245-3.431c17.273-6.119,36.387-9.308,54.187-3.493a76.476,76.476,0,0,1,8.927,2.857c4.7,1.023,9.068,3.041,13.522,4.8,7.247,2.881,14.41,5.931,21.7,8.693a89.744,89.744,0,0,0,8.75,2.619,1.054,1.054,0,0,1,.388,1.13c-.246,1.118-1.488.987-2.319.618" fill="#fff"/>
    <path id="패스_1200" data-name="패스 1200" d="M315.269,232.891c-3.7-.461-7.76-.478-10.911-2.715-6.573-5.353-4.845-13.844.412-19.459a35.643,35.643,0,0,1,20.255-10.8c11.983-1.235,23.868,1.888,35.827,2.279,11.6.765,24.023-2.545,32.1-11.272,6.278-6.453,5.971-16.994,1.931-24.556-3.243-6.03-8.9-10.145-14.6-13.676a88.869,88.869,0,0,0-10.261-5.972c-4.393-2.379-10.5-6.038-7.149-11.795,1.965-3.547,5.52-5.809,8.589-8.317a56.659,56.659,0,0,0,6.474-6.76c3.79-4.476,6-11.835,3.777-17.451-3.735-8.72-15.139-13.722-23.979-15.218-7.7-1.867-15.586-1.417-23.428-1.271a174.836,174.836,0,0,0-17.62,1.337c-6.759.932-13.578,2.216-19.806,5.1a.576.576,0,0,1-.372.339c-.075.018-.144.019-.137.011-1.031-.047-.9-1.542-.023-1.813a49.828,49.828,0,0,1,9.264-3.434,114.715,114.715,0,0,1,17.452-3.07,139.724,139.724,0,0,1,27.5-.609,55.711,55.711,0,0,1,8.78,1.536,39.64,39.64,0,0,1,14.241,5.733c5.96,3.867,11.168,9.415,10.7,17.006-.665,8.073-3.88,12.622-9.439,18.159-2.973,3.7-12.546,7.89-10.928,13.4,2.37,3.446,6.711,4.939,10.225,6.964,6.031,3.41,12.024,7.063,17.1,11.818,8.784,8.292,11.888,24.059,3.456,33.609-6.529,7.489-16.185,11.641-25.98,12.5-10.84.741-21.64-1.356-32.408-2.319-5.356-.488-10.833-.535-16.01,1.1-6.842,2.38-13.558,6.647-17.12,13.127a8.992,8.992,0,0,0,2.89,12.33c1.951,1.11,4.183,1.277,6.337,1.711a28.517,28.517,0,0,0,9.573.15c.784.065,2.186-.624,2.433.513a.847.847,0,0,1-.5,1.012,21.155,21.155,0,0,1-8.635.766" fill="#fff"/>
    <path id="패스_1201" data-name="패스 1201" d="M346.332,198.029c-3.49-.661-7.031-.847-10.56-1.161-6.29-.666-12.6-1.266-18.934-1.352-3.465.034-6.912.418-10.359.723-3.112.073-6.225,0-9.338.134-.309.745-1.273.176-1.093-.5a1.771,1.771,0,0,1,.5-.93,14.312,14.312,0,0,1,2.757-.217,146.671,146.671,0,0,0,15.076-.994,76,76,0,0,1,10.627.189c7.049.633,14.133,1.1,21.121,2.243.673.048,1.531.246,1.464,1.1-.006.7-.655.96-1.26.768" fill="#fff"/>
    <path id="패스_1202" data-name="패스 1202" d="M353.643,201.364c-4.419-.462-8.862-.919-13.23-1.744-3.292-.6-6.707-.349-9.961-1.158-.669-.231-.526-1.546.262-1.378,2.374.238,4.737.485,7.127.517,3.906.407,7.761,1.247,11.668,1.662,1.218.1,2.43.229,3.645.345.652.023,1.518.154,1.461,1a.772.772,0,0,1-.971.757" fill="#fff"/>
    <path id="패스_1203" data-name="패스 1203" d="M318.822,147.155c-1.217-.935-1.541-2.629-1.8-4.062-.208-1.478.522-2.858,1.115-4.164.2-.406.513-1.079,1.076-.948.766.268.545,1.211.162,1.719-.315.759-.622,1.535-.846,2.28a6.36,6.36,0,0,0,1.1,3.984c.422.544-.1,1.619-.811,1.19" fill="#fff"/>
    <path id="패스_1204" data-name="패스 1204" d="M321.263,146.379c-1.838-1.485-2.308-5.077-.442-6.663.583-.156.906.659.679,1.1a3.579,3.579,0,0,0,.586,4.352c.559.552-.073,1.8-.822,1.206" fill="#fff"/>
    <path id="패스_1205" data-name="패스 1205" d="M325.572,145.173c-1.065-.492-1.736-2.69-1.542-3.814.277-1.226,1.823-.528,1.229.5-.057,1.019,2.031,2.917.314,3.315" fill="#fff"/>
    <path id="패스_1206" data-name="패스 1206" d="M339.766,95.635c-9.922-.394-19.912-1.448-29.816-.273a.855.855,0,0,1-.522-1.283c1.336-1.087,3.845-.679,5.521-.87a93.59,93.59,0,0,1,13.828-.123c3.722.21,7.471.1,11.167.6.938.249.867,1.978-.182,1.953" fill="#fff"/>
    <path id="패스_1207" data-name="패스 1207" d="M302.338,117.714c-1.933-2.419,3.963-1.636,5.124-1.869,2.779-.159,5.555-.305,8.337-.385,2.773-.055,5.555-.151,8.327-.022a9.753,9.753,0,0,1,2.192.274,1.088,1.088,0,0,1,.053,1.707c-.936.34-2.019-.06-3.011.032-2.825-.067-5.657-.067-8.483.029-4.163-.017-8.421.506-12.539.234" fill="#fff"/>
    <path id="패스_1208" data-name="패스 1208" d="M290.3,137.092a.877.877,0,0,1-.406-1.018c.333-.945,1.655-.489,2.428-.653,1.787-.13,3.567-.345,5.356-.458,2.243-.087,4.46-.4,6.69-.629a69.769,69.769,0,0,0,12.266-1.248c.989-.042,1.23,1.515.41,1.932a27.5,27.5,0,0,1-4.457.67,84.781,84.781,0,0,1-9.063.661c-4.386.367-8.834.739-13.224.742" fill="#fff"/>
    <path id="패스_1209" data-name="패스 1209" d="M284.536,153.71c-.936,0-2.458-.675-1.454-1.729.286-.212.642-.035.954.011a34.108,34.108,0,0,0,7.57-.211c3.471-.47,6.933-1,10.428-1.277,4.728-.606,9.242-1.561,13.914-2.219q.521-.138,1.054-.224a1.041,1.041,0,0,1,0,2.028,181.144,181.144,0,0,1-19.025,2.659c-4.46.486-8.947,1.332-13.446.962" fill="#fff"/>
    <path id="패스_1210" data-name="패스 1210" d="M315.716,132.907a13.065,13.065,0,0,0,2.228-1.357c.617-.394,1.06-1.231,1.806-1.336,2.505,1.117-2.5,3.969-3.6,4.365-.808.066-1.111-1.244-.433-1.673" fill="#fff"/>
    <path id="패스_1211" data-name="패스 1211" d="M314.019,134.176c-.541-1.436,1.646-1.722,2.381-2.566a38.219,38.219,0,0,0,5.068-5.349c1.052-1.262,1.548-2.983,2.687-4.128.629-.32,1.146.482.886,1.036-.627.8-.938,1.809-1.507,2.666-.52,1.449-8.3,10.619-9.516,8.341" fill="#fff"/>
    <path id="패스_1212" data-name="패스 1212" d="M313.165,134.572c-.57-1.482,1.955-1.88,2.712-2.8a34.767,34.767,0,0,0,5.754-6.319,18.228,18.228,0,0,0,3.2-7.875c.469-1.515,2.133.046,1.273.958-.649,5.322-4.076,9.813-7.955,13.317-.684.61-4.433,4.248-4.99,2.715" fill="#fff"/>
    <path id="패스_1213" data-name="패스 1213" d="M307.743,134.679c-.2-1.2,1.476-1.175,2.164-1.767a38.207,38.207,0,0,0,6.354-4.9c1.306-1.344,1.936-3.2,3.112-4.606.851-.5,1.547,1.011.7,1.4a15.636,15.636,0,0,1-4.808,6.314c-1.016.7-7.016,5.806-7.518,3.559" fill="#fff"/>
    <path id="패스_1214" data-name="패스 1214" d="M302.7,135.169c-.391-1.166,1.085-1.271,1.772-1.763,1.915-1.249,4.118-2.161,5.7-3.848.777-.7,1.772-2.658,2.868-2.524a.882.882,0,0,1,.053,1.443,30.045,30.045,0,0,1-3.086,3.41c-1.223.96-2.625,1.659-3.934,2.493-.871.363-2.762,2.177-3.374.789" fill="#fff"/>
    <path id="패스_1215" data-name="패스 1215" d="M297.888,127.377c-1.985.017-3.966-.133-5.952-.128-2.006-.076-4.034.306-6.022-.036-.827.531-1.327-1-.749-1.5.608-.418,1.446-.021,2.139-.1,4.917-.454,9.851.212,14.76-.294,1.023-.1,2.048.079,3.066.043a.688.688,0,0,1,.528.186c.576.482.385,1.727-.475,1.7-2.437-.2-4.859.22-7.3.129" fill="#fff"/>
    <path id="패스_1216" data-name="패스 1216" d="M304.366,126.007a1.374,1.374,0,0,1-.018-1.449,27.617,27.617,0,0,1,.567-4.353c.237-.735.09-1.891.884-2.273.613-.14.938.573.971,1.082.9,1.724-.416,3.969-.87,5.71.008.594.124,1.606-.8,1.484a.635.635,0,0,1-.729-.2" fill="#fff"/>
    <path id="패스_1217" data-name="패스 1217" d="M302.332,126.259c-1.342-2.047,1.668-6.821,3.181-8.374,1.312-1.073,1.847.983.73,1.75.131,1.1-1.01,2.493-1.365,3.581.918-1.643,2.183-1,1.578.695-.529,1.032-1.645,2.186-2.871,2.159-.35.3-.848.565-1.254.19" fill="#fff"/>
    <path id="패스_1218" data-name="패스 1218" d="M299.753,123.806c-1.216-.89,2.913-6.733,4.113-6.529.877.258.612,1.794-.218,1.88a14.932,14.932,0,0,0-2.177,2.932c-.4.6-.736,2.339-1.718,1.716" fill="#fff"/>
    <path id="패스_1219" data-name="패스 1219" d="M325.267,117.018c-.79-.815-.229-2-.157-2.98.264-7.243-1.054-12.445-6.9-17.135-.273-.045-.415-.3-.513-.534h.009c-.381-.707.348-1.6,1.047-.971a25.185,25.185,0,0,1,5.169,5.338,19.622,19.622,0,0,1,2.736,7.334c.243,1.189,1.064,10.557-1.387,8.944" fill="#fff"/>
    <path id="패스_1220" data-name="패스 1220" d="M322.353,116.93c-.945-.32-.623-1.424-.43-2.144a26.23,26.23,0,0,0,.4-5.432c.006-6.02-3.751-12.323-9.992-13.425a12.26,12.26,0,0,1-1.6-.5c-.838-.441-.313-1.893.622-1.357a15.515,15.515,0,0,1,8.678,4.577,18.854,18.854,0,0,1,3.849,9.944c.093,1.2.209,8.833-1.528,8.334" fill="#fff"/>
    <path id="패스_1221" data-name="패스 1221" d="M311.14,87.4c-1.489-1.162,1.277-2.474-.3-7.645-1.01-3.069-3.48-5.522-5.933-7.527-4.623-3.7-10.891-4.21-16.535-5.2-12.7-2.231-25.709-2.279-38.542-1.327A233.142,233.142,0,0,0,222.559,69c-.467,1.187-1.578-.122-1.217-.933.324-.866,1.494-.8,2.252-1q3.84-.644,7.666-1.366c6.851-.868,13.733-1.62,20.63-2.032a150.4,150.4,0,0,1,36.6,1.358c7.649,1.051,16.048,2.527,21,9.069a13.308,13.308,0,0,1,3.6,10.384c-.3.94-.477,3.6-1.957,2.922" fill="#fff"/>
    <path id="패스_1222" data-name="패스 1222" d="M234.6,159.052a1.174,1.174,0,0,1-.7-1.758c.359-.427.959-.234,1.445-.261a58.986,58.986,0,0,0,9.181-1.015,126.2,126.2,0,0,0,23.293-4.833,4.173,4.173,0,0,1,.893-.287c1.07-.069,1.379,1.709.453,2.132-3.431.842-6.816,1.875-10.266,2.653-2.89.644-5.84.959-8.736,1.579-4.946.537-9.85,1.558-14.842,1.538a.536.536,0,0,1-.715.253h0" fill="#fff"/>
    <path id="패스_1223" data-name="패스 1223" d="M270.148,106.082c-2.43-3.917-6.818-5.484-10.609-7.712a85.265,85.265,0,0,0-15.295-5.823c-4.121-1.087-8.3-1.97-12.336-3.361-3.476-1.148-6.968-2.413-9.819-4.779-1.753-1.107-3.643-2.21-4.347-4.292-2.007-4.708-.3-9.877,4.834-11.352,1.154-.216,4.432-1.858,4.934-.2.084.39-.073.982-.529,1.076a18.976,18.976,0,0,0-4.922,1.725c-3.352,1.337-3.69,5.576-2.032,8.386,1.4,2,3.793,3.125,5.739,4.538,8.089,4.008,17.231,4.944,25.628,8.1a71.77,71.77,0,0,1,11.024,5.043c2.851,1.473,5.822,2.878,7.757,5.555.613.8,1.515,1.653,1.366,2.744a.754.754,0,0,1-1.393.354" fill="#fff"/>
    <path id="패스_1224" data-name="패스 1224" d="M225.855,70a.922.922,0,0,1-.469-1.639c1.491-.524,3.114-.72,4.645-1.157,2.339-.85,2.609,1.181,1.449,1.347-1.7.087-3.306.943-5.007,1.153a.542.542,0,0,1-.618.3" fill="#fff"/>
    <path id="패스_1225" data-name="패스 1225" d="M213.836,81.083c-2.7-4.66.8-10.826,5.715-12.144,2.031-.633,2,2.638.526,1.67a8.478,8.478,0,0,0-5.533,7.426c-.085,1.068,1.184,2.521.114,3.331a.662.662,0,0,1-.822-.283" fill="#fff"/>
    <path id="패스_1226" data-name="패스 1226" d="M208.541,79.96c-.792-3.37,1.639-6.659,3.822-9,.61-.459,1.274-1.475,2.135-1.115.841.2.861,1.685-.14,1.517a15.638,15.638,0,0,0-4.318,6.291,4.553,4.553,0,0,0-.211,2.081.655.655,0,0,1-1.287.23" fill="#fff"/>
    <path id="패스_1227" data-name="패스 1227" d="M204.4,78.513c-1.573-.442,1.949-7,3.11-6.492.792.123.962,1.471.075,1.53a19.153,19.153,0,0,0-1.487,2.51c-.537.681-.562,2.7-1.7,2.452" fill="#fff"/>
    <path id="패스_1228" data-name="패스 1228" d="M255.954,154.845c-1.3-.776.074-2.206.443-3.153.654-.975,1.214-3.6,2.207-3.99.8-.019.907,1,.647,1.572a1.045,1.045,0,0,1,.671.12,1.056,1.056,0,0,1,.432.708c1.162.344,2.69.434,3.452,1.479.533.992-.414,1.665-1.261,1.943a29.951,29.951,0,0,1-3.371.9c-1.043.2-2.162.72-3.221.414" fill="#fff"/>
    <path id="패스_1229" data-name="패스 1229" d="M252.752,156.289c-.932-1.246,2.452-2.647,3.127-4.8.607-1.1.762-2.443,1.486-3.47.829-.627,1.392.674.947,1.331a12.706,12.706,0,0,1-3.048,5.821c-.685.471-1.692,2.121-2.512,1.116" fill="#fff"/>
    <path id="패스_1230" data-name="패스 1230" d="M247.715,157.009c-.713-1.184.912-1.773,1.506-2.548a23.774,23.774,0,0,0,3.283-4.949q.924-1.95,1.672-3.966c.212-.481.311-1.127.858-1.336.746-.167,1.075.888.7,1.412a27.446,27.446,0,0,1-4.566,9.154c-.7.654-2.506,3.495-3.457,2.231" fill="#fff"/>
    <path id="패스_1231" data-name="패스 1231" d="M238.351,158.784c-.368-1.031.816-1.387,1.505-1.792a20.777,20.777,0,0,0,2.648-1.834,30.061,30.061,0,0,0,5.857-7.4c.8-1.406.951-3.153,1.917-4.446a.64.64,0,0,0-.154.251c.313-.876,1.4-.191,1.113.552-.86,2.549-1.564,5.194-3.273,7.338a31.968,31.968,0,0,1-4.729,5.26c-.875.519-4.4,3.835-4.884,2.066" fill="#fff"/>
    <path id="패스_1232" data-name="패스 1232" d="M165.423,165.231c-.025-1.1.65-1.447,1.644-1.2a26.665,26.665,0,0,0,3.723-.744c5.661-1.19,11.206-2.756,16.728-4.464,3.765-1.14,7.543-2.232,11.342-3.25,2.423-.525,4.9-.749,7.307-1.374a87.078,87.078,0,0,1,12.26-1,1.049,1.049,0,0,1,.829,1.127c-.019,1.086-1.052.944-1.833,1.017a120.837,120.837,0,0,0-25.734,4.336c-6.085,1.717-12.106,3.709-18.318,4.923-2.29.262-4.6,1.508-6.907,1.068-.362.517-1.027.094-1.042-.441" fill="#fff"/>
    <path id="패스_1233" data-name="패스 1233" d="M199.189,149.75c-.919-1.55,1.618-1.7,2.594-1.968,3.081-.58,6.2-.964,9.32-1.242,5.236-.64,10.422-.356,15.655-.446a86.285,86.285,0,0,0,14.051.12,10.588,10.588,0,0,0,2.942-.952,1.078,1.078,0,0,1,.945-.214c.85.272.684,1.558-.039,1.9a22.774,22.774,0,0,1-11.235,1.759c-4.079.193-8.158-.21-12.24-.283a98.376,98.376,0,0,0-18.022.828,18.08,18.08,0,0,0-3.217.636.585.585,0,0,1-.754-.138" fill="#fff"/>
    <path id="패스_1234" data-name="패스 1234" d="M234.111,159.59c-1.206-.037-2.423.039-3.623-.109-.842.393-1.136-.96-.586-1.414.711-.466,1.69-.078,2.5-.179,2.4.046,4.8-.1,7.2-.234,8.49-.205,16.554-2.992,24.635-5.3.833-.189,1.094,1.257.319,1.491-4.789,1.476-9.538,3.157-14.409,4.331a75.077,75.077,0,0,1-16.033,1.415" fill="#fff"/>
    <path id="패스_1235" data-name="패스 1235" d="M166.013,163.8c-7.29-.05-14.474-1.536-21.707-2.317-5.46-.479-10.9-1.18-16.369-1.508a61.256,61.256,0,0,0-10.842-.625,74.279,74.279,0,0,0-20,2.638,8.707,8.707,0,0,0-2.037,1.036.62.62,0,0,1-.419.444c-.618.132-.936-.644-.77-1.142.29-.829,1.2-1.184,1.931-1.546,3.734-1.573,7.852-2.07,11.852-2.52a85.733,85.733,0,0,1,18.494-.4c9.136.725,18.265,1.56,27.349,2.815,5.106.745,10.254,1.458,15.424,1.062a17.024,17.024,0,0,0,3.208-.456c.671-.241,1.647-.508,1.82.469.587,2.09-6.579,1.976-7.938,2.047" fill="#fff"/>
    <path id="패스_1236" data-name="패스 1236" d="M368.128,305.315a19.435,19.435,0,0,1-2-1.311c.105.5-.162,1.113-.74,1.091-1.229-.394-1.821-2.034-2.773-2.886-1.175-1.214-2.85-1.573-4.292-2.282-1.807-3.234,4.552-.247,5.245.8a.686.686,0,0,1,.628-.185.835.835,0,0,1,.084.017c1.061-.783,2.915,1.634,3.75,2.268.631.464,1.9,1.114,1.059,2.027a.716.716,0,0,1-.887.488.545.545,0,0,1-.068-.023" fill="#fff"/>
    <path id="패스_1237" data-name="패스 1237" d="M359.032,305.379a8.4,8.4,0,0,0-3.19-3.193c-1.227-.489-.707-2.168.575-1.353,1.117.488,4.894,3.688,3.531,4.881a.748.748,0,0,1-.916-.335" fill="#fff"/>
    <path id="패스_1238" data-name="패스 1238" d="M111.724,24.871c3.047,1.929,1.3,3.172-1.492,2.375-.822-.18-1.642-.365-2.464-.547-1.213-.267-2.429-.526-3.653-.743a35.137,35.137,0,0,0-4.61-1.15c-.027.207-.265.307-.617.328-1.118.068-3.374-.654-3.523-1.19-.913-1.89,2.3-1.423,3.337-1.492,2.076.149,4.161.068,6.232.3,2.3.462,4.826.766,6.789,2.12" fill="#fff"/>
    <path id="패스_1239" data-name="패스 1239" d="M124.04,30.673c.3.408.381,1.046-.012,1.23a.7.7,0,0,1-.43.037,7.283,7.283,0,0,1-.938-.271A14.348,14.348,0,0,1,120,30.291a15.494,15.494,0,0,1-1.853-1.048,8.119,8.119,0,0,1-.672-.509c-.912-.712-.55-1.653.634-1.417a6.293,6.293,0,0,1,4.75,1.724,1.984,1.984,0,0,0,.255.211c.389.284.88.56.748,1.051a.861.861,0,0,1-.052.139,1.008,1.008,0,0,1,.231.23" fill="#fff"/>
    <path id="패스_1240" data-name="패스 1240" d="M108.058,26.238a.516.516,0,0,1-.29.46.454.454,0,0,1-.257.033,34.917,34.917,0,0,1-4.267-.785,32.064,32.064,0,0,1-4.356-.813q-.332-.085-.662-.178c-.529-.122-1.287-.31-1.253-1,.134-1.211,2.451-.053,3.243-.1a21.4,21.4,0,0,0,2.474.263c.609,0,1.67-.024,1.574.852a23.976,23.976,0,0,0,2.377.433c.562.081,1.46.034,1.417.832" fill="#fff"/>
    <path id="패스_1241" data-name="패스 1241" d="M124.242,31.232a.662.662,0,0,1-.214.67.957.957,0,0,1-1.114.016.649.649,0,0,1-.254-.25.85.85,0,0,1-.117-.487.559.559,0,0,1,.271-.45,6.371,6.371,0,0,0-4.272-2.51.628.628,0,0,1,.1.882.639.639,0,0,1-.071.076.71.71,0,0,1-.428.063,1.762,1.762,0,0,1-1.042-.826c-.77-1.312.671-1.744,1.725-1.432a8.2,8.2,0,0,1,4.284,2.267,5.173,5.173,0,0,1,.411.5,5.926,5.926,0,0,1,.336.549c.065.12.126.244.18.37a4.224,4.224,0,0,1,.2.559" fill="#fff"/>
    <path id="패스_1242" data-name="패스 1242" d="M196.832,40.894c-.869-.773.323-1.839.445-2.716.344-.737-.014-2.209,1.06-2.331,1.448.01-.208,6.012-1.5,5.047" fill="#fff"/>
    <path id="패스_1243" data-name="패스 1243" d="M33.492,140.365c-1.083-.324-2.956-.887-2.613-2.349.782-1.51,2.373.575,3.5.612,1.774.648.721,2.292-.885,1.737" fill="#fff"/>
    <path id="패스_1244" data-name="패스 1244" d="M217.352,29.4c-.32-3.12-1.03-6.57-3.42-8.79a15,15,0,0,0-5.52-3.41,29.413,29.413,0,0,0-8.44-2.55c-10.65-1.92-21.45-.5-32.13.28-4.56.18-9.11.56-13.65.95-5.2.65-10.35,1.65-15.55,2.34a3.105,3.105,0,0,0-.74.13,1.086,1.086,0,0,0-.26-.22.642.642,0,0,0-.68,0,1.322,1.322,0,0,0-.73-.18c-.68-4.61-.02-9.3-.6-13.93-.46-3.75-5.43-3.98-8.4-4.02-2.27.24-4.92.64-2.32,3.18-2.87.11-3.01,2.47-.68,3.67a1.939,1.939,0,0,0-1.54,1.82c-1.85-1.97-4.9-2.07-7.44-1.59a13.236,13.236,0,0,1-3.58.61c-1.02.02-1.8-.7-2.75-.9a9.318,9.318,0,0,0-6.14.84,24.144,24.144,0,0,0-2.33,1.42c-1.73,1.3-2.93,3-4.53,4.51a13.637,13.637,0,0,1-3.59,3.75c-2.18,1.76-4.6,3.26-6.3,5.53a8,8,0,0,0-2.07,3.68.037.037,0,0,1-.01.03,3.709,3.709,0,0,0-3.1,4.21l.03.15c.2,1.2,1.51,1.61,2.09,2.51-1.01,1.49-2.25,2.81-3.23,4.32-1.16,1.68-2.13,3.49-3.28,5.17a81.749,81.749,0,0,0-5.57,11.4c-.73,1.88-1.31,3.79-1.86,5.73a52.714,52.714,0,0,1-6.47,2.26c-4.74,1.2-9.55,1.97-14.36,2.84-6.38,1.07-12.83,2.08-19,4.1-1.95.52-3.6,1.74-5.42,2.57a.68.68,0,0,0-.3.85c-3.86,3.82-5.57,13.99-6.3,18.43-.6,3.72-1.66,7.48-2.13,11.24-1.13,7.9-2.33,15.77-3.74,23.62-.64,5.91-1.93,11.7-2.9,17.55-.34,4.53-1.62,9.09-1.01,13.63,1.91,6.69,10.33,5.16,15.74,5.55a76,76,0,0,0,8.66-.7,8.351,8.351,0,0,1-.07,1.8,82.452,82.452,0,0,0-1.58,13.2,1.519,1.519,0,0,0,.26,2.08c.14.42.35.65.64.63a.584.584,0,0,0,.26-.06,4.037,4.037,0,0,0,.45.16,10.821,10.821,0,0,0,2.72.45c-.34,4.01-.24,8.15-.78,12.18-.67,6.02-.99,10.4,6.03,11.85,6.03,1.3,12.3.8,18.43,1.08,9.52.38,18.87.52,28.42.19a157.418,157.418,0,0,1,16.1.86c7.5.38,7.68.97,4.26,7.45-2.11,4.43-3.93,8.99-5.62,13.6-2.53,6.88-5.39,13.63-7.59,20.63a245.762,245.762,0,0,0-9.12,28.03c-.47,3.29-7.46,20.58-2.34,20.8,5.61.15,4.61-2.27,6.18-6.01,3.68,3.44,8.86,4.74,13.73,5.45a32.55,32.55,0,0,0,8.42-.5,18.224,18.224,0,0,0,6.42-1.8c4.56-2.13,7.08-5.63.39-6.93-3.17-.67-6.31-1.54-9.44-2.38a1.052,1.052,0,0,0-.63.07.031.031,0,0,0-.02-.01c1.62-3.92,2.67-8.06,4.22-12.02q2.49-6.255,4.81-12.59c2.65-6.65,5.76-13.11,8.41-19.77,2.55-5.57,4.51-11.4,6.7-17.13,2.04-5,4.41-9.86,6.65-14.78.66-1.52,1.25-3.07,1.8-4.63.06-.17.12-.33.19-.5,1.48.04,3.34-.52,4.5-.56,2.74.2,11.44-2.47,12.07,1.08-.08,2.17-1.39,4.03-2.06,6.04-2.55,7.68-5.91,15.06-8.79,22.63-3.83,10.3-7.4,20.72-11.37,31.04q-1.845,4.425-3.51,8.93a19.085,19.085,0,0,0-1.02,3.3c.28,1.46,2.17,1.85,3.44,1.94,3.83-.32,4.06.3,5.2-3.66a12.315,12.315,0,0,1,.5-1.4,26.628,26.628,0,0,0,3.93,2.22,18.912,18.912,0,0,0,5.13,1.38c5.42.42,15.2.32,18.86-4.22.99-1.78,1.02-2.97-1.13-3.65a65.467,65.467,0,0,0-9.9-2.85,1.072,1.072,0,0,0-.31,0c3.59-10.89,7.8-21.56,11.9-32.27,2.43-6.41,4.64-12.89,7.02-19.31,1.66-4.25,3.48-8.44,4.95-12.75,1.68-5.51,4.93-13.01,1.62-18.38-2.4-2.75-10.87-3.53-14.59-4.21a334.242,334.242,0,0,0-34.5-2.06c-6.19.02-12.38.44-18.56.25.07-.7.48-3.31-.05-4.29,1.42-3.06,2.21-10.55,2.58-11.71a154.309,154.309,0,0,0,2.86-16.96c.12-1.32-1.49-1.35-1.58-.09-1,.15-.94,1.33-1,2.12-.48,3.05-.82,6.12-1.16,9.19q-1.56,7.275-2.87,14.61a4.608,4.608,0,0,1-.54,1.78.809.809,0,0,0-.22,0c-3.18.73-6.46.61-9.68,1-15.78,1.25-31.53,2.7-47.34,3.62-4.23.48-8.47.8-12.71,1.15-3.18.18-6.65,1.26-9.75.26a8.255,8.255,0,0,1,.2-1.85,120.931,120.931,0,0,0,1.5-12.31,1.782,1.782,0,0,0,0-1.65c1.86-.22,3.72-.42,5.59-.53,4.92-.47,9.74-1.7,14.64-2.37,5.3-.95,10.66-1.56,15.92-2.77,5.5-1.36,10.96-2.86,16.46-4.2a72.006,72.006,0,0,1,10.5-2.54c7.03.29,9.29-4.16,11.4-10.08,2.85,1.88,6.13.16,4.63-3.37.62.14,1.43.62,1.93,0a4.733,4.733,0,0,0,.74-1.36,42.487,42.487,0,0,0,5.21,5.35c3.63,1.24-2.75-7.05-3.36-7.71-.09-.11-.19-.22-.29-.32a.875.875,0,0,0,.1-.22c1.85-2.42-4-7.92-7.56-9.03-.05-.07-.1-.14-.15-.22a55.808,55.808,0,0,0-4.64-5.75c-1.5-1.36-3.04-2.7-4.57-4.03a.868.868,0,0,1,.23-.16c1.63,1.23,3.03,2.75,4.56,4.1.52.53,1.03,1.07,1.53,1.61a.765.765,0,0,0,.58.35c.79,0,.93-1.1.46-1.58a30.757,30.757,0,0,0-2.08-2.34c-1.41-1.29-2.65-2.92-4.27-3.98a1.02,1.02,0,0,0-1.44.15.381.381,0,0,0-.09.13c-.22.23-.49.42-.72.64l-.23-.2c-.68-.45-1.78-1.49-2.56-.78-.25.33-.07.77.09,1.09a35.489,35.489,0,0,0,5.35,7.47c1.16,1.29,2.19,2.74,3.43,3.96-2.52,1.03-4.48,3.26-6.17,5.41-.71,1.25-1.78,2.51-2.5,3.86-1.61.16-3.15.8-4.76,1.04-2.55.29-5,1.13-7.53,1.53-9.09,1.69-18.29,2.93-27.48,3.95-4.7.79-9.46,1.06-14.14,1.98a12.7,12.7,0,0,1-1.5.15,27.582,27.582,0,0,1,.23-4.36c.36-3.95.8-7.89,1.16-11.83.75-5.44,1.39-11.08,3.05-16.36,1.31-4.43,1.83-9.05,2.88-13.54.81-2.05-1.3-2.46-1.78-.54-1.3,4.42-1.86,9.01-3.02,13.46a99.313,99.313,0,0,0-3.5,19.88c-.4,2.81-.61,5.64-.9,8.46a23.928,23.928,0,0,0-.31,5,29.032,29.032,0,0,0-3.22.33c-1.35.73-.06,2.4,1.16,2.24a7.667,7.667,0,0,0,3.1-.55H40c18.33-2.19,36.78-3.94,54.82-7.99a.828.828,0,0,0,.11.15,69.063,69.063,0,0,0,.02,12.37,16.069,16.069,0,0,0-2.68.52c-5.46,1.31-10.85,2.85-16.31,4.15-8.19,2.42-16.68,3.45-25.06,4.94-3.44.43-6.8,1.29-10.23,1.84-2.87.29-5.75.42-8.6.99a88.879,88.879,0,0,1-16.71.57c-7.63-.59-6.78-4.41-6.03-10.5a152.2,152.2,0,0,1,2.59-15.3c.81-5.76,1.59-11.53,2.65-17.25,1.9-11.97,3.43-24.02,6.32-35.81,1.01-2.48,1.43-5.36,3.11-7.49a6.057,6.057,0,0,1,2.49-1.74.431.431,0,0,0,.24-.2c9.04-2.75,18.46-4.05,27.73-5.94,2.06-.57,9.85-1.72,13.5-3.37.07.32,12.09,2.54,16.82,2.87,3.06.19,6.13-.2,9.2.13,2.2.03,4.39-.36,6.59-.48.36-.08,3.79-.27,3.68-.57,0-.01,0-.01.01-.01a.608.608,0,0,0,.18-.09c1.31.63,3.62-.45,5.03-.34,1.77-.07,3.53.13,5.29.03,1.77-.07,3.49-.5,5.26-.61a57.848,57.848,0,0,0,7.54-.88c1.62.25,5.48-.89,6.57-1.17,4.38-1.12,8.54-2.53,12.84-3.87q9.3-3.39,18.34-7.5c2.53-1.27,4.88-2.84,7.46-4,3.4-1.74,6.66-3.75,10.13-5.33,3.19-1.62,6.15-3.84,9.52-5.09a.584.584,0,0,0,.82-.06.564.564,0,0,0,.11-.2.434.434,0,0,1,.07-.04,4.3,4.3,0,0,1,1.11,1.46.731.731,0,0,0,.51.22,1.121,1.121,0,0,0,.98-1.03c.24-1.41-4.67-6.33-6.05-4.98-12.83-1.32-25.7-.6-38.54.07-3.7.1-7.4.09-11.09.5-1.15.05-2.35-.13-3.5-.01.05-.32.09-.64.14-.96a67.756,67.756,0,0,0,1.22-10.43.887.887,0,0,0,.25-.14c5.15-.7,10.28-1.58,15.44-2.32,6.35-.8,12.75-.77,19.12-1.33,9.27-.87,18.74-1.58,27.95.19a27.063,27.063,0,0,1,8.25,2.82,10.436,10.436,0,0,1,4.39,3.26,13.71,13.71,0,0,1,1.69,5.8c.09,2.62-.91,5.08-1.77,7.5a40.7,40.7,0,0,1-6.96,11.68c-6,7.3-13.7,13.09-21.79,17.88-7.59,4.1-15.28,8-23.01,11.8-7.66,3.88-15.37,7.65-23.08,11.42-2.93,1.4-5.69,3.09-8.53,4.65a7.509,7.509,0,0,1-1.35.7,1.213,1.213,0,0,0-.32.11l-.03.05a3.279,3.279,0,0,0-1.11.81,1.284,1.284,0,0,0,.07,1.36,73.72,73.72,0,0,0-2.94,10.53,80.043,80.043,0,0,0-2.9,11.3c-.7,3.83-2.07,7.88-1.52,11.76.59.96,1.5.12,1.5-.73.72-2.74,1.43-5.47,2.04-8.23,1.22-4.52,2.99-8.86,3.88-13.47.67-3.7,2.13-7.43,2.15-11.19a.611.611,0,0,0,.05-.12c.1-.06.19-.12.29-.17,2.55-1.37,5.05-2.84,7.62-4.18,12.65-6.15,25.3-12.31,37.81-18.73,7.97-4.07,16.03-8.09,22.88-13.95,7.2-5.8,13.7-12.89,17.05-21.62,1.04-2.81,2.14-5.72,2.04-8.76ZM106.622,184.24c5.35.05,10.72.46,16.08.35,5.63.65,18.66-.12,18.11,8.1-.19,1.12.12,4.89-1.52,4.65-1.92-1.54,3.6-7.77-4.54-9.5-8.97-2.08-18.21-1.4-27.31-1.89-.96.61-2.05-1.36-.82-1.71m-3-66.43c-.28-.29-.54-.58-.8-.86.3.28.6.56.9.86a.334.334,0,0,0-.1,0m-6.59,17.15a3.208,3.208,0,0,0,.49-.42,1.581,1.581,0,0,0,.77-.82,1.788,1.788,0,0,1,.13-.14c1.91-1.91,3.54-4.07,5.27-6.15,1.85-2.39,5.17-4.38,7.74-1.79,1.32,1.68,4.36,2.62,4.24,5.04a9.27,9.27,0,0,1-2.2-1.36.629.629,0,0,0-.41-.17.709.709,0,0,0-.54,1.06c.69,1.12,2.2,2.97,1.11,4.2-1.01.28-1.58-1.31-2.54-1.03-.53-.83-1.82-.65-1.39.48,2.12,2.46,3.07,6.11-1.18,3.06-1.14-.88-1.34.59-1.79,1.3-1.5,2.48-2.23,5.53-4.5,7.48a10.219,10.219,0,0,1-5.52,1.8c.21-4.18.02-8.36.32-12.54M124.182,5.01a11,11,0,0,1,4.57.09.742.742,0,0,0,.7-.79.2.2,0,0,0-.01-.08c-.3-1.4-2.4-1.57-3.46-2.26,2.35-.44,6.09-.22,7.94,1.43.47,4.11-.1,8.2.18,12.36.31,1.67-.02,4.52,2.31,4.61-.22,3.84-.64,7.61-1.22,11.45a11.483,11.483,0,0,1-5.34-2.93,13.368,13.368,0,0,1-1.83-2.7,3.426,3.426,0,0,0,.85.13c1.56.09,2.73-1.66,3.01-3.03a6.738,6.738,0,0,0-.95-3.21c-.41-1.47.25-3.09-.57-4.5a3.828,3.828,0,0,0-.66-1.16c.04-1.07.11-2.14.22-3.2.06-.42.24-.85.01-1.26-.55-1.29-4.28-.49-5.65-1.26,1.26-.64,2.85-.33,4.19-.34a.867.867,0,0,0,.43-1.12c-.58-1.29-3.6-1.55-4.72-2.23m1.11,6.8c-.3-.36-.56-.75-.82-1.13a16.686,16.686,0,0,0,3.91.55c0,.48-.08,1.23-.15,2.06a26.071,26.071,0,0,1-2.94-1.48m-2.66,5.14c.72-.94,3.81-.68,3.55.85a.585.585,0,0,1-.67.46.358.358,0,0,1-.11-.04,3.019,3.019,0,0,0-1.75-.24c-.78.67-1.53-.26-1.02-1.03m-.57-3.47c-.11.9-1.01.38-1.59.51a6.614,6.614,0,0,0-2.71,1.13.51.51,0,0,1-.46.11c-2.48-1.56,4.96-4.33,4.76-1.75m-8.55-.8c.75-.39,3.22-2.52,3.68-1.19.38,1.1-1.2,1.23-1.82,1.72-1.7,1.2-3.51,2.34-5.69,2.15v.01a.793.793,0,0,1-.48-1.39c1.49-.16,3.13-.18,4.31-1.3m-7.14-2.06c1.1-.35,4.32.46,2.85,1.96-.61.16-1.11-.56-1.77-.45a7.194,7.194,0,0,0-2.82.55c-.37.18-.64.67-1.08.65v.01a.784.784,0,0,1-.62-.8c.37-1.36,2.23-1.65,3.44-1.92M92.3,27.23c1.06-2.99,2.89-5.63,4.3-8.47a7.274,7.274,0,0,1,.68-.68c1.78,3.13,6.12,1.31,8.51-.09-.45,2.61,2.47,4.34,4.79,3.81a14.523,14.523,0,0,0,3.67-1.68c.15,1.6,1.63,3.17,3.32,2.71a16.58,16.58,0,0,0,3.16-1.56,3.345,3.345,0,0,0,1.96,3.82,2.981,2.981,0,0,0,2.6-.29,92.913,92.913,0,0,1-1.78,11.12,62.563,62.563,0,0,1-2.84,9.35c-.44.12-.71.54-1.04.83a12.113,12.113,0,0,1-2.82,1.61c-2.09.42-4.22-.51-6.23-1.02a10.35,10.35,0,0,0-1.95-.64c-3.27-1.1-6.92-1-10.13-2.29-1.57-.66-2.08-2.32-3.19-3.47a18.776,18.776,0,0,1-4.06-7.28c-.16-.4-.27-1.05-.65-1.28.52-1.51,1.15-2.99,1.7-4.5m11.56,35.34h.01a.842.842,0,0,0-.22.27,48.8,48.8,0,0,1-10.11,0c-3.18-.18-6.37,0-9.55-.26-2.28-.02-4.55-.3-6.83-.37a42.806,42.806,0,0,1-6.96-.65,8.491,8.491,0,0,1,.56-1.18c1.54-3.27,2.87-6.56,4.48-9.81a80.993,80.993,0,0,1,3.98-7.25c1.49-2.35,2.65-4.88,4.1-7.25.43-.92,1.23-1.94.9-2.99a10.392,10.392,0,0,0-1.44-2.42c-.92-1.73,1.08-2.17,2.29-2.58a.733.733,0,0,0,.44-.02c.17.12.32.24.48.36a13.817,13.817,0,0,0-.26,6.36,1.658,1.658,0,0,0,.11.49,9.281,9.281,0,0,1,.4.91c.41,1.16.6,2.4.96,3.58,1.29,5.43,3.39,11.85,6.91,14.69,1.7,2.62,5.26,3.7,8.22,4.37.83.18,1.68.34,2.53.49-.32,1.09-.7,2.16-1,3.26M137.072,34a78.262,78.262,0,0,0,8.8-.31c3.46-.01,6.92-.02,10.36-.3a285.527,285.527,0,0,1,29.98.11,26.633,26.633,0,0,1,3.46.46h.13c.42.2.85.38,1.28.57-.35.17-.7.34-1.06.5-3.6,1.86-7.23,3.63-10.79,5.58-4.34,2.34-8.8,4.43-13.13,6.78-3.22,1.72-6.65,2.96-9.99,4.44a73.526,73.526,0,0,1-11.82,4.71c-3.61,1.43-7.37,2.38-11.05,3.6a22.606,22.606,0,0,1-3.91.89.218.218,0,0,0-.08-.05c-3.91-.62-7.91.04-11.84.25s-8.03-.08-11.91.83c.27-.84.57-1.67.84-2.5a33.1,33.1,0,0,0,4.56.35,6.988,6.988,0,0,0,5.42-1.62,3.529,3.529,0,0,0,.72-.91,5.54,5.54,0,0,0,1.74-2.49,97.875,97.875,0,0,0,4.01-11.26c1.3-3.08,2.71-6.1,3.12-9.47a35.223,35.223,0,0,0,.78-5.78,11.762,11.762,0,0,0,.86,1.23,12.253,12.253,0,0,0,8.25,4.67.487.487,0,0,0,.12.01.9.9,0,0,0,.1.09.487.487,0,0,0,.39.2.732.732,0,0,0,.67-.56Z" fill="#fff"/>
    <path id="패스_1245" data-name="패스 1245" d="M344.83,162.93c.491,1.348-.01,4.138-1.366,4.767a104.933,104.933,0,0,1-13.432.427c-8.109.455-16.213,1.2-24.326,1.464-19.94-.455-39.973.425-59.893.744-19.746.3-39.487.814-59.181,2.384-21.5.785-42.876,2.134-64.358,2.9-9.582.059-19.051,1.357-28.611,1.833a178.762,178.762,0,0,1-23.358.761c-.907-.383-.846-3.551-.137-5.478a1.044,1.044,0,0,1-.254-1.39c.361-.593,1.143-.553,1.745-.7,1.785-.315,3.567-.657,5.364-.906,6.3-.708,12.672-.092,18.981-.735,11.177-.771,22.393-.767,33.577-1.453,9.836-.67,19.672-1.413,29.536-1.541,14.764-.776,29.546-.706,44.308-1.394,10.471-.492,20.915-1.385,31.4-1.432,31.441-1.292,62.835-1.381,94.269-.449,3.932,0,7.889.361,11.809.112.693-.245,1.692-.643,2.2-.15a1,1,0,0,1,1.718.238" fill="#fff"/>
    <path id="패스_1246" data-name="패스 1246" d="M340.219,170.043c-11.549-.752-23.144.149-34.688-.849-1.014-.23-2.423-.084-3.1-.988-.524-1.016.7-1.478,1.529-1.418.949-1.067,3.041-.344,4.353-.441,4.074.307,8.158.36,12.238.565,2.311-.054,4.623-.089,6.934-.143.955.1,2.678-.459,2.922.847,3.979-.194,7.95.442,11.888.194.234-1.008.061-2.323.843-3.089,1.445-.669,1.792,1.357,1.417,2.361-.262,3.239-1.587,2.95-4.34,2.962" fill="#fff"/>
    <path id="패스_1247" data-name="패스 1247" d="M73.1,302.125c-2.366-.682.508-6.587.629-8.433,1.276-5.044,2.535-10.1,3.586-15.192,3.907-19.755,8.673-39.32,12.61-59.073,2.092-10.143,4.059-20.362,6.421-30.419,1.139-3.935,2.606-7.784,3.381-11.817.4-1.2-.076-2.917,1.091-3.688,2.162-.462,1.785,2.429,1.483,3.761-.936,5.807-3.433,11.209-4.586,16.969-.694,3.421-1.276,6.864-2.06,10.267-4.454,20.073-8.468,40.244-13.133,60.265q-3.03,15.6-6.922,31c-.325,1.333-.668,2.667-.932,4.013-.1.976-.224,2.578-1.568,2.342" fill="#fff"/>
    <path id="패스_1248" data-name="패스 1248" d="M71.952,301.032c-.95-2.3.839-5.531,1.118-7.976,1.853-7.464,4.148-14.825,5.694-22.364,1.387-7.962,3.425-15.785,5.429-23.609q5.737-25,12.112-49.857c1.743-6.309,3.933-12.487,5.581-18.824.409-1.093.486-3.106,1.955-3.133,2.66-.052-1.741,10.986-2.022,12.739-2.918,8.745-5.043,17.7-7.174,26.661C89.6,235.1,84.488,255.536,80.187,276.14c-1.235,5.035-2.609,10.037-3.984,15.035-.662,2.4-1.207,4.839-1.746,7.273-.2,1.316-.716,4.418-2.5,2.584" fill="#fff"/>
    <path id="패스_1249" data-name="패스 1249" d="M155.3,178.01c-1.6-.4-.9-2.543-1.092-3.752.083-.989-.5-2.822.82-3.131,1.512.161,1.129,2.205,1.263,3.29-.124,1.111.676,3.481-.992,3.592" fill="#fff"/>
    <path id="패스_1250" data-name="패스 1250" d="M297.458,300.972a1.109,1.109,0,0,1-.871-.418c-.908-1.439-.584-3.389-.8-5.03-.6-4.814-1.041-9.651-1.594-14.473q-.082-.636-.164-1.274l.317.057c.69.124,1.381.254,2.077.345.359,2.948.709,5.9,1.018,8.851.183,2.542.623,5.049.88,7.573-.041,1.264.566,2.617.075,3.819a1.034,1.034,0,0,1-.929.549Z" fill="#fff"/>
    <path id="패스_1251" data-name="패스 1251" d="M295.264,271.12c-.786-.393-1.577-.771-2.381-1.124-1.2-11.178-2.108-22.535-3.1-33.812l.375-.049c.443-.014.886-.028,1.329-.045l.6-.027c.622,6.483,1.232,13.01,1.867,19.677.263,5.157.779,10.288,1.373,15.412Z" fill="#fff"/>
    <path id="패스_1252" data-name="패스 1252" d="M289.732,218.51l-.053.023Z" fill="#fff"/>
    <path id="패스_1253" data-name="패스 1253" d="M289.755,218.5" fill="#fff"/>
    <path id="패스_1254" data-name="패스 1254" d="M284.013,180.54c-.484-3.132-1.094-6.246-1.56-9.382-.215-1.191-.774-4.254,1.224-3.293.932,1.174.759,2.9,1.154,4.3a158.149,158.149,0,0,1,3.12,24.822c.028.229.055.456.082.684-.739.3-1.477.594-2.214.895h-.012c-.555-6.013-1.075-12.031-1.8-18.026" fill="#fff"/>
    <path id="패스_1255" data-name="패스 1255" d="M295.217,300.239c-.124-1.476-.788-2.832-1.036-4.286-.818-5.5-1.629-11.015-2.11-16.558l.141.03c.706.15,1.418.283,2.128.41l.234.042c.345,3.82.762,7.633,1.361,11.428.229,1.617.344,3.252.616,4.864.222,1.688,2.335,5.715-.152,6.085-.949-.149-1.232-1.183-1.183-2.015" fill="#fff"/>
    <path id="패스_1256" data-name="패스 1256" d="M291.989,269.617l.075.032c-.258-.1-.516-.211-.776-.312-.31-3.474-.661-6.945-1.011-10.415-.626-7.543-.761-15.106-1.4-22.637.429-.043.856-.092,1.282-.151.41-.013.82-.025,1.229-.04.449,8.422.849,16.843,1.61,25.2.318,3.038.569,6.081.808,9.125-.6-.28-1.2-.547-1.816-.8" fill="#fff"/>
    <path id="패스_1257" data-name="패스 1257" d="M289.723,218.516l-.04.018Z" fill="#fff"/>
    <path id="패스_1258" data-name="패스 1258" d="M281.4,171.323c.007-1.088-.352-2.3.242-3.283.583-.722,1.647,0,1.582.822,1.356,9.662,3.116,19.272,4.46,28.943q-.935.377-1.868.755c-.171.067-.341.138-.51.215-1.313-9.151-2.767-18.286-3.906-27.453" fill="#fff"/>
    <path id="패스_1259" data-name="패스 1259" d="M335.16,279.512c-3.251-15.382-5.71-30.991-7.933-46.618h0c.255-.052.509-.111.762-.174q.819-.154,1.634-.322c1.391,9.563,2.9,19.107,4.458,28.585.663,3.582,1.31,7.237,1.915,10.811.07,1.932,2.571,7.444.434,8.284a.985.985,0,0,1-.236.029,1.276,1.276,0,0,1-1.034-.6" fill="#fff"/>
    <path id="패스_1260" data-name="패스 1260" d="M324.487,213.065c-.453-3.578-.869-7.159-1.283-10.741.813-.165,1.619-.357,2.428-.548q.1.876.2,1.75,1.428,12.361,3.2,24.75l-.316.062.153-.03-.4.074c-.62.031-1.24.07-1.858.109q-1.078-7.718-2.118-15.424" fill="#fff"/>
    <path id="패스_1261" data-name="패스 1261" d="M321.042,184.672a86.554,86.554,0,0,1-1.466-11.679c.022-1.619-.859-3.323-.337-4.881.657-1.064,1.958-.159,2.065.845.9,3.188.841,6.525,1.241,9.791.8,4.537,1.429,9.1,1.995,13.672-.207-.006-.415-.008-.622-.006-.624.007-1.248.015-1.872.044q-.475-3.9-1-7.785" fill="#fff"/>
    <path id="패스_1262" data-name="패스 1262" d="M336.261,278.991c-3.41-15.319-5.853-30.8-7.852-46.352q.851-.164,1.7-.343c.247-.053.495-.106.742-.161q1.081,8.279,2.284,16.546c1.008,6.83,2.24,13.249,3.523,19.967.521,3.384,1.258,6.654,1.952,9.978a1.182,1.182,0,0,1-1.06,1.294.855.855,0,0,1-.1.006,1.267,1.267,0,0,1-1.187-.937" fill="#fff"/>
    <path id="패스_1263" data-name="패스 1263" d="M324.894,201.95l.813-.191q.813-.19,1.623-.4,1.292,13.359,2.991,26.666-.8.153-1.608.31l.153-.03-.4.075-.587.031c-1.089-8.809-2.051-17.636-2.982-26.463" fill="#fff"/>
    <path id="패스_1264" data-name="패스 1264" d="M325.737,192.505a14.733,14.733,0,0,0-1.819-.091h-.143c-.313-2.975-.574-5.956-1.1-8.9a83.336,83.336,0,0,1-2.006-14.173c-.108-1.1-.135-4.081,1.588-2.882.6.991.265,2.367.515,3.492a111,111,0,0,0,2.423,14.213c.47,2.786.761,5.6,1.076,8.4-.176-.023-.354-.045-.532-.065" fill="#fff"/>
    <path id="패스_1265" data-name="패스 1265" d="M294.46,300.16a123.014,123.014,0,0,0-1.713-13.318q-.4-3.734-.784-7.469l.248.053c.6.127,1.2.242,1.8.351q.287,2.959.572,5.918c.053,1.534,2.924,15.447,1.037,15.449-.277,0-.657-.3-1.164-.984" fill="#fff"/>
    <path id="패스_1266" data-name="패스 1266" d="M292.065,269.648h0l-.072-.03H292c-.343-.14-.686-.28-1.033-.409q-.545-5.8-1.013-11.605c-.574-7.1-1.113-14.178-1.778-21.255.663-.06,1.327-.126,1.985-.217l.25-.008q.909,12.24,1.841,24.472.39,4.747.838,9.488-.508-.227-1.023-.438" fill="#fff"/>
    <path id="패스_1267" data-name="패스 1267" d="M288.539,219.038l-.117.051Z" fill="#fff"/>
    <path id="패스_1268" data-name="패스 1268" d="M282.36,179.842c-.281-1.589-3.094-14.246.027-11.868a.766.766,0,0,1,.133,1.386c.363,5.056,2.014,9.888,2.374,14.939.482,4.652,1.171,9.268,1.862,13.882l-.937.379c-.38.156-.758.32-1.13.5-.872-6.391-1.766-12.779-2.329-19.214" fill="#fff"/>
    <path id="패스_1269" data-name="패스 1269" d="M293.747,300.547c-.961-7.232-1.759-14.212-2.483-21.326l.948.2q.6.126,1.2.239.555,5.059,1,10.176c.331,3.6,1.263,7.14,1.353,10.75a.93.93,0,0,1-.949.9,1.071,1.071,0,0,1-1.065-.945" fill="#fff"/>
    <path id="패스_1270" data-name="패스 1270" d="M292.062,269.647h0l-.075-.031.072.03c-.428-.175-.857-.351-1.293-.506-.157-.056-.314-.111-.474-.16l-.158-.05c-1.538-10.8-2.615-21.651-4.055-32.462l.187-.006c.527-.02,1.054-.039,1.579-.084l.232-.02q.254,2.1.552,4.194c1.066,9.832,2.4,19.474,3.607,29.167l-.176-.073" fill="#fff"/>
    <path id="패스_1271" data-name="패스 1271" d="M282.68,193.448a158.568,158.568,0,0,0-1.846-18.62c-.065-1.62-1.813-5.338-.89-6.44.723-.4,1.938.637,1.285,1.384,2.387,8.517,2.845,17.458,3.549,26.206q.15,1.454.284,2.908a17.321,17.321,0,0,0-1.668.852l.054-.033-.179.106q-.263-3.185-.589-6.363" fill="#fff"/>
    <path id="패스_1272" data-name="패스 1272" d="M287.555,238.546q-.2-1.058-.365-2.121c.219-.012.438-.026.657-.045.307-.027.615-.054.922-.085.213,1.21.476,2.678-.429,2.929H288.3a.846.846,0,0,1-.742-.68" fill="#fff"/>
    <path id="패스_1273" data-name="패스 1273" d="M286.774,219.826h0l-.107.047.113-.05" fill="#fff"/>
    <path id="패스_1274" data-name="패스 1274" d="M281.547,183.8c-.176-3.246.09-6.494-.022-9.742.181-1.5-.844-6.082,1.088-6.328.934.078,1.492,1.576.295,1.59a176.656,176.656,0,0,0,.8,20.053c.366,3.318.49,6.548.765,9.781-.369.18-.732.371-1.086.579l.054-.032q-.353.21-.7.424c-.395-5.442-.748-10.887-1.2-16.324" fill="#fff"/>
    <path id="패스_1275" data-name="패스 1275" d="M284.09,184.56c-1.029-.512-.527-2.068-.7-3.017-.16-2.964-.25-5.93-.292-8.9.2-1.046-.619-5.435.478-5.522-.043-1.183.859-2.442,1.687-.922.954,2.8.77,5.877.99,8.8-.191,1.279.9,7.331-.643,7.3a.936.936,0,0,1-.724-.934c-.17.885.6,3.241-.794,3.2" fill="#fff"/>
    <path id="패스_1276" data-name="패스 1276" d="M284.95,183.077a93.552,93.552,0,0,1-.194-10.813c.291-1.068-.569-6.5,1.1-5.956a1.045,1.045,0,0,1,.412,1.387c.035,3.323-.177,6.643-.165,9.965,0,1.816.062,3.633.119,5.449.032.937-1.247.835-1.273-.031" fill="#fff"/>
    <path id="패스_1277" data-name="패스 1277" d="M73.09,301.491c-1.846-1.989.888-7.65,1.541-10.057a130.212,130.212,0,0,0,4.281-16c2.13-9.935,5.209-19.655,7.69-29.512,2.785-12.36,6.061-24.611,9.325-36.852a1.115,1.115,0,0,1-.334-1.54,1.053,1.053,0,0,1,.108-.141,38.314,38.314,0,0,0,1.363-4.766c1.215-5.994,2.174-12.063,4.255-17.84,1-1.061,1.125-10.189,3.036-7.771,2.468.131-.716,6.641-.845,8.15-1.211,3.977-1.378,8.179-2.442,12.194-3.822,15.884-7.121,31.92-11.4,47.693-2.272,7.543-3.369,15.358-4.88,23.07-1.1,3.62-1.782,7.317-2.56,11.006-.8,3-2.059,5.857-2.627,8.92-.376,1.573-3.225,15.8-5.012,12.683-.265.541-.864,1.191-1.494.765M81.3,274.336a.78.78,0,0,1,.182.113c.577-3.429,1.846-6.7,2.333-10.149-.848,3.34-2,6.6-2.619,10a.7.7,0,0,1,.1.037" fill="#fff"/>
    <path id="패스_1278" data-name="패스 1278" d="M156.654,178.042a1.049,1.049,0,0,1-.127-1.221c-.022-.056-.045-.112-.067-.167q-.108-.264-.214-.529c-.944,2.375-2.519.5-2.446-1.208-.163-1.1,1.1-1.73,1.565-.556.369-1.207,1.644-.518,1.847.415-.147-.693.129-2.022,1.065-1.368a7.219,7.219,0,0,1,1.06,3.331,1.726,1.726,0,0,1-2.683,1.3" fill="#fff"/>
    <path id="패스_1279" data-name="패스 1279" d="M163.088,266.378c-1.378-.548-.72-3.52-1.117-4.816-.541-.741-.189-1.778-.239-2.636a36.448,36.448,0,0,1,.094-8.99c.045-1.041.815-2.656,1.682-1.089.23,1.463.288,2.995.451,4.487.024,1.321,1.379,9.707-.232,9.424-.179,1.059.8,3.319-.638,3.619" fill="#fff"/>
    <path id="패스_1280" data-name="패스 1280" d="M166.716,267.692c-1.527-.317-3.082-.507-4.611-.823-1.048-.287-.808-2.169.384-1.831a.662.662,0,0,1,.256-.3,1.067,1.067,0,0,1,.217-.1,45.946,45.946,0,0,1-.137-5.208c-.411-1.465.092-3.129-.143-4.663-1.532-.631-.237-2.962-.293-4.216.091-.976-.63-2.7.514-3.189.41-1.045.063-3.908,1.153-4.219,1.527.114,1.1,5.355,1.393,6.617a.434.434,0,0,0-.006-.088,103.036,103.036,0,0,0,1.312,11.7c-.013,1.122.907,2.975-.228,3.7.062.241.123.483.178.726,1.307-.075,1.427,2.22.012,1.892" fill="#fff"/>
  </g>
</svg>
