<svg xmlns="http://www.w3.org/2000/svg" xmlns:xlink="http://www.w3.org/1999/xlink" width="315" height="180" viewBox="0 0 315 180">
  <defs>
    <clipPath id="clip-path">
      <rect id="사각형_252" data-name="사각형 252" width="315" height="180" rx="30" transform="translate(130 7071)" fill="#59c4af"/>
    </clipPath>
    <clipPath id="clip-path-2">
      <rect id="사각형_251" data-name="사각형 251" width="156.378" height="209.515" fill="none"/>
    </clipPath>
  </defs>
  <g id="마스크_그룹_36" data-name="마스크 그룹 36" transform="translate(-130 -7071)" clip-path="url(#clip-path)">
    <g id="그룹_185" data-name="그룹 185" transform="translate(217.507 7056.243)">
      <g id="그룹_184" data-name="그룹 184" clip-path="url(#clip-path-2)">
        <g id="그룹_186" data-name="그룹 186">
          <path id="패스_433" data-name="패스 433" d="M176.229,113.175c-23.063-4.675-13.941-36.949,7.958-32.047,19.308,5.129,11.274,35.8-7.958,32.047m5.236-27.642c.126,0,.248.006.368.016l-.385-.044c0,.009-.011.018-.016.029Z" transform="translate(-71.66 -35.498)" fill="#fff"/>
          <path id="패스_434" data-name="패스 434" d="M184.437,110.994l.218,0c-2.566.235-8.439-.783-6.484-4.459,1.818-2.64,4.454,3.264,12.544-.355l-.054.032c2.916-3.52-10.951-.961-11.584-4.423-1.907-4.244,1.5-9.417,6.083-9.68,5.793-.353,9.866,6.654,2.605,4.057l.017,0c-1.515-.26-3.1-.492-4.437.461l.132-.077-.27.154.151-.085a3.023,3.023,0,0,0-1.239,3.276c3.382.956,7.131.709,10.379,2.193,5.393,5-3.3,9.6-8.06,8.9" transform="translate(-78.275 -40.55)" fill="#231f20"/>
          <path id="패스_435" data-name="패스 435" d="M187.966,110.4c-1.713-3.633-.451-8.533-.675-12.574.709-3.564-.7-7.892.859-11.082,2.8-1.147,1.107,11.522,1.489,13.459-.5,1.988,1.781,11.634-1.673,10.2" transform="translate(-82.358 -38.161)" fill="#231f20"/>
          <path id="패스_436" data-name="패스 436" d="M193.032,110.538c-.242-1.2-.614-25.588,1.7-20.877,0-.031.005-.06.007-.089-1.038,2.365,2.485,24.785-1.706,20.966" transform="translate(-84.911 -39.212)" fill="#231f20"/>
        </g>
        <path id="패스_437" data-name="패스 437" d="M66.516,265.184c-23.063-4.675-13.942-36.949,7.958-32.047,19.308,5.129,11.274,35.8-7.958,32.047m5.236-27.642c.126,0,.248.006.368.016l-.385-.044c0,.008-.011.018-.016.029Z" transform="translate(-23.354 -102.426)" fill="#fff"/>
        <path id="패스_438" data-name="패스 438" d="M74.724,263l.218,0c-2.566.235-8.44-.783-6.484-4.459,1.818-2.64,4.454,3.264,12.544-.355l-.054.032C83.863,254.7,70,257.262,69.364,253.8c-1.907-4.244,1.5-9.417,6.083-9.68,5.793-.353,9.866,6.654,2.6,4.057l.018,0c-1.515-.26-3.1-.492-4.437.461l.132-.076c-.09.05-.18.1-.27.154l.151-.085a3.023,3.023,0,0,0-1.239,3.276c3.382.956,7.13.709,10.379,2.193,5.393,5-3.3,9.6-8.06,8.9" transform="translate(-29.969 -107.479)" fill="#231f20"/>
        <path id="패스_439" data-name="패스 439" d="M78.253,262.41c-1.713-3.633-.451-8.533-.675-12.574.709-3.564-.7-7.892.859-11.082,2.8-1.147,1.107,11.522,1.489,13.459-.5,1.988,1.781,11.634-1.673,10.2" transform="translate(-34.052 -105.09)" fill="#231f20"/>
        <path id="패스_440" data-name="패스 440" d="M83.319,262.547c-.242-1.2-.614-25.588,1.7-20.877,0-.031,0-.06.007-.089-1.038,2.365,2.485,24.785-1.706,20.966" transform="translate(-36.605 -106.14)" fill="#231f20"/>
        <path id="패스_441" data-name="패스 441" d="M6.155,38.015a46.207,46.207,0,0,0-1.4-12.579c-.018-1.732-3.771-8.39-1.075-8.3C7.555,13.047,24.4,7.592,26.5,6.769,29.747,6.309,43.118-.122,48.671.283c.528-.565,1.088-.215,1.579.43A1.741,1.741,0,0,1,51.1,2.126v.018c.184.369.344.719.461.971,16.486,26.841-4.49,56.871-.866,85.505-.178,3.114,3.606,10.018-.651,10.767-.633,3.532-7.242,4.73-9.889,6.6-9.95,3.962-19.8,8.949-30.244,11.332a2.356,2.356,0,0,1-1.032-.313H8.869a2.233,2.233,0,0,1-.35-.025C4.2,114.626,2.967,101.8,1.37,96.9-2.942,77.1,4.116,57.553,6.155,38.015" transform="translate(0 0)" fill="#fff"/>
        <path id="패스_442" data-name="패스 442" d="M138.094,275.272a.563.563,0,0,1,.08-.1c-.437-3.489,4.889-9.01,6.05-11.762,4.533-8.194,7.045-17.137,9.269-26.16,3.8-15.712,10.454-31.73,21.9-43.388,1.019-1.241,6.326-6.406,9.274-7.457,1.524-2.4,4.656.252,6.443,1.456,5.4,3.912,10.816,7.788,15.982,12.008,4.072,3.526,14.072,7.463,7.875,13.691-13.992,18.138-16.578,41.97-26.233,62.324-1.972,4.238-4.533,8.176-6.64,12.34-.307,1.708-1.836,3.311-3.679,2.856-5.147-1.493-45.962-8.23-40.324-15.81" transform="translate(-60.567 -81.645)" fill="#fff"/>
        <path id="패스_443" data-name="패스 443" d="M214.97,213.562c-13.992,18.138-16.578,41.97-26.233,62.324-1.971,4.238-4.533,8.176-6.639,12.34-.307,1.708-1.837,3.311-3.68,2.856-5.147-1.493-45.962-8.23-40.324-15.81a.563.563,0,0,1,.08-.1,2.506,2.506,0,0,1,3.182-.884c.4.2.8.387,1.21.571,2.4,1.112,4.84,2.082,7.315,2.96q1.631.571,3.292,1.093c5.38,1.708,10.89,3.046,16.382,4.417.516.135,1.038.264,1.554.393.006,0,.006,0,.012.006l.535.147c2.389.633,4.883.823,7.229,1.6,1.345-2.174,2.567-4.41,3.691-6.689q.894-1.815,1.714-3.66c8.151-18.365,11.117-39.126,21.2-56.4q1.032-1.759,2.162-3.476c1.185-1.788,2.457-3.532,3.839-5.227-2.383-1.665-4.711-3.391-7.014-5.153-.7-.528-1.4-1.069-2.1-1.6-2.918-2.242-5.817-4.5-8.771-6.695q-.976-.729-1.96-1.438a8.187,8.187,0,0,0-1-.927c-1.738-1.388-4.232-2.6-5.509-4.294a3.7,3.7,0,0,1-.793-2.88c.006,0,.006,0,.012.006a3.711,3.711,0,0,1,.32-.626c1.523-2.4,4.656.251,6.443,1.455,5.4,3.913,10.816,7.788,15.982,12.008,4.072,3.526,14.072,7.463,7.874,13.691" transform="translate(-60.567 -81.646)"/>
        <path id="패스_444" data-name="패스 444" d="M187.031,189.24c-.485.418-.964.847-1.437,1.284a72.077,72.077,0,0,0-5.749,5.884q-1.078,1.234-2.1,2.512c-7.758,9.674-13.243,21.141-17.106,32.934-2.647,11.136-5.669,22.265-10.859,32.406q-.774,1.52-1.621,3a70.8,70.8,0,0,1-4.257,6.627c-.277.448-.559,1.025-.872,1.585-.786,1.431-1.781,2.8-3.5,2.014a2.58,2.58,0,0,1-.89-1.7c-.437-3.489,4.889-9.011,6.05-11.763,4.533-8.194,7.045-17.137,9.269-26.159,3.8-15.712,10.454-31.731,21.9-43.388,1.02-1.241,6.327-6.406,9.275-7.457,1.419-.509,2.3-.067,1.9,2.218" transform="translate(-61.03 -82.261)"/>
        <path id="패스_445" data-name="패스 445" d="M157.591,343.944c-3.3-1.858,4.014-9.437-1.419-15.895-2.514.839-2.495-6.038,1.56-2.429,3.62,3.5,4.508,9.15,3.073,13.858-.537,1.649-.769,5-3.215,4.465" transform="translate(-68.005 -142.904)"/>
        <path id="패스_446" data-name="패스 446" d="M194.884,356.879c-3.99-2.908,6.339-9.95,9.177-10.691,1.695-.283,3.757-1.28,5.382-.5a2.072,2.072,0,0,1-1,3.5,16.494,16.494,0,0,0-12.987,6.323.844.844,0,0,1-.577,1.371" transform="translate(-85.408 -152.075)"/>
        <path id="패스_447" data-name="패스 447" d="M214.7,205.754c-.58-.022-1.159-.055-1.737-.108l.231.022-.413-.037.075.006-.231-.019.049,0-.032,0,.055.005c-1.878-.01-10.091-1.738-7.116-4.5,3.063.556,6.2,1.238,9.39.887a11.312,11.312,0,0,0,6.5-2.781,1.594,1.594,0,0,1,2.239.4c1.313,2.561-2.118,4.4-4.1,5.145l.058-.023-.18.072.051-.021a12.433,12.433,0,0,1-4.837.95" transform="translate(-90.235 -87.589)"/>
        <path id="패스_448" data-name="패스 448" d="M254.8,231.715c-6.127-1.944-3.549-20.664.073-14.941v-.008a.986.986,0,0,1-.4,1.413c-.325,3.826-.088,7.8,3.146,10.338,1.245,1.7-.917,4.6-2.817,3.2" transform="translate(-110.562 -94.967)"/>
        <path id="패스_449" data-name="패스 449" d="M201.1,284.626c-10.436-3.095-5.258-19.235,4.9-17.036,3.076-1.933,5.646,3.291,6.281,5.753,0-.018-.009-.035-.013-.053.02.083.042.166.062.25l-.044-.172c1.886,6.32-4.878,13.135-11.187,11.259m2.7-3.974c4.789-.157,7.3-6.123,3.193-9.1-.834-.44-1.763-.974-1.761-2.033-7.462-.245-9.971,10.923-1.432,11.13" transform="translate(-86.026 -117.633)"/>
        <path id="패스_450" data-name="패스 450" d="M8.876,130.49H8.87a2.234,2.234,0,0,1-.35-.025C4.2,128.107,2.968,115.282,1.371,110.38-2.941,90.578,4.116,71.034,6.156,51.5a46.2,46.2,0,0,0-1.4-12.579c-.018-1.732-3.771-8.391-1.075-8.3a2.594,2.594,0,0,1,.719.141c.535.885,1.014,1.769,1.456,2.66A37.656,37.656,0,0,1,8.33,39.758q.452,1.548.762,3.1C13.348,63.9.1,86.058,7.347,115.153q.406,1.64.91,3.317a77.049,77.049,0,0,0,2.665,7.5q.231.572.479,1.142a2.8,2.8,0,0,1-2.524,3.378" transform="translate(0 -13.481)"/>
        <path id="패스_451" data-name="패스 451" d="M85.708,99.387a5.361,5.361,0,0,1-1.21.055c-1.173-.405-1.474-1.609-1.738-2.721-.055-.227-.11-.448-.166-.657a54.306,54.306,0,0,1-1.155-6.523c-.123-1.02-.221-2.039-.289-3.053-1.462-21.983,8.765-43.621,8.157-65.58a23.982,23.982,0,0,0-1.142-6.3c-.313-1.02-.67-2.032-1.038-3.046-.811-2.235-1.7-4.447-2.371-6.7A26.487,26.487,0,0,1,83.9.983a2.444,2.444,0,0,1,.442-.7c.528-.566,1.087-.215,1.578.429a8.393,8.393,0,0,1,.847,1.431c.185.369.344.719.461.971,16.486,26.841-4.489,56.87-.866,85.505-.178,3.114,3.606,10.018-.651,10.767" transform="translate(-35.667 0)"/>
        <path id="패스_452" data-name="패스 452" d="M56.366,175.332c-.632,3.532-7.241,4.73-9.889,6.6-9.95,3.962-19.8,8.949-30.244,11.332a2.346,2.346,0,0,1-1.032-.313H15.2c-1.615-1-.725-3.919,1.407-4.226l.645-.295c2.377-1.087,4.785-2.1,7.193-3.107,1.068-.448,2.144-.9,3.212-1.358,1.726-.725,3.439-1.474,5.135-2.266,3.833-1.671,7.776-3.108,11.64-4.711q1.851-.774,3.679-1.609c1.272-.59,2.53-1.21,3.765-1.873a5.106,5.106,0,0,1,1.548-.842,2.091,2.091,0,0,1,2.838,1.026,3.471,3.471,0,0,1,.11,1.64" transform="translate(-6.325 -75.945)"/>
        <path id="패스_453" data-name="패스 453" d="M53.368,2.334v.019A2.806,2.806,0,0,1,51.358,5.08c-1.271.54-2.893.719-4.053,1.088q-2.572.856-5.147,1.694c-.915.3-1.825.6-2.74.9-6.854,2.229-13.715,4.454-20.453,7.02-.694.265-1.388.528-2.082.805-.762.294-1.523.6-2.279.909-2.2.724-4.275,1.965-6.48,2.652a11.018,11.018,0,0,1-1.4.357c-1.935-.817-1.941-1.923-.774-3.157C9.826,13.256,26.667,7.8,28.774,6.978,32.018,6.518,45.388.086,50.941.492a3.581,3.581,0,0,1,1.579.43,1.74,1.74,0,0,1,.848,1.412" transform="translate(-2.27 -0.209)"/>
        <path id="패스_454" data-name="패스 454" d="M14.309,39.829c-4.37-2.773,5.684-5.8,5.853-10.379.477-1.714.179-3.5.193-5.236,1.754-2.716,2.357,2.337,2.337,3.627.114,4.751-3.633,11.114-8.383,11.987" transform="translate(-5.816 -10.314)"/>
        <path id="패스_455" data-name="패스 455" d="M75.56,19.475C69.35,19.61,61.686,8.545,66.9,8.464a1.026,1.026,0,0,1,.224.186V8.644a10.776,10.776,0,0,0,12.992,6.648,1.583,1.583,0,0,1,1.509,1.372c.269,3.1-3.9,3.106-6.068,2.81" transform="translate(-28.695 -3.727)"/>
        <path id="패스_456" data-name="패스 456" d="M22.226,189.7c-2.232-3.968-7.291-5.063-11.537-4.918-2.717,2.106-4.605-5.4,6.417-3.129,8.09.727,10.647,10.221,5.12,8.047" transform="translate(-3.786 -79.788)"/>
        <path id="패스_457" data-name="패스 457" d="M67.5,168.482c-1.329-4.989,2.033-10.671,6.072-13.494,1.291-.907,5.171-2.207,4.432.677a11.027,11.027,0,0,0-6.649,11.3c.252,2.093-2.807,3.725-3.856,1.516" transform="translate(-29.589 -67.759)"/>
        <path id="패스_458" data-name="패스 458" d="M41.5,111.852c-10.041-1.045-8.811-16.251-.237-18.5,15.714-5.726,16,21.38.237,18.5m2.757-4.044c5.178.046,7.7-7.4,3.816-10.567-2.011-1.664-4.99-.156-6.889-1.353-5.88,3.143-4.487,13.076,3.073,11.92" transform="translate(-15.145 -40.751)"/>
      </g>
    </g>
  </g>
</svg>
