<svg xmlns="http://www.w3.org/2000/svg" xmlns:xlink="http://www.w3.org/1999/xlink" width="315" height="180" viewBox="0 0 315 180">
  <defs>
    <clipPath id="clip-path">
      <rect id="사각형_227" data-name="사각형 227" width="315" height="180" rx="30" transform="translate(130 6803)" fill="#c6c6c6" stroke="#000" stroke-width="3"/>
    </clipPath>
    <clipPath id="clip-path-2">
      <rect id="사각형_244" data-name="사각형 244" width="276.949" height="154.533" fill="none"/>
    </clipPath>
  </defs>
  <g id="마스크_그룹_43" data-name="마스크 그룹 43" transform="translate(-130 -6803)" clip-path="url(#clip-path)">
    <g id="그룹_177" data-name="그룹 177" transform="translate(151.05 6815.733)">
      <g id="그룹_176" data-name="그룹 176" clip-path="url(#clip-path-2)">
        <path id="패스_214" data-name="패스 214" d="M735.527,244.583c-2.614-.035-5.4-.08-8.125-.214-1.654-.083-3.331-.237-4.952-.386l-.357-.033c-1.682-.153-3.484-.326-5.27-.547l.013,0h.01c-.49-.069-1.015-.153-1.549-.254-.338-.066-.676-.136-1.014-.207l-.527-.11-.5-.1c-.685-.138-1.394-.28-2.081-.458.642-.586,1.253-1.1,1.865-1.562.429-.3.878-.594,1.312-.876.37-.24.739-.478,1.1-.728.162-.113.323-.227.485-.342.245-.174.489-.348.739-.513.362-.243.749-.482,1.182-.732.263-.146.528-.289.794-.434.371-.2.742-.4,1.11-.609.343-.2.684-.4,1.025-.6.279-.164.559-.328.841-.49.181-.1.364-.2.546-.3q.24-.127.477-.258c.244-.137.484-.28.725-.423.142-.085.284-.169.426-.252.185-.1.345-.182.5-.253.092-.034.184-.064.28-.089a1.393,1.393,0,0,0,.814-.7,1.415,1.415,0,0,0,.152-.784,2.385,2.385,0,0,0,.064-1.052l-.005-.063c-.023-.285-.049-.568-.081-.85-.069-.625-.146-1.249-.224-1.872l-.039-.314-.043-.339.008.033c-.027-.18-.049-.361-.071-.54l-.005-.04c-.005-.085-.01-.17-.014-.256-.022-.424-.032-.855-.042-1.271-.007-.319-.013-.637-.027-.955-.027-.676-.09-1.381-.2-2.218-.088-.764-.148-1.534-.179-2.291l-.007-.175c-.032-.821-.066-1.671-.144-2.5s-.163-1.775-.2-2.7q-.012-.331-.021-.664c-.019-.641-.04-1.3-.1-1.954-.013-.156-.031-.313-.048-.471l-.02-.184-.009-.1a2.641,2.641,0,0,0-.166-.806,1.283,1.283,0,0,0-1.058-.738l-.152-.02-.074-.008a11.588,11.588,0,0,1-1.274-.3,18.383,18.383,0,0,1-2.038-.729l.033.01-.053-.018-.038-.016a17.124,17.124,0,0,1-1.76-.933c-.222-.145-.446-.3-.683-.484a11.34,11.34,0,0,1-.872-.782c-.335-.362-.642-.743-.923-1.1-.146-.2-.285-.416-.426-.656-.156-.288-.3-.579-.452-.87l-.165-.322-.073-.14c-.154-.295-.312-.6-.446-.912-.134-.366-.258-.76-.378-1.206-.122-.483-.236-.966-.351-1.449l-.04-.168a15.264,15.264,0,0,1-.277-1.519c-.057-.488-.108-.984-.159-1.48-.053-.517-.107-1.034-.168-1.551-.138-1.156-.254-2.33-.35-3.327-.113-1.171-.182-2.364-.248-3.518-.035-.593-.069-1.187-.11-1.78l-.037-.547c-.05-.729-.1-1.481-.121-2.226-.017-.714-.009-1.441,0-2.145l0-.293v-.126l0-.114v-.057c0-.125,0-.24,0-.355.006-.553.01-1.124.014-1.7l.007-1.144,0,.155c0-.323,0-.655.01-.988l.012-.764v-.061l0-.042V176.3l.005.044,0-.246c0-.012,0-.027,0-.042v-.036l0-.035h0v-.036a.488.488,0,0,1,0-.063v-.032l.005-.559c0-.118,0-.24,0-.362,0-.044,0-.08,0-.116.017-1.079.057-2.156.1-3.2.015-.42.032-.839.045-1.259.012-.342.017-.684.023-1.026.006-.382.011-.764.025-1.144a20.742,20.742,0,0,1,.21-2.169l0,.06-.008.059c.1-.679.231-1.365.356-2.028.059-.319.119-.638.178-.957l.06-.33c.042-.234.083-.466.128-.7l.044,0a.188.188,0,0,0,.036,0,.215.215,0,0,0,.147-.074.232.232,0,0,0,.06-.168.229.229,0,0,0-.2-.212c.1-.552.2-1,.312-1.412q.066-.193.147-.381l-.016.036.112-.254a5.851,5.851,0,0,1,.275-.518l.044-.073c.113-.176.23-.345.351-.514a9.33,9.33,0,0,1,.678-.751c.362-.333.748-.654,1.177-.98.262-.191.488-.346.714-.484.283-.155.58-.293.867-.426l.075-.034.205-.095c.289-.134.577-.267.869-.392.226-.088.461-.168.7-.237a13.508,13.508,0,0,1,1.334-.219c.213-.029.426-.056.637-.089.313-.047.623-.1.935-.16.329-.061.659-.122.991-.172l.064-.007c.166-.021.336-.04.5-.048l.04,0c.225-.009.451-.014.677-.016.38.009.758.022,1.138.035.733.025,1.491.052,2.237.041l.622-.009c.517-.009,1.034-.018,1.551-.018q.664,0,1.326.008c.316,0,.631,0,.946.005s.652-.006,1.027-.023.771-.044,1.158-.073q.467-.034.934-.055.583-.027,1.169-.035.761.015,1.52.05c.745.034,1.512.05,2.348.051.417,0,.833-.006,1.248-.012.313-.005.626-.011.938-.013.742-.005,1.5-.012,2.252-.036.13,0,.259-.008.388-.014.418-.02.835-.047,1.252-.076l.564-.037q.219-.014.438-.024c.5-.024,1.044-.035,1.7-.038.357,0,.714,0,1.072,0l.486,0,.107,0c.082,0,.163,0,.242,0s.151,0,.219,0l.2,0a16.017,16.017,0,0,1,1.824.092c.417.074.867.176,1.377.313.152.047.3.1.449.156.091.044.18.089.268.136.041.026.08.053.12.082l.054.048.077.091c.044.065.087.129.126.2.056.108.106.22.154.331.085.226.166.471.247.752a26.69,26.69,0,0,1,.505,2.624c.134,1.179.176,2.357.21,3.561s.058,2.44.075,3.689c0,.3.005.6.008.893,0,.426.007.852.015,1.276q.009.537.022,1.073c.009.4.019.805.026,1.209.021,1.319.041,2.883.025,4.48l0-.053v.3l0,.425,0-.065c-.006.959,0,1.93,0,2.871l0,.668c.006,1.256-.005,2.518-.016,3.6-.013,1.123-.02,2.436.017,3.747q.03,1.088.068,2.177c.024.726.049,1.451.069,2.177.018.666.031,1.333.043,2,.017.854.033,1.706.061,2.559.021.665.057,1.342.092,2l.008.144c.039.745.082,1.515.149,2.271.05.576.11,1.151.169,1.726.089.843.179,1.714.237,2.574l.021.329c.039.591.081,1.2.148,1.8.065.575.144,1.148.222,1.722l.078.572.022.171a14.591,14.591,0,0,0,.391,2.135c.12.42.231.765.349,1.085a9.034,9.034,0,0,0,.459,1.065,5.368,5.368,0,0,0,.617.96,4.425,4.425,0,0,0,.936.849,8.631,8.631,0,0,0,.795.477,58.255,58.255,0,0,0-.183,6.211c.006.984.1,1.98.185,2.944l.023.245c.047.514.093,1.016.123,1.52.016.267.032.535.049.8l.009.168a4.388,4.388,0,0,0,.066.639,1.671,1.671,0,0,0,1.066,1.226c.1.079.2.149.3.219q.1.07.2.143c.164.122.332.237.5.352s.352.24.523.368c.43.357.842.748,1.242,1.127.3.282.6.573.917.848.492.433,1.029.833,1.549,1.219.275.2.55.41.821.621.446.369.884.746,1.322,1.125l.6.511c.266.229.535.451.805.675.362.3.736.609,1.1.926.45.4.893.807,1.336,1.214l.512.469c.456.42.866.8,1.252,1.179a1.719,1.719,0,0,1-.2.076,2.469,2.469,0,0,1-.257.044,16.027,16.027,0,0,0-1.789.286c-.543.128-1.092.283-1.622.432l-.575.161c-.632.158-1.215.286-1.785.393-.471.088-.955.158-1.422.227l-.392.058c-.416.062-.832.127-1.247.192-.754.118-1.532.24-2.3.342-.619.071-1.25.113-1.861.155l-.591.041c-.853.061-1.711.146-2.623.262l.127-.024c-.217.034-.435.061-.653.09l-.5.064q-.822.1-1.646.182c-.754.076-1.522.141-2.266.2-.982.082-2,.168-2.994.284l-.593.069c-1.552.18-3.157.366-4.742.469-1.239.08-2.387.144-3.509.2-2.581.12-4.932.171-7.184.155" transform="translate(-518.4 -112.381)" fill="#fff"/>
        <path id="패스_215" data-name="패스 215" d="M182.985,141.662a.864.864,0,0,1-.37-.884,1.788,1.788,0,0,1,.362-.727,5.645,5.645,0,0,1,.986-.994,9.615,9.615,0,0,1,1.091-.782,8.815,8.815,0,0,1,1.329-.712,4.346,4.346,0,0,1,1.9-.327l.046,0a4.146,4.146,0,0,1,2.2.912,6.3,6.3,0,0,1,1.023.969,7.844,7.844,0,0,1,.592.851c.064.1.128.2.193.3a1.073,1.073,0,0,1-.257,1.475,1.052,1.052,0,0,1-.69.191.841.841,0,0,1-.1-.013,1.093,1.093,0,0,1-.757-.548l-.2-.339-.107-.184c-.115-.181-.231-.347-.352-.5-.095-.109-.191-.212-.289-.315-.161-.146-.326-.285-.5-.422l-.034-.022c-.074-.049-.147-.1-.224-.143-.1-.049-.191-.094-.289-.135-.082-.03-.163-.054-.248-.076-.049-.01-.1-.019-.149-.026-.087-.007-.173-.011-.262-.012s-.175.014-.265.025c-.189.035-.366.076-.54.126s-.356.131-.53.207c-.356.171-.716.366-1.07.577-.253.164-.473.319-.673.474-.156.128-.3.259-.438.389l-.03.033-.029.033a.406.406,0,0,1-.012.044,1.084,1.084,0,0,1-.49.588.759.759,0,0,1-.431.089.831.831,0,0,1-.382-.124" transform="translate(-133.107 -100.031)"/>
        <path id="패스_216" data-name="패스 216" d="M289.2,141.737a.748.748,0,0,1-.532-.413.632.632,0,0,1-.039-.528.682.682,0,0,1,.4-.411.573.573,0,0,1,.126-.033c.12-.109.234-.223.348-.338l-.009.012c.107-.112.211-.226.316-.34a6.883,6.883,0,0,1,1.064-1.005A3.319,3.319,0,0,1,293,138.1a2.814,2.814,0,0,1,.487.079,5.134,5.134,0,0,1,1.916.977,9.613,9.613,0,0,1,1.145,1.134l.209.231a1.02,1.02,0,0,1-.062,1.43,1.05,1.05,0,0,1-.778.261.933.933,0,0,1-.652-.323c-.123-.145-.239-.293-.357-.441l-.066-.086c-.144-.176-.316-.38-.5-.571-.136-.125-.273-.239-.419-.351-.128-.089-.259-.174-.393-.256-.129-.066-.261-.128-.394-.185-.077-.028-.155-.055-.233-.079-.052-.011-.1-.02-.155-.026H292.7l-.045,0c-.11.007-.218.017-.33.031-.065.012-.128.027-.192.043-.1.031-.2.068-.3.108s-.172.086-.256.135c-.109.071-.21.148-.313.229l-.333.279c-.279.235-.568.478-.868.7a1.258,1.258,0,0,1-.8.333l-.062-.007" transform="translate(-210.362 -100.658)"/>
        <path id="패스_217" data-name="패스 217" d="M214.587,442.072a1.87,1.87,0,0,1,.157-1.581,1.129,1.129,0,0,1,.6-.664.641.641,0,0,1,.271-.037.668.668,0,0,1,.591.453,1.149,1.149,0,0,1,.047.333.9.9,0,0,1,.089.108.886.886,0,0,1,.117.762,1.551,1.551,0,0,1-.713.984.843.843,0,0,1-.456.093.873.873,0,0,1-.7-.45" transform="translate(-156.332 -320.578)"/>
        <path id="패스_218" data-name="패스 218" d="M18.288,154.17c-1.473-.154-2.939-.363-4.4-.587-.62-.094-1.237-.2-1.855-.305-.681-.114-1.365-.218-2.044-.349s-1.375-.292-2.052-.489a17.469,17.469,0,0,1-1.987-.746,17.191,17.191,0,0,1-1.782-.854,5.239,5.239,0,0,1-.863-.607c-.2-.177-.359-.4-.544-.59a2.071,2.071,0,0,1-.613-.919,7.594,7.594,0,0,1-.281-1.3,38.334,38.334,0,0,1-.277-3.93c-.021-.7-.022-1.4-.034-2.1s-.034-1.418-.048-2.125c-.028-1.394-.028-2.788-.066-4.182-.059-1.545-.12-3.088-.193-4.631-.072-1.509-.193-3.014-.287-4.522-.094-1.532-.173-3.065-.261-4.6C.61,119.8.512,118.252.471,116.7c-.005-.207-.01-.414-.016-.622l0,.138c-.047-1.5-.109-3-.178-4.507-.013-.3-.029-.607-.043-.91a.761.761,0,0,1-.1-.114.775.775,0,0,1,.04-.936.251.251,0,0,1,.024-.027c0-.1,0-.2,0-.3,0-.758.037-1.515.081-2.273.084-1.5.143-2.991.149-4.489.005-1.587-.029-3.172.04-4.756C.534,96.4.687,94.9.763,93.394c.078-1.565.071-3.133.121-4.7.051-1.588.142-3.177.252-4.763s.239-3.2.307-4.8c.033-.771.025-1.546.02-2.319-.006-.807.012-1.613.05-2.421.073-1.6.2-3.186.172-4.785-.028-.745-.072-1.489-.082-2.234-.009-.762,0-1.521.023-2.282.039-1.468.1-2.933.112-4.4.007-.754,0-1.507.034-2.26s.07-1.531.119-2.3c.093-1.46.147-2.921.195-4.384s.152-2.916.24-4.375c.082-1.382.16-2.763.248-4.145.188-2.949.446-5.893.717-8.835.137-1.467.238-2.937.371-4.4.136-1.5.308-3.006.468-4.507,0,.026-.007.052-.01.077.154-1.5.265-3.009.454-4.507.194-1.534.395-3.068.632-4.6.222-1.432.514-2.852.83-4.267.165-.733.339-1.463.545-2.185a8.093,8.093,0,0,1,.862-1.961A8.753,8.753,0,0,1,9.158,5.924a6.9,6.9,0,0,1,.752-.561.651.651,0,0,1,.258-.25.935.935,0,0,1,.306-.087c.344-.191.7-.362,1.061-.525.234-.107.469-.215.7-.326s.459-.236.7-.337a1.291,1.291,0,0,1,.645-.134l.033,0h0a.641.641,0,0,1,.07.016l.025.006h0a.3.3,0,0,1,.032.011,4.588,4.588,0,0,1,.886-.311c.842-.195,1.7-.355,2.55-.489,1.678-.262,3.363-.468,5.048-.67a25.881,25.881,0,0,1,2.946-.279c.471,0,.939.034,1.408.075q.609.052,1.219.047.9-.126,1.8-.267l-.144.024c.939-.155,1.874-.339,2.817-.471q.461-.064.924-.118l.166-.018q.947-.107,1.9-.178C37.208.938,39.16.9,41.113.844,42.192.8,43.268.741,44.346.685c1.133-.059,2.269-.1,3.4-.145,1.1-.043,2.192-.088,3.289-.11C52.2.407,53.351.4,54.506.366c1.361-.043,2.723-.089,4.082-.16S61.314.055,62.678.018C65.361-.053,68.042.1,70.72.212c1.433.06,2.866.081,4.3.125,1.355.041,2.709.1,4.063.151,1.394.052,2.788.13,4.181.2s2.791.11,4.186.168c1.244.052,2.492.081,3.735.155,1.568.095,3.129.24,4.691.4L95.727,1.4q4.074.426,8.119,1.095a34.812,34.812,0,0,1,4.2.917c.612.181,1.217.387,1.82.6a18.048,18.048,0,0,1,1.784.69A2.952,2.952,0,0,1,113,5.938a8.035,8.035,0,0,1,.666,1.912c.148.654.259,1.315.378,1.975.122.686.247,1.37.358,2.056a32.884,32.884,0,0,1,.331,4.023c.053,1.419.126,2.839.193,4.257.065,1.356.126,2.714.168,4.071.046,1.447,0,2.9-.038,4.348-.064,2.717-.291,5.429-.449,8.142-.161,2.761-.273,5.525-.248,8.29.012,1.355.018,2.7-.054,4.056-.074,1.386-.154,2.769-.174,4.158-.019,1.306.005,2.612.011,3.918.006,1.389,0,2.781.019,4.17.02,1.361.042,2.72.056,4.08s0,2.694.04,4.04c.059,1.356.191,2.7.322,4.056s.2,2.7.268,4.051c.132,2.743.214,5.487.373,8.229.057.989.117,1.978.148,2.969.031,1.013.05,2.025.069,3.037s.02,2.013,0,3.02c-.017.973-.04,1.948-.018,2.921.06,1.363.193,2.72.266,4.081s.124,2.729.172,4.093c.049,1.342.074,2.693.021,4.035-.055,1.39-.132,2.781-.124,4.172,0,.083,0,.167.006.25a18.423,18.423,0,0,0,.2,1.939c.015.088.032.178.05.267.036.017.074.034.112.05.539.2,1.082.389,1.618.6.644.246,1.289.483,1.942.7,1.228.411,2.466.785,3.685,1.224s2.446.855,3.7,1.211c.637.181,1.27.362,1.9.578.565.2,1.118.43,1.674.654a18.349,18.349,0,0,0,1.9.639c.249.058.5.108.751.165a1.365,1.365,0,0,1,.844.534,1.312,1.312,0,0,1,.218.974,1.274,1.274,0,0,1-.2.495c.007.033.01.067.014.1a1.271,1.271,0,0,1-.293.944,1.309,1.309,0,0,1-1.018.452h-.133c-.134.007-.267.02-.4.038-.266.05-.529.118-.791.187-.307.078-.617.125-.928.174-.426.075-.848.166-1.273.239-.476.082-.954.146-1.432.221-.738.123-1.473.255-2.214.359-.724.1-1.454.138-2.183.193-.713.054-1.424.14-2.133.226-.683.082-1.363.169-2.042.272-.548.091-1.089.2-1.629.327-.261.063-.521.126-.781.184,0,.163-.005.327-.011.491a20.488,20.488,0,0,1-.3,2.539c-.128.8-.308,1.583-.459,2.375s-.373,1.584-.574,2.376c-.212.935-.318,1.885-.455,2.833-.144.985-.279,1.974-.5,2.947-.236,1.037-.447,2.082-.717,3.11-.118.453-.267.9-.407,1.343s-.277.885-.42,1.326a2.536,2.536,0,0,1-.7,1.215,4.486,4.486,0,0,1-.866.542,6.9,6.9,0,0,1-2.216.622c-.406.06-.821.1-1.231.131s-.852.02-1.277.028c-.3.006-.6,0-.9-.018a1.431,1.431,0,0,1-1.462.477h-.01c-1.41.063-2.807.227-4.2.422-.735.1-1.469.2-2.206.287-.712.089-1.42.2-2.128.314-1.465.23-2.933.435-4.41.587-1.509.157-3.023.271-4.532.43s-2.98.388-4.475.542c-1.56.16-3.132.211-4.7.3-3.115.174-6.229.4-9.347.512-2.178.081-4.356.143-6.534.221-2.194.08-4.383.182-6.574.248h-.03l-.124,0H55.2l-.309.009h.031q-2.239.065-4.477-.029c-1.6-.066-3.208-.149-4.813-.2-1.5-.05-2.993-.063-4.489-.094-1.574-.033-3.148-.1-4.723-.1-.292,0-.583,0-.875.01-1.079.047-2.159.112-3.236.176-1.115.066-2.229.077-3.345.052-1.132-.025-2.263-.076-3.395-.105-1.027-.025-2.053-.009-3.08.02-.192.009-.388.024-.58.018-.119.009-.24.008-.358.009-.415.006-.831.009-1.248.006-.554,0-1.111-.021-1.665-.063-.118-.009-.234-.019-.352-.031M2.379,111.654c.024.571.048,1.142.066,1.713.045,1.353.076,2.7.1,3.963.042,1.294.112,2.607.181,3.878l.034.663.066,1.28c.058,1.1.114,2.208.182,3.311q.04.606.079,1.212c.073,1.08.147,2.2.191,3.3l.051,1.257c.048,1.144.1,2.329.129,3.493.021.718.03,1.436.037,2.154.007.608.014,1.216.028,1.824.014.583.024,1.165.034,1.748.012.634.022,1.269.037,1.9a30.8,30.8,0,0,0,.3,3.53c.052.286.112.543.181.783.035.116.072.229.115.343.118.11.226.23.332.35.071.079.141.157.215.235l.043.037.044.036c.145.1.3.194.465.289.573.295,1.2.574,2.028.905.348.129.721.264,1.1.387.308.1.627.184.935.262l.052.014c1.063.233,2.157.4,3.215.571.3.048.6.1.9.144,1.353.22,2.758.418,4.3.607.278.026.557.051.835.073.841.064,1.592.09,2.3.08.555-.008,1.109-.024,1.664-.04.645-.017,1.29-.034,1.935-.041,1.016-.009,2.051.023,3.051.054l.318.01c1.3.04,2.387.05,3.421.029.561-.024,1.12-.054,1.68-.084.953-.051,1.938-.1,2.907-.122,1.151-.023,2.321.007,3.453.034l1.215.029c.583.011,1.165.018,1.749.027.908.012,1.818.024,2.726.05,1.292.035,2.583.084,3.875.134l.781.03c.9.033,1.827.069,2.742.079.752.008,1.5,0,2.218-.025.2,0,.408-.011.611-.016h.014a.119.119,0,0,0,.022,0c.507-.017,1.016-.032,1.523-.048l.5-.014q1.178-.043,2.356-.095c.99-.043,1.981-.085,2.955-.114.209-.006.419-.014.627-.022l.086,0-.072,0c1.164-.037,2.328-.088,3.493-.137l1.224-.051c1.567-.065,3.148-.178,4.507-.277,1.556-.114,3.135-.215,4.752-.316q.645-.041,1.291-.077c1.1-.064,2.243-.131,3.36-.232,1.028-.093,2.067-.238,3.071-.377l.276-.037c1.16-.161,2.339-.293,3.339-.4l.641-.067c1.929-.2,3.924-.41,5.874-.722l.231-.041c.583-.1,1.166-.2,1.752-.294.382-.061.765-.108,1.15-.156.3-.038.6-.075.905-.118q2.133-.311,4.266-.635l.054-.008.057-.01c.112-.019.224-.04.337-.063l.269-.051a2.114,2.114,0,0,1,.521-.049,2.352,2.352,0,0,1,.708.169,1.253,1.253,0,0,1,.338.209c.547-.082,1.044-.143,1.515-.186.7-.069,1.381-.172,1.9-.255a7.72,7.72,0,0,0,.806-.182c.141-.045.279-.1.416-.154s.254-.126.4-.209c.087-.255.163-.513.238-.77.037-.128.074-.257.112-.383.139-.453.3-.986.433-1.516.132-.566.242-1.148.349-1.711.046-.245.094-.491.142-.736.161-.813.3-1.687.427-2.67.051-.4.094-.791.139-1.187.054-.484.108-.968.176-1.451.011-.081.023-.162.033-.246,0-.009,0-.017,0-.025l.021,0a1.006,1.006,0,0,0,.9-1.093c-.037-.249-.067-.5-.116-.749-.054-.267-.113-.533-.171-.8,0-.009,0-.018-.006-.028l0,0c.1-.439.184-.881.272-1.323.05-.252.1-.5.153-.756.2-.968.339-1.82.429-2.6.021-.265.03-.5.028-.717-.008-.183-.015-.365-.009-.547,0-.075.006-.15.012-.226s.007-.128.011-.193a1.61,1.61,0,0,1,.138-.653,1.441,1.441,0,0,1,.763-.709,2.356,2.356,0,0,1,.748-.126c.115-.007.229-.014.34-.027.329-.059.656-.124.983-.189.507-.1,1.031-.2,1.551-.281.675-.1,1.363-.19,2.031-.274l.411-.051c.692-.089,1.4-.157,2.083-.224.951-.091,1.935-.187,2.9-.336l.806-.144c.561-.1,1.122-.2,1.686-.29l.111-.019.111-.018q.371-.063.738-.14l.145-.028h0l-.488-.215c-.4-.177-.8-.354-1.208-.519-.655-.245-1.334-.455-1.989-.658-.535-.166-1.089-.336-1.627-.526-.507-.179-1.009-.366-1.511-.553-.686-.255-1.393-.519-2.1-.753-.28-.094-.561-.186-.841-.279-.345-.114-.691-.227-1.035-.343-.622-.211-1.237-.439-1.918-.691-.472-.178-.956-.342-1.425-.5l-.387-.132a2.439,2.439,0,0,1-1.265-.821,2.345,2.345,0,0,1-.318-1.009c-.052-.338-.1-.7-.133-1.129a25.409,25.409,0,0,1-.078-2.8.786.786,0,0,0,.064-.22,3.775,3.775,0,0,0,.013-.872c0-.111,0-.22-.007-.33l-.008-.166-.007-.149.018-.488.01-.351c0-.046,0-.091.005-.137h0v0c-.027.014-.054.024-.079.036l-.012,0-.006-.075,0-.076c-.016-.244-.033-.486-.05-.729s-.033-.485-.047-.727c-.007-.1-.014-.208-.023-.308v-.015a1.161,1.161,0,0,1,.231.087l.031.017v0l0,0c0-.724-.018-1.462-.036-2.175l-.005-.206c-.046-1.328-.094-2.628-.165-3.95-.032-.575-.071-1.147-.112-1.72-.056-.816-.116-1.658-.146-2.489-.037-.969-.019-1.957,0-2.911q.013-.655.02-1.308c.008-1.091-.02-2.2-.046-3.272l-.015-.659-.017-.694-.01-.382c-.033-.839-.074-1.677-.115-2.515-.024-.5-.05-1.005-.071-1.506-.058-1.289-.1-2.6-.136-3.867l-.008-.256c-.044-1.4-.109-2.8-.173-4.111-.064-1.264-.177-2.543-.285-3.781l-.029-.334c-.111-1.257-.177-2.592-.2-4.084-.012-.733-.011-1.466-.008-2.2,0-.615,0-1.23,0-1.846s-.017-1.221-.028-1.831c-.014-.745-.027-1.489-.031-2.233l-.008-1.574q-.006-1.255-.014-2.51c-.012-1.306-.022-2.7.011-4.107.016-.693.053-1.4.091-2.079.035-.659.072-1.341.09-2.012.024-.969.011-1.954,0-2.907,0-.434-.011-.867-.013-1.3-.007-1.038.027-2.094.059-3.117l.027-.94c.036-1.238.073-2.519.134-3.777.034-.7.075-1.407.115-2.111q.048-.829.092-1.659c.136-2.636.182-5.206.14-7.636-.057-1.439-.14-2.9-.221-4.314q-.053-.915-.1-1.829c-.026-.475-.047-.952-.067-1.427-.023-.505-.044-1.01-.072-1.516-.061-1.1-.158-2.1-.3-3.077-.095-.564-.2-1.127-.3-1.691l-.072-.4c-.114-.626-.255-1.406-.452-2.14-.077-.239-.159-.462-.252-.684-.033-.066-.065-.132-.1-.2-.017-.026-.035-.051-.054-.076s-.027-.03-.04-.042l-.037-.033-.038-.031c-.079-.054-.16-.1-.243-.153-.333-.168-.674-.308-.932-.41-.572-.215-1.237-.465-1.9-.7-.709-.25-1.429-.442-2.039-.6-1.635-.352-3.316-.618-4.942-.873l-.462-.074c-.765-.121-1.547-.214-2.305-.3l-.387-.048q-1.062-.128-2.126-.242l-.5-.055h.009l.074.008-.073-.008.073,0c-.9-.094-1.875-.191-2.839-.265-.467-.036-.935-.065-1.4-.089-1.222-.059-2.546-.115-4.168-.173-1.391-.05-2.8-.124-4.169-.2C81,2.7,79.611,2.626,78.24,2.574c-1.33-.049-2.658-.1-3.988-.132-.469-.012-.936-.022-1.4-.033-.8-.017-1.6-.035-2.405-.065-.621-.022-1.244-.05-1.864-.078-.828-.037-1.657-.074-2.486-.1l-.124.028a3.725,3.725,0,0,1-.673.115c-.242.013-.488.006-.727,0C64.386,2.3,64.2,2.3,64,2.3l-.632.027c-.553.024-1.126.049-1.69.041-.181,0-.361-.012-.541-.025l-.257-.022-.184-.014-.259-.018-.188-.011-.942.058c-1.009.064-2.051.129-3.078.173-1.062.047-2.119.074-3.014.094-.6.065-1.2.158-1.784.248l-.3.045c-.608.093-1.17.165-1.714.221-.521.057-1.055.069-1.57.082l-.123,0c-.7.024-1.379.075-2.035.153l-.612.076c-.51.063-1.036.128-1.555.174-.748.069-1.435.105-2.1.111-.329,0-.657,0-.986,0-.4,0-.8,0-1.193,0-.794.031-1.594.123-2.368.211-.31.036-.618.071-.927.1-.547.056-1.1.094-1.64.131-.471.032-.956.065-1.435.137l-.076.014a4.084,4.084,0,0,1-.452.054.665.665,0,0,1-.125,0,.75.75,0,0,1-.192-.042q-.4.067-.8.125c-.5.075-1,.136-1.5.2-.291.036-.583.071-.874.109-.825.109-1.57.2-2.319.275l-.273.026c-.289.026-.579.053-.869.088-.251.033-.5.074-.75.115l-.358.059c-.341.053-.683.094-1.027.135s-.7.083-1.053.14c-.187.033-.374.068-.562.1-.239.044-.478.09-.718.13-.339.056-.678.107-1.016.158l-.4.061c-.549.1-1.092.252-1.619.4-.266.076-.533.152-.8.221-.3.076-.607.128-.906.179l-.344.061c-.418.075-.827.166-1.248.281-.319.106-.63.225-.95.363-.665.308-1.445.683-2.187,1.12A19.865,19.865,0,0,0,9.712,9.9c-.435.361-.783.667-1.095.966l-.032.047-.034.05c-.192.842-.358,1.7-.525,2.566-.2,1.037-.353,1.958-.465,2.812-.191,1.468-.375,2.967-.544,4.471q-.079.692-.155,1.386v-.014c0-.023,0-.047.007-.07l-.007.07,0-.07-.078.789c-.118,1.2-.243,2.433-.4,3.648l-.117.918c-.107.839-.217,1.7-.315,2.559q-.042.357-.083.715v-.015l.008-.077-.008.075,0-.075c-.125,1.211-.249,2.42-.384,3.628l-.108.958c-.1.872-.2,1.743-.293,2.615Q4.984,39,4.868,40.142q-.027.26-.054.519v-.018C4.629,42.459,4.5,44.31,4.38,46.1c-.07,1.025-.141,2.048-.223,3.072-.123,1.584-.189,3.137-.234,4.313-.033.872-.088,1.757-.142,2.613-.04.623-.078,1.245-.11,1.867-.046.932-.053,1.881-.061,2.8-.005.629-.009,1.258-.027,1.888-.009.362-.021.723-.033,1.085-.038,1.187-.079,2.417-.058,3.626.011.288.025.576.038.863.022.459.043.918.053,1.375.014.685,0,1.426-.03,2.266-.018.438-.041.876-.064,1.314-.055,1.061-.112,2.158-.1,3.24l.005.509c.007.561.014,1.142,0,1.71-.022.768-.064,1.591-.128,2.515-.033.506-.069,1.012-.105,1.518-.073,1.031-.148,2.1-.206,3.146-.07,1.294-.153,3-.173,4.707-.018,1.8-.073,3.259-.167,4.6-.119,1.721-.179,3.237-.184,4.635,0,.633,0,1.267.006,1.9.007.9.012,1.832,0,2.748-.011.693-.038,1.394-.067,2.073-.032.805-.065,1.634-.067,2.456q0,.14,0,.281h0v0a.283.283,0,0,1,.092-.014.141.141,0,0,1,.038.009c0,.021,0,.042.005.063a4.527,4.527,0,0,0-.036.555c0,.108,0,.217,0,.327,0,.019,0,.038,0,.057a1.235,1.235,0,0,0-.063.162,1.12,1.12,0,0,0,.022.748v.007l0-.008Z" transform="translate(0 0)"/>
        <path id="패스_219" data-name="패스 219" d="M129.516,174.945a1.133,1.133,0,0,1-.764-.4.942.942,0,0,1-.232-.706c.014-.156.033-.313.053-.469l.032-.269c.087-.905.117-1.829.146-2.721.02-.566.038-1.131.071-1.7.061-1.041.2-2.092.325-3.108.063-.483.124-.965.179-1.447.156-1.566.249-3.1.314-4.264.029-.552.051-1.1.074-1.655.021-.519.043-1.037.068-1.558,0-.117.012-.233.019-.35,0,0,0,0,0,0v-.005c-.818.552-1.61,1.173-2.373,1.775-.4.316-.8.632-1.211.939-.593.449-1.215.88-1.816,1.3l-.292.2c-.658.46-1.326.959-1.986,1.485q-.72.591-1.43,1.195c-.463.39-.926.781-1.394,1.164-.588.483-1.06.879-1.482,1.247s-.8.756-1.228,1.192l-.024.025-.034.035c-.785.815-1.606,1.707-2.511,2.726-.114.128-.25.276-.393.411a1.356,1.356,0,0,1-.962.366l-.051,0a1.394,1.394,0,0,1-1.2-1.016c-.068-.213-.122-.433-.173-.646l-.039-.159c-.076-.3-.159-.6-.246-.9l-.16-.516c-.224-.714-.455-1.454-.638-2.2-.245-.994-.465-1.917-.672-2.821-.227-1-.419-1.981-.57-2.931-.161-1.012-.3-1.927-.393-2.852-.023-.224-.04-.448-.057-.673,0-.017,0-.035,0-.052h0v0a1.237,1.237,0,0,1-.3.133,1.026,1.026,0,0,0-.571-1.848h0l-.01-.1-.011-.117c-.043-.413-.095-.841-.157-1.273a6.258,6.258,0,0,0-.151-.8c-.02-.073-.043-.142-.065-.21,0-.3,0-.61,0-.93q-.031-.6-.062-1.19c-.062-1.193-.127-2.426-.153-3.64-.017-.748-.013-1.508-.01-2.246l0-.752c0-1.03-.01-1.967-.033-2.865-.026-.58-.056-1.157-.088-1.735q-.035-.662-.067-1.324c-.048-.99-.078-2-.105-2.969l-.007-.219c-.017-.545-.038-1.09-.059-1.634q-.025-.664-.051-1.329c0-.107-.007-.215-.011-.322v.009l.005.031c-.045-1.469-.083-3.4.029-5.342.053-.914.13-1.809.206-2.639a20.748,20.748,0,0,0,.079-2.3c-.01-.245-.025-.492-.048-.737l-.014-.139a2.789,2.789,0,0,1,0-.877,1.43,1.43,0,0,1,.522-.841c.026-.02.054-.039.081-.056h0l0,0-.292-.1a10.469,10.469,0,0,1-1.645-.634,5.543,5.543,0,0,1-1.372-.971,7.349,7.349,0,0,1-.726-.855,4.278,4.278,0,0,1-.443-.776,4.558,4.558,0,0,1-.422-1.849,5.779,5.779,0,0,1,.462-2.141,10.6,10.6,0,0,1,.725-1.486,11.306,11.306,0,0,1,1.206-1.708c-.033-.084-.061-.168-.089-.251-.088-.268-.17-.55-.245-.841-.258-1-.485-2.082-.715-3.4s-.376-2.4-.468-3.438a20.456,20.456,0,0,1,.013-3.45c.054-.689.118-1.323.2-1.939a14.932,14.932,0,0,1,.358-1.727,24.978,24.978,0,0,1,1.065-3.413c.231-.57.457-1.079.693-1.555a14,14,0,0,1,.845-1.444c.7-1.068,1.46-2.078,2.11-2.926a23.5,23.5,0,0,1,2.169-2.541,17.609,17.609,0,0,1,2.733-2.177,44.486,44.486,0,0,1,6.082-3.354l.625-.279c.46-.212.916-.432,1.373-.654.533-.257,1.084-.525,1.633-.773a20,20,0,0,1,3.448-1.2c.316-.076.63-.15.946-.224.776-.183,1.579-.371,2.361-.589l.5-.14c.908-.253,1.846-.516,2.787-.707.407-.082.817-.152,1.227-.224l.344-.06.465-.082c.422-.076.857-.155,1.289-.211a15,15,0,0,1,1.7-.134,8.959,8.959,0,0,1,.92.031c.18.014.359.03.539.046l.112.011c.8.071,1.607.164,2.389.255l.821.1a26.837,26.837,0,0,1,2.964.487c.378.086.759.192,1.127.293.229.063.459.126.69.186.471.106.954.195,1.421.28.54.1,1.1.2,1.641.332a9.787,9.787,0,0,1,1.522.489c.462.2.916.405,1.26.567a19.792,19.792,0,0,1,2.794,1.593,19.56,19.56,0,0,1,2.566,2.119,24.852,24.852,0,0,1,2.192,2.469c.3.376.575.762.828,1.146.2.3.387.623.566.932.086.148.174.3.262.443l.144.233c.22.356.448.725.65,1.1a11.1,11.1,0,0,1,.673,1.578,20.19,20.19,0,0,1,.633,2.448c.053.246.106.491.161.735a15.323,15.323,0,0,1,.325,3.345,19.209,19.209,0,0,1-.227,3.068,14.22,14.22,0,0,1-.5,2.218,1.239,1.239,0,0,1-.36.538c.045.982.053,1.955.054,2.694,0,1.206-.009,2.27-.035,3.255l-.032,1.208c-.047,1.73-.1,3.519-.091,5.279q0,.5.007,1c.007.713.013,1.45,0,2.176-.008.377-.018.753-.029,1.129-.018.646-.036,1.292-.042,1.936,0,.4,0,.793,0,1.19,0,.655,0,1.332-.02,2-.043,1.183-.118,2.237-.227,3.221-.1.942-.232,2.053-.39,3.152l-.017.124c-.062.442-.127.9-.228,1.337a10.754,10.754,0,0,1-.542,1.684,7.108,7.108,0,0,1-.62,1.158,8.279,8.279,0,0,1-.859,1.137,10.81,10.81,0,0,1-2.189,1.779,11.358,11.358,0,0,1-2.455,1.158c-.249.085-.5.166-.75.246-.191.062-.381.123-.572.188-.337.112-.69.25-1.142.45l-.492.225-.218.1-.1.047c-.16.072-.319.144-.478.225q-.039.124-.074.252c-.066.323-.121.667-.166,1.05-.056.7-.086,1.415-.115,2.106-.015.387-.032.774-.053,1.16-.052.995-.1,2.053-.138,3.235l-.024.738c-.029.873-.057,1.776-.116,2.663q-.1,1.6-.191,3.2c-.027.525-.069,1.048-.111,1.572-.038.484-.078.968-.105,1.454l-.028.487c-.015.271-.031.54-.041.815.071,0,.144.008.211.009,0,.038,0,.075,0,.113-.005.342.009.68.033,1.081l.017.276.018.228c0,.016,0,.033,0,.049a.66.66,0,0,0-.552.711.636.636,0,0,0,.209.413.574.574,0,0,0,.07.2v.005a.014.014,0,0,0,0-.005c-.034.53-.07,1.052-.113,1.57-.014.145-.027.288-.042.431l0-.053c-.17,1.63-.412,3.237-.718,4.776-.169.854-.371,1.676-.547,2.369-.093.371-.2.741-.3,1.111s-.2.716-.3,1.077l-.1.459c-.053.24-.108.481-.167.721-.085.351-.182.7-.28,1.049l-.064.229c-.033.117-.061.236-.091.355-.05.2-.1.4-.161.59l-.087.259-.017.052a1.391,1.391,0,0,1-.373.6,1.3,1.3,0,0,1-.717.318.987.987,0,0,1-.216.007,1.231,1.231,0,0,1-1.1-1.022l-.041,0a1.38,1.38,0,0,1-1.109-.716l-.06-.111c-.035-.053-.071-.105-.109-.157s-.105-.118-.161-.175l-.309-.282a14.8,14.8,0,0,1-1.1-1.075c-.349-.391-.722-.806-1.122-1.2l-.2-.186c-.249-.231-.508-.471-.745-.724-.115-.122-.228-.248-.341-.372-.174-.193-.348-.384-.53-.567l-.275-.255c-.223-.207-.448-.415-.665-.629-.172-.168-.336-.343-.5-.517-.141-.15-.282-.3-.427-.446-.245-.227-.5-.445-.752-.662l-.211-.183c-.389-.335-.766-.684-1.082-.98-.408-.381-.782-.711-1.148-1.011-.141-.116-.283-.229-.427-.341-.248-.194-.5-.4-.742-.61-.59-.53-1.146-1.118-1.685-1.685-.157-.167-.317-.334-.474-.5-.254-.264-.509-.528-.774-.787-.054-.055-.11-.109-.166-.164l0,0v0l0,0c.006.2.011.4.02.594,0,.037,0,.072,0,.108v0c0-.008,0-.016,0-.024,0,.008,0,.016,0,.024l0-.024.023.649c.025.7.05,1.426.056,2.139.007.9-.011,1.841-.053,2.869-.043,1.059-.152,2.132-.257,3.17-.086.835-.172,1.7-.227,2.55-.049.8-.066,1.616-.082,2.4l-.007.3-.007.417c-.013.712-.026,1.447-.086,2.167a1.1,1.1,0,0,1-.346.754,1.083,1.083,0,0,1-.764.281h-.037Zm-2.072-20.569-.085.007c-1.022.078-2.079.159-3.12.193-.77.026-1.538.058-2.306.091-1.289.054-2.623.11-3.934.131-.383.006-.766.016-1.149.025l-.687.027c-.465.018-.929.037-1.393.045-.311,0-.622,0-.933,0-.377,0-.753,0-1.13.006l-.052,0c-.381.013-.761.036-1.14.059l-.4.024-.159.01c-.256.014-.513.028-.773.056a.57.57,0,0,1-.049.163.642.642,0,0,1-.167.215c.044.171.092.343.139.514l.043.153q.131.477.259.955l.14.517.141.535c.2.762.41,1.55.633,2.323.073.246.15.493.226.739.137.449.275.9.406,1.347.1.336.192.675.287,1.013s.19.675.288,1.013c.112.361.235.717.358,1.074q.122.347.238.7.1.31.191.62s0,0,0,0h0l.1-.09.1-.089.327-.3c.371-.341.741-.683,1.1-1.029.43-.411.934-.886,1.452-1.341.37-.327.764-.638,1.146-.939l.479-.381.168-.139c.027-.021.053-.041.078-.063l-.022.023c.5-.4.987-.825,1.461-1.236l.274-.237c.625-.539,1.288-1.079,1.968-1.6.547-.421,1.119-.831,1.672-1.225s1.127-.8,1.675-1.231c.106-.082.211-.165.317-.248l-.022.022.141-.114.042-.036a.065.065,0,0,1,.014-.012l-.02.021.117-.094.01-.008c.28-.23.554-.464.829-.7.4-.338.808-.688,1.226-1.014l.075-.063.483-.379h-.032l0,0-1.033-.048m4.4.382.2.139.293.2c.37.264.732.524,1.085.8.284.224.562.454.842.682.41.338.835.687,1.269,1.012.286.205.58.4.874.595.326.215.664.438.985.674.367.268.727.547,1.086.825.294.228.587.455.885.676l.062.045c.381.28.775.569,1.142.875.29.243.56.516.822.78l.294.294.262.246c.295.278.6.564.888.86.2.2.38.42.558.632.2.235.4.477.624.7a17.294,17.294,0,0,1,1.185,1.267,15.844,15.844,0,0,0,1.092,1.217l.23.21c.159.145.318.29.472.44.068.066.13.137.191.21l0,0h0s0,0,0,0c.07-.251.133-.5.2-.755.041-.165.082-.328.126-.493.1-.374.213-.75.326-1.113l.071-.234c.165-.543.323-1.086.482-1.631q.172-.6.348-1.191c.243-.816.519-1.74.749-2.656.2-.881.382-1.8.551-2.822q.062-.376.126-.751l.055-.34.007-.037h0v0a1.466,1.466,0,0,1-.736-.288l-.048,0-.049-.006-.8-.092-.385-.045c-.166-.015-.332-.031-.5-.043-.363-.028-.727-.048-1.091-.069-.392-.022-.786-.044-1.176-.074l-.22-.017c-.837-.064-1.733-.124-2.626-.135-1.867-.021-3.871-.062-5.877-.206l-.657-.047c-.658-.05-1.314-.105-1.969-.171-.54-.053-1.077-.12-1.613-.185l-.593-.071c-.013.033-.026.065-.039.1m-22.957-48.681c-.123.04-.242.086-.36.135-.088.041-.175.088-.26.137-.137.087-.279.188-.437.307-.211.176-.406.362-.634.585-.2.215-.383.433-.569.659-.26.361-.494.719-.717,1.1a14.322,14.322,0,0,0-.631,1.353c-.112.32-.2.61-.276.889-.031.149-.057.295-.078.445-.006.095-.008.189-.009.284s.018.19.032.284.044.2.072.3.061.176.1.263c.055.114.114.223.176.335.085.125.172.247.263.367s.212.236.323.35c.088.077.177.15.268.221s.2.131.3.192c.2.1.392.189.6.275.331.116.672.214,1,.309l.229.067.1.03c.14.041.28.081.416.128a1.847,1.847,0,0,1,.581.313,1.633,1.633,0,0,1,.506.82,5.405,5.405,0,0,1,.1,1.6c0,.1-.008.21-.011.313q-.018.777-.027,1.552c-.009.75.011,1.512.03,2.25.007.317.015.633.021.95.016.853.008,1.722,0,2.56l0,.508c0,.525,0,1.051,0,1.576,0,.493,0,.987,0,1.48-.008,1.023-.029,2.036-.053,3.069-.042,1.819-.1,3.667-.159,5.455l-.023.71c-.033,1.025-.051,2.051-.07,3.091-.012.7-.033,1.4-.053,2.1l-.031,1.051c-.03,1.166,0,2.349.025,3.494.019.825.04,1.677.037,2.516,0,.516,0,1.034.011,1.553l.007.064.007.064.014.135c.011.113.023.228.031.343,0,0,0,0,0,0l.1,0c.136,0,.271.006.407.006.38,0,.76-.007,1.141-.016l.124,0c1.259-.049,2.538-.123,3.775-.195.494-.029.988-.059,1.482-.085l1.585-.093c.995-.061,2.015-.122,3.032-.167.239-.011.479-.02.719-.025l-.031,0c.842-.027,1.7-.015,2.529,0l.5.007c.784.009,1.566.031,2.351.053l.307-.028.734-.068c.978-.087,2-.133,3.112-.142,1.071-.008,2.175.06,3.15.12,1,.062,1.992.11,2.989.157.958.046,1.984.1,3,.171l.658.049c.8.061,1.63.123,2.444.164l.306.014c.841.039,1.712.081,2.567.146.2.015.394.031.591.05.479.043,1.007.1,1.656.186l.043.006h0l.021-.637c.008-.265.018-.527.029-.79.038-.986.088-2.046.185-3.115l.07-.778c.074-.8.149-1.62.206-2.431.037-.537.065-1.074.093-1.611.032-.591.063-1.18.106-1.77.05-.692.111-1.383.171-2.073.079-.9.161-1.841.22-2.763a24.036,24.036,0,0,1,.249-2.45,6.912,6.912,0,0,1,.342-1.328,2.014,2.014,0,0,1,.723-.988,4.885,4.885,0,0,1,.654-.339l-.056.024.271-.122c.373-.169.758-.345,1.145-.5.432-.17.866-.318,1.353-.473l.329-.1-.027.011.417-.126a16.016,16.016,0,0,0,1.517-.555c.3-.146.569-.292.83-.445.295-.195.558-.382.8-.568a12.082,12.082,0,0,0,.9-.82c.158-.178.3-.346.43-.519.148-.215.289-.44.433-.688.079-.156.154-.313.224-.473a10.784,10.784,0,0,0,.368-1.192,37.089,37.089,0,0,0,.6-4.126l.04-.376c.1-.993.168-2.038.2-3.109.019-.7.021-1.41.022-2.1,0-.386,0-.773.006-1.159.007-.606.031-1.221.053-1.817.012-.308.024-.617.031-.934,0-.074.007-.232.007-.237l0,0s.016-2.228.024-2.225h0q0-.541,0-1.081c.008-1.848.078-3.725.146-5.541l.036-.956c.079-2.209.13-4.4.152-6.5.006-.66.006-1.269,0-1.843,0-.138,0-.275-.005-.413l0,.014v0l.006.029c-.023-.692-.059-1.383-.094-2.074l-.029-.589s-.027-.038-.027-.04c-.035-.052-.07-.1-.107-.155-.345-.407-.736-.79-1.139-1.179-.428-.4-.878-.784-1.314-1.157-.255-.218-.51-.438-.762-.66l-.4-.358c-.506-.454-1.031-.923-1.585-1.341-.186-.134-.374-.265-.563-.4-.292-.206-.586-.411-.875-.622-.358-.265-.713-.537-1.067-.808l-.554-.423-.865-.663c-.565-.432-1.131-.864-1.694-1.284l-.458-.343.015.009-.049-.037-.056-.039c-.862-.632-1.588-1.14-2.288-1.6-.369-.244-.739-.469-1.15-.715-.1-.062-.2-.126-.313-.189l-.04-.025h0l0,0a.631.631,0,0,1-.685.645.668.668,0,0,1-.366-.144.84.84,0,0,1-.184-.212c-.524.164-1.135.353-1.748.526l-.213.059c-.808.229-1.643.464-2.46.713-2.1.65-3.992,1.3-5.775,1.994-1.335.517-2.674,1.088-3.97,1.641q-.9.383-1.794.761l-.218.09c-.854.358-1.739.729-2.619,1.065-.95.362-1.947.73-3.049,1.125q-1.875.673-3.759,1.33-1,.355-2.009.709-1.259.446-2.524.885c-.232.08-.466.16-.7.238l-.467.159c-.092.032-.186.063-.279.093l-.167.057c-.017.171-.038.342-.059.513l-.044.371c-.03.329-.053.661-.075.99-.039.577-.078,1.175-.169,1.757-.041.269-.085.537-.129.806-.038.233-.077.465-.114.7-.073.471-.129.946-.174,1.35-.1.986-.179,1.992-.259,2.965-.086,1.044-.133,2.107-.172,3.023s-.127,1.9-.278,3.108c-.116.929-.248,1.926-.421,2.91a2.135,2.135,0,0,1-.385.989.959.959,0,0,1-.816.333l-.078-.008c-.783-.125-.9-.956-1-1.624l-.022-.15c-.03-.2-.058-.395-.087-.593l-.053-.334-.013-.088h0v0a.693.693,0,0,1-.162.008.607.607,0,0,1-.128-.024.617.617,0,0,1-.4-.769c.017-.056.034-.111.048-.169,0-.009.005-.019.009-.029h0v0l-.048.013" transform="translate(-74.732 -50.354)"/>
        <path id="패스_220" data-name="패스 220" d="M23.967,430.216c-1.537-.189-2.943-.387-4.3-.607l-.9-.144c-1.058-.166-2.152-.338-3.215-.571l-.052-.014c-.308-.078-.626-.161-.935-.262-.378-.123-.752-.258-1.1-.387-.829-.331-1.455-.61-2.028-.905-.169-.095-.32-.19-.465-.289L10.932,427l-.043-.037c-.073-.077-.144-.155-.215-.235-.107-.12-.214-.24-.332-.35-.043-.114-.08-.227-.115-.343a7.973,7.973,0,0,1-.181-.783,30.8,30.8,0,0,1-.3-3.53c-.015-.635-.026-1.269-.037-1.9-.01-.583-.02-1.166-.035-1.748-.013-.608-.02-1.216-.027-1.824-.008-.719-.017-1.436-.037-2.154-.033-1.164-.081-2.349-.129-3.493l-.052-1.257c-.043-1.1-.118-2.217-.191-3.3q-.04-.606-.079-1.212c-.068-1.1-.124-2.208-.182-3.311l-.066-1.28-.034-.663c-.069-1.271-.139-2.585-.181-3.878-.026-1.258-.057-2.61-.1-3.963-.018-.571-.042-1.141-.066-1.713L8.5,389.5c.013.031.027.062.041.093a1.144,1.144,0,0,1-.06-.839,1.308,1.308,0,0,1,.065-.166v.006a2.367,2.367,0,0,1,.844-.883,6.414,6.414,0,0,1,.711-.421A22.6,22.6,0,0,1,13.076,386c1-.338,2.025-.628,3.019-.908l.182-.053c.53-.151,1.052-.291,1.552-.414.449-.109.917-.182,1.368-.253l.218-.034.324-.048.3-.046.817-.138c.712-.121,1.447-.246,2.173-.35.85-.123,1.716-.224,2.553-.322l.572-.067c.306-.037.61-.076.914-.114.725-.093,1.475-.189,2.218-.241q.292-.021.583-.038c.312-.019.625-.038.935-.064.481-.043.966-.1,1.438-.162l.16-.019,1.053-.132c.679-.086,1.359-.172,2.038-.253.186-.022.372-.05.559-.076.279-.04.559-.079.839-.1.118-.011.236-.019.353-.027.247-.016.5-.032.754-.071l.042-.007.043-.007c.09-.015.181-.028.272-.042l.161-.024a1.015,1.015,0,0,1,.45-.1,1.027,1.027,0,0,1,.6,1.849,1.238,1.238,0,0,0,.3-.133c.018.244.036.485.06.728.092.925.232,1.84.393,2.852.151.949.343,1.936.57,2.931.207.9.427,1.827.672,2.822.183.742.414,1.482.638,2.2l.16.516c.086.3.17.6.246.9l.039.159c.051.213.1.433.173.647a1.394,1.394,0,0,0,1.2,1.016l.051,0a1.357,1.357,0,0,0,.962-.366c.143-.135.279-.283.393-.411.9-1.018,1.726-1.91,2.511-2.726l.034-.035.024-.025c.426-.436.812-.826,1.228-1.192s.893-.764,1.481-1.247c.469-.383.932-.775,1.395-1.165s.949-.8,1.43-1.194c.66-.526,1.328-1.025,1.986-1.485l.292-.2c.6-.417,1.222-.848,1.816-1.3.407-.307.808-.624,1.211-.939.764-.6,1.555-1.224,2.374-1.775-.032.639-.058,1.275-.084,1.911-.023.552-.045,1.1-.074,1.655-.065,1.163-.159,2.7-.314,4.264-.055.482-.116.964-.179,1.447-.129,1.016-.264,2.068-.325,3.109-.033.566-.051,1.132-.071,1.7-.029.893-.059,1.817-.146,2.722l-.032.269c-.02.156-.038.313-.053.469a.942.942,0,0,0,.232.706,1.133,1.133,0,0,0,.764.4h.037a1.082,1.082,0,0,0,.764-.281,1.1,1.1,0,0,0,.346-.754c.06-.72.073-1.455.086-2.167l.007-.417.007-.3c.016-.788.033-1.6.082-2.4.054-.852.141-1.715.227-2.55.105-1.038.214-2.11.257-3.17.042-1.028.06-1.967.053-2.869-.005-.713-.031-1.437-.056-2.139l-.023-.649.008.042c-.013-.239-.02-.478-.026-.717.329.312.639.632.947.954l.474.5c.538.568,1.094,1.155,1.685,1.685.237.214.494.416.742.61.143.112.286.225.427.341.366.3.74.63,1.148,1.011.316.3.692.645,1.082.98l.211.182c.253.217.507.435.752.662.145.146.286.3.426.446.165.174.329.349.5.517.216.214.441.423.665.629l.275.255c.182.183.356.374.53.567.113.124.225.25.341.372.237.253.5.493.745.724l.2.185c.4.4.773.812,1.122,1.2a14.8,14.8,0,0,0,1.1,1.075l.309.282c.056.056.108.115.161.175s.074.1.109.157l.06.111a1.379,1.379,0,0,0,1.109.717l.041,0a1.23,1.23,0,0,0,1.1,1.021.973.973,0,0,0,.217-.007,1.3,1.3,0,0,0,.717-.319,1.388,1.388,0,0,0,.373-.6l.017-.052.087-.259c.062-.193.11-.391.161-.59.03-.119.058-.237.091-.355l.065-.229c.1-.349.195-.7.28-1.049.059-.24.114-.48.167-.721l.1-.459c.092-.361.194-.719.3-1.076s.21-.74.3-1.111c.176-.693.378-1.515.547-2.369.306-1.539.548-3.146.718-4.776l-.005.119c.065-.683.112-1.368.157-2.068a.783.783,0,0,0,.065.089.6.6,0,0,1-.13-.286.636.636,0,0,1-.209-.413.662.662,0,0,1,.345-.641.67.67,0,0,1,.208-.07v0a1.154,1.154,0,0,1,.288-.008c.079.006.157.016.235.027l.146.019.841.089.184.021h0l.081.009h.01c.35.036.7.069,1.053.1.538.041,1.021.063,1.479.068.68.006,1.359,0,2.039-.01l.647-.007.949-.011c.57-.006,1.141-.013,1.71-.014.837,0,1.706.026,2.583.086l.189.013c.806.062,1.619.169,2.409.273l.913.117c.456.057.911.114,1.365.177.719.1,1.44.271,2.136.436l.25.06.146.034c.378.089.769.182,1.142.308.416.139.842.3,1.269.482l.35.151c.342.147.685.294,1.031.431l.236.093c.426.169.868.343,1.285.547a9.562,9.562,0,0,1,1.746,1.207c.212.171.424.34.655.516l.036.026.165.119a9.809,9.809,0,0,1,.8.618,8.271,8.271,0,0,1,.9.947,15.039,15.039,0,0,1,1.623,2.22,7.063,7.063,0,0,1,.51,1.264c.065.2.13.405.194.609s.12.384.184.576c.172.525.378,1.048.575,1.554.116.292.23.586.34.88.272.728.473,1.494.667,2.233.111.422.222.843.346,1.259.24.774.492,1.6.681,2.432l.126.548c.147.641.3,1.282.429,1.925.218,1.044.354,1.853.44,2.623.043.371.076.745.11,1.118s.068.767.111,1.152c.006.043.013.087.018.131l.011.066c.077.422.176.848.271,1.263.049.212.1.425.145.638,0,0,0,0,0,0h0l.006.028c.058.266.117.532.171.8.049.247.079.5.116.749a1.006,1.006,0,0,1-.9,1.093l-.023,0c-.011.093-.024.183-.036.272-.068.482-.122.967-.175,1.451-.045.4-.088.792-.139,1.188-.127.983-.266,1.857-.427,2.67-.049.244-.1.491-.142.736-.107.563-.217,1.145-.349,1.711-.137.531-.294,1.064-.433,1.516-.038.126-.075.254-.112.383-.075.257-.151.515-.238.77-.141.083-.268.149-.4.209s-.275.109-.416.154a7.727,7.727,0,0,1-.806.182c-.519.083-1.2.185-1.9.255-.472.043-.968.1-1.515.186a1.247,1.247,0,0,0-.338-.209,2.344,2.344,0,0,0-.708-.168,2.1,2.1,0,0,0-.521.049l-.269.051c-.112.023-.224.044-.336.063l-.057.01-.054.008q-2.132.327-4.266.635c-.3.043-.6.08-.905.118-.385.047-.768.095-1.15.156-.586.095-1.17.194-1.752.294l-.231.041c-1.95.312-3.945.52-5.874.722l-.641.067c-1,.106-2.18.237-3.339.4l-.276.037c-1,.14-2.043.284-3.071.377-1.117.1-2.258.168-3.36.232q-.647.037-1.291.077c-1.617.1-3.2.2-4.752.316-1.359.1-2.94.212-4.507.277l-1.224.051c-1.165.049-2.329.1-3.494.137l.156-.012c-.267.015-.533.023-.8.032-.974.03-1.964.072-2.955.114q-1.178.051-2.356.095l-.5.014c-.507.016-1.016.03-1.523.048a.1.1,0,0,1-.022,0,.061.061,0,0,0-.015,0c-.9.033-1.86.055-2.829.044-.915-.01-1.843-.046-2.742-.079l-.781-.03c-1.292-.05-2.583-.1-3.875-.134-.908-.026-1.818-.038-2.726-.05-.584-.008-1.166-.016-1.749-.027l-1.215-.029c-1.132-.028-2.3-.057-3.453-.034-.969.018-1.954.071-2.907.122-.56.03-1.119.06-1.68.084-1.034.021-2.122.011-3.421-.029l-.318-.01c-1-.032-2.035-.064-3.051-.054-.644.007-1.29.024-1.935.041-.555.016-1.109.031-1.664.04-.7.01-1.456-.016-2.3-.08-.278-.021-.557-.046-.835-.073m41.188-32.6a1.129,1.129,0,0,0-.6.664,1.87,1.87,0,0,0-.157,1.581.873.873,0,0,0,.7.451.842.842,0,0,0,.456-.093,1.55,1.55,0,0,0,.714-.983.886.886,0,0,0-.118-.762.9.9,0,0,0-.089-.108,1.136,1.136,0,0,0-.048-.333.667.667,0,0,0-.591-.453.64.64,0,0,0-.271.037" transform="translate(-6.143 -278.371)"/>
        <path id="패스_221" data-name="패스 221" d="M133.327,396.317c-.061-.208-.125-.414-.191-.621-.077-.232-.157-.465-.238-.7-.123-.356-.246-.713-.358-1.074-.1-.338-.193-.676-.288-1.013s-.191-.677-.287-1.013c-.131-.451-.269-.9-.406-1.347-.076-.246-.152-.493-.226-.739-.223-.773-.431-1.561-.633-2.323l-.141-.535-.14-.517q-.128-.478-.259-.955l-.043-.153c-.047-.171-.095-.343-.139-.514a.642.642,0,0,0,.167-.215.564.564,0,0,0,.049-.163c.26-.027.517-.041.773-.056l.159-.01.4-.024c.379-.023.759-.046,1.14-.059l.052,0c.377-.008.752-.008,1.13-.007.311,0,.622,0,.933,0,.464-.008.928-.027,1.393-.045l.687-.027c.383-.01.766-.02,1.149-.026,1.311-.021,2.645-.077,3.934-.131.768-.033,1.537-.065,2.306-.091,1.042-.034,2.1-.114,3.12-.193l.085-.007,1.033.047-.53.448c-.418.326-.829.676-1.226,1.014-.275.234-.549.468-.829.7l-.01.008-.117.094.025-.027-.061.054-.141.114.041-.04c-.65.527-1.342,1.02-2.01,1.5-.553.395-1.125.8-1.672,1.225-.68.523-1.343,1.063-1.968,1.6l-.274.237c-.474.411-.964.836-1.461,1.236l.037-.036-.26.216-.479.381c-.382.3-.776.612-1.146.939-.519.455-1.022.93-1.452,1.341-.363.347-.734.688-1.1,1.029l-.327.3-.1.089-.1.09h0s0,0,0,0" transform="translate(-94.745 -279.737)" fill="#fff"/>
        <path id="패스_222" data-name="패스 222" d="M226.017,398.282c-.061-.072-.123-.143-.191-.21-.154-.151-.313-.3-.472-.44l-.23-.21a15.95,15.95,0,0,1-1.092-1.217,17.292,17.292,0,0,0-1.185-1.267c-.223-.221-.426-.463-.625-.7-.178-.211-.361-.43-.558-.632-.287-.3-.593-.582-.888-.86l-.262-.246-.294-.294c-.262-.265-.533-.537-.822-.78-.367-.307-.761-.6-1.142-.875l-.062-.045c-.3-.222-.591-.448-.885-.676-.359-.278-.719-.557-1.086-.825-.321-.235-.659-.459-.985-.673-.295-.2-.588-.39-.874-.595-.435-.326-.859-.674-1.269-1.012-.279-.228-.558-.458-.842-.682-.352-.278-.715-.538-1.085-.8l-.293-.2-.2-.139c.013-.036.026-.067.039-.1l.593.071c.536.066,1.073.133,1.613.185.656.065,1.311.121,1.969.171l.657.047c2.006.144,4.01.185,5.878.206.893.011,1.79.071,2.626.135l.22.017c.391.03.784.052,1.177.074.364.021.728.041,1.091.069.167.013.332.028.5.043l.385.045.8.092.049.006.048,0a1.465,1.465,0,0,0,.736.288l-.062.382q-.064.376-.126.751c-.169,1.018-.35,1.941-.551,2.822-.23.916-.506,1.84-.749,2.656q-.176.6-.348,1.191c-.159.545-.317,1.088-.482,1.631l-.071.234c-.112.363-.228.74-.325,1.113-.044.165-.085.328-.126.493-.062.252-.126.5-.2.755,0,0,0,0,0,0h0" transform="translate(-153.571 -280.495)" fill="#fff"/>
        <path id="패스_223" data-name="패스 223" d="M168.589,92.853a.9.9,0,0,1,.2-.778,2.362,2.362,0,0,1,.616-.463c.287-.164.579-.316.877-.463.627-.308,1.272-.581,1.917-.848a.8.8,0,0,1,.649,1.449c-.807.372-1.6.767-2.373,1.212-.109.071-.217.143-.323.22l-.031.041a.9.9,0,0,1-.605.313.711.711,0,0,1-.15,0,.888.888,0,0,1-.779-.688" transform="translate(-122.878 -65.787)" fill="#fff"/>
        <path id="패스_224" data-name="패스 224" d="M175.292,100.051a.729.729,0,0,1,.478-.735c.144-.078.281-.174.42-.254.173-.1.353-.19.532-.282q.595-.308,1.2-.6a.722.722,0,0,1,.677,1.275,20.589,20.589,0,0,0-2.064,1.048,1.061,1.061,0,0,1-.474.2.669.669,0,0,1-.112,0,.718.718,0,0,1-.653-.649" transform="translate(-127.775 -71.505)" fill="#fff"/>
        <path id="패스_225" data-name="패스 225" d="M183.99,107.9a.761.761,0,0,1,.087-.831.713.713,0,0,1,.229-.187.748.748,0,0,1,.366-.084l.048,0c.146-.025.288-.056.431-.091.205-.064.405-.136.605-.217a.74.74,0,0,1,.946.434.749.749,0,0,1-.435.948,6.417,6.417,0,0,1-.843.295,3.367,3.367,0,0,1-.808.137h-.049a.758.758,0,0,1-.576-.4" transform="translate(-134.055 -77.587)" fill="#fff"/>
        <path id="패스_226" data-name="패스 226" d="M284.485,100.371c-.3-.31-.586-.623-.857-.955-.139-.171-.276-.341-.4-.522a1.914,1.914,0,0,1-.35-.722.789.789,0,0,1,.1-.571.755.755,0,0,1,1.381.273c.03.059.062.117.095.175.11.163.229.317.351.471.247.291.506.567.771.841a.749.749,0,0,1-.04,1.052.732.732,0,0,1-.558.193.76.76,0,0,1-.493-.233" transform="translate(-206.189 -70.889)" fill="#fff"/>
        <path id="패스_227" data-name="패스 227" d="M294.495,96.4c-.1-.12-.2-.241-.3-.362l.043.051a10.412,10.412,0,0,1-.753-1.011c-.218-.343-.422-.7-.619-1.053a.687.687,0,0,1-.1-.4h0a.719.719,0,0,1,1.378-.248l-.02-.045c.131.284.294.557.45.826a13.025,13.025,0,0,0,.874,1.187l-.057-.071.136.164a.717.717,0,0,1-.038,1,.733.733,0,0,1-.549.184.639.639,0,0,1-.448-.221" transform="translate(-213.41 -67.752)" fill="#fff"/>
        <path id="패스_228" data-name="패스 228" d="M660.669,178.8c-.7,0-1.4-.027-2.106-.041-1.443-.03-2.886-.056-4.329-.088-1.476-.033-2.954-.052-4.43-.124-.771-.037-1.54-.082-2.311-.12-.674-.034-1.349-.047-2.024-.06-1.482-.014-2.961-.012-4.444.047-1.527.06-3.05.174-4.574.291-1.485.115-2.972.215-4.459.32-1.5.108-3.005.229-4.512.3-1.49.068-2.983.088-4.474.135q-2.18.07-4.36.165-2.32.1-4.632.266c-1.452.105-2.905.214-4.361.305-3.037.193-6.079.345-9.123.391-1.433.022-2.866.007-4.3.009-1.512,0-3.023.021-4.534.076-3,.106-6,.115-9,.157-1.481.021-2.962.068-4.442.122-1.451.052-2.9.112-4.355.114-1.568,0-3.137-.009-4.705-.012-1.475,0-2.945.039-4.418.1-.793.034-1.582.05-2.375.037-.692-.011-1.387-.05-2.075-.109q-2.224-.189-4.436-.5a9.821,9.821,0,0,1-1.816-.391,4.966,4.966,0,0,1-1.587-.852,7.94,7.94,0,0,1-.624-.577,1.686,1.686,0,0,1-.367-.549,1.158,1.158,0,0,1-.323-.5,3.848,3.848,0,0,1-.129-.832c-.022-.227-.039-.457-.055-.684-.028-.434-.05-.87-.06-1.3-.02-.919-.022-1.838-.038-2.757-.015-.892-.062-1.786-.118-2.677-.057-.922-.121-1.842-.207-2.762q-.036-.393-.079-.784-.057-.357-.121-.713c-.162-.918-.327-1.836-.46-2.76-.276-1.9-.406-3.814-.53-5.727q-.112-1.717-.194-3.435c-.05-1.063-.087-2.124-.2-3.181-.063-.429-.135-.855-.226-1.278-.095-.447-.194-.894-.263-1.347a19.159,19.159,0,0,1-.17-2.749c-.005-.867,0-1.731-.067-2.6s-.066-1.75-.079-2.624c0-.021,0-.043,0-.064l-.485-.141c-.573-.169-1.138-.355-1.692-.577-.6-.241-1.2-.49-1.807-.735-.556-.225-1.124-.409-1.7-.585-.887-.246-1.778-.479-2.661-.742-.847-.252-1.682-.545-2.5-.872a19.6,19.6,0,0,1-2.361-1.2c-.4-.228-.806-.454-1.208-.682a3.348,3.348,0,0,1-1.459-1.293,1.237,1.237,0,0,1,.871-1.782,3.713,3.713,0,0,1,.979-.022,17.225,17.225,0,0,0,1.733-.1c.881-.114,1.755-.26,2.633-.394.911-.138,1.816-.311,2.718-.5.874-.181,1.745-.366,2.616-.559a25.7,25.7,0,0,1,2.721-.569,7.681,7.681,0,0,1,.816-.064h.075c0-.1.005-.195.008-.291,0-.118.007-.237.01-.356a.911.911,0,0,1-.178-.6c.017-.269.068-.538.1-.805.042-.324.081-.646.118-.971q.012-.617.026-1.234.065-2.827.191-5.652c.079-1.791.2-3.581.3-5.371.108-1.875.2-3.75.281-5.627s.189-3.78.3-5.669c.026-1.3.062-2.607.121-3.91.066-1.479.148-2.956.215-4.434.065-1.42.136-2.84.229-4.259.16-2.472.323-4.947.374-7.424.012-1.492.007-2.984.017-4.476.009-1.415.008-2.833.048-4.247.08-2.911.567-5.787.823-8.682.126-1.426.165-2.855.24-4.283.037-.691.085-1.382.157-2.071.075-.729.166-1.457.229-2.186.032-.366.061-.733.093-1.1a1.5,1.5,0,0,1-.138-.285,2.2,2.2,0,0,1-.072-.7c0-.225.009-.449.021-.672.025-.452.062-.9.108-1.351.084-.813.227-1.62.378-2.421.3-1.581.668-3.145.913-4.737.026-.181.05-.364.074-.546a2.875,2.875,0,0,1,.106-.567.866.866,0,0,1,.377-.456,1.747,1.747,0,0,1,.272-.372,2.31,2.31,0,0,1,1.029-.613c.283-.079.57-.13.854-.2.595-.169,1.172-.4,1.757-.6a17.465,17.465,0,0,1,2.136-.574,31.291,31.291,0,0,1,4.336-.465c1.506-.1,3.008-.254,4.512-.4,1.471-.145,2.95-.216,4.426-.3,1.439-.086,2.875-.227,4.315-.315q2.247-.14,4.5-.22c1.515-.058,3.03-.152,4.544-.23,1.472-.076,2.944-.087,4.418-.054,1.532.035,3.063.079,4.594.147s3.066.151,4.6.214c2.976.123,5.954.18,8.932.218l-.164,0c4.307.045,8.612.162,12.918.222,2.97.03,5.938,0,8.9-.13,3.051-.14,6.1-.318,9.153-.468,1.475-.072,2.95-.116,4.425-.145,1.459-.028,2.92-.017,4.381-.015,1.591,0,3.18.011,4.77.063a34.855,34.855,0,0,1,4.452.476c.466.076.932.152,1.4.224.305.044.61.09.915.141a3.28,3.28,0,0,1,.925.279,1.649,1.649,0,0,1,.677.616,3.052,3.052,0,0,1,.27.613,7.543,7.543,0,0,1,.273,1.8c.048.712.058,1.425.083,2.138.049,1.45.135,2.9.2,4.349.064,1.467.118,2.934.178,4.4.123,3,.269,6,.373,9,.054,1.584.092,3.168.1,4.754.005,1.438-.044,2.876-.06,4.313-.014,1.248-.037,2.5-.052,3.744v0c0,.043,0,.088,0,.132,0-.017,0-.032,0-.048,0,.061,0,.121,0,.181,0-.011,0-.021,0-.031-.033,3.077.01,6.149.07,9.225.027,1.442.043,2.884.069,4.325.028,1.524.092,3.044.162,4.566.066,1.433.149,2.865.21,4.3.067,1.582.119,3.164.186,4.745.126,2.976.289,5.951.422,8.927.135,3.019.154,6.044.2,9.066.022,1.5.043,3.006.077,4.509s.088,2.975.133,4.463c.09,2.992.107,5.983.208,8.976.1,3.032.259,6.062.435,9.09.085,1.441.185,2.883.238,4.326q.084,2.282.14,4.563c.036,1.48.065,2.959.053,4.439q-.019,2.341-.05,4.685c-.014,1.06-.033,2.122-.046,3.183v0s0,.011,0,.015c0,.125,0,.25,0,.376h0a.313.313,0,0,1,0,.036c0,.033,0,.064,0,.1V170q-.011.975-.024,1.947c-.009,1.36,0,2.721-.013,4.081,0,.3-.009.609-.029.912a1.636,1.636,0,0,1-1.616,1.776l-.318.015c-.093,0-.186.007-.278.013l-.378.02c-.479.022-.957.036-1.438.033m-2.844-2.583-.031,0,.8.008.768.008-.012,0h.118c.584.007,1.187.014,1.778-.009l.115-.005c.253-.012.505-.033.76-.06.021-.321.036-.641.05-.96l.008-.195c.03-.643.051-1.287.072-1.931.042-1.336.084-2.672.118-4.009l.049-1.773c.06-2.175.123-4.425.155-6.638,0-2.675-.063-5.556-.208-9.066-.037-.863-.085-1.727-.134-2.589-.034-.613-.069-1.225-.1-1.839l-.041-.824c-.061-1.234-.122-2.467-.175-3.7-.135-3.1-.193-6.23-.231-8.878-.029-1.92-.1-3.871-.168-5.76-.039-1.1-.08-2.2-.112-3.3l-.071-2.376q-.1-3.326-.187-6.652c-.067-2.535-.176-5.112-.283-7.6l-.067-1.579q-.03-.676-.061-1.353c-.044-.952-.09-1.935-.118-2.9-.03-1.051-.055-2.1-.079-3.15l-.036-1.571q-.032-1.254-.065-2.506c-.057-2.127-.116-4.327-.138-6.492q-.018-1.549-.043-3.1c-.03-2-.06-4.046-.061-6.085,0-.595,0-1.189.012-1.783v0a.047.047,0,0,1,0-.013h0a.1.1,0,0,0,0-.021c0-.271.005-.541.008-.808a.322.322,0,0,0,0-.036c0-.024,0-.047,0-.07v0c0-.152,0-.3.005-.436.013-1.256.034-2.513.055-3.77.012-.771.025-1.541.034-2.311q0-.353.009-.706v.006s0-.008,0-.012a.1.1,0,0,0,0-.019q0-.327.007-.65l0-.055c0-.029,0-.059,0-.088.024-2.839-.109-5.725-.239-8.516l-.02-.458q-.165-3.526-.349-7.05l-.095-1.881c-.064-1.247-.161-2.5-.247-3.611-.049-.616-.1-1.231-.139-1.847l-.024-.376c-.029-.449-.059-.914-.1-1.37-.049-.357-.1-.63-.158-.883-.017-.058-.035-.114-.056-.172a.771.771,0,0,0-.084-.015q-.279-.038-.558-.07c-.254-.031-.508-.062-.762-.1-.49-.069-.979-.144-1.468-.217-.947-.134-1.844-.233-2.741-.3-.749-.056-1.516-.079-2.255-.1l-.483-.015c-2.211-.069-4.049-.115-5.783-.145-1.486-.009-2.99,0-4.471.043-.614.017-1.283.042-2.109.081-.443.021-.885.043-1.328.065l-1.173.057-1.282.062-1.537.073c-1.9.089-3.95.175-6.009.207-2.353.037-4.752.041-7.148.011q-1.825-.02-3.65-.044-2.144-.023-4.29-.054l-2.569-.036h-.086v0l-.045,0c-3.7-.031-6.522-.085-9.155-.173-1.575-.053-3.158-.124-4.634-.195-1.588-.073-3.188-.116-4.545-.147-.548-.012-1.1-.02-1.658-.025l-.289,0,.039,0-.117,0h-.046c-.785.012-1.614.038-2.525.081-.615.029-1.231.063-1.847.1-1.538.094-3.105.172-4.452.236-1.386.068-2.872.148-4.353.264l-.215.017c-1.425.113-2.9.23-4.348.321-1.469.094-2.956.255-4.394.411l-.667.071c-.752.081-1.518.143-2.26.2-.867.071-1.765.144-2.645.246a20.212,20.212,0,0,0-2.015.391c-.671.191-1.338.424-1.983.651l-.384.135c-.42.147-.744.252-1.05.34l-.039.011-.165.05c-.025.077-.05.156-.075.234a29.733,29.733,0,0,0-.668,3.263c-.06.426-.115.854-.169,1.281-.086.675-.175,1.372-.281,2.054-.1.658-.2,1.167-.3,1.645-.036.159-.072.317-.108.474l-.047.2-.032.141a3.613,3.613,0,0,1-.1.4l-.021.058-.015.669c-.011.45-.02.9-.036,1.347-.013.49-.043.989-.072,1.471-.015.252-.029.5-.043.758-.026.522-.043,1.045-.059,1.568l-.018.525c-.008.242-.015.483-.021.725-.012.465-.024.93-.051,1.4-.04.745-.095,1.489-.162,2.212-.079.862-.2,1.735-.313,2.578-.078.568-.155,1.135-.223,1.7-.167,1.432-.289,2.9-.365,4.368q-.1,2.085-.2,4.169-.037.893-.066,1.789c-.031.9-.065,1.837-.115,2.756q-.024.431-.055.86v.03c0,.134-.009.268-.015.4-.078,2-.193,3.979-.285,5.481s-.135,3.044-.175,4.53l-.031,1.052c-.04,1.419-.128,2.861-.213,4.254q-.04.653-.078,1.307-.157,2.762-.293,5.526c-.1,1.892-.195,3.85-.308,5.774-.05.867-.107,1.733-.163,2.6-.062.933-.122,1.867-.176,2.8-.121,2.155-.2,3.92-.241,5.556-.036,1.432-.059,2.866-.076,4.242,0,.279-.007.558-.01.837l0-.038c0,.346-.005.691,0,1.036,0,.078.005.158.008.237a2.993,2.993,0,0,1-.031.74,1.317,1.317,0,0,1-.554.8,1.484,1.484,0,0,1-.757.221c-.213.01-.431,0-.643-.01-.09,0-.182-.009-.272-.012l-.1,0c-.185.009-.368.023-.552.04-.634.092-1.269.229-1.884.361-.225.048-.449.1-.674.143q-1.311.268-2.624.524c-.873.173-1.769.329-2.662.466-.338.052-.676.108-1.014.163-.564.093-1.145.188-1.719.262l-.018.005-.012,0h0l.088.054.089.054a18.364,18.364,0,0,0,1.727.929,29.243,29.243,0,0,0,2.841.992q.42.115.839.228c.838.226,1.7.458,2.543.735.394.13.786.287,1.165.436q.227.091.454.179c.646.251,1.146.428,1.62.575.347.1.7.181,1.037.258l.128.03h0a1.2,1.2,0,0,1,.877-.418,1.281,1.281,0,0,1,1.355,1.407c0,.027-.006.053-.009.079h0a0,0,0,0,0,0,0,.433.433,0,0,1,.348.707.418.418,0,0,1-.306.163.241.241,0,0,1-.042,0l-.035,0-.038.005v.038l0,.039c.011,1.889.162,3.749.317,5.494.078.866.145,1.732.212,2.6.075.963.151,1.925.239,2.894.163,1.793.334,3.646.473,5.472.15,1.953.285,3.713.442,5.48q.069.775.143,1.547c.127,1.354.258,2.753.342,4.134.107,1.724.166,3.525.18,5.512.005.561.01,1.124.026,1.685.015.1.029.2.043.3.077.549.137,1.041.185,1.506.024.236.041.473.058.711a2.885,2.885,0,0,1-.069,1.014l.1.065.1.061c.121.072.253.141.4.211s.3.11.45.157c.18.045.359.08.542.116l.045.01c1,.126,2.028.164,3.018.2l.111,0c1.022.038,2.112.078,3.195.1.547,0,1.192,0,1.833-.033l.2-.009c.614-.034,1.227-.079,1.841-.126l.367-.027c.294-.022.587-.039.881-.053l.234-.011.18-.009c.052-.788.166-1.556.289-2.338a22.108,22.108,0,0,1,.612-2.787c.126-.434.25-.835.382-1.229.069-.345.134-.629.2-.893a20.474,20.474,0,0,1,.929-2.721,47.966,47.966,0,0,1,2.454-4.983A26.513,26.513,0,0,1,573.31,161c.417-.592.871-1.172,1.311-1.733l.34-.436a24.3,24.3,0,0,1,4.106-4.1,20.711,20.711,0,0,1,2.333-1.656,24.064,24.064,0,0,1,2.17-1.091l.459-.213c.372-.174.739-.359,1.105-.544.529-.268,1.077-.544,1.632-.782.529-.225,1.064-.43,1.471-.585l.511-.311.51-.31c.434-.263.869-.52,1.305-.777l.633-.375.306-.184a11.055,11.055,0,0,1,1.4-.758l-.079-.609c-.08-.612-.16-1.225-.231-1.838-.1-.875-.171-1.762-.2-2.708l-.012-.325c-.027-.759-.054-1.543-.125-2.314l-.039-.417c-.066-.7-.132-1.431-.178-2.15-.023-.362-.039-.725-.055-1.088s-.033-.726-.055-1.093c0-.078-.01-.157-.019-.238a1.761,1.761,0,0,1-.3.038,1.865,1.865,0,0,1-.781-.133,3.515,3.515,0,0,1-1.3-.973,7.736,7.736,0,0,1-.677-.879c-.02-.031-.04-.061-.06-.093h0l0,0c-.048.058-.1.116-.144.173a5.188,5.188,0,0,1-1.377,1.165,2.905,2.905,0,0,1-1.254.379,2.083,2.083,0,0,1-.269,0,3.421,3.421,0,0,1-1.327-.4,6.859,6.859,0,0,1-1.086-.7c-.25-.2-.567-.451-.878-.743l-.1-.095h0l0,0a4.877,4.877,0,0,1-.538.956,5.818,5.818,0,0,1-.833.9,4.758,4.758,0,0,1-.537.407,3.225,3.225,0,0,1-.765.389,3.35,3.35,0,0,1-.849.17l-.048,0a2.982,2.982,0,0,1-.926-.126,4.852,4.852,0,0,1-2.167-1.314,10.153,10.153,0,0,1-1.668-2.257,11.446,11.446,0,0,1-.911-2.494c-.245-.9-.45-1.82-.619-2.6-.313-1.436-.6-3-.9-4.914-.163-1.04-.28-1.907-.368-2.732-.083-.774-.141-1.564-.2-2.328l-.019-.262-.072-.961c-.039-.532-.079-1.064-.115-1.6-.06-.848-.085-1.707-.1-2.509-.013-.531-.018-1.061-.021-1.591q0-.46-.008-.919-.013-.833-.027-1.665l-.013-.851-.01-.578c-.011-.63-.021-1.281-.017-1.921,0-.893.025-1.809.062-2.724.041-1.063.117-2.142.189-3.185.046-.662.093-1.325.132-1.989.026-.467.048-.936.07-1.4q.025-.559.054-1.119c.027-.5.056-1.006.084-1.508l.059-1.025A25.3,25.3,0,0,1,571.868,86q.129-.55.261-1.1c.078-.328.157-.656.233-.983l.1-.432c.114-.5.23-1,.361-1.505.027-.1.054-.2.082-.3h0s0,0,0,0l-.006.03c.256-.891.515-1.692.792-2.449.269-.736.585-1.588.949-2.4.3-.667.644-1.357,1.09-2.174l.22-.4c.33-.606.672-1.233,1.021-1.812l.042-.07.042-.07.057-.092,0,0c.39-.644.759-1.209,1.13-1.723a11.118,11.118,0,0,1,1.248-1.437l.187-.182.035-.034a18.144,18.144,0,0,1,4.281-2.785c.627-.329,1.457-.755,2.306-1.138.36-.162.748-.316,1.221-.484.395-.14.809-.246,1.208-.349l.078-.02c.423-.108.859-.19,1.282-.269.271-.053.544-.1.814-.161.425-.091.848-.193,1.27-.293.329-.079.656-.157.985-.23a9.547,9.547,0,0,1,1.658-.229c.2-.009.4-.011.591-.006.344.008.689.027,1.033.048.252.014.509.029.765.036.123,0,.247.008.37.011L597.562,63l0,0h.006a.423.423,0,0,1-.134-.537.475.475,0,0,1,.124-.143.247.247,0,0,1,.034-.025.422.422,0,0,1,.219-.073.427.427,0,0,1,.1.008v0l.037.014c.111,0,.223-.006.334-.011.133-.006.265-.015.4-.022s.262-.016.393-.022l.174-.009c.431-.02.877-.042,1.313-.076.4-.033.8-.072,1.2-.112.56-.056,1.14-.114,1.714-.147.313-.018.627-.035.94-.05.641-.03,1.3-.053,1.95-.069l.069,0c.637-.015,1.3-.032,1.944-.062.349-.016.7-.037,1.048-.063s.685-.056,1.029-.084c.655-.055,1.333-.112,2-.15l.337-.018c.9-.042,1.817-.053,2.813-.036a30.645,30.645,0,0,1,5.909.711,21.265,21.265,0,0,1,3.032.868c.784.3,1.56.647,2.311.987l.5.227.957.427c.6.265,1.19.53,1.781.8.914.422,1.811.892,2.668,1.4A26.721,26.721,0,0,1,635,68.205a18.143,18.143,0,0,1,2.276,1.916c.418.431.731.774,1.013,1.11s.537.678.79,1.018l.146.194c.582.777,1.105,1.616,1.611,2.427l.052.083c.362.58.706,1.184,1.037,1.769.146.255.289.511.437.765.5.87,1.029,1.814,1.488,2.821a39.088,39.088,0,0,1,2.016,5.7c.292,1.045.563,2.084.8,3.086.145.605.3,1.207.448,1.809q.14.562.282,1.126a23.735,23.735,0,0,1,.5,2.773c.132,1.054.281,2.012.455,2.926.082.43.173.858.263,1.286.108.511.22,1.04.314,1.562.148.813.263,1.645.374,2.45l.08.578c.072.513.166,1.031.256,1.532.071.389.142.776.2,1.166.123.786.219,1.59.311,2.366l.066.56q.071.546.144,1.09c.13.973.264,1.98.361,2.973.054.55.1,1.1.138,1.652.059.756.119,1.538.206,2.3.051.35.106.7.161,1.048.1.619.2,1.26.271,1.894.069.6.117,1.221.163,1.816.029.372.057.743.091,1.114l.032.336c.032.336.064.671.083,1.008.025.418.03.839.031,1.232v.094a7.946,7.946,0,0,1-.053,1.21,5.528,5.528,0,0,1-.27.98,4.707,4.707,0,0,1-.638,1.209,3.43,3.43,0,0,1-1.579,1.149,1.207,1.207,0,0,1-.381.08,1.487,1.487,0,0,1-.227-.008.867.867,0,0,1-.175.047c-.146.024-.292.044-.438.063-.086.012-.171.02-.255.024a3.22,3.22,0,0,1-.693-.045,3.526,3.526,0,0,1-.837-.265,4.158,4.158,0,0,1-.914-.623l-.15-.123a7.265,7.265,0,0,1-1.006-.972,4.545,4.545,0,0,1-.3-.4c-.014-.02-.026-.04-.039-.06v0l0,0a10.038,10.038,0,0,1-.485,1.7,4.754,4.754,0,0,1-1,1.6,3.069,3.069,0,0,1-1.1.724,2.617,2.617,0,0,1-.7.159l-.069,0a3.463,3.463,0,0,1-.715-.049,5.829,5.829,0,0,1-1.06-.3,3.411,3.411,0,0,1-1.077-.631,4.235,4.235,0,0,1-.928-1.172c-.1-.179-.194-.363-.283-.547l-.043-.092v0s0,0,0,0a6.108,6.108,0,0,1-.624,1.156,3.565,3.565,0,0,1-1.183,1.045c-.1.056-.207.105-.315.152a2.8,2.8,0,0,1-1.32.192,4.819,4.819,0,0,1-1.52-.488c-.065-.03-.129-.061-.192-.093v0a8.635,8.635,0,0,1-.794-.477,4.409,4.409,0,0,1-.936-.849,5.371,5.371,0,0,1-.617-.96,9.034,9.034,0,0,1-.459-1.065c-.118-.32-.229-.665-.349-1.085a14.57,14.57,0,0,1-.391-2.135l-.022-.171-.078-.572c-.078-.573-.156-1.147-.222-1.722-.068-.6-.109-1.211-.149-1.8l-.021-.329c-.057-.86-.149-1.731-.237-2.574-.06-.575-.119-1.151-.169-1.727-.067-.756-.11-1.527-.149-2.271l-.008-.144c-.035-.654-.071-1.331-.092-2-.028-.853-.044-1.705-.061-2.559-.012-.667-.025-1.333-.043-2-.02-.726-.044-1.451-.069-2.177s-.048-1.451-.068-2.177c-.036-1.31-.03-2.624-.017-3.747.01-1.085.022-2.347.016-3.6l0-.668c0-.8-.008-1.625-.006-2.443,0-.134,0-.267,0-.4l0,.037,0-.425v-.224c0-.021,0-.042,0-.063l0,.036c.016-1.6,0-3.161-.025-4.48-.007-.4-.017-.806-.026-1.209q-.013-.537-.022-1.073c-.008-.424-.011-.85-.015-1.276q0-.446-.008-.893c-.017-1.249-.043-2.491-.075-3.689s-.076-2.382-.21-3.561c-.13-.912-.3-1.8-.5-2.624-.081-.281-.162-.526-.247-.752-.047-.111-.1-.222-.153-.331-.04-.067-.082-.132-.126-.2l-.077-.091-.054-.048c-.04-.028-.079-.056-.12-.082-.088-.047-.176-.092-.267-.136-.148-.059-.3-.109-.45-.156-.51-.137-.96-.239-1.377-.313a16.023,16.023,0,0,0-1.824-.092l-.2,0c-.068,0-.136,0-.219,0s-.16,0-.242,0l-.107,0-.486,0c-.358,0-.715-.005-1.072,0-.654,0-1.194.015-1.7.038q-.219.01-.438.024l-.563.037c-.418.029-.834.056-1.252.076q-.193.009-.388.015c-.749.024-1.511.03-2.252.036-.312,0-.625.008-.938.013-.415.007-.832.014-1.248.012-.836,0-1.6-.017-2.348-.051q-.76-.033-1.52-.05-.586.008-1.169.036c-.312.014-.622.033-.934.055-.386.029-.772.055-1.157.073s-.71.025-1.027.023-.63,0-.946-.005q-.662-.006-1.327-.008c-.517,0-1.034.009-1.551.018l-.622.009c-.746.011-1.5-.015-2.237-.041-.38-.013-.758-.025-1.138-.035-.226,0-.452.007-.677.016l-.04,0c-.167.008-.337.027-.5.048l-.064.007c-.332.05-.662.111-.992.172-.311.057-.622.113-.935.16-.211.033-.424.061-.637.089a13.508,13.508,0,0,0-1.334.219c-.236.069-.471.149-.7.237-.291.125-.58.258-.869.392l-.2.095-.075.034c-.288.133-.584.271-.867.426-.225.138-.452.292-.714.484-.43.327-.815.648-1.177.98a9.381,9.381,0,0,0-.678.751c-.121.168-.237.337-.35.514l-.043.073a5.791,5.791,0,0,0-.275.518l-.1.219s-.012.025-.016.036l.016-.036q-.081.188-.147.381c-.1.381-.192.792-.289,1.287-.007.041-.016.082-.024.122h0a0,0,0,0,0,0,0,.227.227,0,0,1,.139.379.214.214,0,0,1-.147.074.189.189,0,0,1-.037,0l-.043,0c-.044.233-.086.465-.128.7l-.059.33c-.059.32-.119.639-.178.957-.1.514-.2,1.04-.283,1.566-.022.13-.044.258-.065.388l0-.018c0-.008,0-.018,0-.027,0,.008,0,.018,0,.026V81.94a20.755,20.755,0,0,0-.21,2.169c-.014.381-.019.763-.025,1.144-.005.342-.01.684-.023,1.026-.013.42-.03.839-.046,1.259-.039,1.041-.079,2.118-.1,3.2,0,.036,0,.071,0,.116,0,.122,0,.244,0,.362l-.005.56v.031a.54.54,0,0,0,0,.063V91.9h0l0,.035v.036a.418.418,0,0,1,0,.042l0,.123c0,.033,0,.064,0,.1l0-.019v.043l0,.042v.061l-.012.764c0,.268-.01.536-.011.8,0,.037,0,.075,0,.112l0-.078-.008,1.144c0,.571-.008,1.143-.014,1.7,0,.115,0,.23,0,.355v.057l0,.114v.127l0,.292c-.008.7-.016,1.431,0,2.145.018.745.071,1.5.121,2.226l.037.547c.04.593.075,1.187.11,1.78.067,1.154.135,2.347.248,3.518.1,1,.213,2.172.35,3.327.062.517.115,1.034.168,1.551.051.5.1.992.159,1.48a15.3,15.3,0,0,0,.277,1.519l.039.168c.115.483.229.966.351,1.449.12.446.244.841.378,1.207.134.312.292.617.446.912l.073.14.165.322c.148.291.3.582.452.87.141.24.28.455.426.657.281.358.588.739.923,1.1a11.282,11.282,0,0,0,.872.782c.237.181.461.339.683.484a17.143,17.143,0,0,0,1.76.933l.038.016.026.009.007,0-.013,0a18.362,18.362,0,0,0,2.038.729,11.588,11.588,0,0,0,1.274.3l.074.008.152.02a1.282,1.282,0,0,1,1.058.738,2.646,2.646,0,0,1,.166.806l.009.1.02.184c.017.157.034.314.048.471.057.65.078,1.313.1,1.953.007.222.014.443.022.664.035.922.122,1.864.2,2.7s.111,1.684.144,2.5l.007.175c.032.757.091,1.527.179,2.291.108.836.171,1.541.2,2.218.014.318.02.636.027.955.01.416.019.848.041,1.272,0,.085.009.17.014.256l.005.04c.019.156.038.313.06.47,0,.019.005.038.007.058l-.006-.021.043.339.039.314c.078.624.155,1.247.224,1.873.032.282.058.565.081.85l.005.063a2.381,2.381,0,0,1-.065,1.052,1.414,1.414,0,0,1-.152.784,1.393,1.393,0,0,1-.814.7c-.1.025-.188.056-.28.089-.158.07-.318.15-.5.253-.143.083-.284.166-.426.252-.24.143-.48.287-.725.423-.159.087-.317.173-.477.258-.183.1-.365.2-.547.3q-.422.243-.841.49c-.341.2-.681.4-1.024.6-.368.208-.739.408-1.11.609-.266.145-.531.288-.794.434-.433.25-.82.489-1.182.732-.25.165-.494.339-.739.513-.162.115-.323.229-.485.342-.363.25-.732.488-1.1.728-.434.281-.883.571-1.312.876-.509.387-1.016.8-1.541,1.269q-.521.458-1.025.937l-.195.189.031-.03-.053.051,0,0-.049.047-.034.033-.035.033c-.505.507-.886.9-1.233,1.275-.268.289-.527.584-.788.878-.141.159-.281.317-.423.475-.359.4-.736.8-1.1,1.183-.484.51-.986,1.038-1.452,1.583-.212.273-.421.555-.642.864-.2.283-.386.586-.565.879l-.037.061c-.57.962-1.066,1.867-1.514,2.766-.31.755-.583,1.518-.814,2.267-.162.589-.292,1.2-.417,1.783-.094.443-.192.9-.3,1.348-.083.327-.172.652-.262.976a19.556,19.556,0,0,0-.5,2.112c-.03.23-.056.461-.074.694l0,.031h0v0h.7q.982,0,1.962,0,1.336.007,2.672.005c.95,0,1.9-.019,2.848-.035q.768-.013,1.534-.024c2.226-.029,4.489.024,6.679.073,1.176.027,2.353.054,3.528.07l1.663,0c.789,0,1.578,0,2.367.006,1.118.006,2.236.023,3.355.04l.77.012c1.775.014,3.127,0,4.386-.039q1.139-.039,2.278-.091,1.021-.048,2.039-.11c1.628-.1,3.28-.232,4.879-.357,1.344-.1,2.734-.214,4.1-.306,1.225-.084,2.505-.156,3.912-.222,1.916-.089,3.813-.153,5.251-.2l.621-.02c.793-.024,1.587-.048,2.381-.085q.734-.034,1.469-.086,1.095-.081,2.19-.17c.73-.057,1.46-.116,2.19-.169,1.1-.08,2.2-.174,3.295-.266l1.319-.11c1.282-.107,2.638-.192,4.146-.262l.365-.016c1.259-.055,2.614-.063,4.391-.028.808.015,1.629.048,2.423.08.712.029,1.423.058,2.136.076,1.124.027,2.319.05,3.761.069,0,0,0,0,0,0h0l1.148.015-.006,0,1.346.015h.235M647.9,112.143c-.028-.256-.057-.511-.087-.767l-.011-.072c.034.277.067.556.1.839" transform="translate(-387.917 -28.343)"/>
        <path id="패스_229" data-name="패스 229" d="M921.25,409.833h0a0,0,0,0,0,0,0,1.129,1.129,0,0,1-.445-.41,2.717,2.717,0,0,1-.294-1.156l-.019-.18c-.11-.834-.27-1.723-.487-2.717-.211-.964-.442-1.995-.695-3.009a26.8,26.8,0,0,0-.911-2.774c-.468-1.085-1-2.171-1.635-3.319-.4-.672-.805-1.3-1.249-1.92q-.1-.135-.195-.269l.019.022.025.034-.024-.033.027.031-.443-.593c-.445-.6-.9-1.21-1.381-1.8-.382-.476-.778-.942-1.2-1.387-.185-.184-.37-.368-.558-.549h0c-.386-.374-.8-.759-1.252-1.179l-.512-.469c-.443-.408-.885-.815-1.336-1.215-.359-.317-.734-.627-1.1-.926-.27-.224-.539-.446-.805-.675l-.595-.51c-.438-.379-.877-.756-1.322-1.125-.271-.211-.546-.416-.821-.621-.52-.385-1.057-.785-1.549-1.219-.312-.274-.62-.565-.917-.848-.4-.378-.812-.77-1.241-1.127-.171-.128-.346-.248-.523-.368s-.337-.23-.5-.352c-.067-.048-.134-.1-.2-.143-.1-.07-.207-.14-.3-.219a1.671,1.671,0,0,1-1.066-1.226,4.345,4.345,0,0,1-.066-.639l-.009-.168c-.017-.265-.033-.532-.049-.8-.031-.5-.076-1.006-.124-1.52l-.023-.245c-.088-.964-.179-1.96-.185-2.944a58.18,58.18,0,0,1,.183-6.211h0c.008-.078.016-.154.024-.231.1-.9.185-1.79.275-2.685.044-.42.079-.844.15-1.26.033-.2.071-.388.117-.581a1.24,1.24,0,0,1,.225-.523.417.417,0,0,1,.342-.142,1.285,1.285,0,0,1,.461-.188,1.345,1.345,0,0,1,1.579,1.229,5.879,5.879,0,0,1-.041.931c-.026.346-.052.692-.075,1.038-.043.7-.068,1.411-.089,2.116-.007.241-.016.484-.024.726h0c-.036,1.13-.075,2.3-.09,3.446q.006.695.03,1.388c.069.439.145.958.206,1.476.1.831.174,1.678.246,2.5l.023.276c.084.944.134,1.8.15,2.606a1.707,1.707,0,0,1-.056.528c.147.079.293.16.436.246a15.022,15.022,0,0,1,1.833,1.36l.4.323.113.091c.57.443,1.179.851,1.767,1.245l.236.159c.73.491,1.427,1.041,2.114,1.588.344.273.692.54,1.042.807.528.4,1.074.821,1.59,1.256.88.741,1.738,1.518,2.473,2.189a28.716,28.716,0,0,1,2.372,2.381c.5.58.975,1.2,1.432,1.807.183.242.367.484.552.722a25.437,25.437,0,0,1,1.938,2.875,28.262,28.262,0,0,1,1.505,3.024,20.135,20.135,0,0,1,1.075,3.3c.235.992.417,2.012.594,3l.038.215c.214,1.187.378,2.256.5,3.268.027.2.057.4.088.594a2.683,2.683,0,0,1,.047.694,1.29,1.29,0,0,1-.5.9,1.19,1.19,0,0,1-.335.174,1.215,1.215,0,0,1-.323.059,1.291,1.291,0,0,1-.652-.143" transform="translate(-654.065 -261.993)"/>
        <path id="패스_230" data-name="패스 230" d="M901.749,385.074a.8.8,0,0,1-.334-.6,13.688,13.688,0,0,1,0-1.833c.023-.537.047-1.074.066-1.61.042-1.148.083-2.294.1-3.442h0c.013-1.229.038-2.456.093-3.684q.037-.832.089-1.662.025-.435.063-.868c.012-.133.023-.267.039-.4a4.069,4.069,0,0,1,.109-.666.519.519,0,0,1,.109-.223.3.3,0,0,1,.293-.094.4.4,0,0,1,.081.028l-.012,0a.3.3,0,0,1,.133.437c-.012.052-.022.1-.031.156a14.913,14.913,0,0,0-.085,1.693c0-.017,0-.032,0-.048,0,.258,0,.516-.006.774,0-.017,0-.034,0-.05-.005,1.17.03,2.341.111,3.509.04.575.093,1.15.131,1.725q.062.919.1,1.84c.027.693.04,1.387.052,2.081.011.653.01,1.308.079,1.959q.014.094.03.188a.792.792,0,0,1-.62.915.761.761,0,0,1-.111.013.783.783,0,0,1-.483-.139" transform="translate(-657.052 -269.699)"/>
        <path id="패스_231" data-name="패스 231" d="M739.4,476.634l-.333.015-.331.015-.332.015c-1.838.086-3.692.107-5.433.12-1.528.013-3.08-.009-4.58-.03l-.812-.011-.866-.01c-1.468-.018-2.987-.038-4.481-.09-1.677-.059-3.437-.186-5.229-.38-1.052-.113-1.864-.209-2.629-.313l-.152-.021c-.418-.057-.836-.113-1.252-.177l-.3-.045c-.337-.048-.684-.1-1.022-.166-.393-.078-.786-.159-1.177-.248-.277-.063-.555-.143-.826-.219l-.211-.059c-.807-.226-1.6-.475-2.206-.666a15.377,15.377,0,0,1-1.9-.723h0l-.079-.038a2.8,2.8,0,0,1-.441-.271.777.777,0,0,1-.336-.441.485.485,0,0,1,.157-.461.541.541,0,0,1,.4-.105l-.033,0h0l.035,0h0a.477.477,0,0,1,.448.223c.136.051.272.1.411.141.119.033.236.065.356.1l0,0c.687.177,1.4.32,2.081.458l.5.1.527.11c.338.071.676.14,1.014.207.436.083.865.154,1.274.215l.261.04-.008,0c1.786.221,3.588.393,5.27.547l.357.033c1.621.149,3.3.3,4.952.386,2.728.134,5.511.179,8.125.214,2.253.017,4.6-.034,7.184-.155,1.122-.052,2.27-.117,3.509-.2,1.585-.1,3.191-.289,4.742-.469l.593-.069c1-.115,2.013-.2,2.994-.284.744-.063,1.512-.128,2.266-.2q.825-.086,1.646-.182l.5-.064c.17-.022.34-.044.509-.068l.085-.011h-.012l-.056.01c.912-.115,1.771-.2,2.623-.261l.591-.042c.61-.041,1.241-.083,1.861-.154.77-.1,1.549-.224,2.3-.343.415-.065.831-.13,1.247-.191l.392-.058c.467-.069.951-.139,1.422-.227.57-.107,1.153-.235,1.785-.393l.575-.162c.53-.149,1.079-.3,1.622-.431a16.031,16.031,0,0,1,1.789-.286,2.466,2.466,0,0,0,.257-.044,1.667,1.667,0,0,0,.182-.067l.252-.1a3.785,3.785,0,0,1,.6-.171,1.208,1.208,0,0,1,.908,2.185l0,0a1.116,1.116,0,0,1-.448.186c-.075.014-.15.03-.226.049-.106.031-.211.067-.316.1a3.792,3.792,0,0,1-.618.176,5.871,5.871,0,0,1-.6.063l-.083.005c-.247.017-.493.043-.739.071-.594.08-1.194.189-1.832.332l-.5.115c-.466.107-.946.217-1.424.3-1.073.2-2.176.327-3.242.454-.249.029-.5.059-.747.093l-.173.021h0l.066-.008-.065.008.065-.012-.412.052h0l-.968.123v0h0l-.043,0c-.082.01-.163.019-.243.031l.009,0c-.576.07-1.082.126-1.545.166-.325.031-.653.048-.98.065l-.343.018c-.9.053-1.809.133-2.723.237l-.035.005-.039,0-.041.005.006,0-.316.041-.029,0h-.006c-.806.1-1.664.2-2.529.277-.918.08-1.848.147-2.716.207-1.082.076-2.179.187-3.24.294-.685.068-1.371.138-2.057.2-1.115.1-1.974.16-2.783.2-.277.015-.554.028-.83.041l-.83.037" transform="translate(-513.51 -342.938)"/>
        <path id="패스_232" data-name="패스 232" d="M721.109,210.926a1.574,1.574,0,0,1-.63-.495c-.041-.045-.081-.09-.123-.133s-.1-.1-.156-.152c-.143-.1-.289-.2-.441-.294-.2-.115-.393-.215-.587-.306-.124-.049-.249-.095-.376-.136-.078-.02-.155-.036-.235-.051s-.156-.014-.235-.016l-.067,0c-.061,0-.12.008-.181.013-.1.017-.205.037-.307.061-.187.053-.366.115-.578.194-.063.026-.128.051-.191.079l.005,0-.049.022-.053.021.044-.017c-.226.1-.466.216-.7.34l-.082.049a.977.977,0,0,1-.453.144.884.884,0,0,1-.223-.019,1.065,1.065,0,0,1-.161-.05q-.087.1-.17.2c-.028.037-.055.074-.083.118l-.028.04,0,.01,0,.006a.366.366,0,0,1-.349.291.349.349,0,0,1-.253-.089c-.268-.243-.027-.666.127-.94.075-.131.149-.261.23-.389a.874.874,0,0,1,.4-.812c.175-.108.366-.213.569-.312a3.886,3.886,0,0,1,.318-.235,3.44,3.44,0,0,1,1.012-.431,2.739,2.739,0,0,1,.558-.077c.124-.006.248-.007.371,0a4.545,4.545,0,0,1,.521.034,5.361,5.361,0,0,1,1.979.679,5.246,5.246,0,0,1,.8.562l.041.036.041.037c.107.079.211.161.316.244a2.375,2.375,0,0,1,.349.342.929.929,0,0,1,.171.907.862.862,0,0,1-.795.574.9.9,0,0,1-.333-.045" transform="translate(-520.695 -151.295)"/>
        <path id="패스_233" data-name="패스 233" d="M805.172,210.926a1.574,1.574,0,0,1-.63-.495c-.041-.045-.081-.09-.123-.133s-.1-.1-.156-.152c-.143-.1-.289-.2-.441-.294-.2-.115-.393-.215-.587-.306-.124-.049-.249-.095-.376-.136-.078-.02-.155-.036-.235-.051s-.156-.014-.235-.016l-.067,0c-.061,0-.12.008-.181.013-.1.017-.205.037-.307.061-.187.053-.366.115-.578.194-.063.026-.128.051-.191.079l.005,0-.049.022-.053.021.044-.017c-.226.1-.466.216-.7.34l-.082.049a.977.977,0,0,1-.453.144.883.883,0,0,1-.223-.019,1.066,1.066,0,0,1-.161-.05q-.087.1-.17.2c-.028.037-.055.074-.083.118l-.028.04,0,.01,0,.006a.366.366,0,0,1-.349.291.349.349,0,0,1-.253-.089c-.268-.243-.027-.666.127-.94.075-.131.149-.261.23-.389a.873.873,0,0,1,.4-.812c.175-.108.366-.213.57-.312a3.874,3.874,0,0,1,.318-.235,3.44,3.44,0,0,1,1.012-.431,2.739,2.739,0,0,1,.558-.077c.124-.006.248-.007.371,0a4.543,4.543,0,0,1,.521.034,5.36,5.36,0,0,1,1.979.679,5.243,5.243,0,0,1,.8.562l.042.036.041.037c.107.079.211.161.316.244a2.378,2.378,0,0,1,.349.342.929.929,0,0,1,.171.907.862.862,0,0,1-.795.574.9.9,0,0,1-.333-.045" transform="translate(-581.972 -151.295)"/>
        <path id="패스_234" data-name="패스 234" d="M955.017,203.241c-.137-.1-.271-.207-.4-.314l-.074-.06h0a12.727,12.727,0,0,0-1.079-.765,10.84,10.84,0,0,0-1.029-.536c-.151-.056-.3-.109-.455-.159-.121-.031-.241-.058-.367-.08s-.249-.025-.376-.029l-.112,0c-.079,0-.157.01-.237.017-.193.03-.38.074-.54.113-.264.084-.5.167-.725.255-.107.047-.212.1-.327.158a1,1,0,0,1-.448.14.867.867,0,0,1-.215-.018.89.89,0,0,1-.513-.326l-.037.025-.093.064c-.172.131-.323.258-.465.388a4.975,4.975,0,0,0-.351.385l-.048.071a.3.3,0,0,1-.276.271.251.251,0,0,1-.04,0,.318.318,0,0,1-.236-.137.455.455,0,0,1,.033-.453,3.561,3.561,0,0,1,.506-.738,6.172,6.172,0,0,1,1.042-.96,1.1,1.1,0,0,1,.306-.237l.044-.03a5.354,5.354,0,0,1,.781-.51,5.135,5.135,0,0,1,.96-.367,7.551,7.551,0,0,1,.914-.188,4.586,4.586,0,0,1,.456-.045,4.98,4.98,0,0,1,.9.041A5.33,5.33,0,0,1,955,200.348a6.425,6.425,0,0,1,.986.915c.145.164.287.342.438.545a1.6,1.6,0,0,1,.379.839.922.922,0,0,1-.623.921.819.819,0,0,1-.255.053,1.485,1.485,0,0,1-.912-.379" transform="translate(-689.956 -145.186)"/>
        <path id="패스_235" data-name="패스 235" d="M970.147,250.9a6.971,6.971,0,0,1-.728-1.118l-.136-.245.03.055-.113-.194a1.994,1.994,0,0,1-.14-.226.464.464,0,0,1,.115-.546.456.456,0,0,1,.556-.028l.008.007-.012-.008a.468.468,0,0,1,.119.116c.112.137.231.269.352.4l0,0,.189.2c.2.2.4.39.609.581l.1.09a.669.669,0,0,1,.046.931.666.666,0,0,1-.989-.015" transform="translate(-706.354 -181.15)"/>
        <path id="패스_236" data-name="패스 236" d="M671.949,182.881c-.591.023-1.194.016-1.778.009h-.118l.012,0-.768-.008-.8-.008.064-.007-.268,0-1.347-.016a1.279,1.279,0,0,0,.669-1.008,2.677,2.677,0,0,0-.046-.694c-.032-.2-.062-.4-.089-.594-.121-1.011-.284-2.08-.5-3.268l-.038-.215c-.177-.985-.359-2.006-.594-3a20.129,20.129,0,0,0-1.075-3.3,28.262,28.262,0,0,0-1.505-3.024,25.408,25.408,0,0,0-1.937-2.875c-.185-.238-.369-.48-.552-.722-.458-.6-.93-1.227-1.432-1.807a28.762,28.762,0,0,0-2.372-2.381c-.735-.671-1.594-1.448-2.473-2.189-.517-.436-1.063-.853-1.591-1.256-.349-.267-.7-.534-1.042-.807-.687-.547-1.384-1.1-2.114-1.588l-.236-.159c-.588-.394-1.2-.8-1.767-1.245l-.113-.091-.4-.323a15.011,15.011,0,0,0-1.833-1.36c-.143-.086-.289-.167-.436-.246a1.707,1.707,0,0,0,.056-.528c-.015-.81-.066-1.662-.15-2.606l-.023-.276c-.072-.819-.147-1.667-.246-2.5-.06-.518-.137-1.037-.206-1.476q-.023-.692-.03-1.388c.016-1.149.054-2.316.09-3.446a4.192,4.192,0,0,0,.407-.191,3.565,3.565,0,0,0,1.182-1.045,6.077,6.077,0,0,0,.624-1.156c.1.214.212.43.328.64a4.241,4.241,0,0,0,.928,1.172,3.414,3.414,0,0,0,1.077.631,5.833,5.833,0,0,0,1.06.3,3.464,3.464,0,0,0,.715.049l.069,0a2.616,2.616,0,0,0,.7-.159,3.067,3.067,0,0,0,1.1-.724,4.746,4.746,0,0,0,1-1.6,10.016,10.016,0,0,0,.485-1.7,5.021,5.021,0,0,0,.341.459,7.292,7.292,0,0,0,1.006.972l.15.123a4.158,4.158,0,0,0,.914.623,3.526,3.526,0,0,0,.838.265,3.217,3.217,0,0,0,.693.045c.084,0,.169-.011.255-.024.147-.019.292-.038.438-.063a.851.851,0,0,0,.175-.047,1.421,1.421,0,0,0,.227.008,1.21,1.21,0,0,0,.381-.08,3.429,3.429,0,0,0,1.579-1.149,4.691,4.691,0,0,0,.638-1.209,5.534,5.534,0,0,0,.271-.98,7.943,7.943,0,0,0,.052-1.21v-.094c0-.393-.005-.814-.031-1.232-.019-.337-.051-.673-.083-1.008l-.032-.336c-.034-.371-.062-.742-.091-1.114-.046-.595-.094-1.211-.163-1.816-.072-.633-.173-1.275-.271-1.894-.055-.349-.11-.7-.161-1.048-.087-.766-.147-1.548-.206-2.3-.042-.552-.084-1.1-.138-1.652-.1-.994-.231-2-.361-2.973q-.073-.544-.144-1.09l-.066-.56c-.092-.776-.188-1.579-.311-2.366-.06-.389-.131-.777-.2-1.166-.09-.5-.185-1.019-.256-1.532l-.079-.578c-.111-.8-.226-1.636-.374-2.45-.093-.522-.206-1.051-.314-1.562-.09-.427-.181-.855-.264-1.285-.174-.914-.323-1.872-.455-2.926a23.722,23.722,0,0,0-.5-2.773q-.141-.564-.282-1.125c-.152-.6-.3-1.2-.448-1.81-.242-1-.513-2.041-.805-3.086a39.088,39.088,0,0,0-2.016-5.7c-.459-1.007-.986-1.952-1.488-2.821-.147-.254-.292-.51-.437-.765-.331-.585-.676-1.189-1.038-1.769l-.052-.083c-.506-.811-1.03-1.65-1.611-2.427l-.146-.194c-.252-.339-.513-.689-.789-1.018s-.6-.679-1.014-1.11a18.187,18.187,0,0,0-2.275-1.916c-.762-.559-1.512-1.058-2.231-1.481a30.1,30.1,0,0,0-2.668-1.4c-.591-.272-1.186-.537-1.781-.8l-.957-.427-.5-.227c-.751-.339-1.527-.691-2.311-.986a21.208,21.208,0,0,0-3.032-.869,30.667,30.667,0,0,0-5.909-.711c-1-.017-1.916-.005-2.813.036l-.337.018c-.669.037-1.347.094-2,.149-.344.029-.687.058-1.03.084s-.7.047-1.048.063c-.648.03-1.308.047-1.945.063l-.069,0c-.652.015-1.309.039-1.95.069-.313.015-.627.032-.94.05-.574.033-1.154.09-1.715.147-.4.04-.8.079-1.2.112-.436.034-.882.056-1.313.076l-.174.009c-.131.006-.262.013-.393.022s-.263.016-.4.022c-.111.005-.223.009-.334.011l-.037-.014v0a.439.439,0,0,0-.1-.008.428.428,0,0,0-.219.073.267.267,0,0,0-.034.025.481.481,0,0,0-.124.143.423.423,0,0,0,.134.537c-.373,0-.757-.017-1.129-.039-.344-.02-.689-.039-1.033-.048-.193-.005-.392,0-.591.007a9.513,9.513,0,0,0-1.658.228c-.329.073-.656.151-.985.23-.423.1-.845.2-1.27.293-.27.057-.543.108-.814.161-.422.079-.858.162-1.282.269l-.078.02c-.4.1-.813.209-1.208.349-.473.168-.861.322-1.221.484-.849.384-1.679.81-2.306,1.138a18.139,18.139,0,0,0-4.281,2.785l-.035.034-.187.182a11.119,11.119,0,0,0-1.249,1.437c-.37.513-.74,1.078-1.13,1.723l0,0-.056.092-.043.07-.042.07c-.349.579-.69,1.206-1.02,1.812l-.22.4c-.446.816-.793,1.507-1.09,2.174-.365.815-.681,1.668-.95,2.4-.277.757-.536,1.558-.792,2.449l.013-.067c-.166.608-.31,1.234-.449,1.84l-.1.432c-.076.328-.155.655-.233.983q-.132.548-.261,1.1A25.273,25.273,0,0,0,581.978,97l-.059,1.025c-.028.5-.057,1.006-.084,1.508q-.03.559-.054,1.119c-.023.468-.044.937-.07,1.4-.039.663-.085,1.327-.132,1.989-.072,1.043-.148,2.122-.189,3.185-.037.914-.057,1.83-.061,2.724,0,.641.006,1.291.017,1.921l.009.578.013.851q.014.833.027,1.665.006.46.008.919c0,.53.008,1.06.021,1.591.019.8.045,1.661.1,2.509.037.532.076,1.064.115,1.6l.072.961.019.262c.056.764.113,1.554.2,2.328.089.825.205,1.692.368,2.732.3,1.917.586,3.479.9,4.914.169.778.374,1.7.619,2.6a11.447,11.447,0,0,0,.911,2.494,10.165,10.165,0,0,0,1.668,2.257,4.852,4.852,0,0,0,2.167,1.314,2.981,2.981,0,0,0,.926.125l.048,0a3.359,3.359,0,0,0,.849-.169,3.224,3.224,0,0,0,.765-.389,4.724,4.724,0,0,0,.537-.407,5.809,5.809,0,0,0,.834-.9,4.876,4.876,0,0,0,.538-.955,12.227,12.227,0,0,0,.98.839,6.858,6.858,0,0,0,1.086.7,3.422,3.422,0,0,0,1.327.4,2.085,2.085,0,0,0,.269,0,2.907,2.907,0,0,0,1.255-.379,5.2,5.2,0,0,0,1.377-1.165c.049-.057.1-.115.144-.173a7.9,7.9,0,0,0,.739.974,3.523,3.523,0,0,0,1.3.973,1.87,1.87,0,0,0,.781.133,1.782,1.782,0,0,0,.3-.038c.01.08.015.159.019.238.022.366.039.73.054,1.093s.033.726.056,1.088c.045.719.112,1.446.177,2.15l.039.417c.071.77.1,1.554.125,2.314l.012.325c.033.946.1,1.833.2,2.708.071.613.151,1.227.231,1.838l.079.61a11.034,11.034,0,0,0-1.4.758l-.306.184-.633.375c-.436.257-.871.513-1.3.777l-.51.311-.511.31c-.407.155-.942.36-1.471.585-.555.238-1.1.514-1.633.782-.366.186-.733.37-1.105.544l-.459.213a23.991,23.991,0,0,0-2.17,1.091,20.645,20.645,0,0,0-2.333,1.656,24.287,24.287,0,0,0-4.106,4.1l-.34.436c-.44.561-.894,1.142-1.311,1.733a26.654,26.654,0,0,0-1.535,2.426,48.076,48.076,0,0,0-2.454,4.983,20.462,20.462,0,0,0-.929,2.721c-.067.264-.133.548-.2.893-.131.394-.255.795-.382,1.229a22.108,22.108,0,0,0-.612,2.787c-.123.781-.237,1.55-.289,2.338l-.18.009-.234.011c-.294.014-.587.031-.881.053l-.368.027c-.613.046-1.227.091-1.841.126l-.2.009c-.641.03-1.287.033-1.833.033-1.082-.02-2.173-.06-3.195-.1l-.111,0c-.99-.036-2.016-.073-3.018-.2l-.045-.01c-.182-.036-.361-.071-.542-.116-.153-.047-.3-.1-.45-.157s-.28-.139-.4-.211l-.1-.061-.1-.065a2.9,2.9,0,0,0,.069-1.014c-.017-.238-.034-.475-.058-.711-.047-.465-.108-.957-.185-1.506-.014-.1-.028-.2-.043-.3-.016-.561-.021-1.124-.026-1.685-.014-1.987-.072-3.788-.18-5.512-.084-1.381-.215-2.78-.343-4.134q-.073-.774-.143-1.547c-.156-1.767-.292-3.527-.442-5.48-.139-1.826-.31-3.679-.473-5.472-.088-.969-.163-1.93-.239-2.894-.067-.866-.135-1.733-.213-2.6-.155-1.745-.306-3.605-.317-5.494l0-.038v-.039l.038-.005.035,0a.277.277,0,0,0,.042,0,.419.419,0,0,0,.306-.163.433.433,0,0,0-.348-.707,1.284,1.284,0,0,0-1.346-1.489,1.2,1.2,0,0,0-.877.418c-.38-.085-.777-.18-1.17-.288-.474-.148-.974-.324-1.62-.575q-.227-.087-.454-.179c-.379-.15-.771-.306-1.165-.436-.839-.277-1.706-.509-2.543-.735q-.42-.112-.839-.228a29.322,29.322,0,0,1-2.841-.992,18.461,18.461,0,0,1-1.727-.929l-.089-.054-.088-.054.031-.009c.574-.074,1.156-.169,1.719-.262.338-.056.676-.111,1.014-.163.892-.136,1.788-.293,2.662-.466s1.75-.345,2.624-.524c.225-.046.45-.095.674-.143.615-.132,1.25-.269,1.884-.361.184-.017.367-.031.552-.04l.1,0c.09,0,.182.008.272.012.212.009.43.02.643.01a1.484,1.484,0,0,0,.757-.221,1.317,1.317,0,0,0,.554-.8,3,3,0,0,0,.031-.74c0-.08-.006-.159-.008-.237-.005-.345,0-.69,0-1.035l0,.066c.016-1.635.041-3.372.085-5.108.043-1.636.12-3.4.241-5.556.054-.934.114-1.867.176-2.8.057-.866.114-1.733.163-2.6.113-1.925.212-3.882.308-5.774q.139-2.764.292-5.526.038-.655.078-1.307c.085-1.393.172-2.834.213-4.254l.031-1.052c.041-1.486.084-3.022.175-4.53s.207-3.483.285-5.481c.007-.135.011-.27.015-.4v-.03q.031-.43.054-.86c.05-.919.083-1.853.115-2.756q.03-.895.066-1.789.092-2.085.2-4.169c.076-1.466.2-2.936.365-4.368.067-.57.145-1.137.223-1.7.114-.843.234-1.716.313-2.578.067-.723.121-1.468.161-2.212.026-.465.038-.93.051-1.4.006-.243.014-.484.021-.725l.018-.525c.016-.523.033-1.045.059-1.568.014-.253.028-.506.043-.758.029-.482.059-.981.072-1.471.015-.449.025-.9.036-1.347l.014-.669.021-.058a3.628,3.628,0,0,0,.1-.4l.032-.141.047-.2c.036-.157.072-.316.108-.474.1-.479.2-.987.3-1.645.106-.683.2-1.379.281-2.054.054-.427.109-.855.169-1.281a29.743,29.743,0,0,1,.668-3.263c.024-.078.049-.157.075-.234l.165-.05.039-.011c.306-.088.63-.193,1.05-.34l.385-.135c.645-.227,1.311-.46,1.983-.651a20.211,20.211,0,0,1,2.015-.391c.88-.1,1.778-.175,2.645-.246.741-.06,1.507-.123,2.26-.2l.667-.071c1.438-.156,2.925-.317,4.394-.411,1.452-.091,2.923-.208,4.348-.321l.214-.017c1.481-.116,2.967-.2,4.353-.264,1.347-.064,2.914-.141,4.452-.236.616-.037,1.231-.071,1.847-.1.974-.046,1.854-.072,2.688-.082l-.069,0c.671,0,1.326.012,1.978.026,1.357.031,2.957.074,4.545.147,1.475.07,3.059.142,4.634.195,2.633.089,5.457.142,9.155.174l.045,0v0h.087l2.569.036q2.147.03,4.291.054,1.825.026,3.65.044c2.4.03,4.795.026,7.148-.011,2.06-.033,4.1-.119,6.009-.207l1.537-.073,1.282-.062,1.173-.057c.443-.022.885-.045,1.328-.065.826-.038,1.5-.064,2.109-.081,1.481-.039,2.985-.053,4.471-.043,1.735.029,3.573.076,5.783.145l.483.015c.74.022,1.506.045,2.255.1.9.069,1.794.168,2.741.3.489.073.978.149,1.468.217.253.035.507.065.762.1q.279.033.558.07a.849.849,0,0,1,.084.015c.021.057.039.114.056.172.06.254.109.526.158.883.044.457.074.921.1,1.37l.024.376c.042.616.09,1.232.139,1.847.086,1.108.183,2.364.247,3.611l.095,1.881q.18,3.524.349,7.05l.02.458c.13,2.791.263,5.677.239,8.516,0,.029,0,.059,0,.088l0,.055c0,.215,0,.432-.007.65a.1.1,0,0,1,0,.019s0,.012,0,.012c-.007,1-.024,2.006-.04,3.011-.021,1.257-.042,2.514-.055,3.77,0,.131,0,.283-.005.436v0c0,.023,0,.047,0,.07s0,.025,0,.036c0,.267-.005.538-.008.808a.125.125,0,0,1,0,.021s0,.014,0,.014c-.025,2.617.014,5.284.053,7.863q.023,1.551.043,3.1c.023,2.165.082,4.365.139,6.492q.034,1.252.065,2.506l.036,1.571c.024,1.05.049,2.1.079,3.15.028.968.073,1.951.118,2.9.02.451.041.9.061,1.353l.066,1.579c.107,2.491.216,5.068.283,7.6q.085,3.326.187,6.652l.071,2.376c.031,1.1.072,2.2.112,3.3.068,1.888.139,3.839.168,5.759.038,2.648.1,5.773.231,8.878.053,1.236.114,2.469.175,3.7l.041.824c.03.613.064,1.226.1,1.839.048.863.1,1.726.134,2.59.145,3.51.211,6.39.208,9.066-.033,2.213-.1,4.463-.155,6.638l-.048,1.773q-.052,2.005-.119,4.009c-.02.644-.042,1.288-.072,1.931l-.008.195c-.014.319-.029.639-.05.96-.255.027-.507.048-.76.06Z" transform="translate(-398.621 -34.997)" fill="#fff"/>
        <path id="패스_237" data-name="패스 237" d="M751.706,496.635c-.712-.018-1.424-.047-2.136-.076-.794-.032-1.615-.065-2.423-.08-1.777-.035-3.132-.027-4.391.028l-.366.016c-1.508.07-2.864.156-4.146.262l-1.318.109c-1.1.092-2.2.185-3.295.266-.73.053-1.46.111-2.19.169s-1.46.116-2.19.17q-.735.052-1.469.086c-.794.037-1.588.061-2.381.085l-.62.02c-1.439.045-3.335.109-5.251.2-1.407.066-2.688.138-3.912.222-1.367.092-2.757.2-4.1.306-1.6.125-3.251.253-4.879.357q-1.019.063-2.039.11-1.138.053-2.278.091c-1.258.042-2.611.054-4.385.039l-.771-.012c-1.118-.017-2.237-.034-3.355-.04-.789-.005-1.578,0-2.367-.005l-1.663,0c-1.176-.015-2.352-.043-3.528-.07-2.189-.049-4.453-.1-6.679-.073q-.767.009-1.534.024c-.948.016-1.9.032-2.848.036q-1.336,0-2.672-.005-.98,0-1.962,0h-.7c.019-.245.046-.488.077-.729a19.644,19.644,0,0,1,.5-2.112c.09-.324.179-.648.262-.975.11-.448.208-.905.3-1.348.125-.587.255-1.194.417-1.783.231-.749.5-1.512.814-2.267.449-.9.945-1.8,1.514-2.766l.037-.062c.179-.293.364-.6.565-.878.221-.309.43-.591.642-.864.466-.545.968-1.073,1.452-1.583.365-.385.742-.781,1.1-1.183.141-.158.281-.316.423-.475.26-.294.52-.59.788-.878.346-.374.727-.768,1.233-1.275l.035-.033.034-.033.049-.047a15.338,15.338,0,0,0,1.9.723c.6.191,1.4.44,2.205.666l.211.059c.27.076.549.156.826.219.391.089.784.171,1.177.248.338.068.686.118,1.022.167l.3.044c.416.064.834.12,1.252.177l.152.021c.766.1,1.576.2,2.629.313,1.793.194,3.552.321,5.229.38,1.494.052,3.012.072,4.481.09l.867.01.812.011c1.5.021,3.052.043,4.58.03,1.741-.013,3.595-.034,5.433-.12l.332-.015.332-.016.333-.015.83-.037c.277-.013.554-.026.83-.041.809-.043,1.668-.1,2.783-.2.686-.06,1.372-.129,2.057-.2,1.061-.107,2.157-.218,3.24-.294.868-.06,1.8-.127,2.716-.207.865-.073,1.723-.176,2.529-.277h.006l.029,0,.316-.04h-.006l.041-.005.039,0,.035-.005c.914-.1,1.828-.184,2.723-.237l.343-.018c.327-.016.655-.034.98-.064.464-.04.969-.1,1.545-.166l-.009,0c.08-.012.162-.022.243-.031l.046,0v0l.968-.123h0l.412-.052-.133.024c.328-.047.657-.087.985-.125,1.066-.127,2.168-.257,3.242-.454.478-.087.959-.2,1.424-.3l.5-.114c.638-.143,1.238-.252,1.833-.332.246-.028.491-.053.739-.071l.083-.005a5.884,5.884,0,0,0,.6-.063,3.777,3.777,0,0,0,.618-.176c.1-.037.21-.073.316-.1.076-.019.15-.035.226-.049a1.116,1.116,0,0,0,.448-.186c.481.594.945,1.214,1.393,1.815l.443.593-.061-.071-.056-.075a24.059,24.059,0,0,1,1.514,2.281c.633,1.148,1.167,2.233,1.635,3.319a26.882,26.882,0,0,1,.911,2.775c.253,1.015.484,2.045.695,3.009.217.994.377,1.883.487,2.717l.019.181a2.715,2.715,0,0,0,.294,1.156,1.132,1.132,0,0,0,.445.41,0,0,0,0,1,0,0s0,0,0,0c-1.442-.02-2.637-.042-3.761-.069" transform="translate(-488.285 -348.863)" fill="#fff"/>
        <path id="패스_238" data-name="패스 238" d="M734.118,495.456c-1.109.025-2.221.006-3.331.018-1.06.012-2.119.041-3.177.076q-1.707.055-3.416.1c-1.086.028-2.172.041-3.257.076-.5.017-1,.046-1.493.075l.05,0-.052,0-.081,0,.072,0c-1.062.075-2.123.16-3.185.221q-1.707.1-3.417.149c-1.032.033-2.065.052-3.1.049-1.088,0-2.173-.045-3.26-.078-.842-.026-1.685-.044-2.527-.037-.779.008-1.559.032-2.338.057-.845.028-1.69.056-2.534.068-.806.011-1.613-.02-2.417-.073l-.151-.01.132.008-.607-.04.035,0c-.678-.046-1.351-.121-2.024-.219a11.78,11.78,0,0,1-2.207-.631,1.03,1.03,0,0,1,.79-1.9q.4.145.8.285c.32.1.636.183.96.261.812.136,1.625.223,2.447.286.521.032,1.04.061,1.56.077.577.017,1.155,0,1.73-.014,1.084-.025,2.166-.067,3.25-.089,2.15-.043,4.3.1,6.447.093q3.578,0,7.148-.241l.13-.009-.024,0,.067,0,.066,0h-.024l.516-.035h-.024l.066,0h-.008c1.1-.078,2.2-.16,3.294-.2s2.173-.059,3.26-.092c2.2-.066,4.4-.178,6.594-.211.959-.014,1.918-.012,2.876-.017.987-.005,1.973-.047,2.958-.1.816-.044,1.633-.077,2.449-.111,1.02-.041,2.04-.082,3.059-.143,2.159-.158,4.315-.346,6.47-.542,2.111-.192,4.233-.339,6.325-.687,1.131-.187,2.259-.391,3.4-.55.532-.074,1.066-.134,1.6-.176.478-.038.958-.065,1.431-.15.408-.1.8-.249,1.21-.339a1.123,1.123,0,0,1,.824.1,1.075,1.075,0,0,1-.249,1.967c-.163.04-.322.09-.484.136a9.454,9.454,0,0,1-.928.215,10.16,10.16,0,0,1-1.481.122c-.177.006-.354.012-.529.021-1.034.078-2.06.244-3.083.407s-2.047.318-3.079.426c-2.166.227-4.335.413-6.5.611-2.2.2-4.393.42-6.6.5-1.034.039-2.065.078-3.1.137-.63.036-1.26.073-1.891.1-.479.022-.958.04-1.437.051" transform="translate(-503.845 -357.632)"/>
        <path id="패스_239" data-name="패스 239" d="M726.428,519c-1.852.014-3.706.032-5.556.1-1.916.07-3.831.164-5.748.234-1.838.067-3.675.143-5.513.219-1.864.076-3.728.162-5.594.2-.947.017-1.9-.008-2.843-.03q-1.394-.031-2.787-.07-2.718-.072-5.433-.179c-1.85-.07-3.7-.123-5.548-.284a14.891,14.891,0,0,1-2.569-.39,9.386,9.386,0,0,1-1.944-.69h0a.689.689,0,0,1-.509-.134.678.678,0,0,1-.257-.432c-.009-.021-.018-.041-.026-.061a.7.7,0,0,1,.142-.749s0,0,.006-.006a.69.69,0,0,1,.829-.112c.145.077.284.162.429.238l.314.13-.087-.029a14.738,14.738,0,0,0,1.511.419c.589.108,1.176.174,1.772.23,1.793.113,3.588.148,5.384.189,1.9.043,3.8.111,5.694.158,1.808.046,3.619.1,5.429.1,1.907-.006,3.813-.1,5.718-.18q2.807-.122,5.615-.217c1.852-.064,3.7-.148,5.555-.214,1.836-.067,3.672-.1,5.509-.123s3.682-.022,5.52-.121l.322-.018.134-.009h-.012l.056,0,.033,0c.024,0,.048,0,.073-.006a2.526,2.526,0,0,1,.291-.022c.053,0,.105,0,.156-.007l-.117.009.157-.011-.115.008c1.308-.1,2.614-.225,3.923-.327,1.333-.1,2.666-.19,4-.278h.005l.108-.007h-.026c1.419-.1,2.837-.241,4.257-.333.723-.047,1.449-.078,2.173-.108.682-.028,1.364-.057,2.046-.1s1.357-.108,2.036-.174,1.372-.17,2.056-.267c1.346-.191,2.707-.3,4.042-.563.645-.14,1.293-.286,1.925-.477a1.044,1.044,0,0,1,1.185,1.528,1.08,1.08,0,0,1-.765.514c-.268.054-.536.1-.8.155-.865.178-1.728.342-2.606.436-.907.1-1.817.17-2.724.273-1.832.207-3.668.4-5.513.45-1.226.035-2.451.066-3.675.149l.12-.009c-1.007.072-2.013.146-3.019.215h.017c-1.082.076-2.166.121-3.249.194l.117-.009-.8.056h0l-.116.008.082-.005c-1.527.115-3.052.271-4.581.375h.01l-.071,0-.046,0h.014l-.12.008h0l-.1.006.08,0-.165.012-.055,0h-.017c-.074.009-.149.012-.223.016l-.038,0,.043,0-.072,0-.045,0q-.392.026-.783.044c-1.534.072-3.071.067-4.607.079" transform="translate(-497.169 -375.003)"/>
        <path id="패스_240" data-name="패스 240" d="M685.13,243.81a.646.646,0,0,1-.6-.677c.035-.711.082-1.422.125-2.133.021-.371.044-.742.07-1.113a1.749,1.749,0,0,1,.108-.631.637.637,0,0,1,.387-.334h0l.006,0c.023-.007.046-.014.07-.019l-.054.015a.6.6,0,0,1,.732.365.613.613,0,0,1-.047.493c-.044.531-.05,1.069-.07,1.6-.024.611-.045,1.223-.048,1.834a.643.643,0,0,1-.615.6.583.583,0,0,1-.062,0" transform="translate(-498.978 -174.139)" fill="#fff"/>
        <path id="패스_241" data-name="패스 241" d="M695.063,244c-.036-.635-.055-1.268-.06-1.9-.007-.565-.015-1.131-.007-1.694a.691.691,0,0,1,1.34-.191.737.737,0,0,1,.028.1.645.645,0,0,1,.006.25c-.022.482-.014.967-.011,1.45.01.631.034,1.261.074,1.892a.7.7,0,0,1-.636.735h-.017a.694.694,0,0,1-.719-.637" transform="translate(-506.606 -174.766)" fill="#fff"/>
        <path id="패스_242" data-name="패스 242" d="M890.422,230.775c-.119-1.665-.05-3.331-.053-5v-.008a.626.626,0,0,1,1.234-.2,2.691,2.691,0,0,1,.013.531c0,.219,0,.436,0,.654q0,.579,0,1.159a27.014,27.014,0,0,0,.168,2.762.688.688,0,0,1-.633.732h-.019a.69.69,0,0,1-.713-.634" transform="translate(-649.011 -164.064)" fill="#fff"/>
        <path id="패스_243" data-name="패스 243" d="M903.1,230.971a.754.754,0,0,1-.333-.561q-.109-.912-.192-1.828c-.056-.623-.1-1.248-.173-1.87,0-.014,0-.028-.007-.042a.718.718,0,0,1-.039-.121c-.006-.028-.008-.056-.011-.083,0,.009,0,.018,0,.027a1.085,1.085,0,0,1,0-.3.686.686,0,0,1,1.282-.186,2.706,2.706,0,0,1,.152.806c.031.281.054.562.083.842.053.512.11,1.022.18,1.531.052.342.106.682.167,1.022a.74.74,0,0,1-.566.863.73.73,0,0,1-.113.014.74.74,0,0,1-.431-.115" transform="translate(-657.744 -164.476)" fill="#fff"/>
        <path id="패스_244" data-name="패스 244" d="M915.176,226.482c-.107-.693-.209-1.385-.32-2.076-.059-.368-.118-.735-.184-1.1-.049-.282-.1-.569-.167-.848l.025.086h0a.687.687,0,0,1,.026-.5.656.656,0,0,1,.375-.338.663.663,0,0,1,.866.487c.04.278.1.555.157.829.068.358.135.717.2,1.075.137.7.287,1.4.422,2.1a.726.726,0,0,1-.556.85.653.653,0,0,1-.1.013.718.718,0,0,1-.744-.571" transform="translate(-666.609 -161.579)" fill="#fff"/>
        <path id="패스_245" data-name="패스 245" d="M932.946,227.291c-.2-.642-.356-1.3-.506-1.955-.075-.334-.146-.671-.216-1.005-.034-.159-.068-.316-.1-.475a2.486,2.486,0,0,1-.051-.3v.009s0-.008,0-.013v0a.886.886,0,0,1,.007-.214.765.765,0,0,1,1.379-.3.81.81,0,0,1,.063.1.848.848,0,0,1,.077.341,22.331,22.331,0,0,0,.521,2.273h0c.1.337.2.674.321,1.006a.8.8,0,0,1-.482,1.012.765.765,0,0,1-.221.043.79.79,0,0,1-.793-.525" transform="translate(-679.421 -162.343)" fill="#fff"/>
      </g>
    </g>
  </g>
</svg>
