<svg xmlns="http://www.w3.org/2000/svg" xmlns:xlink="http://www.w3.org/1999/xlink" width="460.575" height="513.995" viewBox="0 0 460.575 513.995">
  <defs>
    <clipPath id="clip-path">
      <rect id="사각형_267" data-name="사각형 267" width="460.575" height="513.995" fill="none"/>
    </clipPath>
  </defs>
  <g id="그룹_207" data-name="그룹 207" transform="translate(0 0.001)">
    <g id="그룹_206" data-name="그룹 206" transform="translate(0 -0.001)" clip-path="url(#clip-path)">
      <path id="패스_1002" data-name="패스 1002" d="M966.268,1229.506c1.3,1.49-1.471,4.688-1.85,6.434-.5,1.272-.587,2.183-2.2,1.619-3.429-.427-6.867-2.976-10.312-2.1.4.815,1.306,1.361,1.271,2.341-.083,1.276-2.056.469-2.712,1.528-.023.8.841,1.147,1.3,1.659.4.489.134,1.5-.6,1.373a.006.006,0,0,1,0,0,4.932,4.932,0,0,0-2.87.637c-.608,1.071.09,1.85,1.191,1.958,2.212,1.2,9.406,1.26,9.572,4.026-1.278,3.03-3.259,5.746-4.65,8.735-.6,2.1-7.267-1.342-8.776-1.832l.12.049c-1.522-.851-4.771-1.527-4.389-3.765a95.467,95.467,0,0,1,3.935-8.787,75.993,75.993,0,0,1,7.741-13.725c.944-1.024,1.427-3.9,3.25-3.095l-.15-.062c3.259,1.282,7.111,1.189,10.123,3" transform="translate(-686.552 -894.475)" fill="#231f20"/>
      <path id="패스_1003" data-name="패스 1003" d="M905.872,1542.719c-1.6,4.734-4.7,8.792-7.2,13.083-2.356,4.682-5.557,8.968-7.8,13.659a.729.729,0,0,1-.691.566c-2.055.382-.054-10.011-.493-11.862-.388-4.978-1.342-9.924-1.77-14.916-.79-4.661.9-1.847,6.418-2.019,2.7.137,5.389.353,8.085.5,1.144.287,3.331-.78,3.448.989" transform="translate(-647.458 -1123.573)" fill="#231f20"/>
      <path id="패스_1004" data-name="패스 1004" d="M867.734,1232.613a.718.718,0,0,0-.072.25h0c0,.033,0,.064,0,.1.568-1.454,2.155-2.373,3.146-3.576,2.475-3.06,6.291-.91,8.988.677l-.04-.021c.7.23.847,1.566-.057,1.537-1.745-.782-3.42-1.869-5.352-2.2-2.187-.181-3.472,2.483-5.057,3.674l.061-.07c-.314.271-.484.827-.953.84a.84.84,0,0,1-.663-1.21" transform="translate(-632.802 -895.502)" fill="#231f20"/>
      <path id="패스_1005" data-name="패스 1005" d="M759.04,1702.321c-1.773-.823.34-3.16.572-4.453.769-2.323,1.6-4.619,2.55-6.875.738-1.185,1.145-5.3,2.46-5.45a.915.915,0,0,1,.779,1.168c-1.2,3.136-2.242,6.394-3.535,9.523-.736,1.49-1.39,5.482-2.826,6.087" transform="translate(-553.082 -1229.326)" fill="#231f20"/>
      <path id="패스_1006" data-name="패스 1006" d="M741.14,1748.806c-.228-4.411.142-9.013-1.176-13.272-5.716,1.035-10.765,4.062-16.078,6.221.737,4.554,1.834,9.688,5.368,12.92.42-3.171-.372-6.388-.464-9.548.506-1.284,1.562.006,1.736.8.9,1.28,3.169,7.912,4.739,7.275l-.014.016a.379.379,0,0,1,.042-.04l-.016.012c1.641-1.53-.779-10.907.974-10.66,1.2.387.82,2.138,1.219,3.113,1.027,3.269,2.428,13.088,3.67,3.16m1.55-2.546c-.024,2.682.261,5.912-1.607,8.07-2.1,1.559-3.591-1.437-3.8-3.208.183,2.7-1.869,5.563-4.142,2.615a24.068,24.068,0,0,1-2.478-4.265c.9,7.195-.846,10.117-5.416,2.647-1.151-3.8-1.35-7.951-2.131-11.875a.661.661,0,0,1,.477-.1c5.014-2.375,9.953-5.015,15.409-6.261,4.426-1.127,3.392,9.687,3.685,12.376" transform="translate(-527.395 -1264.523)" fill="#231f20"/>
      <path id="패스_1007" data-name="패스 1007" d="M781.953,1625.75c-1.851-.419-.4-4.895-.57-6.389.371-5.825.982-11.632,1.323-17.46a79.809,79.809,0,0,0,.312-11.682c-1.71-1.166-3.953-1.639-5.756-2.76l.014.007-.369-.19,0,0-.093-.048.092.047-.115-.059.015.008-.129-.066.011.006c-8.19-3.5-8.14-13.593-4.327-20.414a64.951,64.951,0,0,1,4.483-7.389c1.86-2.432,3.508-5.117,3.176-8.3,0,.043,0,.086,0,.129.011-.771.016-1.543.032-2.314,0,.043,0,.085,0,.128,0-.062,0-.123,0-.184,0,.021,0,.041,0,.062,0-.042,0-.085,0-.128,0,.006,0,.012,0,.018,0-.088,0-.175,0-.263v.037c.129-.872-.25-2.016.368-2.721.451-.321,1.033.1,1.151.572.206,2.461.043,4.966,0,7.439-.24,3.527-3.077,6.124-4.777,9.037.021-.035.044-.068.065-.1-.125.194-.242.378-.366.574l.012-.019a43.09,43.09,0,0,0-3.3,5.868l.049-.112c-3.3,7.486-2.038,13.91,5.97,17.143,3.342,1.658,6.157,1.824,5.747,6.405-.124,10.456-1.461,20.852-2.214,31.271l0-.065c-.018.686.218,1.964-.821,1.916" transform="translate(-561.504 -1127.343)" fill="#231f20"/>
      <path id="패스_1008" data-name="패스 1008" d="M839.29,1261.844c-1.053-6.211-5.787-10.821-11.352-13.341-9.317-3.983-19.606-5.1-29.649-5.505.646-7.087.872-14.2,1.237-21.307-.23-1.168,1.08-5.422-.9-5.015a3.92,3.92,0,0,0-1.659-.249c.011-.122.024-.241.035-.36,1.012-2.163.6-5.047.964-7.454.148-4.17,1.065-8.639-.412-12.654a9.256,9.256,0,0,0,2.893-.151c-.4,7.225-1.255,14.685.652,21.775,1.263,3.776,4.617,11.712,9.4,7.186-.522,7.7,1.133,17.294,10.391,18.254,6.132-.742,7.753-9.953,6.312-14.946,4.74-6.057,5.543-16.12.422-22.165-2.552-2.68-6.436-2.123-9.685-2.839h0c-4.154-22.852-9.169-43.549-35.974-26.122-2.239-7.035-10.19-11.143-17.268-11.192-12.059.574-25.365,6.614-33.27,15.823a6.183,6.183,0,0,0-5.013-.541c-2.175.557-1.425,2.959-.1,4.041a10.476,10.476,0,0,0,5.562,2.417c.262,5.578,1.587,11,2.65,16.462,1.473,7.059,3.931,14.683,10.938,17.994,2.077,1.323,4.487,1.954,6.7,3,.9,6.367,1.3,12.778,1.608,19.2a.691.691,0,0,0-.474.577c-8.525-.1-17.554-1.109-25.637,2.168-4.645,2.76-6.3,8.312-8.307,13.006-2.893,6.881-4.99,14.03-7.307,21.109-1.112,4.437-5.384,14.294-4.017,18.156.47.019.636-.419.72-.807.833-2.853,1.548-5.737,2.314-8.607,4.547-12.618,7.606-25.922,14.006-37.788,4.271-7.364,20.76-4.693,28.458-5.448a433.206,433.206,0,0,1,3.868,51.984c-.24,1.052,1.03,2.141,1.651.882,1.046-1.818,1.995-3.7,3.132-5.47,2.371-3.287,3.748-7.141,5.933-10.54a66.662,66.662,0,0,0,3.906-6.65c-.472,3.314-1.011,6.626-1.494,9.936-1.008,10.372-2.8,20.944-1.384,31.346,4.577,25.422,24.275,15.276,37.049,2.417-2.681,13.423-3.277,27.133-5.021,40.694a13.758,13.758,0,0,0-.062,2.355c.142.657,1.087,1.093,1.486.392a17.02,17.02,0,0,0,.355-3.21c1.971-13.912,2.484-28.039,5.454-41.8a.711.711,0,0,0,.238-.828,2.362,2.362,0,0,0,.089-.311,169.413,169.413,0,0,0,15.444-19.929,80.161,80.161,0,0,0,9.535-15.8c2.717-6.4,6.584-12.922,5.587-20.146m-43.582-45.477c-2.674-.226-5.361-.323-8.022-.679.469-3.58,1.587-7.057,2.2-10.6a.686.686,0,0,0,.587-.468c.346-1.578-1.806-1.5-2.785-1.97-3.086-1.406-6.616-1.605-9.636-3.037,2.808-2.3,10.576,3.4,11.195,1.05.106-1.7-7.086-3.092-8.342-5.449a.785.785,0,0,1-.065-.162c3.278-.937,5.843,2.331,9.029,2.63,1.2.493,1.254-1.273.373-1.694-2.267-1.95-5.485-2.3-7.641-4.39a12.522,12.522,0,0,1,6.688,1.448c2.859,1.015,7.35,1.52,7.362,5.4.386,5.99-.734,11.981-.947,17.921m-60.461-16.548a2.768,2.768,0,0,1-.1-.389.767.767,0,0,0-.042.1c-.458-2.1-.884-4.2-1.213-6.328.927-.86,1.81-2.157,2.974-2.65,1.307-.325,5.108,2.1,5.384.531-.006-1.214-1.651-1.191-2.493-1.578-2.926-1.025-4.2-.695-6.136,1.721-.122-1.234-.217-2.471-.336-3.7l.119-.016a.541.541,0,0,0,.715-.254c3.6-.616,6.59-2.842,9.592-4.775.361,6.369,13.534-4.315,16.007-5.646,3,7.294,9.014,13.822,16.917,15.593.234.425.97.609,1.213.1,1.057.729,1.443-1.132,1.914-1.754a53.465,53.465,0,0,1,5.254-7.968,51.646,51.646,0,0,1,10.924,2.739c-1.044,2.305-2.062,4.615-2.931,6.994-1.99-.742-4.035-1.3-5.987-2.155-2.551-.834-8.926-1-4.78,2.9-3.444-.48-3.478,2.621-1.088,4.22-2.28-.46-6.5.968-3.673,3.587,3.249,1.848,7.162,2.373,10.683,3.618a103.583,103.583,0,0,0-2.257,10.729c-1.911-.712-1.654,1.86-2.017,3.058-.57,3.113-1.489,6.144-2.149,9.235-.453-1.664.861-15.159-1.624-13.563-.651.585-.16,1.626-.252,2.4.036,2.746.144,5.484.206,8.231.329,1.518-.387,6.235.809,6.832-2.865,13.59-5.4,27.247-8.139,40.862-2.638,3.585-4.453,7.785-6.962,11.492-2.065,4.213-4.456,8.205-6.877,12.218-.093-13.888-1.372-27.715-2.579-41.542-.331-2.837-.854-5.646-1.3-8.467.778-1.169-.1-2.948.049-4.317a144.542,144.542,0,0,0-1.538-17.417c-.752-1.719-4.686-2.233-6.338-3.262-8.478-3.574-10.453-13.182-11.952-21.379m102.443,65.828a29.688,29.688,0,0,1-3.781,11.295,81.509,81.509,0,0,1-11.151,19.669c-6.7,9.722-13.811,19.393-22.89,27.037-6.639,5.265-17.712,13.054-25.015,4.812-4.162-5.348-4.859-12.53-4.688-19.093,0,.032,0,.062-.005.095.005-.094,0-.191.008-.284,1.261-31.172,9.555-61.487,15.582-91.95a80.519,80.519,0,0,0,12.345,1.25c-1.7,26-2.99,52.036-4.452,78.054a1.023,1.023,0,0,0,.89,1.115c1.174-.188.551-1.908.75-2.747.995-16.641,2.015-33.278,2.848-49.927,12.814.757,41.286,2.609,39.56,20.673" transform="translate(-516.194 -850.228)" fill="#231f20"/>
      <path id="패스_1009" data-name="패스 1009" d="M812.685,1848.474c-.294.588-1.194.348-1.507-.113.5.034,1,.074,1.507.113" transform="translate(-591.621 -1348.074)" fill="#231f20"/>
      <path id="패스_1010" data-name="패스 1010" d="M811.269,1835.719c-1.669-.474-.34-3.412-.311-4.666v0c.165-1.044,1.5-.477,1.382.389a.955.955,0,0,1-.057,1.372c-.184.867.52,3.288-1.014,2.9" transform="translate(-591.075 -1335.04)" fill="#231f20"/>
      <path id="패스_1011" data-name="패스 1011" d="M545.659,1686.719c.134,4.3-3.336,3.5-6.418,3.54-6.535.145-13.054-.6-19.577-.9q-14.586-.99-29.123-2.358c-5.685.143-11.312-.734-16.96-1.175-15.015-.654-30.061-.258-45.09-.593-6.377-.073-12.867.685-19.19-.257-3.5-1.567-3.252-6.26-3.993-9.5-1.052-4.437-1.809-8.933-2.779-13.39a311.045,311.045,0,0,1-5.768-32.731c-.51-2.641-.565-5.343-1.083-7.982-.011-1.274-1.412-3.447-.049-4.157.21-3.063,6.443-1.087,8.58-1.362,10.949-.507,21.87.945,32.8,1.459,9.4.925,18.831,1.216,28.266,1.805,2.584.2,5.156.463,7.714.885,1.753.45,4.743-.281,5.508,1.765,2.729,9.082,3.39,18.724,4.837,28.089,1.147,9.515,3.037,18.914,4.6,28.363,6.563.345,13.167-.153,19.737.29,0,0,0,0,0,.005.317.451,1.21.7,1.5.108,8.928.581,17.813,1.674,26.717,2.525,2.948.481,6,.5,8.921.917,1.058,1.137.693,3.17.844,4.653" transform="translate(-288.112 -1178.224)" fill="#231f20"/>
      <path id="패스_1012" data-name="패스 1012" d="M973.919,1343.328c-.467-.308-.413-.852-.571-1.315-.45-.575-.1-1.725.743-1.357.885-.231,1.4,1.192.862,1.785.12.618-.4,1.325-1.035.887m1.037-.909c.036-.047.062-.1.095-.15h0l.009-.042a.658.658,0,0,1-.1.183s0,.006,0,.009" transform="translate(-709.752 -977.735)" fill="#231f20"/>
      <path id="패스_1013" data-name="패스 1013" d="M535.352,718.035c-.091,4.626-.182,10.012-3.6,13.533a6.012,6.012,0,0,1-9.259-1.015,18.265,18.265,0,0,1-3.83-7.438c-.668-1.775-.133-4.081-1.267-5.605-4.458-.775-5.68-2.882-6.279-7.2-1.318-6.6-1.482-13.3-1.892-19.986-1.7,3.323-6.233,4.129-7.746.208a60.272,60.272,0,0,1-2.157-8.315c-1.144-5.919-2.4-11.807-3.259-17.775a17.6,17.6,0,0,0-3.337,2.136c4.3,14.156-.378,28.877-3.137,42.8-.636,6.569-1.774,13.08-2.644,19.618-.432,1.134-.037,4.775-1.34,4.924-1.761-.378-.569-2.708-.493-3.9.49-3.079.772-6.2,1.3-9.27.6-3.965,1.03-7.95,1.548-11.928-1.189-.4-1.392-2.105-1.96-3.107-1.089-2.1-1.99-4.311-3.15-6.385-1.142-1.927-2.27-3.86-3.486-5.741-.613-.668-.09-2.035.9-1.686,3.169-1.486,4.416-3.627.463-5.178-2.023-.738-4.959-.1-6.445-1.786-2-3.072-3.531-6.441-5.364-9.615,0,0,0-.005,0-.008a53.661,53.661,0,0,0-8.285-10.77c-2.522.676-11.646,3.44-10.366-1.708a9.764,9.764,0,0,1-5.148.577c-2.967,6.943-3.948,14.593-4.994,22.027-.273.984.339,3.108-1,3.31-2.02,1.881-4.558,3.091-6.556,5a12.252,12.252,0,0,0,5.329-.251c.4-.1.894-.2,1.194.159a.864.864,0,0,1,.555.576c.849,5.712,1.8,12.5,7.519,15.452,2.46,1.622,5.816,2.241,7.922,4.209.909,7.491-.019,15.1.425,22.6a.736.736,0,0,1-1.451,0,55.929,55.929,0,0,1-.2-6.88c.057-4.961.073-9.92-.222-14.876-10.1-4.106-14.717-8.18-15.276-19.572-2.153.51-9.454,1.166-6.613-2.842,2.012-2,4.615-3.286,6.642-5.261.827-8.117,2.041-16.353,5.156-23.943-4.841-1.451-7.47-5.005-4.642-9.779,2.509-2.555,8.262-3.9,7.825,1.462,11.138-5.947,36.7-6.506,43.466,6.2,4.634-1.919,11.817-5.044,15.528.054,0,0,0,0,0,.005,1.74,3.736,2.3,7.962,2.91,12.009,15.186-6.026,14.942,16.356,15.975,25.886,9.606-4.942,10.885,13.1,10.74,19.068" transform="translate(-314.418 -474.618)" fill="#231f20"/>
      <path id="패스_1014" data-name="패스 1014" d="M487.033,729.527c-.918-1.548-2.558-2.463-4.044-3.391l.039.023c-1.817-1.449-3.941-.888-5.623.462l.012-.009a18.537,18.537,0,0,0-2.746,2.285h0a.614.614,0,0,1-.9-.217l0,.007c-.755-1.544,2.17-2.692,3.077-3.624,2.653-2.112,5.369-1.492,7.887.473,1.1.863,4.118,2.6,3.233,4.214a.651.651,0,0,1-.943-.223" transform="translate(-345.454 -527.851)" fill="#231f20"/>
      <path id="패스_1015" data-name="패스 1015" d="M148.029,801.76a.8.8,0,0,1,.476.288q-.57.049-1.14.079a.615.615,0,0,1,.664-.367" transform="translate(-107.479 -584.746)" fill="#231f20"/>
      <path id="패스_1016" data-name="패스 1016" d="M131.545,810.5c-1.851,12.579-4.631,25.065-5.316,37.785-.393,7.549-1.393,15.154-.162,22.676.068.583.433,1.517-.352,1.735a.782.782,0,0,1-.8-.563c-1.6-7.063-.729-14.4-.438-21.564.374-13.5,3.232-26.741,5.473-40.02.532-.015,1.069-.022,1.6-.049" transform="translate(-90.419 -591.126)" fill="#231f20"/>
      <path id="패스_1017" data-name="패스 1017" d="M210.831,1045.778c-14.612,1.17-29.829-1.172-44.584-2.1-9.095-.891-18.154-2.158-27.129-3.871a71.427,71.427,0,0,1-7.947-2.119,5.1,5.1,0,0,1-3.716-3.4c-1.352-1.991.334-3.172,1.283-.72,1.242,5.781,46.1,8.827,53.369,9.536,7.293.644,14.6,1.07,21.921,1.1,1.485.329,7.931-.937,6.8,1.567" transform="translate(-92.589 -752.815)" fill="#231f20"/>
      <path id="패스_1018" data-name="패스 1018" d="M430.242,1080.582a.87.87,0,0,1-.057.3c-.319.135-.631.273-.947.414-1.072-.667-.338-2.191-.509-3.224-10.514-5.054-12.036-7.858-5.935-18.012.634-2.8.445-5.739.853-8.58.215-.818-.153-2.953,1.183-2.618,1.042.78.138,2.469.284,3.595-.236,2.668-.061,5.4-.56,8.031-.983,3.032-3.593,5.4-3.79,8.707.569,3.772,5.259,5.472,8.244,7.17,1.879.413,1.122,2.818,1.234,4.217" transform="translate(-305.748 -764.946)" fill="#231f20"/>
      <path id="패스_1019" data-name="패스 1019" d="M210.455,852.718c-2.453,3.838-1.7-9.06-1.908-10.044-.811-12.083.154-24.212-.972-36.264.512.033,1.02.068,1.532.087a.758.758,0,0,1-.073.238c1.394,11.838.313,23.81,1.1,35.7,0-.046-.005-.089-.008-.135q.039,5.219.327,10.418" transform="translate(-151.392 -588.143)" fill="#231f20"/>
      <path id="패스_1020" data-name="패스 1020" d="M293.81,953.24a272.18,272.18,0,0,1-37.863,3.914h.022c-10.155.762-20.3,1.758-30.431,2.742-4-.109-10.062,1.169-13.452-1.037-.807-.285-.961-2.061.2-1.767.512.179.708.816,1.275.88,7.374,1.21,14.819-.3,22.2-.706,10.1-1.106,20.22-1.969,30.366-2.5,6.555-.169,13-1.338,19.482-2.206,2.193-.421,4.422-.5,6.631-.785,1.04-.578,2.485.331,1.573,1.464" transform="translate(-154.216 -694.033)" fill="#231f20"/>
      <path id="패스_1021" data-name="패스 1021" d="M688.166,1012.006c-1.637-.368-.915-3.7-1.453-5.043,0,0,0,.008,0,.012l-.025-.147.008.043-.019-.111c0,.015,0,.03.007.046-.008-.047-.015-.093-.023-.14l0,.024c-.026-.159-.054-.318-.081-.476l0,.026-.023-.14,0,.01a193.886,193.886,0,0,0-7.592-34.743l.006.019-.109-.369.042.14c-1.2-4.424-2.286-9.039-4.955-12.851l.082.106c-2.906-3.425-10.142-3.918-14.4-5.77q-13.185-4.036-26.256-8.477a1.149,1.149,0,0,1-.649-1.582c.72-.868,2.015.2,2.908.3,8.5,2.337,16.625,5.781,25.122,8.13,10.988,3.68,14.745,2.464,18.443,15.013l-.033-.111c.5,1.7.874,3.441,1.4,5.138l-.025-.084a248.334,248.334,0,0,1,6.909,28.434c.3,2.1.359,4.222.7,6.314-.011,1.275,1.643,6.081.009,6.288" transform="translate(-461.382 -687.212)" fill="#231f20"/>
      <path id="패스_1022" data-name="패스 1022" d="M727.962,1135.94c-2.1-7.7-3.714-15.8-5.133-23.727l.015.091c-.908-3.638-1-7.429-2.106-11.016-.773-2.758-1.22-5.6-2-8.356-.511-1.035-.058-2.819,1.18-1.5l-.064-.085h0c3.308,9.3,4.182,19.244,6.245,28.868.717,3.428,1.444,6.855,2.235,10.267-.013,1.17,2.255,6.773-.377,5.453" transform="translate(-524.052 -795.68)" fill="#231f20"/>
      <path id="패스_1023" data-name="패스 1023" d="M563.739,1251.906c.32,3.413-10.919,2.51-13.479,3.313-9.383.981-18.783,1.681-28.2,2.215-7.642.365-15.151,1.716-22.726,2.666-1.833.23-3.689.164-5.52.407-.764.133-1.876.287-2.066-.71-.5-1.889,4.739-1.168,5.938-1.514,6.019-.53,11.933-1.833,17.952-2.341l-.028,0c3.11-.263,6.214-.586,9.337-.672a.644.644,0,0,0,.977-.055c9.506-.416,18.974-1.418,28.445-2.331l-.113.01c2.56-.327,5.3-.043,7.72-1.044a.689.689,0,0,1,.612-.624l-.027.013a.849.849,0,0,1,1.177.663" transform="translate(-358.625 -912.508)" fill="#231f20"/>
      <path id="패스_1024" data-name="패스 1024" d="M443.635,1280.676c-2.6,1.032-5.668.345-8.434.688-4.351.157-7.307,4.151-9.655,7.4,2.091.733,6.039-5.148,6.94-2.358-.662,2.251-4.331,2.442-4.737,4.975,2.417.223,3.993-1.845,6.009-2.782.763-.238,1.3.945.728,1.437-1.556,1.269-4.033,2.065-4.415,4.258,2.538.652,4.724-1.217,7.026-1.96.934-.3,1.529,1.334.62,1.711-2.11.673-4.035,2.1-6.312,2.1-2.086.123-3.468-1.089-2.525-3.188-1.832.419-3.107-.833-2.339-2.636-7.515.72,3.44-9.826,5.876-10.215a.687.687,0,0,0,1.278-.319c3.117-.477,6.321-.167,9.449-.433.72-.229,1.217,1.033.49,1.321" transform="translate(-309.2 -933.058)" fill="#231f20"/>
      <path id="패스_1025" data-name="패스 1025" d="M497.332,1330.031a229.891,229.891,0,0,1-22.951-1.4l.109.009-.333-.03.109.01c-1.814-.335-3.843.2-5.558-.318-1.24-1.64,1.165-1.643,2.232-1.6,10.131.483,20.281,2.018,30.445,1.26l-.114.009.456-.037-.115.009c15.8-.866,31.621-.933,47.429-1.265,4.146-.095,8.417-.243,12.483-.491,1.681,1.494-1.076,1.951-2.214,1.9-20.637.919-41.325.966-61.978,1.937" transform="translate(-341.593 -967.24)" fill="#231f20"/>
      <path id="패스_1026" data-name="패스 1026" d="M507.68,1294.983c.1,1.242-1.477,1.1-1.548-.007-.1-2.094-.109-4.181-.4-6.263-.126-1.939-.609-3.838-.823-5.758a.737.737,0,0,1,1.411-.376s0,0,0,0h0a1.062,1.062,0,0,1,.217,1.005,48.56,48.56,0,0,1,1.138,11.4" transform="translate(-368.249 -935.097)" fill="#231f20"/>
      <path id="패스_1027" data-name="패스 1027" d="M576.251,1143.412c.087.2.173.406.258.609-.757.039-1.038-.942-.654-1.49.136.291.269.584.4.881" transform="translate(-419.867 -833.288)" fill="#231f20"/>
      <path id="패스_1028" data-name="패스 1028" d="M478.265,1346.52c-1.219-1.382-1.451-3.523-2.219-5.2-.9-2.908-2.356-5.649-3.2-8.553l0,.037a.784.784,0,1,1,1.518-.375l-.039-.091c.013.031.025.063.037.094v-.005c1.637,4.129,3.187,8.283,4.618,12.487.49.632.339,2.034-.717,1.608" transform="translate(-344.842 -971.315)" fill="#231f20"/>
      <path id="패스_1029" data-name="패스 1029" d="M493.677,1349.964c-.909-.073-1.214-1.659-.221-1.861a36.676,36.676,0,0,0,6.73-1.932c9.982-3.129,19.913-6.435,29.83-9.755.763-1.367,2.231,1.012.867,1.394l.01,0q-11.54,4.209-23.3,7.922c-4.7,1.138-9.118,3.649-13.92,4.235" transform="translate(-359.445 -974.388)" fill="#231f20"/>
      <path id="패스_1030" data-name="패스 1030" d="M521.372,1001.12c-1.742.908-2.786-7.6-3.457-8.913-2.312-8.678-4.228-17.474-6.136-26.252-.975-3.844-2.005-7.682-3.034-11.511-.284-.988-1.245-2.725.463-2.837.651-.111,1.064.908.611,1.323a223.774,223.774,0,0,1,5.513,21.992,1.063,1.063,0,0,0,.287,1.378c1.59,6.018,2.7,12.15,4.463,18.121.362,1.485.734,2.974,1.172,4.439.162.708.906,1.7.116,2.26" transform="translate(-370.662 -694.034)" fill="#231f20"/>
      <path id="패스_1031" data-name="패스 1031" d="M592.808,946.63c.426,2.847-.862,5.781-1.562,8.526-1.626,5.249-3.612,10.379-5.092,15.67-2.873,9.66-5.257,19.56-8.789,28.976l.013-.017c-.469,1.383-1.829,1.177-1.581-.275,1.313-2.119,1.65-4.669,2.443-7.013,2.128-6.826,4.025-13.705,5.922-20.6.433-.126.505-.734.309-1.084,1.819-7.3,4.861-14.239,6.5-21.587.268-.975.193-4.506,1.834-2.592" transform="translate(-419.928 -690.002)" fill="#231f20"/>
      <path id="패스_1032" data-name="패스 1032" d="M473.263,1098.09c-.916.887-1.426-.671-1.543-1.4-.583-1.79-1.213-3.569-1.93-5.311-3.44-9.238-5.934-18.774-9.988-27.786-.544.628-1.6.314-2.333.655.014-.005.03-.008.043-.014-.037.009-.068.018-.106.027h.008a264.425,264.425,0,0,0-36.22,13.081c3.531,7.92,6.332,16.1,9.2,24.271-.011-.027-.024-.054-.035-.081.456.8-.543,1.766-1.18.9-1.778-4.28-3.195-8.729-4.769-13.1-.151-1.9-7.026-13.961-4.239-13.644a251,251,0,0,1,36.191-13.135c1.213-.195.407-1.628.192-2.344-.438-1.464-.81-2.953-1.172-4.439-1.765-5.971-2.873-12.1-4.463-18.121a.989.989,0,0,1-.068-1.578,0,0,0,0,1,0,0c5.4-.122,10.906-.31,16.345-.26.862.122,1.752-.214,2.582-.046.8-.1,1.186,1.234.42,1.513-2.006,7.349-4.073,14.658-6.318,21.935-.488,1.546-.835,3.151-1.442,4.658-.579.647-1.149,2.134.168,2.249a192.538,192.538,0,0,1,6.783,19.431c1.013,3.042,2.129,6.052,3.17,9.084.245,1.1,1.129,2.351.7,3.462" transform="translate(-305.963 -755.38)" fill="#231f20"/>
      <path id="패스_1033" data-name="패스 1033" d="M117.973,742.406c-9.658-1.049-19.551-.8-29.267-1.667a3.516,3.516,0,0,0-.076-1.2c.723-1.078-.457-1.906-1.5-1.721-2.149-.145-4.3-.288-6.453-.4-10.415-.875-20.844-.061-31.27.027a.613.613,0,0,0-.352-.238c.265-1.263-.595-4.179-2.022-2.284a373.841,373.841,0,0,0-44.254-.755.652.652,0,0,0-.826-.016.924.924,0,1,0-.417,1.757,129.893,129.893,0,0,0,.7,18.015c.043,2.553,3.547,1.432,5.213,1.7,10.852-.126,21.679-.623,32.528-.964,2.222-.041,4.437-.255,6.656-.327.893.055,1.055-.969,1.137-1.654,9.511,1.669,19.192.436,28.785.59,3.086.227,6.191-.15,9.265.078,1.782-.077,1.3-2.736,1.776-3.976,7.132.59,14.358-.41,21.526-.135,2.556.129,5.131.221,7.679.135,1.02-.539.933-2.059,1.25-3.05.405-1.114.85-2.962-.078-3.908M41,752.244a.8.8,0,0,1,.476.29c-.379.033-.761.06-1.139.079a.615.615,0,0,1,.663-.368" transform="translate(-0.452 -535.23)" fill="#231f20"/>
      <path id="패스_1034" data-name="패스 1034" d="M147.834,799.034c-1.646.206-3.485-1.661-1.252-2.426,2.583-.941,4.2,1.231,2.249,1.638a.824.824,0,0,1-1,.788" transform="translate(-106.153 -580.824)" fill="#231f20"/>
      <path id="패스_1035" data-name="패스 1035" d="M185.852,720.978c.021,1.22-1.59,1.071-1.643-.043-.283-2.029.339-4.313-.823-6.133a15.758,15.758,0,0,0-2.141,4.964c-.2.6-.185,1.91-1.139,1.573-1.3-1.29.178-5.224-1.053-7.043-1.643,1.823-2.088,4.426-2.872,6.693-.111.379-.214.907-.668,1-2.382-.112.28-8.088-2.341-9.16l.03.008c-2.533.185-2.2,4.77-2.468,6.6a.65.65,0,0,1-.88.409c-1.346-1.091-.325-3.333-.184-4.8,1.5-6.667,6.61-4.012,6.3,1.665,1.111-3.953,4.213-6.459,5.029-.742,3.229-7.634,5.149,1.446,4.856,5.007" transform="translate(-123.378 -518.64)" fill="#231f20"/>
      <path id="패스_1036" data-name="패스 1036" d="M3.074,754.188a.911.911,0,0,1-1.605.666,3.287,3.287,0,0,1-.522-1.933c0,.054.005.111.011.165-.675-6.517-1.331-13.105-.7-19.656-.03-1.8,1.828-1.845,1.7-.011a108.624,108.624,0,0,0,1.121,20.768" transform="translate(0 -533.918)" fill="#231f20"/>
      <path id="패스_1037" data-name="패스 1037" d="M983.076,609.793c-.923-6.7-7.579-1.584-9.739,1.537-13.364-5.133-30.152-2-40.291,8.269-4.472-3.163-11-6.533-16.115-2.872-4.931,3.609-8.535,8.875-11.149,14.34-.447,1.669-2.129,1.581-3.532,1.84a11.89,11.89,0,0,0-4.233,1.594c-5.256,3.166-8.2,8.765-10.077,14.421a44.615,44.615,0,0,0-2.815,8.6.009.009,0,0,0,0,.008c-2.058,2.072-4.659,3.6-6.515,5.887a38.389,38.389,0,0,0-6.011,10.9c-2.591,5.682-5.005,11.468-5.521,17.766-.93,7.916,2.467,17.708,10.929,9.243,4.475-4.3,7.034-10.05,10.218-15.281a7.923,7.923,0,0,0,6.331-3.76c1.806-2.56,3.551-5.168,5.175-7.849a46.885,46.885,0,0,0,6.691-25.123c4.546-.054,6.5-4.686,8.337-8.128,2.81-5.159,5.186-10.537,8-15.691a23.1,23.1,0,0,1,1.3-2.623c1.852.544,3.753.913,5.627,1.37-6.867,11.3-4.065,25.4-.306,37.306.452,5.7,1.25,11.359,1.573,17.065.458,3.75.93,7.484,1.169,11.254.247,1.364,2.284,1.287,1.835-.319-1.23-11.288-2.193-22.6-3.345-33.9.91-1.518,8.3-5.674,4.347-6.826-2.055-.382-7.125-1.567-4.87-4.452,1.243-1.487,2.68-3.1,4.648-3.516,2.519,1.711,1.043-7.222.969-8.407,5.395.064,8.614-5.38,12.1-8.764,2.863,3.262,10.041-3.877,12.434-5.843.985,2.426,6.653-1.1,7.952-2.233a15.611,15.611,0,0,0,6.6,3.886c-.384.877.37,1.844.555,2.71.59,1.749,1.03,3.541,1.557,5.307,1.865,7.116,3.762,14.572,2.834,21.967a18.067,18.067,0,0,1-9.525,14.158c-3.18,2.406-7.224,1.185-6.856,3.364a163.7,163.7,0,0,1,1.258,20.974c.041.727-.16,1.64.509,2.141a.755.755,0,0,0,1.264-.455c-.28-7.438-.14-14.922-1.259-22.311,6.957-.642,12.9-6.231,15.287-12.624,3.6-11.6-.464-24.024-4.341-35.046,4.739.188,7.438-5.765,7-9.885" transform="translate(-632.279 -442.346)" fill="#231f20"/>
      <path id="패스_1038" data-name="패스 1038" d="M1225.825,675.47c-1.063-1.435,1.911-3.049,2.759-4.013,1.97-1.883,4.031-2.493,6.522-1.141a15.08,15.08,0,0,1,3.476,1.952c.766.707-.159,1.792-.938,1.021l.1.067c-1.9-.973-4.516-3.121-6.63-1.8l.02-.013a20.275,20.275,0,0,0-4.124,3.689.687.687,0,0,1-1.182.24" transform="translate(-893.872 -488.352)" fill="#231f20"/>
      <path id="패스_1039" data-name="패스 1039" d="M1143.57,686.915c-1.585-1,2.179-3.4,2.892-4.228,3.737-3.07,4.528-3.9,8.973-1.171,1.011.713,2.033,1.4,3.1,2.022.711.439.359,1.751-.548,1.344-2.312-1.146-4.227-3.107-6.843-3.613a29.445,29.445,0,0,0-5.992,4.863c-.422.409-.921,1.217-1.588.782" transform="translate(-833.764 -495.848)" fill="#231f20"/>
      <path id="패스_1040" data-name="패스 1040" d="M884.615,983.862c-1.511-.85.53-4.836.623-6.351.9-3.436,1.771-6.873,2.843-10.259l-.015.055c.011-.037.021-.074.032-.11l-.007.021c1.656-6.911,4.358-13.464,6.754-20.133,3.545-9.843,7.411-20.239,15.271-27.5,10.048-8.372,24.122-9.627,36.583-7.842.556.4.526,1.573-.305,1.547-2.224.012-4.451-.2-6.677-.277l.117,0c-10.975-.422-22.91,1.738-30.727,10.074l.049-.056c-9.154,11.156-13.017,25.51-17.907,38.839l.008-.031q-.015.055-.032.11l.006-.02c-.86,3.2-1.785,6.387-2.754,9.559.007-.027.015-.053.023-.08-.892,3.321-1.8,6.644-2.524,10.005-.312.781-.058,2.8-1.362,2.441" transform="translate(-644.776 -664.454)" fill="#231f20"/>
      <path id="패스_1041" data-name="패스 1041" d="M950.26,1092.042c-.989-1.682,3.3-7.669,4.1-9.677,2.321-4.594,5.029-8.964,7.461-13.5,5.979-11.75,9.293-18.034,8.226.436,0-.041,0-.082,0-.123.122,5-.513,9.948-.783,14.926-.311.944.45,3.327-.854,3.455a.986.986,0,0,1-.79-1.062c.177-5.843.975-11.66.879-17.517v.012c-.017-3.043.579-6.1.142-9.131-5.646,10.017-11.414,20-16.612,30.271l0-.007c-.453.657-.61,2.827-1.77,1.914" transform="translate(-692.951 -771.38)" fill="#231f20"/>
      <path id="패스_1042" data-name="패스 1042" d="M1013.751,1167.027c-1.268-.566-.391-2.352-.451-3.417.249-1.858.13-3.731.215-5.594.039-1.5,2.262-.567,1.423.528-.139,1.269.46,8.8-1.188,8.483" transform="translate(-738.861 -844.013)" fill="#231f20"/>
      <path id="패스_1043" data-name="패스 1043" d="M1073.945,1153.552c-.732-1.492,1.653-1.883,2.522-2.582l-.1.054c2.629-1.428,5.351-2.676,7.985-4.095l-.1.055c4.429-2.586,9.075-4.745,13.675-7l-.006,0c4.633-2.262,5.144-4.037,5.922-8.876.557-1.383.29-4.334,1.6-5.042l-.017.01c3.354-1.848,7.685-1.331,10.766-3.757-.053-.147-.061-.377-.248-.408l.05.018a24.737,24.737,0,0,0-5.965.338l.1-.013a17.391,17.391,0,0,1-2.975.332c-1.167-.492-.558-1.685.5-1.783l-.014,0c2.625-1.222,5.981-1.108,8.249-2.931h0v0c-.865-1.511-3.209-.363-4.617-.375l.1-.014c-1.674.06-3.4.951-5.035.663-.792-.527-.356-1.51.449-1.722,1.586-1.355,9.224-2.011,9-3.539-4.409.017-8.805,1.429-13.054,2.553l.036-.012c-1.968.245-2.031,2.041-2.368,3.637-.561,2.36-.887,4.772-1.441,7.132l.008-.026-.032.11.012-.041c-.5,2.678-2.678,3.374-5.012,3.937l.007,0c-4.074,1.461-8.332,2.309-12.463,3.595-4.21,1.073-8.307,2.749-12.641,3.252-.912.265-1.95-.979-.989-1.582a14.816,14.816,0,0,1,2.484-.327c7.179-1.856,14.264-4.078,21.423-6.012l-.006,0c1.585-.832,3.88-.619,5.051-2.034,1.543-3.472,1.478-7.5,2.7-11.118.743-3.01,10.243-3.706,13.158-4.51l-.1.013c1.339-.087,3.116-.7,4.138.462,1.3,1.61-.151,3.425-1.919,3.679,2.913.383,3.313,3.936.29,4.653,1.755-.264,3.311,2.019,2.082,3.421-3.073,2.578-7.438,2.214-10.985,3.752a90.979,90.979,0,0,1-2.054,9.846,9.8,9.8,0,0,1-3.888,3.55c-7.478,3.882-15,7.68-22.5,11.548l.1-.053c-1.164.3-2.891,2.57-3.885,1.232" transform="translate(-778.538 -810.452)" fill="#231f20"/>
      <path id="패스_1044" data-name="패스 1044" d="M1148.738,1196.988c-1.618-.43-.69-4.544-1.1-6a71.8,71.8,0,0,0-.758-7.738c.228-1.046,1.468-.506,1.579.325a39.373,39.373,0,0,1,.735,5.536c-.113,1.12,1.042,8.338-.459,7.874" transform="translate(-836.461 -862.567)" fill="#231f20"/>
      <path id="패스_1045" data-name="패스 1045" d="M1264.572,1049.382c-1.217,9.634-9.828,8.45-13.407,14.061a124.875,124.875,0,0,0-6.346,21.5c-.953,4.266-2.3,8.429-3.3,12.683-.364.775-.177,2.265-1.188,2.423-1.05-.1-.98-1.28-.658-2.028.754-2.824,1.376-5.685,2.179-8.5,2.17-8.774,3.75-17.723,6.994-26.2,1.852-4.916,8.1-5.766,11.522-9.251a8.251,8.251,0,0,0-.081-11.311c-6.441-5.462-4.541-11.593-3.927-18.982.383-1.178,1.727-.2,1.529.745-.12,3.921-.787,7.835-.111,11.742.506,1.784,2.044,3.005,3.191,4.385a13.563,13.563,0,0,1,3.608,8.729" transform="translate(-903.98 -746.286)" fill="#231f20"/>
      <path id="패스_1046" data-name="패스 1046" d="M1304.71,949.8c-1.013,1.063-2.653-1.126-3.611-1.589-3.406-2.44-7.041-4.53-10.315-7.157-9.855-7.071-19.362-14.785-29.974-20.716-4.8-2.663-9.736-5.3-15.192-6.3-2.356-.488-4.79-.466-7.165-.877-2.425-.145-5.03.1-7.151-1.326-.753-.367-.7-1.7.322-1.521a15.334,15.334,0,0,0,2.23.815c4.394.4,8.876.454,13.192,1.481l-.13-.033c8.861,2.275,16.692,7.374,24.187,12.44,11.1,7.391,21.386,15.914,32.52,23.261.5.355,1.407.771,1.085,1.524" transform="translate(-897.659 -663.915)" fill="#231f20"/>
      <path id="패스_1047" data-name="패스 1047" d="M1392.739,886.2c-.1.83-1.276.721-1.605.081-1.053-1.706-2.167-3.373-3.378-4.969-5.669-7.939-11.622-15.681-17.287-23.634-4.354-7.02-21.063-26.106-20.379-33.075.163-.567.141-1.482.858-1.594.972-.035,1.168.965.82,1.7-1.136,4.227,11.416,19.7,14.258,24.033,5.339,7.689,10.99,15.154,16.354,22.825,3.524,4.777,7.558,9.459,10.358,14.635" transform="translate(-984.653 -600.248)" fill="#231f20"/>
      <path id="패스_1048" data-name="패스 1048" d="M1372.932,793.8c-.576.923-1.2,1.811-1.786,2.723a0,0,0,0,1,0,0c-.827,1.464-1.86,2.826-2.574,4.347-.164.8-.7,1.778-1.594,1.077-1.917-1.636,6.141-9.435,5.462-11.787-2.852.1-4.908,2.7-7.327,3.925-3.655-.211,3.8-5.539,4.128-6.97-1.906-.247-5.04,3.3-6.748,4.033-3.314-.464,3.526-4.937,3.995-6.225-4.019.818-7.313,4.137-10.48,6.628a36.427,36.427,0,0,0-3.759,3.768c-.471.783-1.56,1.639-2.1.422.223-1.722,3.517-4.266,4.8-5.622a.689.689,0,0,0,.723-.636,39.389,39.389,0,0,1,4.214-3.218.631.631,0,0,0,.736-.5c1.961-1.168,4.426-3.164,6.775-1.955a1.316,1.316,0,0,1,.566,1.873c2.526-.393,3.789,1.684,1.778,3.527,3.829-1.979,5.578,1.629,3.194,4.585" transform="translate(-984.708 -571.39)" fill="#231f20"/>
      <path id="패스_1049" data-name="패스 1049" d="M1391.174,921.486c-5.057,18.868-39.541,3.657-51.681-.571a286.338,286.338,0,0,1-33.3-14.936c-1.35-.775-2.745-1.457-4.057-2.3-.642-.327-.806-1.494.1-1.578.991.073,1.689,1.04,2.62,1.362a303.893,303.893,0,0,0,52.625,21.973c10.332,2.817,30.473,9.168,32.48-6.71.543-12.577-9.4-21.943-17.54-30.239.005.008.011.013.016.022-6.6-7.159-13.752-13.805-20.906-20.405l.046.038c-.025-.019-.05-.045-.076-.065a160.782,160.782,0,0,1-16.064-15.921c-1.36-2.018-3.859-3.759-4.236-6.22.313-.816,1.572-.338,1.638.408,11.795,15.459,28.07,26.706,40.917,41.228,8.842,9,19.94,20.153,17.415,33.909" transform="translate(-949.307 -616.663)" fill="#231f20"/>
      <path id="패스_1050" data-name="패스 1050" d="M1379.717,862.794c-2.8-1.018,2.718-3.227,3.5-4.132,1.458-.645,5.523-4.944,6.758-3.524a.7.7,0,0,1-.152,1.1l0,0c-3.419,1.93-6.328,4.712-9.8,6.552h0a.8.8,0,0,1-.318.011" transform="translate(-1005.704 -623.474)" fill="#231f20"/>
      <path id="패스_1051" data-name="패스 1051" d="M1124.874,963.887c-.978,6.228-8.063-21.258-8.393-22.327-2.17-8.2-4.152-16.455-6.307-24.662-.067-1.121-2.492-5.836.05-4.774h0a.826.826,0,0,1,.439,1.222c2.157,6.837,3.451,13.893,5.4,20.782a1,1,0,0,0,.377,1.374,225.594,225.594,0,0,0,8.436,28.385" transform="translate(-808.881 -665.131)" fill="#231f20"/>
      <path id="패스_1052" data-name="패스 1052" d="M1183.832,911.265c-1.632,6.924-4.227,13.758-6.611,20.518q-3.4,11.156-7.595,22.03l.015-.05c-1.016,3.424-2.424,6.711-3.525,10.094-.07.4-.282.892-.762.876-.847-.009-1.432-1.423-.585-1.855,3.237-9.52,6.985-18.884,9.882-28.529a.8.8,0,0,0,.43-1.423c1.556-4.8,3.385-9.5,4.94-14.3.641-.956,2.211-11.278,3.811-7.358" transform="translate(-849.206 -663.972)" fill="#231f20"/>
      <path id="패스_1053" data-name="패스 1053" d="M1153.533,993.474a.764.764,0,0,1-.706.962c-2.855,9.379-6.387,18.54-9.657,27.768-3.541-8.995-5.912-18.4-8.231-27.774-.931-.483-.494-2.038.616-1.58a34.5,34.5,0,0,0,7.154.1l-.044,0a66.965,66.965,0,0,1,9.578-.015.876.876,0,0,1,1.289.531" transform="translate(-827.381 -724.059)" fill="#231f20"/>
      <path id="패스_1054" data-name="패스 1054" d="M1380.565,635.1c-.189,4.749.257,10.312-2.772,14.232-.314.587-1.061.365-1.6.33q-6.868-.32-13.744-.539c-11.851-.027-23.691-.677-35.541-.617v.008c.468.9,3.845,4.474,1.635,4.715a39.306,39.306,0,0,0-4.214,3.218c-.844,1.923-2.056-1-2.566-1.773-1.264-2.021-2.919-3.754-4.177-5.776-1.344-.131-2.734.54-4.03.2-3.557-2.642-3.894-7.619-5.879-11.314-1.5-1.177.751-2.2,1.586-2.907,3.359-2.705,7.079-4.893,10.515-7.5,14.144-9.766,29.417-17.628,44.4-25.979,1.166-1.856,6.925,3.747,7.584,5.053a49.856,49.856,0,0,1,8.8,28.644" transform="translate(-953.368 -438.352)" fill="#231f20"/>
      <path id="패스_1055" data-name="패스 1055" d="M855.572,212.237c.625.435.3,1.744-.557,1.37-2.077-1.088-4.4-2.362-6.815-2.037-2.163.866-3.6,2.866-5.278,4.4-.082.833-1.23.636-1.343-.087.043-1.517,1.966-2.379,2.825-3.523,2.887-3.728,7.824-2.593,11.168-.126" transform="translate(-613.793 -153.133)" fill="#231f20"/>
      <path id="패스_1056" data-name="패스 1056" d="M764.9,177.736c.081-1.477.12-2.956.2-4.431a.647.647,0,0,0,.387-.7c.5-.784.943-1.927,1.819-2.311,1.064-.085,2.586,1.94,3.286.647.175-1.2-1.46-1.513-2.276-1.968a2.116,2.116,0,0,0-2.939.934c.077-.749.158-1.5.227-2.247a23.43,23.43,0,0,0,5.4-4.867c.1,4.973,6.144-.961,7.592-2.4.834.079,1.63-1.227,2.282-1.735.734-.867,4.41,1.711,5.727,1.886,5.143,1.924,10.667,2.634,15.969,4.022-.02,2.682.19,5.361.043,8.041.032.925-.291,1.972.214,2.81,1.527,1.313,3.929,1.051,5.716,1.965,2.892,1.081,5.654,4.654.812,5.191a.678.678,0,0,0-.682.154c-.891.182-2.14.2-2.041,1.432a70.92,70.92,0,0,1-1.324,9.24c-.8,4.518-1.178,9.087-2.168,13.574,0,1.422-1.934,5.853-.576,6.434,1.5.679,1.4-4.239,1.9-5.221,1.281-6.262,2-12.611,3.112-18.9.88-1.554,1.238-3.4,2.011-5.026a.449.449,0,0,0,.141-.06c4.061-.325,4.936-3.844,2.041-6.45a38.369,38.369,0,0,0,2.422-16.727c8.814-6.228,2.149,9.7,12.4,11.519,7.6,2.032,14.825-1.845,21.672-4.644.874,2.48,1.124,5.2,2.328,7.549,5.02,6.535,13.448.772,19.022-1.992.85-.335,1.734-1.215,2.6-.547a12.03,12.03,0,0,0,7.6.85c9.424-2.925,21.538-9.272,21.447-20.554-1.565-9.408-11.564-2.491-16.1.555,2.1-8.621-10.686-2.5-14.077-.552-.708-5.275-6.564-6.271-10.981-6.4-3.794.05-7.294,1.821-10.759,3.18a77.482,77.482,0,0,0-10.434,5.018c-2.714,1.21-6.585,5.159-9.508,2.956-4.642-8.459-11.282-8.478-17.85-2.009-4.676-4.976-11.728-6.106-18.275-6.109-10.552-.25-20.141,4.425-29.221,9.254-.03-5.91-2.291-6.062-5.746-1.754-4.586,5.411-.879,11.257,5.735,11.048-.612,5.581-.932,11.2-1.145,16.811-.719,8.451,2.259,16.743,11.926,17.041.075,5.275-.787,10.514-.858,15.793-.028,1.263-1.29,4.464,1.075,3.965.932-1.051.488-2.805.714-4.125.153-3.052.293-6.117.625-9.157.018-2.273,1-6.3-.535-8.06-5.651-.836-9.795-2.163-10.992-8.466a.069.069,0,0,0,.005.019c-.773-4.418-.277-8.981-.027-13.436.073.187-.089-1.16.07-1.045" transform="translate(-551.572 -107.073)" fill="#231f20"/>
      <path id="패스_1057" data-name="패스 1057" d="M655.706,474.746c-1.5-.591.106-2.387.382-3.368,1.07-2.314,2.179-4.611,3.128-6.979,3.777-8.182,6.992-16.612,10.838-24.759l0,.006c4.942-14.235,17.074-17.583,29.558-23.087.918-.324,1.553,1.3.653,1.684-13.676,5.885-23.893,8.217-29.462,23.544l.049-.1c-3.123,6.854-5.8,13.909-9.026,20.718l.048-.1c-1.655,3.693-3.272,7.4-5.012,11.055-.262.5-.435,1.454-1.152,1.381" transform="translate(-477.771 -303.779)" fill="#231f20"/>
      <path id="패스_1058" data-name="패스 1058" d="M751.613,559.906c-1.357-1.033,1.158-3.684,1.422-5.04a57.131,57.131,0,0,0,3.477-8.944c1.349-4.654.37-9.577.823-14.347-.1-4.041.94-8.316-.176-12.241-1.836-1.79-4.8-1.731-6.787-3.378-6.57-5.073-1.968-14.132,1.945-19.446,1.756-1.94.106-4.8,1.215-6.886.833-.711,2.054.43,1.1,1.143.012,2.824.418,5.766-1.782,7.97l.041-.059c-.021.03-.042.061-.063.091l.015-.021c-2.646,4.2-6.583,10.657-2.484,15.1,1.767,1.826,4.44,2.029,6.549,3.276,3.865,2.469,1.978,8.157,2.237,12.016-.495,10.153.756,16.027-4.209,25.611l.031-.063q-.22.446-.441.89l.035-.07c-.7.85-1.663,5.221-2.943,4.4" transform="translate(-544.861 -356.936)" fill="#231f20"/>
      <path id="패스_1059" data-name="패스 1059" d="M699.121,613.373a1.056,1.056,0,0,1-.084-1.518l-.064.094a243.18,243.18,0,0,0,16.761-27.569c.547-1.125,2.08.094,1.332.96a138.672,138.672,0,0,1-9.387,16.575c-1.571,2.769-3.422,5.361-5.122,8.05-.823.832-2.118,4.283-3.436,3.408" transform="translate(-509.626 -425.878)" fill="#231f20"/>
      <path id="패스_1060" data-name="패스 1060" d="M507.3,436.2c.691,6.156-17.794-19.424-18.93-20.6-8.291-10.622-15.97-21.7-23.868-32.613-2.128-2.984-4.176-6.022-6.193-9.082-1.957-2.536-3.295-5.844-6.085-7.571-.712-.218-2.032-.952-1.089-1.717.811-.21,1.676.5,2.386.847,2.559,1.753,3.976,4.7,5.8,7.133,3.338,4.967,6.77,9.87,10.215,14.762,12.3,16.476,23.624,33.869,37.766,48.844" transform="translate(-328.789 -265.898)" fill="#231f20"/>
      <path id="패스_1061" data-name="패스 1061" d="M437.835,387.518c-1.616-2.4-2.93-8.01,1.9-6.12-1.432-3.029-.487-8.021,3.711-5.46-.745-2.8-5.266-8.549-3.576-11.033.736-.532,2.269-.626,2.392.542v0a.644.644,0,0,1-.1.386l0-.007c-.249.421-.783.162-1.151.366-.374,3.074,9.791,15.745.856,10.714-2.179.122-.727,3.7-.418,5.067.475,2.337-2.352.486-3.474.645a6.263,6.263,0,0,0,.3,2.363c-.009-.038-.019-.076-.028-.113a5.584,5.584,0,0,0,.942,1.984c.642,1.02-.846,1.609-1.361.667" transform="translate(-318.255 -265.864)" fill="#231f20"/>
      <path id="패스_1062" data-name="패스 1062" d="M471.1,500.431c-9.653-15.083-17.041-31.524-25.035-47.507a86.563,86.563,0,0,0-5.172-9.376c-.387-1.125-3.756-3.985-1.728-4.563l-.067,0c.576-.208,1.312.351,1.066.968,4.056,5.167,6.815,11.185,9.577,17.1,4.393,8.075,8.142,16.5,12.5,24.609,2.582,4.852,5.1,9.749,8.06,14.387.464,1.174,3.282,3.75,2,4.728a1.029,1.029,0,0,1-1.2-.349" transform="translate(-319.828 -320.138)" fill="#231f20"/>
      <path id="패스_1063" data-name="패스 1063" d="M468.611,458.158c-.94-.549-.428-1.487.319-1.917,2.775-2.318,4.934-5.258,7.693-7.589,1.095-.548,2.242-2.986,3.532-1.952a.889.889,0,0,1,.15,1.226c-2.613,1.555-10.016,11.108-11.694,10.232" transform="translate(-341.403 -325.609)" fill="#231f20"/>
      <path id="패스_1064" data-name="패스 1064" d="M991.159,523.166c-.518,1.777-1.854.107-1.74-1.061-.461-3.984-1.141-7.946-1.413-11.95-.357-7.6-.2-15.229.013-22.831.138-1.676-.257-3.505.4-5.086.448-.647,1.315-.146,1.389.522a15.937,15.937,0,0,0-.125,1.914c0-.03,0-.057,0-.087-.152,12.891-.654,25.807,1.478,38.578" transform="translate(-720.433 -351.494)" fill="#231f20"/>
      <path id="패스_1065" data-name="패스 1065" d="M852.912,387.509c-2.647,2.909-4.594,6.358-7.078,9.4a202.423,202.423,0,0,0-14.594,18.765c-1.5,2.181-2.852,4.454-4.258,6.694-.485.935-1.643,2.676-2.282.8-.487-3.406-.5-6.864-.909-10.283-.247-5.949-1.063-11.977-.52-17.91.161-1.829,2.207-.722,1.394.536-.382,2.7.181,5.41.184,8.117a.91.91,0,0,0,0,1.564c.221,5.3.784,10.586,1.037,15.888A215.347,215.347,0,0,1,838.3,403.134a.871.871,0,0,0,.782-1.042,113.765,113.765,0,0,0,8.626-10.61c1.068-1.211,3.31-5.579,4.818-5.479a.98.98,0,0,1,.39,1.505" transform="translate(-600.307 -281.524)" fill="#231f20"/>
      <path id="패스_1066" data-name="패스 1066" d="M999.306,397.557c-.613,1.569-2.584-.361-3.651-.535-2.775-1.21-5.661-2.145-8.423-3.387-13.282-5.873-25.515-15.088-40.091-17.4-4.627-.9-9.232.5-13.72,1.554a53.487,53.487,0,0,1-6.315,1.73c-.568.379-1.291-.224-1.2-.861.113-.972,1.42-.817,2.125-1.1,2.458-.568,4.79-1.592,7.273-2.063,2.363-.435,4.684-1.125,7.07-1.421,3.541-.213,7.061.519,10.537,1.015,10.715,3.7,20.53,9.4,30.48,14.749,3.653,1.773,7.42,3.283,11.2,4.747,1.311.879,4.81,1.141,4.715,2.969" transform="translate(-675.289 -272.799)" fill="#231f20"/>
      <path id="패스_1067" data-name="패스 1067" d="M1225.156,291.392c-6.642,7.823-13.378,15.71-19.071,24.322-4.6,6.493-7.872,13.813-12.589,20.216-.751,1.329-2.3-.149-1.337-1.156,3.713-5.011,6.423-10.63,9.809-15.853a195.638,195.638,0,0,1,15.306-20.876c1.774-2.044,3.522-4.1,5.2-6.223.654-1,2.465-2.67,2.685-.43" transform="translate(-869.26 -211.711)" fill="#231f20"/>
      <path id="패스_1068" data-name="패스 1068" d="M1278.067,270.425c-5.325,3.682-13.47,3.138-16.781,9.576-4.074,6.206-7.194,12.963-11,19.328-3.563,7-6.694,14.214-10.385,21.163.019-.035.035-.07.054-.108-1.889,4.2-4.165,8.212-6.141,12.372-.959,1.615-5.113,11.7-7.1,9.982-.9-.944.337-1.9.855-2.683a28.505,28.505,0,0,0,3.045-5.01c3.752-7.721,7.681-15.346,11.457-23.053,3.173-6.059,5.56-12.492,9.308-18.246,3.367-5.551,5.893-11.637,9.976-16.741,3.769-4.731,10.513-4.775,15.449-7.681-3.242-.21-6.541,1.794-9.679,1.183-1.233-1.268.907-1.693,1.813-1.971a67.325,67.325,0,0,0,6.88-2.263.009.009,0,0,0-.005,0c-1.5-1.259-14.121,5.017-11.593.733,2.629-.976,5.42-1.616,7.836-3.1-5.96,1.358-18.823,3.689-22.622,8.149-.854.917-1.776-.873-.914-1.491a17.286,17.286,0,0,1,8.168-4.442c1.476-.537,22.285-6.937,17.011-1.4,1.848-.825,5.119,1.442,2.807,3.031,1.421-.159,2.8,1.541,1.562,2.669" transform="translate(-894.45 -191.44)" fill="#231f20"/>
      <path id="패스_1069" data-name="패스 1069" d="M1054.107,501.8a1.321,1.321,0,0,1-.687.56,8.285,8.285,0,0,1-4.6.853,36.488,36.488,0,0,1-11.089-1.448c-10.175-1.947-19.732-5.956-29.243-9.928-3.592-1.29-7.1-2.794-10.656-4.182-3.161-1.494-6.781-2.274-9.63-4.314-1.055-1.015.973-1.923,1.321-.682,8.078,3.583,16.487,6.406,24.628,9.852a132.606,132.606,0,0,0,29.608,8.975,37.19,37.19,0,0,0,7.335-.1c.648-.136,1.1-.677,1.711-.877.735-.27,1.748.514,1.3,1.288" transform="translate(-720.512 -351.583)" fill="#231f20"/>
      <path id="패스_1070" data-name="패스 1070" d="M1316.7,304.132c-1.684-1.167-13.4-6.009-11.8-8.087,1.048-.752,2.593,1.25,3.633,1.631,1.483.838,2.966,1.681,4.474,2.476,1.19.907,5.089,1.862,4.795,3.566a.716.716,0,0,1-1.1.414" transform="translate(-951.601 -215.793)" fill="#231f20"/>
      <path id="패스_1071" data-name="패스 1071" d="M1360.01,65.233c-.464-5.051-3.943-9.039-7.7-12.12-7.992-6.77-20.788-6.479-29.326-.812-14.341,10.909-12.808,30.912,4.88,37.117a1.035,1.035,0,0,0,.2.744c.132,2.811-.921,5.649-.019,8.4.76,3.619,5.489,4.263,8.334,2.745,3.1-1.65,4.275-8.654,4.653-11.974,9.469-4.917,20.146-11.99,18.982-24.1m-1.667,1.962c-.464,9.9-9.622,15.99-17.669,19.972a.746.746,0,0,0-1.175.265c-3.3.3-6.6.695-9.9,1.091a1.028,1.028,0,0,0-.836-.7c-7.656-2.761-14.7-10.094-13.69-18.725a21.713,21.713,0,0,1,11.489-16.76c7.688-3.66,18.09-3.579,24.747,2.13,3.791,3.174,7.529,7.416,7.029,12.722" transform="translate(-957.828 -35.038)" fill="#231f20"/>
      <path id="패스_1072" data-name="패스 1072" d="M1383.981,114.1c-1.626-.411.073-4.958-.036-6.362.354-5.083,2.221-10.076,2.212-15.132a1.116,1.116,0,0,0-.527.346l.07-.072c-.941.921-.471,2.815-1.588,3.479-1.326-.09-.735-2.1-1.287-2.977-.588.859-.148,4.694-1.794,3.731-.714-1.265-.8-3-2.012-3.989-1.351,2.082.024,4.651.264,6.878.183,2.174-.006,4.363.066,6.545-.018,1.774-.105,3.547-.083,5.322.016.751.565,2.438-.791,2.068-1.088-.987-.551-2.856-.7-4.189.095-2.907-.036-5.812.03-8.717-.176-2.249-1.1-4.428-.816-6.716.427-3.515,2.853-3.72,4.23-.526.213-2.058,1.916-3.86,2.842-1,1.712-3.648,4.209-1.273,3.582,1.866-1.033,6.091-2.162,12.172-2.821,18.324,0,0,0-.008,0-.012,0,.512-.2,1.224-.842,1.134" transform="translate(-1004.245 -66.331)" fill="#231f20"/>
      <path id="패스_1073" data-name="패스 1073" d="M1248.375,113.91c-.09,1.158-1.574.568-2.341.65-1.6-.236-4.413.094-5-1.792-.032-1.7,2.6-.348,3.622-.45,1.1.431,3.575.107,3.719,1.592" transform="translate(-905.13 -81.614)" fill="#231f20"/>
      <path id="패스_1074" data-name="패스 1074" d="M1289.308,39.565c-.275,1.541-5.31-1.981-6.02-2.563-.857-.875.095-2.168,1.145-1.38,1.182.838,5.072,2.394,4.875,3.943" transform="translate(-935.705 -25.802)" fill="#231f20"/>
      <path id="패스_1075" data-name="패스 1075" d="M1392.633,4.463a.775.775,0,0,1-.836-.579c-.156-1.166-1.327-2.808-.347-3.792,1.129-.5,1.416,1.13,1.513,1.919,0,.764.66,2.093-.33,2.452" transform="translate(-1014.551 0.001)" fill="#231f20"/>
      <path id="패스_1076" data-name="패스 1076" d="M1506.013,32.936a36.96,36.96,0,0,1-3.389,4.163.7.7,0,0,1-1.08-.054c-.873-1.485,1.709-3.124,2.365-4.4.392-.417.684-1.093,1.308-1.175a1.037,1.037,0,0,1,.8,1.467" transform="translate(-1094.999 -22.951)" fill="#231f20"/>
      <path id="패스_1077" data-name="패스 1077" d="M1536.128,127.62c-.2,1.1-1.59.92-2.425,1.175-1.036-.019-2.777,1.1-3.356-.14-.4-1.479,1.782-1.334,2.685-1.768,1.086-.3,3.259-1.223,3.1.734" transform="translate(-1116.101 -92.192)" fill="#231f20"/>
      <path id="패스_1078" data-name="패스 1078" d="M1488.276,204.475a.635.635,0,0,1-.731.571l.035.008a6.467,6.467,0,0,1-3.3-1.941c-.905-.717-.058-2.573,1.026-1.665.409.384.831.752,1.261,1.11.555.632,1.827.918,1.705,1.916" transform="translate(-1082.262 -146.745)" fill="#231f20"/>
      <path id="패스_1079" data-name="패스 1079" d="M1303.715,213.209a44.428,44.428,0,0,1-4.171,5.013.719.719,0,0,1-1.118-.057c-.907-1.511,1.47-2.691,2.149-3.876.826-.588,1.87-3.077,2.991-2.1a1,1,0,0,1,.149,1.023" transform="translate(-946.839 -154.591)" fill="#231f20"/>
      <path id="패스_1080" data-name="패스 1080" d="M842.6,443.68a.871.871,0,0,1-.784,1.043A216.31,216.31,0,0,0,829.4,462.669c-.249-5.3-.818-10.588-1.035-15.887-2.411-2.185,5.545-2.758,6.756-3.034,1.189-.058,7.445-1.55,7.475-.067" transform="translate(-603.828 -323.114)" fill="#231f20"/>
      <path id="패스_1081" data-name="패스 1081" d="M378.555,192.266a1.062,1.062,0,0,1-1.7,1.266c-1.567.983-3.815.733-5.592,1.377-4.043.8-8,2.039-12.073,2.647-3.674.979-3.624-1.583-4.2-4.376-.606-4.017-1.722-7.965-2.164-11.99.54-2.868,7.81-1.623,9.945-1.189,6.825,1.026,14.336,4.947,15.784,12.265" transform="translate(-257.328 -130.812)" fill="#231f20"/>
      <path id="패스_1082" data-name="패스 1082" d="M702.6,169.164c.619,12.417-1.418,24.831-1.929,37.238-.192,3.1-.273,6.2-.536,9.3.015,2.086-.449,3.512-2.878,3.094-1.454-.244-4.359.15-3.7-2.183,0,.017-.008.036-.012.054,1.287-14.3,1.794-28.678,3.547-42.944.065-1.361.348-2.7.356-4.059.156-.959-.282-2.48.839-2.923,1.37.018,4.7.486,4.31,2.422" transform="translate(-505.77 -121.611)" fill="#231f20"/>
      <path id="패스_1083" data-name="패스 1083" d="M565.481,268.891a.84.84,0,0,1-.109.746c.065,4.611.106,9.216.04,13.827,0-.018,0-.037,0-.054.117,2.859-.038,5.716-.177,8.572-.276,1.167.528,3.58-1.247,3.611-2.706-.6-5.957,1.264-5.371-2.958.28-6.509-.018-13.021.087-19.539-.029-5.558.189-5.272,5.64-5.154.623-.331,1.114.383,1.14.949" transform="translate(-407.367 -195.358)" fill="#231f20"/>
      <path id="패스_1084" data-name="패스 1084" d="M612.12,234.52c-.679,11.112-1.691,22.209-3.117,33.251-.277,2.222-3.346.706-4.82,1.111a1.262,1.262,0,0,1-1.852-1.37,210.638,210.638,0,0,1,2.078-25.891c0,.029-.007.06-.01.09.408-1.915.245-7.307,1.789-8.287a29.456,29.456,0,0,1,4.733-.88c1.143-.123,1.237,1.118,1.2,1.976" transform="translate(-439.295 -169.596)" fill="#231f20"/>
      <path id="패스_1085" data-name="패스 1085" d="M661.082,203.7a17.546,17.546,0,0,0-.038,1.807.037.037,0,0,0,0-.009c-.117,9.188-1.7,18.334-2.134,27.527-.409,1.908.341,9.973-.928,10.362-1.743.512-3.2,1.914-5,2.344-1.754-.346-.432-3.327-.636-4.606.327-3.144.379-6.308.621-9.457,1.088-9.39.767-19.2,2.738-28.368-.137-1.95,5.514-1.489,5.374.4" transform="translate(-475.572 -147.356)" fill="#231f20"/>
      <path id="패스_1086" data-name="패스 1086" d="M564.505,405.96c-1.24-3.26-1.869-6.723-3.178-9.962a1.369,1.369,0,0,1-.062-1.584c1.936-1.719,3.293,6.4,3.861,7.638l-.019-.073c.189.7.4,1.384.6,2.074,2.379-3.492,4.822-6.936,7.389-10.291,1.378-3.168,6.642,4.257,8.111,5.312,1.657-5.048,4.547-9.427,7.223-13.964,1.477-4.186,4.25,1.2,5.235,2.966l-.037-.066.155.279-.078-.141c.892,1.453,2.131,2.665,2.81,4.258,1.949-4.327,4.877-8.143,7.213-12.27-1.047-.425-1.54-2.159-.171-2.48,1.1-.289,1.972-1.23,3.056-1.421,1.668.638.459,2.925.473,4.228a1.1,1.1,0,0,1-1.97.971c-2.03,3.3-4.02,6.624-6.115,9.884l.008-.015a33.586,33.586,0,0,0-1.748,4.025c-.565.716-1.446.086-1.568-.648a20.7,20.7,0,0,0-3.2-4.8A25.1,25.1,0,0,0,590,385.821c-1.554,3.047-3.533,5.838-5.14,8.851l.017-.034a22.048,22.048,0,0,0-1.348,3.173l.043-.119c-.593.943-.9,3.948-2.268,3.709-2.527-1.86-4.487-4.461-7.058-6.306-1.643,2.372-3.423,4.642-5.052,7.025l.028-.04-.069.1.024-.033-.087.121.013-.018c-1.148.909-3.284,7.015-4.6,3.712" transform="translate(-409.182 -274.4)" fill="#231f20"/>
      <path id="패스_1087" data-name="패스 1087" d="M325.662,219.346c.47,4.558-1.668,8.93-3.968,12.732-2.789,4.688-8,7.784-13.252,8.951-8.213,1.079-17.8-1.253-22.951-8.146-7.412-7.96-4.911-22.444,3.6-28.684,1.423-.911,4.866-4.165,6.446-3.112,1.753,3.156,2.866,6.783,4.221,10.161l-.025-.061c.849,2.072,1.581,4.191,2.447,6.257,6.828-.863,13.6-2.209,20.452-2.89,3.793-1,2.554,2.431,3.032,4.792" transform="translate(-205.019 -146.509)" fill="#231f20"/>
      <path id="패스_1088" data-name="패스 1088" d="M328.663,435.911c-10.362-2.22-7.243-14.822,2.15-15.378,1.106-1.222,5.378,1.041,6.338,2.063,3.957,6.215-1.212,14.093-8.489,13.315m1.319-1.945a6.64,6.64,0,0,0,6.24-8.909.8.8,0,0,1-.992-.843c-8.734-5.557-17.546,8.528-5.249,9.752" transform="translate(-234.992 -306.452)" fill="#231f20"/>
      <path id="패스_1089" data-name="패스 1089" d="M330.918,434.727c-11.563-.871-7.045-16.444,1.445-14.923,1.568.311,4.215.76,4.138,2.808,5.768,3.58.4,13.095-5.582,12.116m1.339-3.045c5.836-1.681,4.382-7.967-1.645-7.248a3.75,3.75,0,0,0,1.645,7.248" transform="translate(-236.275 -306.101)" fill="#231f20"/>
      <path id="패스_1090" data-name="패스 1090" d="M337.411,524.523c-12.08-1.716-8.924-16.834,2.6-15.338,4.126.582,6.285,5.194,4.728,8.91-.945,3.3-3.383,7.139-7.327,6.428m1.285-5.4c1.808-.3,2.139-2.634,2.383-4.14-4.525-3.93-9.779,4.333-2.383,4.14m2.967-6.676c0-.016.008-.032.012-.048q-.1-.071-.212-.139.1.091.2.186" transform="translate(-240.483 -371.29)" fill="#231f20"/>
      <path id="패스_1091" data-name="패스 1091" d="M211.387,279.548c-1.768.229-1.466-7.331-1.919-8.766q-.931-8.317-1.724-16.649a616.016,616.016,0,0,1-2.839-62.605c-.206-12,.407-23.987.7-35.979.084-2.13.2-4.263.184-6.4.076-1.073-.364-2.3.222-3.267.592-.692,1.652.162,1.375.945,0,0,0,0,.005,0a1.225,1.225,0,0,1-.092.2c.346,11.087-.408,22.187-.66,33.273.029,13.694-.193,27.392.376,41.079.663,14.042,1.688,28.052,3.227,42.032.342,4.167.867,8.315,1.34,12.467-.039,1.156,1.038,2.983-.192,3.673" transform="translate(-149.415 -106.212)" fill="#231f20"/>
      <path id="패스_1092" data-name="패스 1092" d="M309.154,628.468c-.631.889-2.036.21-2.966.5-3.568.2-7.136.209-10.7.509-12.42.579-24.866.7-37.292,1.245-5.772.2-11.545.392-17.306.8-4.386.2-9.133,1.262-13.244-.761-.761-.333-.718-1.834.263-1.762a18.276,18.276,0,0,0,1.9.674c6.343.961,12.792-.536,19.166-.636,9.588-.367,19.176-.65,28.766-.939,7.562-.4,15.126-.408,22.682-.951,2.258-.1,4.513-.1,6.767-.268,1.112-.367,2.6.181,1.962,1.586" transform="translate(-165.646 -457.126)" fill="#231f20"/>
      <path id="패스_1093" data-name="패스 1093" d="M523.168,627.947c-.962-.461-.463-2.472.726-2.091,1.1.5,3.061-.511,3.468.948.214,1.935-2.451.85-3.554.82a.516.516,0,0,1-.64.323" transform="translate(-381.195 -456.424)" fill="#231f20"/>
      <path id="패스_1094" data-name="패스 1094" d="M392.847,98.6c.06.612-.237,1.543-1.02,1.269-1.206-.568-.384-4.931-.688-6.363-.306-6.06-1.018-12.123-1.566-18.157-8.84-1.885-18.551-1.277-27.687-.877-7.8.215-15.591.628-23.385,1.021-25.893,1.552-51.51,5.639-77.175,9.227-11.612,1.681-23.317,2.633-34.821,5.013-5.869,1.109-12.225,1.127-17.485,4.241-.488.229-.762.876-1.345.59,0,0,0,0,0,.005a.589.589,0,0,1-.173-.13,1,1,0,0,1-.041-1.4,0,0,0,0,1,0,0c5.846-4.36,13.768-3.87,20.627-5.384,10.69-2.218,21.586-3,32.372-4.582,23.594-3.184,47.1-7.143,70.871-8.778,9.695-.8,19.429-1.17,29.151-1.483a149.993,149.993,0,0,1,28.387.533c3.573.26,2.2,6.626,2.853,9.148a109.139,109.139,0,0,1,1.12,16.107" transform="translate(-151.117 -52.801)" fill="#231f20"/>
      <path id="패스_1095" data-name="패스 1095" d="M742.828,628.052c-5.692.43-5.076-3.594-1.681-1.8,3.674.239,7.33-.453,11-.588.935-.014,1.135,1.691.143,1.766-3.16.088-6.3.67-9.461.623" transform="translate(-538.663 -456.318)" fill="#231f20"/>
      <path id="패스_1096" data-name="패스 1096" d="M525,673.114c-.593-.076-.619-1.184.045-1.136a12.815,12.815,0,0,0,5-.736c2.955,1.227-4.214,2.185-5.044,1.872" transform="translate(-382.576 -489.56)" fill="#fff"/>
      <path id="패스_1097" data-name="패스 1097" d="M537.086,679.717c-.759.15-1.22-1.084-.338-1.164a7.62,7.62,0,0,0,1.552.005h-.008a15.669,15.669,0,0,0,2.748-.57l-.006,0,.414-.123-.067.019c.662-.03,1.612-1.026,2.077-.275a.581.581,0,0,1-.158.739,13.578,13.578,0,0,1-6.213,1.366" transform="translate(-391.118 -494.002)" fill="#fff"/>
      <path id="패스_1098" data-name="패스 1098" d="M563.2,689.277c-.467-.011-1.169-.045-1.131-.674.01-.242.191-.5.46-.459l-.06,0a9.662,9.662,0,0,0,5.912-1.373.442.442,0,0,1,.6.183c.435,1.835-4.451,2.329-5.777,2.326" transform="translate(-409.939 -500.841)" fill="#fff"/>
      <path id="패스_1099" data-name="패스 1099" d="M706.842,757.543c-1.113-4.593-.483-9.324-.553-13.991,0,.03,0,.059,0,.088.084-4.889-3.687-.684-3.115-7.252,1.814-18.339-9.7-2.067-11.683-20.692l.012.084c-.309-2.019-.6-4.281-2.068-5.821-.378-.19-.391-.962.107-.983,2.2,1.3,2.473,4.484,2.909,6.805l0-.019c.008.064.018.128.027.191,0-.029-.008-.056-.011-.085q.037.263.075.527c0-.018-.005-.037-.008-.055.322,2.358.789,4.813,2.308,6.72l-.018-.025c1.336,2.152,3.982,1.861,6.134,2.4,4.744,2.06,3.136,8.586,3.3,12.729-.124,1.354.485,1.383,1.561,1.761,2.808,2.274.988,8.365,1.405,11.7a33.338,33.338,0,0,0,.646,5.711.529.529,0,1,1-1.024.21" transform="translate(-502.63 -517.081)" fill="#fff"/>
      <path id="패스_1100" data-name="패스 1100" d="M761.007,821.659c-2.661-5.548-2.1-11.974-2.889-17.933-1.224-4.6-4.748-2.891-4.425-11.492.075-1.068,1.363-.641.886.241-.08,7.341,2.219,5.611,4.3,10.089.951,3.959.564,8.119,1.328,12.123,0-.006,0-.012,0-.019l.014.1h0a23.845,23.845,0,0,0,1.623,6.076c.5.606-.279,1.6-.83.817" transform="translate(-549.68 -577.343)" fill="#fff"/>
      <path id="패스_1101" data-name="패스 1101" d="M896.93,733c-.772-2.857,1.271-5.84,2.238-8.476l-.009.016.039-.074,0,0,.011-.021v0l.038-.071-.008.014.239-.454-.014.025a9.377,9.377,0,0,1,4.772-4.659l-.015.008.066-.034-.011.006c3.4-1.322,3.408-5.452,4.893-8.277,1.316-2.769,3.728-5.787,7-6.023,1.123-4.731.747-10.025,3.863-14.051l-.022.03.478-.665-.018.024.044-.06,0,.006a9.052,9.052,0,0,1,4.864-3.607l-.07.021.469-.141h0l.036-.011h0l.034-.01h0c5.8-.922,5.762-7.6,8.743-11.465l-.015.019c.814-.88,4.223-6.636,5.253-4.216a.427.427,0,0,1-.424.446h.008c-2.261,1.047-4.5,5.185-5.719,7.427-1.414,3.353-2.445,7.544-6.46,8.593a9.528,9.528,0,0,0-5.986,3.8l0-.007,0,0,0,0-.462.645.01-.013c-2.981,3.94-2.4,9.123-3.619,13.691-.064,1.2-1.084.52-1.809.823-5.542,1.912-5.583,8.5-8.473,12.634-5,3.548-5.859,3.078-8.147,9.554l0-.011a12.979,12.979,0,0,0-.971,3.909c.34.635-.4,1.419-.839.64" transform="translate(-654.038 -488.853)" fill="#fff"/>
      <path id="패스_1102" data-name="패스 1102" d="M943.849,733.909a.7.7,0,0,1-.125-.848,16.6,16.6,0,0,0,2.618-6.339c1.778-5.144,5.27-3.635,6.854-6.078l-.036.07c2.417-5.152,1.724-11.128,3.645-16.407l-.025.07c2.109-5.539,8.124-8.042,11.771-12.435a20.85,20.85,0,0,0,4.96-8.319c.193-.466.264-1.384.956-1.249h0c.021,0,.04.009.06.014l-.025-.006a.548.548,0,0,1,.072,1c-3.612,13.746-17.68,13.831-18.077,27.125,0-.013,0-.026,0-.039,0,.013,0,.025,0,.038,0-.011,0-.022,0-.034,0,.027-.005.054-.008.08v0q-.026.263-.052.525l0-.018c-.753,3.7-.645,9.017-3.629,11.631-1.311.728-2.933.733-3.913,2.044l.023-.025-.286.293.051-.052a8.3,8.3,0,0,0-.778.932l.045-.061c-.746.96-2.383,8.968-4.1,8.083" transform="translate(-688.223 -497.669)" fill="#fff"/>
      <path id="패스_1103" data-name="패스 1103" d="M1053.681,1245.786c-1.269-3.455-.833-7.456-.609-11.088.085-2.5,2.139-7.326-1.965-7.213-.875-.642-.592-2.009-.717-2.967-1.027-5.023,5.392-18.672-3.527-18.094-.75.046-1.747,1.337-2.333.594a.528.528,0,0,1,.144-.668c3.457-2.8,8.107.272,7.951,4.444.115,5.229-1.832,10.363-1.062,15.622,5.77.1,1.543,9.489,2.325,13.086v-.02c0,.045,0,.089,0,.134v-.009c0,.121.005.242.008.362,0-.007,0-.013,0-.02.178,1.7-.062,3.617.654,5.19.483.637-.467,1.475-.87.646" transform="translate(-761.77 -879.047)" fill="#fff"/>
      <path id="패스_1104" data-name="패스 1104" d="M1088.237,1290.842c-1.227-4.358,1.071-12.487-3.542-15.007a8.654,8.654,0,0,1-1.479-3.5c-1.086-4.787-.861-9.688-.966-14.544-.133-2.116-1.858-3.6-2.4-5.581l.005.018-.022-.083.008.031c-.012-.045-.024-.09-.036-.134.007.027.014.056.021.083l-.03-.112v0c-.007-.028-.015-.056-.022-.083v0l-.024-.09.006.021a22.319,22.319,0,0,1-.5-6.28h0c.153-.643.971-.251.831.3a23.361,23.361,0,0,0,.8,6.415c.755,1.715,2.137,3.159,2.306,5.105.349,4.243-.088,8.525.759,12.744v0q.023.163.047.325c0-.008,0-.015,0-.022.815,7.158,3.688,2.859,4.588,10.919.332,2.8.249,5.634.5,8.441.07.477.442,1.163-.147,1.448a.575.575,0,0,1-.708-.416" transform="translate(-787.08 -908.206)" fill="#fff"/>
      <path id="패스_1105" data-name="패스 1105" d="M921.376,1200.64c-2.379-.217-5.284-1.78-5.616-4.357-.019-.431.159-1.415.77-1.082a.594.594,0,0,1,.186.7c-.3,1.186,1,2.087,1.857,2.664l-.014-.009a7.986,7.986,0,0,0,2.794,1c.529.066.6,1.051.024,1.081" transform="translate(-667.895 -871.653)" fill="#fff"/>
      <path id="패스_1106" data-name="패스 1106" d="M931.559,1195.477c-5.142-.825-2.861-5.321-2.476-2.672l0-.016c0,.022,0,.044,0,.067,0-.016,0-.032,0-.048v0c0-.011,0-.022,0-.032.146.761,1.006,1.108,1.643,1.391l-.063-.026c.51.344,1.453-.053,1.621.676.116.466-.306.727-.725.657" transform="translate(-677.004 -869.352)" fill="#fff"/>
      <path id="패스_1107" data-name="패스 1107" d="M1526.359,653.547c-7.915-12.416-13.377-29.083-11.132-43.86.124-.864,1.05-.546.95.233a31.641,31.641,0,0,0-.449,5.574c0-.032,0-.064,0-.1a74.754,74.754,0,0,0,9.605,34.355l-.023-.04.063.113-.048-.087c.381,1.19,2.4,2.664,1.865,3.851a.53.53,0,0,1-.827-.042" transform="translate(-1104.738 -444.289)" fill="#fff"/>
      <path id="패스_1108" data-name="패스 1108" d="M1526.632,689.513c-.642-1.374,3.823-2.617,4.7-3.669a13.279,13.279,0,0,0-.6-1.663l.008.022a33.217,33.217,0,0,0-1.8-3.877c-.861.121-6.876,2.26-5.106-.146a46.549,46.549,0,0,0,4.575-.979c.87-.559,1.388.21,1.726.948a19.777,19.777,0,0,1,2.3,6.108c-.618,1.393-2.423,1.866-3.588,2.743-.678.258-1.661,1.507-2.219.513" transform="translate(-1111.154 -495.225)" fill="#fff"/>
      <path id="패스_1109" data-name="패스 1109" d="M1360.708,723.5c-.228-.26-.434-.534-.637-.813l.015.02a43.993,43.993,0,0,1-3.1-5.24l.05.09c-1.494-2.352-2.186-5.053-3.185-7.627-.2-.7-1.927-4.061-.067-3.234a.585.585,0,0,1,.357.874,66.8,66.8,0,0,0,5.318,11.875l-.027-.048.108.194-.049-.089c.348,1.271,2.7,2.867,2.083,4.042a.55.55,0,0,1-.861-.044" transform="translate(-986.735 -515.322)" fill="#fff"/>
      <path id="패스_1110" data-name="패스 1110" d="M1151.205,645.179c-.536-.769.656-1.309,1.04-1.861l-.009.009c.751-.5,1.229-1.923,2.144-1.906a.717.717,0,0,1,.006,1.185c-.684.551-2.349,3.211-3.181,2.572" transform="translate(-839.515 -467.811)" fill="#fff"/>
      <path id="패스_1111" data-name="패스 1111" d="M1167.159,642.275c-.63-.923.787-1.9,1.021-2.8l-.005.011c.3-.493.926-.061.879.414,0-.023,0-.046,0-.069-.049.57-1.174,3.067-1.893,2.449" transform="translate(-851.134 -466.237)" fill="#fff"/>
      <path id="패스_1112" data-name="패스 1112" d="M1181.552,637.493c-.651-.525.074-1.32.254-1.915.2-.355.3-1.209.876-.979.781.18-.428,3.575-1.131,2.893" transform="translate(-861.553 -462.807)" fill="#fff"/>
      <path id="패스_1113" data-name="패스 1113" d="M1000.589,186.367c-4.027-.782-3.172-5.58-6.319-6.7l.037.008a4.9,4.9,0,0,0-1.093-.125c-.71.34-.932-1.06-.173-1.064,4.435-.529,3.842,5.385,7.2,6.623l-.042-.017.062.025-.007,0c5.32,1.951,9.787-3.315,14.5-5,4.4-1.68,12.41-4.561,16.64-1.823.511.536-.24,1.5-.758.777-4.853-2.113-12.171.66-16.812,2.683l.01,0-.058.029.008,0-.677.342.058-.028c-3.955,1.818-7.931,5.682-12.573,4.277" transform="translate(-723.913 -129.212)" fill="#fff"/>
      <path id="패스_1114" data-name="패스 1114" d="M1109.77,200.733c-3.645-1.514,1.219-7.8-7.851-5.564-.45.065-.683-.572-.413-.887,2.133-1.057,5.408-1.1,6.953.989.909,1.222.278,3,1.153,4.2l-.029-.023c1.82.947,5.886-3.5,7.982-4.229,3.19-1.731,12.335-6.015,14.219-1.11l.078-.009-.068.007a4.845,4.845,0,0,0,.565-.122h0c2.133-.656,4.185-1.565,6.341-2.154.3-.083.545.231.6.483.151.907-1.089.752-1.65,1.03l.066-.019c-1.472.112-6.365,3.285-6.8,1.115-1.681-3.518-9.312-.013-11.915,1.215-2.848,1.06-6.54,5.337-9.224,5.081" transform="translate(-803.283 -139.897)" fill="#fff"/>
      <path id="패스_1115" data-name="패스 1115" d="M877.937,181.51a12.844,12.844,0,0,1-3.389-1.333l.019.011-.1-.062.01.006-.044-.027.01.006-.1-.059.014.008c-.423-.281-1.053-.652-.944-1.245l0,.017a.951.951,0,0,1,.039-.134l-.011.038c.326-.861,1.683.833,2.392.882l-.012,0c.777.55,2.592.379,2.661,1.511a.432.432,0,0,1-.539.385" transform="translate(-637.001 -130.181)" fill="#fff"/>
      <path id="패스_1116" data-name="패스 1116" d="M892.836,174.822c-.933-.426-3.712-.913-3.322-2.272.626-.565,1.672.641,2.417.742.528.288,1.573.312,1.465,1.128a.453.453,0,0,1-.56.4" transform="translate(-648.727 -125.738)" fill="#fff"/>
      <path id="패스_1117" data-name="패스 1117" d="M912.3,172.04c-.53-.215-1.247-.262-1.62-.725l0,.011a.924.924,0,0,1-.085-.212l.009.024a.549.549,0,0,1,.1-.5l-.009.014c.491-.451,1.236.162,1.787.26.589.172.5,1.3-.184,1.132" transform="translate(-664.123 -124.34)" fill="#fff"/>
      <path id="패스_1118" data-name="패스 1118" d="M698.615,1698.072c-1.173-6.367-2.316-12.744-3.276-19.148l0,.024c-.739-4.841-1.267-9.712-1.913-14.566l0,.011c-1.042-6.6-2.775-13.092-3.434-19.749-.226-.616.464-1.385.882-.621.222.935.221,1.935.4,2.889l0-.013.006.039s0-.007,0-.01c1.726,9.653,3.729,19.246,4.687,29.021,0-.018,0-.035-.007-.053q1.159,7.887,2.567,15.736c.355,2.079.8,4.142,1.221,6.207a.588.588,0,1,1-1.138.234" transform="translate(-503.207 -1198.811)" fill="#fff"/>
      <path id="패스_1119" data-name="패스 1119" d="M783.539,1860.873c-.991.144-1.5-1.641-.324-1.531l0,0c.2.089.45-.029.595.2,1.52.169,1.227,1.736-.269,1.337" transform="translate(-570.731 -1356.08)" fill="#fff"/>
      <path id="패스_1120" data-name="패스 1120" d="M810.365,1861.862c-.871.1-2.786-.612-1.626-1.59v0c.712-.073,2.116.066,2.129,1.008-.011.267-.2.595-.5.584" transform="translate(-589.577 -1356.748)" fill="#fff"/>
      <path id="패스_1121" data-name="패스 1121" d="M1600.976,567.768c-.13.3-.565.7-.866.374A34.693,34.693,0,0,0,1589.4,576c2.633,1.415,5.7,1.756,8.445,2.929,2.2,1.3-1.44,2.63-2.428,3.329-2.528,1.26-4.969,3.056-7.454,4.187-2.8-1.255,7.937-5.566,8.94-6.58-6.874-2.308-13.032-2.207-3.965-8.745.984-.595,8.407-6.4,8.036-3.356" transform="translate(-1157.821 -413.453)" fill="#231f20"/>
      <path id="패스_1122" data-name="패스 1122" d="M1625.969,650.49a74.118,74.118,0,0,0-14.367,3.08c12.633,3.936,3.753,7.869-4.168,7.026-1.242-.237-7.034-.176-7.1-1.4a.155.155,0,0,1,0,.035c-.058-.729.691-.662,1.188-.52,5.012.591,11.118,2.072,15.512-1.1-1.858-2.007-4.789-2.568-7.324-3.3-.678.014-1.062-.968-.411-1.307,1.033-.563,19.76-5.948,16.678-2.517" transform="translate(-1167.172 -473.597)" fill="#231f20"/>
      <path id="패스_1123" data-name="패스 1123" d="M1625.911,748.732c-.3,1.181-3.42-.628-4.368-.666a119.386,119.386,0,0,1-12.9-4.91c1.22,2,2.756,9.053-1.592,7.357-3.052-.949-5.811-2.578-8.691-3.916a.674.674,0,0,1-.558-.612c.18-1.634,2.957.718,3.811.914,2.212,1.006,4.48,2.4,6.91,2.656,1.177-2.6-.5-5.41-1.83-7.608-.142-1.01.914-.726,1.448-.352,1.121.554,2.277,1.04,3.435,1.512h0l.008.006c3.544,1.4,7.1,2.8,10.762,3.851,1.024.532,3.447.378,3.559,1.767" transform="translate(-1165.336 -540.62)" fill="#231f20"/>
      <path id="패스_1124" data-name="패스 1124" d="M748.08,502.375c-.539-.421-1.056-.87-1.555-1.337-.988.118-2.474-2.031-1.049-2.3,1.246.523,2.1,1.775,3.126,2.641.475.375.1,1.395-.522,1" transform="translate(-543.272 -363.748)" fill="#231f20"/>
      <path id="패스_1125" data-name="패스 1125" d="M757.164,489.128c-.3-.624-.577-1.259-.83-1.9-.268-.406-.309-1.394.415-1.149a8.491,8.491,0,0,1,1.244,2.633c.247.575-.543,1.053-.83.421" transform="translate(-551.491 -354.483)" fill="#231f20"/>
      <path id="패스_1126" data-name="패스 1126" d="M993.206,453.214c-1.517-.294,2.022-10.665,2.446-6.911-.539,2.02-1.5,3.931-1.758,6.021.084.447-.085,1.158-.688.89" transform="translate(-724.106 -324.907)" fill="#231f20"/>
      <path id="패스_1127" data-name="패스 1127" d="M1003.963,457.6c1.481-1.867,3.749-3,5.35-4.789,3.092,0-4.04,4.551-4.516,5.287a.43.43,0,0,1-.388.482h.008c-.448.028-.632-.64-.454-.979" transform="translate(-732.177 -330.25)" fill="#231f20"/>
      <path id="패스_1128" data-name="패스 1128" d="M1180.06,472.389c-.833-.956,1.7-2.979,2.092-4.049.569-.587.839-1.929,1.714-2a.632.632,0,0,1,.247.973l.006-.005c-.862.856-2.9,5.771-4.058,5.086" transform="translate(-860.538 -340.115)" fill="#231f20"/>
      <path id="패스_1129" data-name="패스 1129" d="M1205.075,467.682a8.1,8.1,0,0,1-1.766-2.624l0,.007c-.336-.522-.88-2.775.354-1.837.255.546.44,1.131.747,1.658.313.939,1.737,1.682,1.4,2.71a.465.465,0,0,1-.733.087" transform="translate(-877.316 -337.683)" fill="#231f20"/>
      <path id="패스_1130" data-name="패스 1130" d="M795.606,447.72c-1.178-1.882-2.286-3.811-3.353-5.759l.046.085c-1.637-2.866-3.547-5.608-4.961-8.59-1.143-2.222,1.5-2.349,2.994-2.769-4.876-.63.439-4.78,1.864-6.464.749-.926,1.71.762.66,1a27.876,27.876,0,0,0-3.408,3.916,19.37,19.37,0,0,0,4.34.752l-.076,0c.612.13,1.44-.394,1.879.228a.7.7,0,0,1-.14.937,53.287,53.287,0,0,0-6.524,1.343l.076-.023c-.261.08-.524.159-.781.255-.057,1.132,11.4,17.554,7.385,15.092" transform="translate(-574.029 -309.2)" fill="#231f20"/>
      <path id="패스_1131" data-name="패스 1131" d="M852.671,421.982c-1.2-.848,5.361-5.661,6.174-6.757,6.325-5.805,13.274-11.051,18.9-17.555-1.4-.958-3.075-1.36-4.542-2.178-2.948-2.379,5.052-2.937,6.257-3.882a34.029,34.029,0,0,0-3.418-3.717c-.375-.355-.253-1.216.339-1.23,1.762.815,2.792,2.9,4.053,4.352,1.435,2.541-4.811,2.7-6.246,3.55,1.575.838,3.88,1.243,4.764,2.9-.275,2.481-5.691,6.377-7.547,8.385-4.178,3.767-8.447,7.43-12.667,11.149-.948.563-5.643,6.111-6.073,4.983" transform="translate(-621.776 -282.007)" fill="#231f20"/>
      <path id="패스_1132" data-name="패스 1132" d="M829.4,575.547c-1.14-.579-.123-2.376-.225-3.4,0,.018,0,.036,0,.054,0-.029,0-.058.008-.087l0,.03c.133-3.222.739-6.389,1.092-9.589,0,.008,0,.015,0,.023.018-.18.036-.36.055-.541,0,.028-.006.057-.009.086.5-3.046-.241-6.09-.8-9.078-.426-2.384-.354-4.833-.914-7.2-.417-3.18-2.183-6.359-1.2-9.553.4-1.331.409-2.943,1.215-4.082.637-.31.993.77.557,1.146-.21.771-.385,1.55-.565,2.329l.018-.082c-.036.157-.07.314-.106.471l.018-.082c-1.16,3.241.56,6.461,1.033,9.709.495,2.14.506,4.346.786,6.516.571,3.366,1.5,6.769.965,10.2,0-.017,0-.034,0-.05-.008.084-.016.167-.025.251,0-.028.006-.057.009-.086-.213,2.321-.655,4.612-.9,6.93,0-.028.006-.057.009-.086-.122,1.39-.175,2.786-.342,4.172,0-.029.005-.058.008-.088-.2.632.246,2.031-.689,2.088" transform="translate(-603.235 -388.118)" fill="#231f20"/>
      <path id="패스_1133" data-name="패스 1133" d="M652.353,639.516c-.923-.559.616-3.888.508-5.112l-.009.041c.176-.746,1.124-.31.991.332-.2.984-.158,4.94-1.49,4.739" transform="translate(-475.568 -462.437)" fill="#231f20"/>
      <path id="패스_1134" data-name="패스 1134" d="M668.834,631.472c-.812-.56-4.888-2.366-3.251-3.5,1.146.681,2.4,1.639,3.7,2.276.583.335.286,1.547-.446,1.22" transform="translate(-485.153 -458.005)" fill="#231f20"/>
      <path id="패스_1135" data-name="패스 1135" d="M486.153,491.776c-1.487-.37-.81-3.422.64-3.221.477.219.94.988.675,1.492.037.737-.476,1.77-1.315,1.729" transform="translate(-353.959 -356.313)" fill="#231f20"/>
      <path id="패스_1136" data-name="패스 1136" d="M496.552,518.262c-.287-1.285,1.054-3.537,1.581-1.177,1.419,1.108-1.253,3.433-1.581,1.177" transform="translate(-362.124 -376.376)" fill="#231f20"/>
      <path id="패스_1137" data-name="패스 1137" d="M1326.4,334.247c-.873-.861,1.754-4.793,2.05-2.4.7.9-1.08,3.3-2.05,2.4" transform="translate(-967.261 -241.473)" fill="#231f20"/>
      <path id="패스_1138" data-name="패스 1138" d="M1310.948,364.539c-.947-.854.4-2.479,1.225-2.936.891-.067.693,1.087.685,1.654-.125.732-1.166,1.643-1.909,1.282" transform="translate(-955.884 -263.727)" fill="#231f20"/>
      <path id="패스_1139" data-name="패스 1139" d="M193.752,983.188c-.639-1.115,3.913-2.134,4.709-2.119.594.072.972,1.271.189,1.322-1.322-.349-4.311,2.312-4.9.8" transform="translate(-141.265 -715.527)" fill="#231f20"/>
      <path id="패스_1140" data-name="패스 1140" d="M186.382,961.652a5.739,5.739,0,0,1-3.454-1.788c-.489-.947-2.257-1.817-1.906-2.936a.479.479,0,0,1,.746-.042c2.063,2.365,2.268,2.795,5.254,3.9l-.056-.036h0l-.058-.027c.4.152.5.853.04.986l.012,0a1.164,1.164,0,0,1-.581-.057" transform="translate(-131.992 -697.775)" fill="#231f20"/>
      <path id="패스_1141" data-name="패스 1141" d="M415.792,1056.415c-.647-.463-7.066-2.974-4.315-3.6.8.634,6.275,2.561,4.873,3.7l.04-.017a.517.517,0,0,1-.058.025h0a.723.723,0,0,1-.542-.105" transform="translate(-299.607 -767.856)" fill="#231f20"/>
      <path id="패스_1142" data-name="패스 1142" d="M418.981,1032.908c-1.184-.773-4.135-5.272-2.652-6.34,1.086.145.662,2.24,1.418,3.005a11.022,11.022,0,0,0,1.621,2.364c.529.1.588,1.089-.035,1.038l.028,0a1.658,1.658,0,0,1-.379-.07" transform="translate(-303.346 -748.712)" fill="#231f20"/>
      <path id="패스_1143" data-name="패스 1143" d="M485.221,1001.728c-.961-.647-1.335-2.008-1.989-2.959l.018.034-.063-.117.029.053c-.153-.286-.3-.574-.456-.86l.049.09c-1.031-1.806-2.184-3.544-3.354-5.265l.012.017-.193-.273h0l-.059-.084.008.012c-1.578-2.231-2.517-4.838-3.822-7.228l.026.047a73.79,73.79,0,0,1-4.951-9.672l.007.012-.111-.208.007.012-.048-.09c.008.017.017.034.027.05l0-.007.008.015c-4.585-7.178-2.6-4.186,4.445-7.651-1.272-.313-10.29-.357-8.37-2.685,1.483-2.155,3.21-4.138,4.672-6.311.246-.31.427-.818.883-.83.57.018.887,1.168.208,1.25-1.406,2.2-3.1,4.2-4.655,6.3a32.265,32.265,0,0,0,3.789.688l-.018,0c11.869.8,3.176,3.109-2.127,5.1a57.139,57.139,0,0,1,4.934,9.409c2.4,3.565,3.824,7.689,6.219,11.24l0,0c.454.809,7.254,10.465,4.883,9.917" transform="translate(-339.994 -698.581)" fill="#231f20"/>
      <path id="패스_1144" data-name="패스 1144" d="M594.343,1003.663c-.553-.741.475-1.34.834-1.911l-.018.023.232-.3-.028.037c2.535-3.382,4.8-6.965,7.406-10.294l-.047.06a31.81,31.81,0,0,0,3.931-5.4l-.04.071c.42-.743.849-1.479,1.272-2.221h0l.041-.072-.021.035c2.459-4.7,5.442-9.077,8.093-13.662a60.124,60.124,0,0,1-7.519-4.626c-2.305-1.771.6-2.157,2.034-2.549l-.048.01c2.169-.543,4.421-.634,6.594-1.156l-.02,0a9.04,9.04,0,0,0,1.2-.357c-.82-1.441-7.493-7.88-4.9-8.949.61.17.489.921.74,1.382,1.2,2.935,4.194,4.777,5.344,7.707l0-.009c.3,2.094-6.478,1.924-8.038,2.539l.08-.018c-.705.155-1.405.329-2.1.535,11.214,7.394,9.111,2.5,1.98,15.531l.041-.074c-.5.888-1,1.779-1.5,2.664l.006-.012a49.492,49.492,0,0,1-6.865,10.145l.033-.042q-3.127,4.189-6.09,8.5c-.627.552-1.719,3.3-2.626,2.408" transform="translate(-433.359 -694.625)" fill="#231f20"/>
      <path id="패스_1145" data-name="패스 1145" d="M697.053,1106.531a.72.72,0,0,1-.612-.6c-.2-1.6,4.069-.346,5.133-.812l-.06.025a.468.468,0,0,1,.622.269c.3,1.7-3.99,1.036-5.083,1.123" transform="translate(-507.934 -805.975)" fill="#231f20"/>
      <path id="패스_1146" data-name="패스 1146" d="M699.316,1079.45c-1.276.011-5.119-3.1-4.408-4.378a.532.532,0,0,1,.811.088,12.511,12.511,0,0,0,3.285,3.088l-.067-.031a4.07,4.07,0,0,0,.478.2l-.007,0c.52.138.528,1.116-.091,1.037" transform="translate(-506.757 -783.977)" fill="#231f20"/>
      <path id="패스_1147" data-name="패스 1147" d="M767.545,1255.18c-.915-.323-7.724.155-6.073-1.631.8-.2,8.713-.18,6.073,1.631" transform="translate(-555.181 -914.196)" fill="#231f20"/>
      <path id="패스_1148" data-name="패스 1148" d="M764.5,1268.132c-.8-1.021-2.373-2.294-2.013-3.7.318-.455.985-.056.961.432.388.578,3.32,3.9,1.052,3.269" transform="translate(-556.068 -922.049)" fill="#231f20"/>
      <path id="패스_1149" data-name="패스 1149" d="M525.872,1320.95c-.99-.21-.844-2.02.2-1.95,1.54-.778,1.4,2.179-.2,1.95" transform="translate(-383.05 -961.898)" fill="#231f20"/>
      <path id="패스_1150" data-name="패스 1150" d="M552.38,1319.885c-.618-1.062,1.051-2.085,1.547-.822l-.012-.016c.191.257.143.753-.216.818a.771.771,0,0,1-1.319.019" transform="translate(-402.772 -961.613)" fill="#231f20"/>
      <path id="패스_1151" data-name="패스 1151" d="M157.582,818.971c-.536.124-.905-.6-.627-1.027l-.025.044c.251-.629.993-.39,1.216.13.417.156.606.873.115,1.036l.011,0a.5.5,0,0,1-.061.014l.013,0a.81.81,0,0,1-.641-.192" transform="translate(-114.404 -596.313)" fill="#231f20"/>
      <path id="패스_1152" data-name="패스 1152" d="M151.988,838.908c-.892-.354-.289-2.052.569-1.96.741.109,1.211,1.625.116,1.323.061.383-.29.8-.685.636" transform="translate(-110.529 -610.413)" fill="#231f20"/>
      <path id="패스_1153" data-name="패스 1153" d="M1089.017,964.29c-4.5-4.415-7.654-9.941-10.952-15.258l.019.026-.051-.073.007.011c-2.324-3.128-4.089-6.622-6.156-9.917l.046.088c-.05-.1-.1-.191-.153-.286l0,.008c-.99-2-2.078-3.948-3.173-5.894l.018.033-.168-.312.049.092c-.823-1.589-1.646-3.186-2.328-4.841l0,.006-.042-.107.018.046c-.253-.679-.743-2.007.353-2.152l-.03.007a29.276,29.276,0,0,0,4.971-1.82l-.036.016c.733-.311,1.468-.616,2.2-.921a62.417,62.417,0,0,1-8.249-1.507c-1.527-.651.3-2.115.859-2.854,1.416-1.7,2.976-3.257,4.437-4.912.536-.75,1.239.046,1.114.735.282.447-.239,1.033-.641.586l.024.027c-.015-.017-.031-.033-.046-.051l-.01-.012c-1.623,1.83-3.318,3.6-4.908,5.454,3.454,1.12,15.916,1.155,5.7,4.666l.074-.031c-.258.109-.516.217-.775.325l.074-.031c-1.341.57-2.694,1.116-4.077,1.577a48.743,48.743,0,0,0,2.753,5.925l-.049-.092a248.906,248.906,0,0,0,15.7,25.885,56.706,56.706,0,0,0,4.115,4.805c.346.466-.185,1.24-.692.75" transform="translate(-776.578 -666.223)" fill="#231f20"/>
      <path id="패스_1154" data-name="패스 1154" d="M1184.887,964.926c-.481-.6.221-1.12.558-1.581a97.777,97.777,0,0,1,7.652-10.3c5.011-7.03,10.134-13.984,14.914-21.174-8.992-5.737-6.64-4.388,2.887-7.959a25.638,25.638,0,0,1-3.943-5.893.543.543,0,0,1-.428-.679c0,.009,0,.018,0,.027-.028-.475-.171-1.467.65-1.149.5.406.53,1.169.925,1.689l-.011-.021c6.125,9.8,5.928,5.279-4.187,9.833,4.687,3.617,7.292,2.5,3.15,7.773-5.138,7.357-10.117,14.852-15.852,21.761l.048-.06a51.825,51.825,0,0,0-3.3,4.525c-.608.629-2.137,4.172-3.058,3.2" transform="translate(-864.061 -668.187)" fill="#231f20"/>
      <path id="패스_1155" data-name="패스 1155" d="M1167.632,1125.774c-.959-.136-.225-5.249-.064-6.15.279-1.133,1.882.039.892.6-.449,1.122.4,5.4-.829,5.554" transform="translate(-851.242 -816.233)" fill="#231f20"/>
      <path id="패스_1156" data-name="패스 1156" d="M1153.752,1246.389c-.845-.754.22-2.085.268-3.031,0,0,0,.009,0,.014l.02-.079-.007.028.042-.167,0,.008c.79-3.737,1.844-7.429,2.275-11.232,0,.029-.006.056-.009.084.018-.161.038-.324.057-.485,0,.028-.006.055-.009.083-.145-.8.549-2.009,1.071-.767a11.438,11.438,0,0,1-.131,1.868,110.528,110.528,0,0,1-2.69,12.565c-.143.457-.175,1.423-.88,1.112" transform="translate(-841.235 -897.309)" fill="#231f20"/>
      <path id="패스_1157" data-name="패스 1157" d="M1011.651,1041.986c-.64-1.159-3.017-2.611-2.4-3.987,1.127-.705,2.461,2.407,3.188,3.12,1.1.467-.042,1.982-.792.868" transform="translate(-736.01 -756.974)" fill="#231f20"/>
      <path id="패스_1158" data-name="패스 1158" d="M1025.633,1028.422c-.686-.486-.185-1.453.009-2.084.406-.653.43-2.49,1.468-2.226.983.874-.448,2.313-.658,3.323-.185.4-.138,1.3-.818.987" transform="translate(-747.775 -746.902)" fill="#231f20"/>
      <path id="패스_1159" data-name="패스 1159" d="M1311.046,1030.445c-1.069-.43-.142-1.088.306-1.567l-.043.055.306-.391-.044.055c.9-1.021,1.212-2.429,1.913-3.522,2.256-.247-1.4,5.438-2.438,5.37" transform="translate(-955.831 -747.617)" fill="#231f20"/>
      <path id="패스_1160" data-name="패스 1160" d="M1323.931,1044.986c-.226-.269-.191-.788.158-.895h0c1.974-.07,3.847-1.134,5.689-1.4,2.154,1.391-5.328,3-5.844,2.3" transform="translate(-965.485 -760.469)" fill="#231f20"/>
      <path id="패스_1161" data-name="패스 1161" d="M1508.319,1062.787c-.9-1.335-1.423-3.01-2.46-4.324-.562-.132-.465-.915-.7-1.338h0a.591.591,0,0,1,.523-.763c.651.119.793.956,1.19,1.4.478.76,3.655,5.278,1.448,5.026" transform="translate(-1097.751 -770.441)" fill="#231f20"/>
      <path id="패스_1162" data-name="패스 1162" d="M1532.481,1073.357c-1.857-.151-3.959-.664-5.048-2.311-.3-.379-.651-1.225.02-1.407a.545.545,0,0,1,.525.314,3.756,3.756,0,0,0,2.282,1.656c.985.476,2.885-.039,3.292,1.15.057.625-.626.606-1.072.6" transform="translate(-1113.746 -780.123)" fill="#231f20"/>
      <path id="패스_1163" data-name="패스 1163" d="M1537.15,1091.908c-.127-.769-2.583-4.092-.716-3.78l-.019-.012c.562.777,2.429,3.39,1.4,4.154a.579.579,0,0,1-.662-.362" transform="translate(-1120.066 -793.595)" fill="#231f20"/>
      <path id="패스_1164" data-name="패스 1164" d="M1396.315,887.174c-.817-1.923,1.9-3.154,1.2-.347l0-.023a.4.4,0,0,1-.344.369.529.529,0,0,1-.863,0" transform="translate(-1018.269 -645.592)" fill="#231f20"/>
      <path id="패스_1165" data-name="패스 1165" d="M1409.519,904.51c-1.232-1.335,1.267-3.207,1.023-.638v-.009a.54.54,0,0,1-.241.485.533.533,0,0,1-.783.162" transform="translate(-1027.762 -658.292)" fill="#231f20"/>
      <path id="패스_1166" data-name="패스 1166" d="M1135.145,1227.571c-.958-.324-.485-3.252.573-1.749a.786.786,0,0,1-.114,1.37c0,.008,0,.017,0,.025l0-.025h0a.4.4,0,0,1-.458.378" transform="translate(-827.523 -893.724)" fill="#231f20"/>
      <path id="패스_1167" data-name="패스 1167" d="M1114.575,1237.126c-.62-.362-.322-1.114.022-1.563.717-.588,1.254.6.873,1.181l.01-.042a.437.437,0,0,1-.3.331.486.486,0,0,1-.6.094" transform="translate(-812.636 -901.023)" fill="#231f20"/>
      <path id="패스_1168" data-name="패스 1168" d="M1024.945,1655.425c-1.084-.45-.3-1.977-.36-2.865.339-2.093.217-4.366.895-6.361,1.952-.975.47,4.063.607,5l.012-.106c-.009.085-.019.169-.029.255l.012-.106c-.319.908,0,4.2-1.137,4.183" transform="translate(-747.106 -1200.54)" fill="#231f20"/>
      <path id="패스_1169" data-name="패스 1169" d="M1039.281,1650.946c-.7-.974-4.093-2.977-3.08-4.2.786-.24,1.559,1.415,2.266,1.833.526.665,1.875,1.354,1.516,2.325a.45.45,0,0,1-.7.04" transform="translate(-755.601 -1201.014)" fill="#231f20"/>
      <path id="패스_1170" data-name="패스 1170" d="M1029.765,1578.14a.736.736,0,0,1-.068-.838c-.62-.577.111-1.174.518-1.6,3.041-3.947,5.785-8.138,9.047-11.924.518-.581,1.721-2.614,2.179-.981-.171.834-1.056,1.405-1.5,2.125-1.883,1.353-9.184,14.958-10.174,13.22" transform="translate(-750.82 -1139.348)" fill="#231f20"/>
      <path id="패스_1171" data-name="패스 1171" d="M1060.069,1561.233c-.878-.64-1.247-3.115-1.4-4.2,1.108-1.413,1.4,1.763,1.644,2.424l-.005-.021c.028.109.055.218.084.326l-.017-.066c.038.136.075.273.119.407.677.3.324,1.41-.42,1.131" transform="translate(-772.122 -1135.336)" fill="#231f20"/>
      <path id="패스_1172" data-name="패스 1172" d="M1070.983,1543.182c-.2-.739-.522-3.034.635-2.963.9.519.082,1.771.212,2.592.25.668-.59,1.106-.847.371" transform="translate(-780.961 -1123.334)" fill="#231f20"/>
      <path id="패스_1173" data-name="패스 1173" d="M793.336,1557.387c-1.026-.546-3.284-.867-3.126-2.34.656-1.208,2.294.75,3.171.989.85.153,1.01,1.6-.045,1.352" transform="translate(-576.322 -1133.865)" fill="#231f20"/>
      <path id="패스_1174" data-name="패스 1174" d="M797.024,1537.888c-1.154-.048-2.569-5.981-.591-3.752a14.373,14.373,0,0,0,.986,2.785c.319.193.373.817-.033.939l.051-.021a.7.7,0,0,1-.412.048" transform="translate(-580.147 -1118.534)" fill="#231f20"/>
      <path id="패스_1175" data-name="패스 1175" d="M780.634,1590.857c-.668-.03-.891-1.21-.175-1.346.9.111,3.043-.471,3.326.618a.451.451,0,0,1-.385.513h0a21.377,21.377,0,0,1-2.771.215" transform="translate(-568.894 -1159.244)" fill="#231f20"/>
      <path id="패스_1176" data-name="패스 1176" d="M732.49,1728.208c-1.349-.47-1.986-2-3.251-2.659l0,0c-.7-.611-2.3-.442-2.371-1.561.036-.72.808-.556,1.275-.356,2.047.44,3.048,2.549,4.685,3.454.992.125.614,1.355-.342,1.12" transform="translate(-530.133 -1256.983)" fill="#231f20"/>
      <path id="패스_1177" data-name="패스 1177" d="M739.3,1707.7a11.621,11.621,0,0,1-2.591-3.6c.139-2.55,2.06,1.152,2.529,1.766l-.008-.012c.525,1.159,1.791,1.057,1.946,1.8-.077.978-1.434.522-1.876.04" transform="translate(-537.309 -1242.217)" fill="#231f20"/>
      <path id="패스_1178" data-name="패스 1178" d="M877.393,1705.4c-1.154-.279-.058-5.41-.159-6.613.147-7.1.75-14.19,1.449-21.259,0,.012,0,.025,0,.037.029-.263.06-.525.09-.788,0,.029-.006.057-.009.085.026-.236.054-.474.083-.711v.01c0-.025.006-.049.008-.074,0,.006,0,.011,0,.017l.009-.079,0,.02c.411-3.823.777-7.651,1.167-11.477.345-1.02.008-6.674,1.568-5.988.338.165.411.777.038.939-.835,5.854-1.114,11.781-1.814,17.654,0-.028.007-.056.01-.085-.646,6.648-1.294,13.318-1.461,20-.072,2.593-.324,5.179-.364,7.773a.53.53,0,0,1-.6.541" transform="translate(-639.526 -1209.622)" fill="#231f20"/>
      <path id="패스_1179" data-name="패스 1179" d="M843.8,1511.481a253.494,253.494,0,0,1-10.738-27.52c-.893-3.2-2.5-6.265-2.993-9.545.248-1.235,2.7-.67,3.7-1.187l-.051.012.151-.034-.01,0,.356-.081-.012,0,.125-.028-.078.018c1.041-.239,2.079-.492,3.116-.746-1.566-.516-9.762-1.648-7.849-4.211v0l.047-.06-.011.015c.607-.522,6.58-8.069,5.985-4.522h0c-1.705,1.76-3.478,3.468-5.092,5.317,4.313,2.519,17.753,2.664,4.063,5.485l.015,0c-1.086.251-2.179.464-3.284.615,3.13,9.419,6.557,18.719,10.05,28,.148.979,5.711,10.266,2.507,8.466" transform="translate(-604.785 -1066.765)" fill="#231f20"/>
      <path id="패스_1180" data-name="패스 1180" d="M1040.383,1475.543c-.63-.967.91-1.646,1.295-2.437l-.012.016.047-.06-.007.009c.869-1.2,1.82-2.331,2.744-3.486l-.008.01a9.118,9.118,0,0,0,.684-.977c-.711-1.166-5.88-4.252-3.722-5.443l-.074.031a4.183,4.183,0,0,0,.536-.325l0,0c1.287-.973,2.7-1.778,3.961-2.781-.789-1.214-1.49-2.478-2.227-3.723a.566.566,0,0,1-.33-.456c0,.013,0,.026.005.038,0-.024-.007-.048-.009-.072l0,.017c-.047-3.653,3.25,3.267,3.693,3.966.58,1.788-3.627,3.2-4.752,4.321,3.586,3.879,5.995,3.576,1.444,8.311l.029-.037-.071.09.005-.007-.071.091.024-.032c-.38.486-.755.976-1.137,1.462l0-.006c-.566.475-1.185,2.277-2.053,1.477" transform="translate(-758.679 -1061.073)" fill="#231f20"/>
      <path id="패스_1181" data-name="패스 1181" d="M883.855,1376.785c-.857,0-.8-1.524.092-1.185.726.04,1.922-.857,2.315.072.194,1.093-1.669.992-2.407,1.113" transform="translate(-644.18 -1003.017)" fill="#231f20"/>
      <path id="패스_1182" data-name="패스 1182" d="M966.353,1888.532l-1.121-.025s-31.275-.7-31.281-.7c-.189,0-.878-.019-1.066-.024l2.444-1.478c1.371.054,29.109,1.173,30.934,1.245Z" transform="translate(-680.386 -1375.752)" fill="#231f20"/>
    </g>
  </g>
</svg>
