<svg id="그룹_244" data-name="그룹 244" xmlns="http://www.w3.org/2000/svg" xmlns:xlink="http://www.w3.org/1999/xlink" width="318.93" height="180" viewBox="0 0 318.93 180">
  <defs>
    <clipPath id="clip-path">
      <rect id="사각형_337" data-name="사각형 337" width="318.93" height="180" fill="none"/>
    </clipPath>
  </defs>
  <g id="그룹_243" data-name="그룹 243" clip-path="url(#clip-path)">
    <path id="패스_1281" data-name="패스 1281" d="M524.084,412.2c-1.732,7.869-3.134,15.865-4.111,23.88.148,1.676-2.651,10.624.1,10.042,2.2-1.081,1.483-5.412,2.145-7.584.724-6.364,1.195-12.758,2.118-19.1l-.011.121c.179-2.126.443-4.239.761-6.349,1.854-.442-.177-3.076-1-1.006" transform="translate(-363.985 -288.612)" fill="#161616"/>
    <path id="패스_1282" data-name="패스 1282" d="M540.4,408.392a2.971,2.971,0,0,1-.881.05c-.686-.014-1.129.942-.947,1.529.391.907,3.681.787,4.659.826-1.557,10.188-3.3,20.367-4.7,30.57.008-.082.016-.164.024-.245a25.2,25.2,0,0,1-.357,2.583c-.04,1.35,1.534,1.335,2.074.32,1.921-7.046,2.224-14.644,3.255-21.917.268-4.261,1.37-8.525,1.314-12.785-.264-1.289-3.071-.462-4.189-.831a.3.3,0,0,0-.247-.1" transform="translate(-377.553 -286.491)" fill="#161616"/>
    <path id="패스_1283" data-name="패스 1283" d="M532.171,410.7a2.486,2.486,0,0,0-1.746.975c-.992-.467-1.829.736-2.014,1.591-.234.885.328,1.666.253,2.556-.307,2.99-.983,5.979-1.275,8.991-.832,4.623-1.319,9.284-1.957,13.934-.041,1.816-2.007,10.363,2.014,6.471,3.234,1.564,3.283-10.188,3.731-12.233.826-5.484,1.758-10.951,2.221-16.484,1.249-.838,1.272-2.594,1.48-3.946.05-1.02-.786-1.155-1.6-1.123a1.515,1.515,0,0,0-1.107-.731" transform="translate(-368.235 -288.111)" fill="#161616"/>
    <path id="패스_1284" data-name="패스 1284" d="M526.169,519.4a2.059,2.059,0,0,0-.458,2.576,1.7,1.7,0,0,0-2.482.491,1.2,1.2,0,0,0-1.88.508c-.647-.716-1.611-2.727-2.42-1.058-.427,1.392,1.1,2.64,1.632,3.855.422.568.581,1.315,1.159,1.754,1.909.449,3.984-.053,5.888-.411,4.956-.517.535-4.953-.375-7.288.042.079.084.16.125.239-.178-.5-.64-1.094-1.189-.667" transform="translate(-363.984 -364.261)" fill="#161616"/>
    <path id="패스_1285" data-name="패스 1285" d="M467.013,410.825a61.486,61.486,0,0,0-1.448,6.067c.031-.153.061-.306.092-.459-.366,2.108-4.57,32.984-1.267,30.291,1.078-2.435.318-5.5.762-8.148.5-7.389,1.425-14.74,2.448-22.07-.024-1.7,1.943-5.4.634-6.443-.542-.335-1.071.253-1.221.761" transform="translate(-324.893 -287.597)" fill="#161616"/>
    <path id="패스_1286" data-name="패스 1286" d="M607.089,412.172a331.014,331.014,0,0,0-2.131,33.39c.692,1.409,1.72-.223,1.489-1.174.451-7.27.8-14.541,1.411-21.8.3-3.422.562-6.845.861-10.264.171-1.57-1.488-1.793-1.631-.149" transform="translate(-424.387 -288.348)" fill="#161616"/>
    <path id="패스_1287" data-name="패스 1287" d="M641.005,449.929c-1.706,8.025-2.666,16.19-4.423,24.209.026-.133.052-.265.079-.4-.084,1.8-2.04,7.035-.319,8.008.58.053.814-.665.881-1.1.286-4.41,1.736-8.661,2.449-13.015l-.035.17c.888-4.4,1.328-8.861,2.2-13.259-.056-1.419,1.22-4.323.211-5.266-.459-.282-.932.213-1.044.652" transform="translate(-445.908 -315.116)" fill="#161616"/>
    <path id="패스_1288" data-name="패스 1288" d="M604.63,521.995c-.776,1.554,1.265,2.7,2.179,3.668l-.179-.17c1.539,1.512,3.114,2.97,4.714,4.415.857.659,2.767,4.2,3.84,2.72,1.238-2.324-6.059-7.427-7.744-8.953-.942-.292-1.982-2.885-2.809-1.681" transform="translate(-424.035 -365.964)" fill="#161616"/>
    <path id="패스_1289" data-name="패스 1289" d="M613.109,410.11c-.494,1.574,1.621,2.136,2.471,3.1,2.1,1.361,3.609,3.384,5.59,4.906,1.777,1.263,3.265,3.022,4.868,4.385.914-.063,1.072-1.409.639-2.044-1-1.1-13.429-13.537-13.569-10.347m10.57,7.352.076.072-.076-.072" transform="translate(-430.053 -287.332)" fill="#161616"/>
    <path id="패스_1290" data-name="패스 1290" d="M465.068,528.255c-1.485,1.793,7.993,10.2,9.545,12.03,1.024.423,1.423-1.355.883-1.983-1.707-1.929-3.525-3.769-5.333-5.605-1.2-1.327-2.559-2.526-3.693-3.912-.254-.6-.894-1.393-1.4-.53" transform="translate(-326.142 -370.312)" fill="#161616"/>
    <path id="패스_1291" data-name="패스 1291" d="M535.861,554.372c-13.4,1.005-26.738,2.227-40.179,2.452-1.669-1.113-2.037,1.22-.752,1.977,2.314,1.456,5.349.135,7.929.227a133.988,133.988,0,0,0,17.92-1.473q8.443-.826,16.9-1.5c.613-.164.383-1,.064-1.347-.455-.666-1.213-.427-1.879-.334" transform="translate(-346.659 -388.817)" fill="#161616"/>
    <path id="패스_1292" data-name="패스 1292" d="M499.39,522.6c-7.521.349-15.054.95-22.586.789-3.958-.187-7.924.247-11.856.219a.651.651,0,0,0-.686.907c1.211,2.587,4.972.547,7.2,1.072a155,155,0,0,0,19.356-.521l-.088,0c5.118-.275,10.209-.94,15.346-.827,1.885.317,1.366-1.774-.1-1.618h0c-2.2.047-4.392-.158-6.59-.024m-17.963.809-.239.007.239-.007m-1.33.032-.281.008.281-.008m21.061.872-.133,0,.133,0m-.135,0-.1,0,.1,0m-10.466.757.173-.005-.173.005m8.805-2.474h0m.036,0,.2-.006-.2.006" transform="translate(-325.658 -366.581)" fill="#161616"/>
    <path id="패스_1293" data-name="패스 1293" d="M511.836,405.552c-1.145.018-2.287-.014-3.43.07l.212-.006c-1.4.055-2.8.157-4.21.176l.208-.006c-2.714.145-5.418.435-8.14.4l.214-.007c-1.951.257-22.089-.949-19.909,1.953.809,1.563,2.7.391,4.041.482,2.121-.306,4.261-.279,6.392-.473,6.362-.492,12.752-.261,19.115-.819l-.09,0c3.682.109,7.955-.921,11.356.431.254.294.806.671,1.186.352.741-3.029-5.052-2.566-6.944-2.559m-26.71.73-.066,0,.066,0m19.427-.5.209-.006-.209.006" transform="translate(-334.352 -284.48)" fill="#161616"/>
    <path id="패스_1294" data-name="패스 1294" d="M40.007,282.179c-12.295,6.55-24.744,13.366-37.826,18.151-1.134.139-2.831.656-1.923,2.1,2.281.281,4.993-1.028,7.178-1.922,10.982-5.158,21.891-10.455,32.6-16.152,2.757,8.869,5.561,17.756,8.8,26.485,2.389,7.459,4.421,15.028,6.968,22.438q-.021-.075-.042-.15c.875,2.8,1.809,5.58,2.611,8.4-.036-.126-.071-.253-.107-.379.719,2.022,1.044,4.4,2.275,6.145,1.086.419,1.475-1.28,1.115-2.033-3.574-10.908-7.111-21.836-10.479-32.814-2.267-6.777-5.1-13.356-7.168-20.2-1.162-2.113-1.687-9.95-4.01-10.066m.149,2.108.018.007-.019-.006h0" transform="translate(0 -197.953)" fill="#161616"/>
    <path id="패스_1295" data-name="패스 1295" d="M2.189,343.738c-2.671.225,5.269,18.734,5.819,21.258,3.824,13.264,7.867,26.48,11.175,39.887.958,4.061,1.8,8.149,2.725,12.217.507,1.432.453,4.886,2.752,3.785,5.435-2.162,11.014-4.031,16.387-6.307,8.114-5.52,13.795-13.968,20.035-21.411-.074.1-.15.2-.225.306.886-1.309,3.233-3.17,1.521-4.715-1.321-.3-2.046,2.05-2.931,2.831l.038-.052c-5.97,7.05-11.377,15.11-19.093,20.351-5.343,2.3-10.88,4.174-16.237,6.456C21.411,403.434,16.8,389,12.595,374.466a260.72,260.72,0,0,0-7.843-24.958c-.426-1.64-1.19-3.189-1.483-4.856-.067-.515-.513-1.166-1.079-.914m15.118,46.946.042.145-.042-.145" transform="translate(-1.152 -241.098)" fill="#161616"/>
    <path id="패스_1296" data-name="패스 1296" d="M56.312,321.884c-1.6,1.258,2.05,7.382,2.248,9.478,3.241,12.314,7.923,24.181,11.214,36.479l-.019-.066c2.539,8.775,5.021,17.557,8.31,26.089.6.949.846,4.578,2.337,3.772,1.228-.9-2.459-8.295-2.843-10.1-2.478-6.614-4.235-13.444-6.28-20.2-2.583-9.842-6.07-19.4-9.121-29.1-1.506-5.175-3.1-10.324-4.958-15.382-.1-.458-.287-1.181-.889-.976m3.943,15.4.048.172c-.016-.057-.032-.114-.048-.172m.052.184.036.128-.036-.128m10.981,29.906c.023.081.046.162.069.243l-.069-.243" transform="translate(-39.22 -225.782)" fill="#161616"/>
    <path id="패스_1297" data-name="패스 1297" d="M29.756,334.393a1,1,0,0,0-.16,1.024c.993,2.917,1.855,5.878,2.7,8.84,2.649,10.655,5.985,21.117,8.776,31.732a213.4,213.4,0,0,0,6.492,21.42c.546.924.695,5.127,2.166,4.181,1.194-1.55-2.921-9.735-3.436-12.079-2.935-9.133-4.886-18.539-7.674-27.714l.012.041c-1.376-4.565-2.723-9.137-4-13.732l.074.259c-1.04-3.948-2.336-7.82-3.58-11.707-.4-.6-.377-2.722-1.376-2.264m8.911,27.561.039.137-.039-.137m-.306,4.134.033.115-.033-.115m9.379,31.94.053.184c-.018-.062-.035-.123-.053-.184" transform="translate(-20.714 -234.536)" fill="#161616"/>
    <path id="패스_1298" data-name="패스 1298" d="M80.132,554.457c-1.942,3.535-3.473,7.618-6.009,10.953-.749,7.112,6.411-7.091,6.783-8.367,3.952.2,7.644,1.808,11.373,3l-.266-.08a.944.944,0,0,0,1.379-.7c.561-1.926-1.971-2.112-3.217-2.673-3.248-1.022-6.654-2.113-10.043-2.138" transform="translate(-51.96 -388.96)" fill="#161616"/>
    <path id="패스_1299" data-name="패스 1299" d="M15.622,192.257c-9.141,5.139-6.169,21.565-3.9,30,.991,4.2,1.539,8.491,2.592,12.665.293,1.562,1.807.533,1.477-.649-1.406-9.24-4.787-18.262-4.724-27.666.022-4.4.837-11.772,6.214-12.453,4.564,1.631,6.437,7.117,8.786,10.986,3.23,6.723,4.8,14.112,7.585,21a.727.727,0,0,0,1.217.354c1.209-1.659-.809-3.666-.959-5.458l.056.194c-2.363-7.47-4.523-15.2-8.947-21.757-2.231-2.976-4.908-8.54-9.392-7.218" transform="translate(-6.584 -134.731)" fill="#161616"/>
    <path id="패스_1300" data-name="패스 1300" d="M40.777,176.149c-8.319,5.2.5,24.321,2.891,31.623q1.845,5.311,3.531,10.674c.534,1.781.609,3.919,1.822,5.381,3.554,1.548-4.807-19.528-5.294-21.315-1.757-5.329-10.633-27.457,1.535-24.489,7.568,3.391,15.231,24.561,16.279,32.645.309,1.194-.644,5.359,1.085,5.208,1.236-.5.088-7.7-.1-9.12-2.62-7.975-10.744-33.864-21.752-30.608m11.291,8.983.084.141-.084-.141m11.01,28.222c0-.026,0-.052,0-.079,0,.082.009.163.013.244,0-.055-.006-.11-.009-.165m.019.355-.007-.138c0,.073.008.145.012.218,0-.027,0-.053-.005-.081" transform="translate(-26.151 -123.373)" fill="#161616"/>
    <path id="패스_1301" data-name="패스 1301" d="M918.654,205.387c-5.492,1.5-11.238,2.59-16.741,4.093-5.918,1.512-10.687,3.8-16.669,5.262-1.932.835-5.986.682-7.01,2.48-.965,4.007-2.52,7.689-3.715,11.592-2.219,7.267-3.635,15.122-5.2,22.6-.777,3.626-1.662,6.3-1.263,9.827.128.835-.256,2.226.768,2.543.746,1.3,7.261,10.057,8.568,9.154,7.773-3.211,15.457-6.564,23.269-9.683,5.55-2.129,11.044-4.367,16.548-6.611,2.543-1.137,5.254-1.913,7.828-3,1.69-.525,3.141-1.837,2.7-3.744-.495-4.353-.7-8.834-1.451-13.118-.787-4.869-2.078-9.624-2.907-14.484-1.214-5.4-1.914-10.5-3.844-15.86-.112-.451-.345-1.06-.878-1.047" transform="translate(-608.885 -144.081)" fill="#161616"/>
    <path id="패스_1302" data-name="패스 1302" d="M923.232,121.486c-13.531,3.256-15.732,18.752-17.5,30.41.383,2.417-4.341,10.675-.876,10.842a2.172,2.172,0,0,0,1.147-2.42c3.033-7.288,2.9-15.439,5.543-22.848l-.058.19c1.456-5.281,5.106-10.226,10.409-12.063,8.6-2.823,15,6.585,17.983,13.41,1.574,3.736,2.051,7.786,2.429,11.789.426,1.491-.529,5.485,1.588,5.558,2.436-.792.222-9.458.237-11.779q.024.173.047.346c-1.377-10.418-8.766-24.543-20.945-23.434m-3.055,4.822-.11.057.11-.057m-14.148,33.878-.017.056q.008-.028.017-.056" transform="translate(-633.87 -85.181)" fill="#161616"/>
    <path id="패스_1303" data-name="패스 1303" d="M903.643,254.348c-2.075,10.348-1.955,21.012-3.412,31.458-.492,4.522-.887,9.056-1.531,13.562.035.833-.912,3.834.234,3.771.713-.365.5-1.324.595-1.985.43-3.727.986-7.441,1.373-11.173,1.138-8.758,1.814-17.558,2.668-26.341.495-2.956.369-6.013,1.093-8.92.385-.932-.687-1.414-1.02-.373" transform="translate(-630.216 -178.017)" fill="#fefefe"/>
    <path id="패스_1304" data-name="패스 1304" d="M956.23,210.3a133.081,133.081,0,0,0-15.987,4.884c-3.361.672-6.485,2.06-9.725,3.13-1.375.673-3.907.838-4.733,2.047-.413,1.259,5.922-1.8,6.794-1.818,4.827-1.783,9.8-3.011,14.615-4.848.846-.464,11.781-2.222,9.036-3.395" transform="translate(-649.438 -147.531)" fill="#fefefe"/>
    <path id="패스_1305" data-name="패스 1305" d="M942.771,278.536c-.975,1.571,2.179,1.956,2.587.724.145-.341.105-.992-.379-1-.759.321-1.743-.587-2.208.271" transform="translate(-661.237 -195.13)" fill="#fefefe"/>
    <path id="패스_1306" data-name="패스 1306" d="M941.845,313.052c-1.607,1.132.8,2.243,1.912,2.207.607-.059.983-1.183.4-1.489-.843-.009-1.556-.632-2.31-.718" transform="translate(-660.341 -219.61)" fill="#fefefe"/>
    <path id="패스_1307" data-name="패스 1307" d="M978.391,296.6c-.64.537-1.781.3-2.086,1.17-.124.342-.125,1.016.388,1.016.831-.182,2.1-.544,2.278-1.5.081-.343-.164-.868-.579-.685" transform="translate(-684.844 -208.04)" fill="#fefefe"/>
    <path id="패스_1308" data-name="패스 1308" d="M992.652,342.094c-1.059.915.29,2.8,1.253,3.235,1.247-.464.62-1.545-.088-2.2-.305-.4-.483-1.507-1.164-1.038" transform="translate(-696.088 -239.904)" fill="#fefefe"/>
    <path id="패스_1309" data-name="패스 1309" d="M951.485,361.793c-1.115.3-3.694.658-2.9,2.337.844.314,1.9-1,2.923-.979.563-.177.789-1.527-.025-1.358" transform="translate(-665.342 -253.793)" fill="#fefefe"/>
    <path id="패스_1310" data-name="패스 1310" d="M1018.72,303.339c-.125,1.039-1.312,2.132-.8,3.136.969.687,1.946-2.57,2.027-3.272-.074-.9-1.084-.521-1.229.136" transform="translate(-713.997 -212.329)" fill="#fefefe"/>
    <path id="패스_1311" data-name="패스 1311" d="M1002.275,254.9c-1.8.5-.526,3.274.174,4.208,1.987.143.924-3.836-.174-4.208" transform="translate(-702.465 -178.813)" fill="#fefefe"/>
    <path id="패스_1312" data-name="패스 1312" d="M1029.591,248.244c-.547.636-2.927,2.257-1.492,2.952a9.635,9.635,0,0,0,2.081-1.868c.361-.455.122-1.567-.589-1.084m.412,1.3-.038.037.038-.037m-.084.079h0l-.057.053.056-.052" transform="translate(-720.908 -174.063)" fill="#fefefe"/>
    <path id="패스_1313" data-name="패스 1313" d="M1036.4,332.033c-.594.254-.951,1.354-.3,1.729.649.214,1.247.922,1.929.852,1.786-1.2-.383-2.486-1.625-2.581" transform="translate(-726.595 -232.926)" fill="#fefefe"/>
    <path id="패스_1314" data-name="패스 1314" d="M728.8,0a8.292,8.292,0,0,0-5.553,2.4c-.767-.062-3.612,3.666-3.037,4.361-.916,2.665-.013,5.554.236,8.267.615,5.573,1.836,11.058,2.592,16.609,1.852,12.447.212,22.129-5.033,33.518-1.628,3.266-2.244,7.714,2.938,6.528C731.2,66.364,736.691,53.6,738.991,42.781c1.2-8.892-3.261-17.171-3.381-25.889a38.926,38.926,0,0,1,7.978,7.546c1.028.663,5.191,8.73,5.64,5.283-.324-1.722-1.41-3.3-2.132-4.9a112.575,112.575,0,0,0-6.562-11.659C737.475,7.567,736.922.267,728.8,0" transform="translate(-502.876)" fill="#161616"/>
    <path id="패스_1315" data-name="패스 1315" d="M738.245,5.051c-.584.405-1.444,1.073-1.15,1.883.141.413.618.312.835.037,2.136-2.06,1.385,4.755,1.56,5.851-.046,12.027,1.409,23.97,1.586,35.978.585,1.789-2.975,18.087-5.612,13.889-.313-1.835-1.422-.1-.737,1.057,1.616,2.742,4.306-.787,4.922-2.6h0c5.085-9.663,3-20.791,1.952-31.171-.51-5.76-.337-11.555-.706-17.325-.337-1.9.542-8.538-2.649-7.6m.288,1.361-.05.011.05-.011m-.047.035-.067.037c.022-.013.044-.026.067-.037" transform="translate(-515.267 -3.48)" fill="#fefefe"/>
    <path id="패스_1316" data-name="패스 1316" d="M302.8,55.383c-3.414.323-6.765,1.828-10.152,2.418.05,0,.1-.013.149-.021-5.008.691-9.409,2.789-14.135,4-6.68.153-8.432,7.575-9.953,12.849l.044-.138c-2.924,10.712-2.237,21.393.08,32.039,0-.03-.008-.059-.013-.088,1.5,8.653,2.311,17.449-.263,25.938-1.037,3.386-2.147,6.753-3.092,10.166-.175.978-.917,1.759-.458,2.736,1.714,2.349,5.115,1.925,7.282,3.579,2.122,2.334,4.236,1.987,7.046,1.731,3.083.338,6.237,5.237,6.646-1.038,1.286-8.888-1.931-17.057-2.149-25.977-.267-4.905.176-9.408.062-14.4-.389-4.587-.773-9.129-.728-13.744,6.33,12.828,6.106,27.093,10.436,40.582,1.129.918,2.8-1.17,3.884-1.5,4.789-1.945,7.976-6.193,12.4-8.645,2.788-1.166,5.861-1.335,8.635-2.545,5.426-2.371,10.551-6.577,15.771-9.475,2.179-2.747-1.7-6.372-2.816-8.944-2.113-3.553-4.254-7.043-6.232-10.673l.027.053c-2.628-4.214-4.823-9.145-7.152-13.406,2.863,2.4,6.655,4.213,9.229,7.083,2.291,2.371,3.833,5.12,6.316,7.353a103.069,103.069,0,0,1,8.036,6.84c1.788,1.375,3.14,3.9,5.436,4.619,1.563-.087,4.287-4.678,5.2-5.88a61.78,61.78,0,0,1,6.623-10.554c3.394-4.784,2.626-4.755-2.346-6.923-4.7-2.718-9.988-4.432-14.727-7.1-3.993-2.509-8.093-4.97-11.83-7.777-4.438-3.2-8.547-7.312-13.441-9.623A40.3,40.3,0,0,0,302.8,55.383" transform="translate(-185.804 -38.852)" fill="#161616"/>
    <path id="패스_1317" data-name="패스 1317" d="M333.358,60.47a.924.924,0,0,0-.487.918c.216,2.313-2.449,3.5-4.164,4.423l.113-.063a32.321,32.321,0,0,1-10.236,3.443c-5.573-.883-4.07.188-8.536.945-2.119-.148-2.127-3.861-4.386-2.41-.439.574-.082,1.1.6.764,1-.368,1.384,2.445,3.424,2.591,1.555.214,2.78-.952,4.2-1.327,2.458-.34,4.911.813,7.342-.23l-.055.011c1.053-.163,2-.671,3.028-.918h0c3.852-1.161,9.323-2.808,9.665-7.552.067-.3-.139-.749-.505-.6m-.526,1.834-.013.053.013-.053m-4.6,3.777-.066.038.066-.038m-4.086,2.548-.035.008.035-.008" transform="translate(-214.291 -42.399)" fill="#fefefe"/>
    <path id="패스_1318" data-name="패스 1318" d="M291.075,276.041c-.1.726-.871,2.229-.191,2.7.784-.411.4-1.741.82-2.476.24-.6-.432-.849-.629-.229" transform="translate(-203.865 -193.393)" fill="#fefefe"/>
    <path id="패스_1319" data-name="패스 1319" d="M299.109,274.495c-.744.227-.911,2.637.064,2.452.741-.213.9-2.66-.064-2.452" transform="translate(-209.399 -192.553)" fill="#fefefe"/>
    <path id="패스_1320" data-name="패스 1320" d="M308.29,273.49c-.7.2-.788,2.438.091,2.259.7-.155.746-2.484-.091-2.259" transform="translate(-215.888 -191.847)" fill="#fefefe"/>
    <path id="패스_1321" data-name="패스 1321" d="M494.842,161.734c-.528.607.409,1.216.885,1.464a.56.56,0,0,0,.322-.834c-.389-.174-.766-1.064-1.207-.63" transform="translate(-347.029 -113.376)" fill="#fefefe"/>
    <path id="패스_1322" data-name="패스 1322" d="M498.477,154.593c-1.125.39-.083,1.645.7,1.606.949-.57-.039-1.385-.7-1.606" transform="translate(-349.342 -108.449)" fill="#fefefe"/>
    <path id="패스_1323" data-name="패스 1323" d="M504.428,146.314c-.52.884,1.068,1.051,1.615.9.517-.443.194-1.036-.455-.939-.392-.026-.909-.441-1.161.044" transform="translate(-353.791 -102.477)" fill="#fefefe"/>
    <path id="패스_1324" data-name="패스 1324" d="M513.025,136.583c-.881.583.082,1.177.716,1.364.432.107.745-.734.343-.937-.358-.1-.687-.467-1.058-.427" transform="translate(-359.646 -95.813)" fill="#fefefe"/>
    <path id="패스_1325" data-name="패스 1325" d="M351.241,203.376c-.864-.084-1.451,3.283-.524,3.29.827.081,1.479-3.316.524-3.29" transform="translate(-245.703 -142.67)" fill="#fefefe"/>
    <path id="패스_1326" data-name="패스 1326" d="M362.118,201.674c-.731.185-.582,2.623.287,2.154.495-.26.416-2.353-.287-2.154" transform="translate(-253.703 -141.468)" fill="#fefefe"/>
    <path id="패스_1327" data-name="패스 1327" d="M378.557,195.719c-.621.323.265,2.2.8,1.685.4-.433-.093-.856-.276-1.257-.094-.232-.2-.662-.526-.428" transform="translate(-265.414 -137.252)" fill="#fefefe"/>
    <path id="패스_1328" data-name="패스 1328" d="M396.268,187.445c-.531.34.717,2.04,1.09,1.543a.524.524,0,0,0,.07-.645c-.371-.239-.668-1.334-1.16-.9" transform="translate(-277.897 -131.424)" fill="#fefefe"/>
    <path id="패스_1329" data-name="패스 1329" d="M413.786,181.931c-.834.263-.614,1.742-.118,2.259.559.36.984-.74.527-1.071-.259-.342.166-1.108-.409-1.189" transform="translate(-289.885 -127.627)" fill="#fefefe"/>
    <path id="패스_1330" data-name="패스 1330" d="M426.994,176.248c-.959.317-.278,1.325.188,1.79.467.353.926-.6.6-.941-.29-.241-.413-.76-.786-.849" transform="translate(-299.202 -123.641)" fill="#fefefe"/>
    <path id="패스_1331" data-name="패스 1331" d="M442.316,169.5c-.6.093-.847,1.125-.22,1.365l-.12-.08c.348.164.675.622,1.078.535.514-.234.673-1.116.072-1.34l.119.081-.3-.2.008.005-.12-.081.034.022c-.187-.094-.335-.3-.552-.31m.623.357.008.005-.078-.053.07.047" transform="translate(-309.88 -118.906)" fill="#fefefe"/>
  </g>
</svg>
