<svg xmlns="http://www.w3.org/2000/svg" xmlns:xlink="http://www.w3.org/1999/xlink" width="315" height="180" viewBox="0 0 315 180">
  <defs>
    <clipPath id="clip-path">
      <rect id="사각형_256" data-name="사각형 256" width="315" height="180" rx="30" transform="translate(1475 7071)" fill="#6060f5"/>
    </clipPath>
    <clipPath id="clip-path-2">
      <rect id="사각형_257" data-name="사각형 257" width="208.155" height="242.006" fill="none"/>
    </clipPath>
  </defs>
  <g id="마스크_그룹_38" data-name="마스크 그룹 38" transform="translate(-1475 -7071)" clip-path="url(#clip-path)">
    <g id="그룹_190" data-name="그룹 190" transform="translate(1530.206 7095.63)">
      <g id="그룹_189" data-name="그룹 189" transform="translate(-3.283 -3.819)" clip-path="url(#clip-path-2)">
        <path id="패스_497" data-name="패스 497" d="M328.636,406.842c-.427-7.987-6.214-16.267-6.214-16.267s4.046-5.684,5.264-8.849-1.077-12.127-2.028-15.248-6.4-8.359-6.4-8.359c2.28-2.545,5.323-14.246,5.323-14.246s-1.331-10.962-4.968-11.342-8.841,8.059-8.841,8.059l.12-3.265s9.823-20.38,10.584-22.329-.317-10.6-3.652-11.677-9.084,8.047-9.084,8.047L308.6,338.3l1.405,58.232-2.535,37.829-79.016,4.309-2.471-26.423s-1.292-46.118-2.6-50.185-9.042-4.709-9.042-4.709A58.786,58.786,0,0,1,213,366.988c-1.11,4.568-2.457,2.67-3.934,4.069s-3.387-1.736-3.387-1.736c-.068,2.49-1.112,14.663-.985,19.035s2.471,25.219,3.1,28.134,3.757,25.656,4.261,31.686-2.029,39.282-2.029,39.282l68.039-.634L305.9,455.141s16.15-22.05,18.621-26.8,4.546-13.509,4.119-21.5M318.181,391.5a2.169,2.169,0,0,1-.445-.074,1.044,1.044,0,0,1-.212.365.97.97,0,0,1-.674.279,1,1,0,0,1-.674-.279,3.387,3.387,0,0,1-.432-.489,2.486,2.486,0,0,1-.3-.587.809.809,0,0,1,.02-.56,2.586,2.586,0,0,1-.494-.523.961.961,0,0,1,.342-1.3.979.979,0,0,1,1.3.342c.141.2.559.322.781.445s.542.463.783.478c1.221.072,1.225,1.977,0,1.905m1.854-29.658a2.117,2.117,0,0,1-1.4.35,1.026,1.026,0,0,1-.1.3.971.971,0,0,1-1.3.342,4.182,4.182,0,0,1-1.546-1.63.906.906,0,0,1-.068-.784,2.052,2.052,0,0,1-.865-1.682.97.97,0,0,1,.953-.953,6.561,6.561,0,0,1,4.687,1.5.9.9,0,0,1-.019,1.321.909.909,0,0,1-.343,1.231" transform="translate(-165.682 -245.452)" fill="#fff"/>
        <path id="패스_498" data-name="패스 498" d="M290.356,251.9l85.125-5.338,3.177,2.416.319,139.506-80.467,7.075-2.767-7.221-.886-52.935Z" transform="translate(-235.03 -199.578)" fill="#fff"/>
        <path id="패스_499" data-name="패스 499" d="M289.495,374.2c-.523-.014-1.045-.073-1.568-.1-.424-.013-.853.006-1.276-.031-.2-.018-.4-.042-.607-.074a6.187,6.187,0,0,1-.619-.145,6.739,6.739,0,0,1-2.183-1.107,4.033,4.033,0,0,1-.765-.782,4.306,4.306,0,0,1-.318-.445,5.73,5.73,0,0,1-.282-.544,9.492,9.492,0,0,1-.464-1.12,3.07,3.07,0,0,1-.117-.833,4.561,4.561,0,0,1,.008-.616c-.023-.058-.04-.114-.053-.16a3.3,3.3,0,0,1-.09-.784c-.06-1.241-.227-2.473-.313-3.712-.04-.568-.076-1.136-.123-1.7-.055-.659-.1-1.318-.132-1.979-.031-.7-.056-1.4-.078-2.1-.021-.66-.021-1.32-.021-1.98,0-1.2.006-2.407-.03-3.61-.027-.633-.062-1.266-.09-1.9-.033-.73-.075-1.457-.144-2.185-.062-.65-.125-1.3-.17-1.952-.048-.693-.084-1.387-.145-2.079-.066-.756-.143-1.512-.205-2.268s-.1-1.52-.155-2.281c-.05-.742-.112-1.483-.148-2.226-.035-.727-.039-1.454-.04-2.181q0-1.542-.039-3.082c-.013-.58-.007-1.16-.017-1.74s-.026-1.165-.045-1.748c-.037-.792-.1-1.583-.14-2.375-.047-1.011-.084-2.022-.156-3.032-.068-.943-.14-1.885-.185-2.829-.025-.513-.043-1.026-.066-1.539s-.068-1.037-.125-1.554c-.05-.42-.1-.84-.145-1.262s-.068-.818-.095-1.227c-.057-.864-.115-1.727-.154-2.591-.073-1.668-.1-3.337-.159-5-.023-.561-.044-1.122-.064-1.683-.056-1.294-.146-2.587-.232-3.879-.04-.6-.091-1.2-.131-1.8-.044-.667-.068-1.335-.09-2-.041-.974-.121-1.944-.232-2.912l.021.171c-.05-.425-.1-.849-.135-1.275-.03-.409-.046-.819-.061-1.228-.048-1.06-.17-2.116-.274-3.171-.053-.55-.111-1.1-.153-1.65-.051-.671-.064-1.344-.1-2.016-.04-.72-.084-1.44-.145-2.159-.064-.745-.129-1.49-.173-2.237-.01-.169-.018-.339-.025-.509,0-.059,0-.118-.006-.177,0-.026,0-.052,0-.078,0-.059,0-.117-.007-.176-.036-.942-.029-1.886-.059-2.828-.033-.7-.087-1.394-.108-2.092-.022-.726-.018-1.453-.041-2.179-.053-1.15-.161-2.3-.233-3.445-.076-1.215-.141-2.43-.213-3.645-.038-.62-.07-1.24-.117-1.859-.043-.574-.11-1.145-.163-1.718-.1-1.139-.132-2.282-.17-3.424-.031-.807-.062-1.614-.067-2.421,0-.834-.016-1.667-.043-2.5-.027-.647-.059-1.292-.078-1.94-.017-.6-.027-1.2-.048-1.793-.05-1.018-.175-2.031-.26-3.047-.047-.557-.081-1.116-.113-1.675-.036-.614-.068-1.228-.07-1.843-.005-1.181-.02-2.361-.051-3.542-.03-1.2-.008-2.4-.047-3.6-.046-1-.148-2-.243-3-.1-1.017-.161-2.038-.277-3.053l0,.028c0-.015,0-.03,0-.044s0-.042-.007-.062l0,.044c-.048-.4-.1-.8-.133-1.2-.046-.5-.066-.994-.069-1.493,0-.469.015-.938.038-1.407.01-.215.018-.432.037-.648a2.07,2.07,0,0,1,.085-.474.4.4,0,0,1,.067-.128c-.022-.083-.039-.167-.056-.251a5.01,5.01,0,0,1-.079-.584,3.473,3.473,0,0,1-.021-.612,4.1,4.1,0,0,1,.313-1.171,4.569,4.569,0,0,1,.667-1.07,7.476,7.476,0,0,1,1.061-1.028,6.532,6.532,0,0,1,1.328-.838,13.589,13.589,0,0,1,1.316-.584,8.546,8.546,0,0,1,1.323-.362c.239-.048.478-.1.717-.146.855-.2,1.7-.434,2.568-.562.912-.135,1.834-.19,2.745-.331.465-.072.929-.148,1.4-.21.494-.066.988-.126,1.482-.185.94-.112,1.877-.247,2.817-.361.817-.1,1.633-.19,2.448-.3.8-.11,1.6-.2,2.4-.238,1.628-.087,3.258-.16,4.883-.3h0c.684-.067,1.366-.151,2.05-.222.717-.074,1.434-.137,2.152-.205l-.08.007c.713-.074,1.425-.149,2.139-.21s1.445-.107,2.166-.172c.942-.1,1.883-.2,2.828-.261.964-.067,1.927-.144,2.891-.217s1.941-.152,2.911-.244,1.929-.148,2.894-.22c.151-.011.3-.026.452-.039.885-.09,1.768-.2,2.659-.23.454-.015.909-.027,1.364-.056.472-.03.944-.069,1.417-.1.925-.058,1.853-.067,2.779-.095.449-.014.9-.043,1.347-.069.482-.027.965-.054,1.446-.085.961-.062,1.921-.154,2.884-.183.457-.014.914-.016,1.371-.031.486-.015.97-.039,1.456-.068.961-.058,1.924-.066,2.887-.064h1.048c.574,0,1.149,0,1.723,0,.424,0,.848-.006,1.273-.015.477-.01.955-.02,1.432-.013.456.007.91.04,1.365.052s.9,0,1.355-.009c.952-.026,1.9-.061,2.858-.066.449,0,.9-.014,1.347-.04.419-.025.835-.057,1.255-.041s.839.045,1.258.059c.216.007.431,0,.647,0,.194,0,.388,0,.582,0,.475.013.949.05,1.424.083a9.05,9.05,0,0,1,1.264.149c.2.042.4.1.592.161s.4.119.594.183a8.8,8.8,0,0,1,1.141.474,6.508,6.508,0,0,1,.847.479c.17.117.333.247.494.376a2.9,2.9,0,0,1,.554.584,3.273,3.273,0,0,1,.3.624c.069.148.153.287.229.43a2.192,2.192,0,0,1,.18.467c.085.32.1.652.178.973.068.288.152.575.21.865a1.456,1.456,0,0,1,.013.459c-.021.187-.013.376-.04.563a.65.65,0,0,1-.271.4c.038.457.054.916.1,1.372.044.482.088.964.112,1.448.043.867.082,1.734.131,2.6.054.971.171,1.939.212,2.911.007.194.013.387.02.58,0-.007,0-.013,0-.02q0,.061,0,.124h0v0a.006.006,0,0,1,0,0c0,.009,0,.018,0,.027v0c0,.042,0,.084,0,.126,0-.042,0-.083,0-.124.039.806.153,1.6.208,2.407.064.97.047,1.942.079,2.913.035.717.091,1.433.132,2.15.044.777.085,1.555.135,2.332.05.8.108,1.6.127,2.4s.008,1.61.031,2.415c.043.8.145,1.6.194,2.4.044.71.05,1.421.072,2.132.044.953.127,1.9.174,2.855.045.9.1,1.806.163,2.708s.147,1.825.218,2.738c.07.894.1,1.788.133,2.684.026.644.062,1.286.088,1.93.03.73.034,1.46.036,2.191,0,1.368,0,2.736.026,4.1.029,1.531.016,3.062.016,4.593,0,.792.015,1.582.032,2.372.015.723.021,1.445.043,2.168,0,.094.007.188.01.282q.027.746.055,1.491c.049,1.153.119,2.3.138,3.459s.009,2.3.047,3.452c.031.711.072,1.421.094,2.132.02.665.022,1.33.041,2,.066,1.34.273,2.667.315,4.009s.056,2.665.056,4q0,3.987,0,7.973c0,.711,0,1.423-.013,2.135s-.043,1.445-.072,2.168c-.054,1.42-.044,2.84-.042,4.261,0,1.444,0,2.888,0,4.332s0,2.873-.032,4.309-.048,2.9-.019,4.348c.008.378.021.755.035,1.133v0c.05,1.351.08,2.7.081,4.052,0,1.51-.011,3.02-.026,4.53-.029,2.888-.07,5.777-.048,8.666.007,1.026,0,2.051.036,3.077.054,1.163.134,2.324.187,3.487.052,1.131.047,2.263.082,3.394.034.735.091,1.467.141,2.2.053.764.122,1.527.156,2.292.035.792.039,1.586.04,2.379q0,.588,0,1.177c0,.187,0,.376,0,.564a.225.225,0,0,1,.076.18,3.053,3.053,0,0,1-.2,1.058,3.41,3.41,0,0,1-.27.606,4.171,4.171,0,0,1-.252.371,5.739,5.739,0,0,1-.555.669,4.837,4.837,0,0,1-2.459,1.277c-.14.027-.28.054-.421.083-.271.062-.538.138-.811.191s-.557.087-.839.115l.079-.008c-.484.046-.97.049-1.454.088-.676.067-1.348.169-2.024.247-.719.083-1.441.142-2.157.247-.784.116-1.563.24-2.355.284-.353.019-.706.034-1.059.051s-.722.052-1.082.086c-.418.042-.836.084-1.256.109-.437.026-.875.031-1.313.039-.413.007-.826.026-1.239.032-.466.007-.933.006-1.4.009-.9.006-1.809.052-2.711.1q-.681.035-1.36.091h-.026q-.443.043-.885.091c-.505.055-1.011.1-1.516.146-.412.044-.823.1-1.232.165-.429.072-.858.148-1.292.185-.872.074-1.748.053-2.621.115-.447.032-.892.082-1.339.122s-.9.072-1.358.1c-.871.062-1.742.132-2.613.2q-.449.033-.9.072c-.7.07-1.407.155-2.113.2-.762.051-1.526.055-2.289.091s-1.534.088-2.3.128q-1.069.056-2.135.149c-.838.092-1.669.218-2.5.369-.426.077-.853.156-1.283.2-.4.047-.81.087-1.216.126h0l-.065.006.038,0q-.624.062-1.248.136l-.689.079-.274.028-.219.021c-.035,0-.071.009-.107.01l-.025,0c-.236.019-.472.038-.708.052-.442.027-.885.039-1.328.057s-.869.044-1.3.05c-.481.007-.961,0-1.442,0-.411,0-.824-.007-1.235,0-.6,0-1.192.016-1.788.031s-1.22.048-1.83.072c-.572.023-1.146.006-1.717,0a16.6,16.6,0,0,0-1.741.086l.069-.007-.206.02.068-.007c-.558.054-1.115.09-1.676.11-.508.018-1.015.027-1.523.055-.474.025-.946.064-1.421.086-.493.023-.986.034-1.478.072-.512.051-1.022.105-1.536.121-.27.008-.541.007-.812.007s-.523,0-.783.006c-.432.013-.863.033-1.294.033-.105,0-.21,0-.316,0m63.333-4.861.3-.026.014,0-.316.029M280.553,298q.1.984.164,1.971c.041.612.078,1.224.123,1.836s.123,1.2.173,1.806c.054.639.079,1.281.123,1.921.048.7.12,1.4.154,2.1.017.345.016.691.018,1.036q.005.572.02,1.144c.017.635.084,1.267.144,1.9.071.743.123,1.488.182,2.232.055.69.148,1.375.232,2.061.08.651.133,1.3.168,1.956.038.712.063,1.426.08,2.139s.025,1.449.068,2.172c.04.676.09,1.349.1,2.026s.022,1.342.051,2.014.053,1.344.076,2.017c.023.651.041,1.3.078,1.953.04.715.1,1.428.151,2.142.09,1.316.159,2.633.225,3.95.034.675.058,1.35.085,2.026.024.61.06,1.218.08,1.828.021.645.033,1.291.085,1.934.056.7.15,1.4.175,2.1.024.682.01,1.365.033,2.047.01.314.03.628.046.942.018.374.019.749.017,1.124,0,.643-.065,1.283-.066,1.926,0,.3.023.591.046.886.026.333.051.667.068,1s.009.66,0,.989-.036.687-.036,1.031a19.021,19.021,0,0,0,.151,2.031c.075.69.118,1.383.166,2.075s.11,1.38.18,2.069c.042.418.1.835.149,1.252.048.381.091.763.138,1.145a17.874,17.874,0,0,0,.364,1.794c.029.112.057.224.087.337.095-.035.194-.06.292-.087s.215-.056.324-.076a7.442,7.442,0,0,1,.78-.107c.463-.037.929-.031,1.393-.046.506-.015,1.011-.06,1.516-.1s1.006-.083,1.509-.129c.425-.041.849-.089,1.273-.139s.831-.092,1.248-.107.832-.009,1.248-.019.853-.032,1.28-.067c.615-.064,1.228-.119,1.844-.16.571-.038,1.144-.062,1.714-.11.8-.084,1.586-.214,2.38-.311.438-.054.877-.1,1.315-.16.395-.051.79-.1,1.188-.13.845-.062,1.694-.086,2.541-.135.43-.025.86-.033,1.291-.03.4,0,.789,0,1.184-.03l.172-.014c.639-.07,1.275-.18,1.917-.221.664-.043,1.328-.045,1.991-.1.408-.04.815-.084,1.223-.121s.835-.06,1.253-.084c.829-.046,1.656-.121,2.485-.172.8-.05,1.61-.06,2.414-.1.834-.042,1.67-.076,2.5-.15l.28-.025-.085.009c.84-.082,1.68-.172,2.519-.253l-.087.008.292-.028-.088.009c.4-.041.793-.079,1.189-.13.453-.058.906-.119,1.36-.172.86-.1,1.725-.126,2.589-.174.416-.024.831-.056,1.247-.073.454-.018.908-.026,1.361-.033.841-.011,1.68-.055,2.519-.107.458-.028.916-.06,1.373-.1.588-.059,1.175-.121,1.764-.174.565-.05,1.13-.091,1.694-.143l-.1.01c.558-.055,1.114-.126,1.67-.188s1.141-.112,1.714-.147c1.1-.067,2.2-.156,3.3-.249.7-.07,1.4-.164,2.1-.226.369-.033.741-.042,1.111-.058.33-.015.659-.038.987-.068.844-.089,1.685-.213,2.527-.313.809-.1,1.619-.176,2.43-.252.406-.039.813-.076,1.221-.1s.789-.042,1.184-.065.8-.07,1.2-.093.832-.03,1.249-.025c.568.005,1.135.015,1.7.025.246,0,.493.013.739.023.073,0,.146.005.219,0,0-.01,0-.021,0-.031.007-.146.019-.291.024-.438,0-.163,0-.326-.01-.488-.01-.265-.031-.53-.042-.795-.014-.315-.009-.632-.027-.947-.038-.637-.1-1.272-.124-1.911-.018-.609-.013-1.222.017-1.831.031-.627.09-1.251.1-1.879s-.01-1.236.007-1.853c.008-.315.029-.63.046-.945s.023-.652.039-.978c.032-.626.107-1.25.115-1.877,0-.283,0-.567.012-.851.01-.322.027-.643.042-.964s.021-.638.021-.957-.02-.665-.039-1c-.034-.6-.056-1.2-.048-1.806s.051-1.189.073-1.784q.033-.919.073-1.838c.025-.591,0-1.182-.012-1.773,0-.312,0-.624,0-.936,0-.361,0-.723-.005-1.085,0-.565.024-1.128-.006-1.692-.016-.3-.045-.607-.064-.91s-.025-.583-.019-.874c.007-.308.021-.615.023-.923,0-.391-.013-.779-.036-1.169q-.059-1.032-.08-2.063c-.007-.292-.01-.584-.014-.876s-.021-.59-.026-.885c-.01-.63.063-1.256.077-1.885.007-.307,0-.614,0-.921s.006-.605.013-.908c.015-.687,0-1.373,0-2.059,0-.331,0-.661-.01-.991s-.025-.685-.039-1.027c-.026-.625-.007-1.248.011-1.873.01-.353.019-.706.02-1.059,0-.337,0-.674.01-1.012.018-.626.065-1.252.08-1.879s-.01-1.255-.018-1.883-.018-1.274-.041-1.911-.062-1.278-.074-1.919c-.007-.329,0-.658,0-.986,0-.308,0-.615-.012-.922-.007-.257-.013-.513-.025-.77s-.043-.523-.055-.785c-.032-.633-.1-1.263-.113-1.9-.007-.327-.014-.654-.027-.981s-.04-.625-.061-.937c-.044-.651-.062-1.3-.061-1.956,0-.684,0-1.367,0-2.05,0-.62.039-1.239.027-1.859-.006-.278-.018-.555-.043-.832s-.062-.564-.1-.845c-.064-.531-.076-1.064-.1-1.6-.012-.27-.031-.541-.047-.81-.019-.324-.025-.649-.034-.974-.017-.647-.028-1.292-.011-1.938.009-.314.027-.628.042-.941.015-.331.021-.663.023-.994.006-.74.04-1.48.067-2.22.025-.692.035-1.385.076-2.077.039-.655.116-1.308.155-1.963.022-.352.025-.7.029-1.057,0-.368.014-.737.023-1.1.017-.735.014-1.469-.023-2.2-.032-.631-.055-1.262-.085-1.892s-.063-1.241-.093-1.862c-.034-.677-.041-1.354-.043-2.032,0-.654-.027-1.307-.045-1.961-.016-.61-.009-1.221,0-1.831.005-.649-.009-1.3-.062-1.945-.029-.344-.058-.689-.067-1.034-.008-.318-.009-.636-.012-.954-.006-.672-.046-1.341-.066-2.011-.01-.326-.013-.651-.022-.977-.01-.4-.027-.8-.038-1.193q-.031-1.064,0-2.127c.019-.614.049-1.228.056-1.843.007-.648-.039-1.294-.073-1.941-.032-.61-.023-1.222-.034-1.832-.005-.26-.008-.521-.018-.78-.013-.347-.047-.691-.093-1.035-.04-.3-.067-.6-.079-.9-.015-.378,0-.758.007-1.136.008-.334.014-.668.012-1,0-.353-.024-.708-.049-1.06-.04-.581-.092-1.161-.14-1.742-.046-.541-.1-1.082-.173-1.62,0,.014,0,.028.006.042-.068-.485-.135-.969-.19-1.456-.065-.575-.121-1.151-.172-1.727-.054-.608-.09-1.215-.122-1.825q-.047-.883-.125-1.762c-.043-.492-.093-.985-.111-1.478-.018-.51-.008-1.022.01-1.532s.047-1,.046-1.494c0-.237-.01-.474-.02-.709-.19.006-.38,0-.57.018-.3.031-.6.072-.907.1-.327.026-.655.039-.983.068-.274.028-.547.062-.821.078a3.991,3.991,0,0,1-.413-.009c-.145-.007-.289-.015-.434-.023-.707-.035-1.414-.041-2.122-.045-.738,0-1.474.013-2.211.047-.769.035-1.538.05-2.306.111-.377.03-.754.058-1.132.075s-.729.033-1.092.062c-.41.041-.819.087-1.229.12s-.851.046-1.276.07c-.454.026-.906.068-1.36.1s-.894.047-1.341.072c-.43.024-.861.06-1.291.089s-.891.037-1.336.046-.879.032-1.318.056c-.463.026-.925.037-1.388.058s-.9.065-1.358.1-.908.054-1.364.067c-.893.026-1.784.068-2.677.1-.912.03-1.825.079-2.736.134-.409.024-.818.062-1.227.093q-.656.051-1.313.079-.753.034-1.5.1l-.2.019-.064.006c-.078.012-.158.015-.237.023l-.38.035c-.472.043-.944.081-1.416.119-.455.036-.911.05-1.368.062s-.89.028-1.334.054c-.409.024-.817.058-1.226.071-.448.014-.9.023-1.344.038-.425.014-.851.035-1.276.055-.44.02-.88.05-1.319.084-.41.031-.821.071-1.233.089-.447.019-.893.032-1.34.05s-.87.038-1.305.05c-.414.011-.828.007-1.242.027-.441.021-.882.05-1.323.066s-.89.011-1.335.023c-.42.011-.839.047-1.258.086l-.167.015c-.665.065-1.33.124-2,.165-.359.022-.72.03-1.079.038s-.7.028-1.056.058-.688.088-1.031.132-.664.067-1,.094-.669.048-1,.079c-.352.031-.7.065-1.055.092-.3.023-.605.038-.907.057-.347.022-.694.055-1.041.08-.366.027-.732.04-1.1.051s-.71.031-1.065.06c-.467.048-.933.107-1.4.135s-.959.043-1.438.08c-.684.071-1.363.175-2.046.257-.708.084-1.413.181-2.121.265-.354.042-.708.087-1.061.138s-.688.11-1.031.164c-.721.114-1.452.123-2.177.185-.435.051-.867.127-1.3.2-.455.079-.911.142-1.369.2-.893.106-1.79.163-2.686.243l-.081.009q.011.27.026.539c.017.307.034.615.067.921.036.342.078.683.115,1.025a16.254,16.254,0,0,1,.054,1.794c0,.64.015,1.279.026,1.918.023,1.4-.009,2.794.024,4.192.016.652.037,1.3.037,1.957,0,.671-.024,1.342-.053,2.012-.026.626-.072,1.251-.086,1.877s0,1.254.029,1.88c.026.582.038,1.162.034,1.745,0,.3-.008.6-.01.906,0,.36.006.72.008,1.08.009,1.441-.018,2.883.049,4.323.027.6.066,1.2.082,1.8.017.651.043,1.3.052,1.952.017,1.267-.034,2.537.022,3.8.026.574.053,1.147.051,1.721,0,.646-.033,1.292-.028,1.939,0,.321.016.642.022.962.006.363.009.726.01,1.09,0,.691.01,1.383.034,2.074.047,1.346.151,2.689.222,4.034.026.475.037.951.054,1.426s.064.962.126,1.441c.044.31.092.62.14.931.054.359.093.72.132,1.08q.1.963.209,1.925c.066.611.125,1.223.169,1.836.051.712.088,1.425.136,2.138.044.67.108,1.339.145,2.009.04.726.015,1.453.026,2.18.006.347.012.694.036,1.04.026.369.058.737.083,1.106.051.744.055,1.489.087,2.235.028.63.11,1.259.2,1.884,0,0,0-.009,0-.013.088.622.174,1.244.235,1.869m81.38-75.116.133-.017.006-.007Z" transform="translate(-221.482 -172.84)"/>
        <path id="패스_500" data-name="패스 500" d="M207.36,706.914a1.913,1.913,0,0,1-.06-.9c.09-.807.209-1.61.314-2.414.12-.919.217-1.841.313-2.763.128-1.281.238-2.564.3-3.849q.1-1.955.161-3.911c.038-1.273.083-2.546.146-3.818.067-1.349.131-2.7.16-4.049,0-.086,0-.172.006-.258.028-2.271.041-4.541-.008-6.813-.049-2.248-.127-4.5-.278-6.74-.1-1.313-.207-2.625-.314-3.937-.114-1.38-.211-2.761-.323-4.141-.11-1.361-.284-2.715-.469-4.068-.176-1.292-.357-2.583-.566-3.87s-.42-2.581-.593-3.878c-.179-1.34-.335-2.685-.5-4.028-.316-2.647-.615-5.3-1.008-7.933-.1-.667-.208-1.333-.3-2s-.178-1.359-.263-2.039c-.166-1.325-.34-2.648-.505-3.972-.167-1.34-.344-2.679-.479-4.022-.131-1.3-.242-2.6-.347-3.907-.1-1.178-.174-2.356-.256-3.535,0,.026,0,.052.006.079-.1-1.324-.236-2.645-.372-3.966-.139-1.344-.232-2.689-.266-4.039-.034-1.373-.033-2.746-.046-4.12q-.019-1.92-.042-3.841-.012-1.03.018-2.06c.019-.639.059-1.277.1-1.915.082-1.294.146-2.59.267-3.88.062-.667.143-1.333.22-2s.16-1.336.263-2c.194-1.254.461-2.5.749-3.734a22.639,22.639,0,0,1,1.087-3.621,18.838,18.838,0,0,1,.853-1.725c.336-.615.7-1.213,1.08-1.8.335-.517.693-1.02,1.053-1.519a8.234,8.234,0,0,1,1.479-1.56,5.055,5.055,0,0,1,1.606-.838,5.859,5.859,0,0,1,1.786-.331,8.286,8.286,0,0,1,.973.046,5.927,5.927,0,0,1,.968.216,9,9,0,0,1,.945.345,5.659,5.659,0,0,1,1.634,1.025,7.452,7.452,0,0,1,.658.647,11.116,11.116,0,0,1,1.129,1.462,12.875,12.875,0,0,1,.931,1.758,16.117,16.117,0,0,1,.7,1.879,28.615,28.615,0,0,1,.739,3.8c.119.695.241,1.389.328,2.09s.172,1.414.291,2.118v0c.092.529.183,1.058.251,1.591a10.964,10.964,0,0,1,.079,1.535c-.007.557-.06,1.114-.1,1.669-.035.521-.055,1.041-.066,1.562,0,.339,0,.677,0,1.016s0,.7-.027,1.054c-.028.323-.076.64-.134.957a1.805,1.805,0,0,1-.177.609c-.052.087-.136.1-.166-.01a1.224,1.224,0,0,1-.018-.338c0-.224.018-.447.025-.67,0-.241-.008-.48-.024-.721-.051-.614-.1-1.227-.12-1.843-.026-.669,0-1.341.012-2.01.006-.336,0-.671-.007-1.007-.025-.3-.061-.6-.1-.9-.125-.69-.292-1.371-.422-2.06-.124-.65-.211-1.306-.317-1.959-.135-.756-.3-1.508-.437-2.263-.151-.8-.291-1.6-.508-2.388a18.609,18.609,0,0,0-.784-2.055,13.327,13.327,0,0,0-1.013-1.768,10.794,10.794,0,0,0-1.472-1.613c-.2-.159-.4-.308-.615-.45a5.6,5.6,0,0,0-.869-.448,10.176,10.176,0,0,0-1.02-.348,6.54,6.54,0,0,0-1.058-.2,6.1,6.1,0,0,0-.922.006,7.891,7.891,0,0,0-.982.165,6.189,6.189,0,0,0-1.234.47c-.182.116-.353.239-.522.372a9.477,9.477,0,0,0-.747.723c-.434.515-.83,1.061-1.218,1.611-.4.585-.766,1.185-1.115,1.8-.209.386-.408.777-.591,1.176-.1.234-.19.47-.276.709-.135.411-.256.825-.369,1.242q-.486,1.91-.848,3.848c-.242,1.42-.4,2.853-.552,4.285-.09.978-.144,1.959-.206,2.939-.064,1.015-.133,2.029-.163,3.045-.013.91,0,1.82.011,2.73.016.96.022,1.92.032,2.88.02,1.941.019,3.881.141,5.819.105,1.283.257,2.56.383,3.84.128,1.306.228,2.615.336,3.923.215,2.582.468,5.162.8,7.731.172,1.322.353,2.643.527,3.965s.336,2.659.542,3.983c.1.659.212,1.317.309,1.977.094.635.18,1.27.268,1.9.185,1.343.353,2.688.518,4.035.324,2.654.638,5.311,1.071,7.951.214,1.3.441,2.6.628,3.913.183,1.278.379,2.556.522,3.839.151,1.361.255,2.724.361,4.089.1,1.335.233,2.667.343,4,.112,1.368.223,2.738.285,4.109s.115,2.729.154,4.093.058,2.748.055,4.122c0,1.393,0,2.789-.051,4.182-.045,1.345-.1,2.689-.165,4.033-.059,1.276-.1,2.553-.139,3.829-.07,2.222-.178,4.441-.379,6.655-.1,1.127-.218,2.255-.357,3.378-.066.526-.137,1.051-.2,1.576-.059.462-.1.928-.166,1.388a2.478,2.478,0,0,1-.33.958c-.112.179-.287.4-.517.428l-.035,0c-.194,0-.318-.171-.383-.34" transform="translate(-163.328 -467.219)"/>
        <path id="패스_501" data-name="패스 501" d="M755.747,335.555a1.178,1.178,0,0,1-.131-.567,2.38,2.38,0,0,1,.171-.936,5.6,5.6,0,0,1,.389-.73q.2-.346.414-.687c.29-.467.59-.927.895-1.384s.63-.924.929-1.4.574-.935.843-1.413q.369-.673.739-1.344l-.008.015.012-.023.069-.124-.045.081c.717-1.3,1.4-2.623,2.013-3.978.33-.73.664-1.458,1.023-2.174.352-.7.7-1.4,1.035-2.109.37-.789.766-1.566,1.133-2.356.149-.354.289-.711.422-1.071q.3-.9.55-1.806c.075-.3.143-.6.2-.905.084-.563.142-1.128.2-1.694.058-.6.105-1.2.128-1.8,0-.307-.006-.612-.022-.919-.037-.4-.079-.8-.148-1.2l.026.148-.055-.32c-.062-.3-.135-.6-.22-.893-.093-.262-.194-.515-.308-.766a10.053,10.053,0,0,0-.709-1.161,6.633,6.633,0,0,0-.737-.807,3.951,3.951,0,0,0-.865-.549,3.1,3.1,0,0,0-.809-.161,5.627,5.627,0,0,0-.74.037,5.725,5.725,0,0,0-.734.147c-.2.061-.407.121-.6.2a7.266,7.266,0,0,0-.66.306,7.959,7.959,0,0,0-.828.592,16.143,16.143,0,0,0-1.32,1.32c-.5.581-.969,1.193-1.418,1.817-.153.223-.3.449-.439.681-.03.054-.059.109-.086.164a1.183,1.183,0,0,1-.109.368c-.052.1-.143.252-.273.265-.1.01-.157-.072-.188-.153a.872.872,0,0,1-.01-.5c0-.02.01-.041.015-.061a4.372,4.372,0,0,1,.554-1.28c.194-.339.409-.665.627-.989.443-.659.9-1.3,1.4-1.918a10.414,10.414,0,0,1,1.621-1.7,5.248,5.248,0,0,1,1.021-.66,8.536,8.536,0,0,1,1.09-.424,4.181,4.181,0,0,1,2.478-.134,3.827,3.827,0,0,1,1.258.787,4.4,4.4,0,0,1,.392.4,5.625,5.625,0,0,1,.418.536,7.492,7.492,0,0,1,1.066,2.045,13.519,13.519,0,0,1,.487,2.4,22.06,22.06,0,0,1-.167,4.964,20.873,20.873,0,0,1-1.244,4.91,22.416,22.416,0,0,1-1.012,2.266c-.332.675-.64,1.361-.971,2.037-.347.708-.713,1.407-1.053,2.119-.332.7-.641,1.4-.972,2.1-.691,1.456-1.488,2.854-2.272,4.261l.081-.147c-.288.519-.576,1.038-.883,1.546-.3.489-.607.967-.926,1.441-.62.919-1.231,1.847-1.774,2.815a2.323,2.323,0,0,1-.246.393.632.632,0,0,1-.385.266l-.03,0a.358.358,0,0,1-.3-.2" transform="translate(-611.498 -243.218)"/>
        <path id="패스_502" data-name="패스 502" d="M769.756,479.479a1.806,1.806,0,0,1-.019-.981,4.884,4.884,0,0,1,.666-1.412c.175-.306.352-.611.524-.917.21-.39.406-.786.593-1.189q.308-.712.569-1.441c.549-1.6,1.036-3.216,1.475-4.849.081-.32.155-.639.221-.962.082-.519.14-1.039.194-1.562.087-.915.161-1.83.187-2.75,0-.71-.015-1.419-.046-2.128-.025-.31-.058-.616-.1-.925-.126-.654-.291-1.3-.47-1.936-.056-.186-.113-.372-.179-.555-.086-.236-.181-.466-.284-.694-.1-.2-.2-.39-.316-.578s-.252-.392-.386-.583c-.151-.2-.306-.4-.467-.588a6.194,6.194,0,0,0-.561-.572,4.157,4.157,0,0,0-.928-.6,3.033,3.033,0,0,0-.819-.15,4.791,4.791,0,0,0-1.409.144c-.231.063-.459.132-.683.217a6.045,6.045,0,0,0-.655.3,8.766,8.766,0,0,0-.986.693c-.265.225-.522.457-.775.7s-.487.5-.72.756c-.422.486-.812.992-1.183,1.517s-.724,1.041-1.062,1.577c-.161.256-.315.517-.476.774-.072.116-.144.232-.223.344-.048.067-.1.165-.183.195-.027.009-.036-.021-.039-.041a.054.054,0,0,1,0-.006.809.809,0,0,1,.041-.312c.05-.17.112-.335.178-.5.128-.322.271-.641.422-.953.324-.667.687-1.314,1.054-1.958a20.559,20.559,0,0,1,1.211-1.867,14.059,14.059,0,0,1,1.418-1.649,7.975,7.975,0,0,1,1.651-1.312,6.129,6.129,0,0,1,.93-.43,5.2,5.2,0,0,1,1-.279,4.852,4.852,0,0,1,1.106-.064,2.642,2.642,0,0,1,.807.166,3.623,3.623,0,0,1,.675.373,6.408,6.408,0,0,1,1.466,1.484,8.375,8.375,0,0,1,.935,1.533l-.049-.106.1.212-.05-.106a10.75,10.75,0,0,1,.557,1.5l-.015-.049a17.1,17.1,0,0,1,.552,2.2c.057.362.1.722.129,1.087s.041.756.053,1.134c.024.719.034,1.438,0,2.157s-.088,1.44-.153,2.159a23.744,23.744,0,0,1-.311,2.4c-.143.732-.349,1.453-.551,2.171-.191.683-.382,1.366-.6,2.042q-.35,1.1-.729,2.185c-.2.566-.428,1.117-.67,1.665a20.743,20.743,0,0,1-1,1.927c-.155.266-.312.531-.465.8l-.2.342a1.092,1.092,0,0,1-.486.527.335.335,0,0,1-.121.024.4.4,0,0,1-.342-.3" transform="translate(-616.161 -365.83)"/>
        <path id="패스_503" data-name="패스 503" d="M772.88,616.365a.681.681,0,0,1-.244-.514,1.992,1.992,0,0,1,.457-1.519l0-.005a13.063,13.063,0,0,0,.857-1.07q.754-1.139,1.437-2.325c.179-.331.346-.666.5-1.009.386-.9.737-1.819,1.067-2.743.137-.4.266-.8.38-1.2.043-.184.082-.368.119-.553.029-.2.054-.4.077-.608.042-.517.074-1.034.092-1.552,0-.554-.01-1.106-.043-1.659-.033-.35-.074-.7-.125-1.046-.109-.583-.247-1.157-.411-1.728-.264-.851-.553-1.694-.859-2.531-.32-.878-.634-1.757-1.012-2.612-.295-.622-.607-1.235-.948-1.832-.353-.618-.743-1.211-1.155-1.79-.569-.757-1.171-1.488-1.739-2.246-.284-.379-.57-.761-.881-1.118-.164-.187-.33-.371-.507-.546-.151-.149-.309-.287-.471-.424a9.349,9.349,0,0,0-2.075-1.271,2.744,2.744,0,0,0-.6-.142c-.1-.011-.205-.018-.309-.023-.457-.018-.915-.023-1.372,0a7.4,7.4,0,0,0-1.363.229c-.352.1-.7.207-1.043.341a8.713,8.713,0,0,0-.961.453l-.284.16c-.057.033-.169.123-.239.1v0c-.029-.008-.044-.055-.046-.092a.748.748,0,0,1,.132-.4,3.165,3.165,0,0,1,.35-.466,5.671,5.671,0,0,1,.842-.757,8.457,8.457,0,0,1,1.99-1.075,10.306,10.306,0,0,1,2.073-.533,2.953,2.953,0,0,1,1.362,0,5.638,5.638,0,0,1,1.036.427,8.777,8.777,0,0,1,1.809,1.233,13.442,13.442,0,0,1,1.459,1.634c.449.571.912,1.13,1.365,1.7a22.08,22.08,0,0,1,1.348,1.891A19.716,19.716,0,0,1,775.985,591a22.239,22.239,0,0,1,.928,2.14c.518,1.4,1.036,2.794,1.448,4.225a16.634,16.634,0,0,1,.467,2.247c.058.4.08.811.1,1.217.021.357.029.716.029,1.073,0,.807-.049,1.611-.12,2.414a12.114,12.114,0,0,1-.49,2.567c-.242.764-.514,1.517-.8,2.264-.271.7-.546,1.4-.867,2.075a18.142,18.142,0,0,1-1.091,1.948c-.4.635-.8,1.274-1.249,1.88a14.468,14.468,0,0,1-1.019,1.205.433.433,0,0,1-.3.149.269.269,0,0,1-.139-.038" transform="translate(-616.141 -471.241)"/>
        <path id="패스_504" data-name="패스 504" d="M594.821,839.866a1.548,1.548,0,0,1-.088-.515,2.548,2.548,0,0,1,.123-.859,3.245,3.245,0,0,1,.339-.748c.079-.124.171-.24.26-.356q.217-.287.437-.571.466-.6.94-1.2.943-1.195,1.909-2.372c.641-.782,1.284-1.563,1.919-2.35.622-.772,1.216-1.567,1.845-2.333.672-.818,1.362-1.619,2.058-2.416q.984-1.127,1.919-2.3c.668-.833,1.342-1.66,2.04-2.468.67-.775,1.359-1.534,2.024-2.312q.85-1,1.679-2.008c.554-.676,1.105-1.355,1.683-2.011l-.015.017.02-.023.082-.092-.05.057.581-.654c.4-.448.8-.892,1.2-1.338,1.054-1.192,2.084-2.406,3.171-3.568.532-.569,1.078-1.124,1.612-1.691.565-.6,1.12-1.2,1.671-1.814.671-.758,1.336-1.52,2-2.281s1.355-1.518,2.013-2.294c.347-.41.7-.819,1.029-1.244s.64-.828.957-1.245.638-.85.959-1.273.656-.837.988-1.251c.678-.846,1.356-1.691,2.018-2.55.625-.811,1.222-1.644,1.808-2.484l-.037.054.069-.1.027-.038-.018.026q.669-.967,1.339-1.933l-.1.137c.356-.517.713-1.033,1.053-1.559.35-.544.681-1.1,1-1.657.275-.5.544-1.009.8-1.521.268-.532.521-1.07.771-1.611.492-1.12.971-2.245,1.449-3.37.5-1.182.978-2.372,1.415-3.581q.629-1.834,1.133-3.7c.134-.545.256-1.091.363-1.642.054-.357.1-.713.146-1.072q.212-2.21.271-4.427.01-.686.006-1.371c0-.47-.033-.941-.065-1.41q-.1-1.191-.258-2.375c-.095-.719-.217-1.435-.338-2.15-.175-.949-.392-1.885-.657-2.813-.18-.6-.366-1.2-.576-1.784s-.444-1.134-.7-1.688c-.214-.439-.439-.87-.692-1.288-.3-.489-.615-.96-.947-1.424a23.317,23.317,0,0,0-1.49-1.824c-.481-.531-.952-1.076-1.483-1.557a6.807,6.807,0,0,0-.937-.628c-.4-.223-.806-.443-1.2-.679-.37-.221-.727-.463-1.1-.674a10.77,10.77,0,0,0-1.092-.532,6.5,6.5,0,0,0-.644-.207,2.978,2.978,0,0,0-.573-.076,4.228,4.228,0,0,0-.935.061,3.527,3.527,0,0,0-.609.247,4.631,4.631,0,0,0-.411.287c-.086.079-.169.159-.25.243s-.139.17-.206.257-.109.173-.161.261l-.065.135-.057.139q-.054.17-.1.341-.022.1-.043.208c-.025.168-.047.334-.066.5q-.025.353-.042.706c0,.319,0,.636.019.955.056.667.147,1.327.252,1.988.155.871.338,1.734.566,2.59s.48,1.732.735,2.593c.095.3.187.594.3.885.126.324.264.641.409.957q.448.917.925,1.82a17.23,17.23,0,0,0,1.067,1.823c.156.21.32.414.47.628a.379.379,0,0,1,.056.393c0-.01.009-.019.013-.028a.4.4,0,0,1-.058.1c-.112.143-.29.094-.433.029a2.822,2.822,0,0,1-1-.859,25.325,25.325,0,0,1-1.643-2.383,9.771,9.771,0,0,1-.689-1.314c-.2-.483-.378-.977-.546-1.473-.325-.961-.651-1.921-.909-2.9a27.742,27.742,0,0,1-.6-3.059,13.561,13.561,0,0,1-.067-3.274,8.328,8.328,0,0,1,.351-1.778,7.1,7.1,0,0,1,.346-.882,6.235,6.235,0,0,1,.425-.738,3.887,3.887,0,0,1,2.425-1.708,3.247,3.247,0,0,1,.632-.041,6.739,6.739,0,0,1,.721.044,3.658,3.658,0,0,1,.684.17,7.008,7.008,0,0,1,.668.258,11.794,11.794,0,0,1,1.237.618c.441.253.877.513,1.333.737a11.588,11.588,0,0,1,1.227.638,6.469,6.469,0,0,1,1.075.89c.659.667,1.336,1.325,1.932,2.051a20.177,20.177,0,0,1,1.82,2.573,17.886,17.886,0,0,1,1.242,2.672c.173.453.317.919.463,1.381q.246.778.454,1.567c.271,1.03.457,2.074.624,3.125.151.945.28,1.892.379,2.843.1.99.176,1.987.181,2.982a56.207,56.207,0,0,1-.268,5.791c0-.025,0-.049.008-.074l-.016.159,0,.049c0-.007,0-.013,0-.02q-.017.166-.034.332a23.247,23.247,0,0,1-.584,3.266c-.258,1.035-.562,2.057-.88,3.075A62.785,62.785,0,0,1,641,781.6c-.378.883-.751,1.769-1.138,2.647-.4.9-.833,1.79-1.292,2.665s-.963,1.756-1.507,2.6-1.112,1.65-1.681,2.466l.069-.1c-.61.878-1.206,1.765-1.839,2.627s-1.278,1.7-1.935,2.541-1.357,1.682-2.021,2.535c-.628.806-1.226,1.635-1.854,2.442s-1.295,1.572-1.966,2.337q-1.053,1.2-2.1,2.4c-.694.8-1.391,1.6-2.109,2.373s-1.473,1.56-2.216,2.335c-.377.393-.742.8-1.107,1.2-.537.609-1.068,1.223-1.607,1.831-.607.684-1.22,1.363-1.83,2.044l-.575.647.018-.02.029-.032,0,0,0,0,.021-.023c-.687.8-1.354,1.61-2.021,2.425q-.965,1.18-1.975,2.323c-.717.813-1.435,1.624-2.129,2.457-.668.8-1.31,1.622-1.966,2.431-.628.774-1.292,1.518-1.94,2.276-.676.791-1.339,1.591-1.978,2.413-.626.8-1.25,1.606-1.89,2.4s-1.27,1.565-1.9,2.35c-.47.584-.929,1.179-1.387,1.772-.385.5-.768,1-1.131,1.517-.074.111-.146.225-.227.33a1.73,1.73,0,0,1-.169.2.964.964,0,0,1-.275.18.337.337,0,0,1-.144.034c-.189,0-.334-.18-.4-.357m37.969-79.144c.01-.051.035-.015-.023.115a.325.325,0,0,0,.023-.115" transform="translate(-481.408 -599.446)"/>
        <path id="패스_505" data-name="패스 505" d="M784.26,754.755a1.848,1.848,0,0,1-.619-.17,3.241,3.241,0,0,1-.513-.278,2.173,2.173,0,0,1-.6-.62,2.965,2.965,0,0,1-.293-.638,5.487,5.487,0,0,1-.226-.9c-.028-.156-.052-.312-.067-.469a1.692,1.692,0,0,1,.032-.627c.019-.068.1-.26.206-.2a.13.13,0,0,1,.053.08c.03.084.052.171.077.257a8.364,8.364,0,0,0,.388,1.031,3.33,3.33,0,0,0,.224.387,2.188,2.188,0,0,0,.28.3,3.416,3.416,0,0,0,.79.451,2.354,2.354,0,0,0,.659.176c.108,0,.214,0,.322-.006a1.865,1.865,0,0,0,.3-.052,1.93,1.93,0,0,0,.3-.125,2.768,2.768,0,0,0,.258-.173c.061-.053.118-.109.174-.167.034-.042.068-.085.1-.128l-.005.008,0-.006c.031-.046.06-.093.089-.141.049-.08.13-.182.232-.193s.157.072.188.153a.827.827,0,0,1,.027.4,1.038,1.038,0,0,1-.149.432,2.924,2.924,0,0,1-.871.873,2.706,2.706,0,0,1-.327.173,2.308,2.308,0,0,1-.364.112,1.979,1.979,0,0,1-.492.056c-.059,0-.118,0-.176,0" transform="translate(-632.933 -607.775)"/>
        <path id="패스_506" data-name="패스 506" d="M784.711,595.864a2.252,2.252,0,0,1-.729-.155,4.565,4.565,0,0,1-.716-.364,4.469,4.469,0,0,1-1.14-1.081,4.772,4.772,0,0,1-.4-.734,8.016,8.016,0,0,1-.31-.755,4.875,4.875,0,0,1-.259-1.281,4.01,4.01,0,0,1,.032-.938.3.3,0,0,1,0-.048.264.264,0,0,1,.025-.085q.021-.09.051-.177a.6.6,0,0,1,.066-.151c.043-.069.165-.174.222-.054a1.17,1.17,0,0,1,.076.425c.01.124.027.248.047.371.03.144.064.285.1.426s.109.307.174.458a7.725,7.725,0,0,0,.559.955,2.742,2.742,0,0,0,.248.292c.093.093.192.179.292.264a5.134,5.134,0,0,0,.648.456,6.3,6.3,0,0,0,.705.348,2.908,2.908,0,0,0,.362.121,2.5,2.5,0,0,0,.413.062,2.408,2.408,0,0,0,.548-.046,1.854,1.854,0,0,0,.264-.1,2.032,2.032,0,0,0,.206-.143c.058-.053.114-.108.169-.165.141-.163.273-.332.4-.507.025-.038.05-.076.074-.115l0-.007.013-.03a.925.925,0,0,1,.293-.421.228.228,0,0,1,.311.017.684.684,0,0,1,.133.446,1.684,1.684,0,0,1-.165.745,3.66,3.66,0,0,1-.517.747,5.846,5.846,0,0,1-.725.785,1.847,1.847,0,0,1-.743.378,2.6,2.6,0,0,1-.592.068q-.072,0-.144,0" transform="translate(-632.302 -477.567)"/>
        <path id="패스_507" data-name="패스 507" d="M211.465,601.714a2.733,2.733,0,0,1-.767-.308,3.4,3.4,0,0,1-.681-.538,2.327,2.327,0,0,1-.312-.373,3.609,3.609,0,0,1-.251-.408,5.353,5.353,0,0,1-.378-1.011,6.143,6.143,0,0,1-.179-.99,2.288,2.288,0,0,1,.085-.992c.025-.067.129-.191.175-.067a2.07,2.07,0,0,1,.077.338c.027.144.064.286.1.428.072.233.157.46.252.685a5.3,5.3,0,0,0,.273.493c.067.09.136.177.209.263a2.759,2.759,0,0,0,.262.254,3.754,3.754,0,0,0,.38.267,3.549,3.549,0,0,0,.4.2,3.1,3.1,0,0,0,.824.191,3.135,3.135,0,0,0,.792-.087c.133-.041.262-.085.391-.135a2.539,2.539,0,0,0,.312-.153,5.469,5.469,0,0,0,.511-.363c.119-.108.232-.218.345-.333.1-.114.191-.228.284-.347s.153-.232.226-.351c.088-.166.17-.332.249-.5.107-.261.2-.525.3-.791.207-.6.409-1.2.576-1.819.14-.566.272-1.136.388-1.708.11-.544.225-1.088.327-1.633.1-.568.2-1.138.26-1.712.019-.236.031-.472.048-.708.014-.206.028-.412.035-.618,0-.067,0-.134,0-.2s-.011-.1-.016-.157a1.981,1.981,0,0,1,.078-.747,1.359,1.359,0,0,1,.321-.584.324.324,0,0,1,.387-.1.591.591,0,0,1,.213.45,11.322,11.322,0,0,1-.046,1.779c-.04.6-.122,1.194-.217,1.79s-.209,1.2-.334,1.79c-.119.568-.234,1.137-.368,1.7-.118.5-.236,1-.386,1.485-.157.511-.331,1.017-.507,1.521l.046-.133-.106.3.047-.133c-.106.3-.212.605-.335.9a8.862,8.862,0,0,1-.424.874,5.6,5.6,0,0,1-1.217,1.5,3.342,3.342,0,0,1-1.711.805,2.559,2.559,0,0,1-.373.027,2.9,2.9,0,0,1-.559-.055" transform="translate(-169.079 -475.207)"/>
        <path id="패스_508" data-name="패스 508" d="M213.625,673.576a6.915,6.915,0,0,1-.74-.384,2.336,2.336,0,0,1-.351-.228.2.2,0,0,1-.049-.18.3.3,0,0,1,.029-.1.191.191,0,0,1,.034-.05.2.2,0,0,1,.039-.021c0-.007,0-.011.014-.009l.027,0a.326.326,0,0,1,.071,0l.158.023.311.053c.221.038.445.063.666.1.066.011.1.092.11.148a.766.766,0,0,1-.126.569.189.189,0,0,1-.139.086.135.135,0,0,1-.052-.011" transform="translate(-171.994 -544.441)"/>
        <path id="패스_509" data-name="패스 509" d="M213.769,686.34a1.287,1.287,0,0,1-.28-.062.627.627,0,0,1-.25-.148.2.2,0,0,1-.032-.14.382.382,0,0,1,.054-.179.592.592,0,0,1,.084-.107,1.03,1.03,0,0,1,.09-.073.884.884,0,0,1,.152-.084,1,1,0,0,1,.341-.08c.072-.006.116.053.139.113a.616.616,0,0,1,.021.3.818.818,0,0,1-.11.319.248.248,0,0,1-.19.142h-.018" transform="translate(-172.579 -554.854)"/>
        <path id="패스_510" data-name="패스 510" d="M801.9,774.294a.9.9,0,0,1-.01-.506.93.93,0,0,1,.223-.454l.024-.025c.211-.267.425-.531.636-.8.061-.078.157-.168.266-.144s.158.148.181.244a1.1,1.1,0,0,1-.011.488,1.012,1.012,0,0,1-.247.506c-.2.193-.406.38-.6.581a.472.472,0,0,1-.224.25.17.17,0,0,1-.063.013.207.207,0,0,1-.176-.154" transform="translate(-649.07 -625.191)"/>
        <path id="패스_511" data-name="패스 511" d="M507.292,248.872a2.519,2.519,0,0,1,0-1.916c.086-.177.235-.4.458-.4s.372.22.458.4a2.516,2.516,0,0,1,0,1.916c-.086.177-.235.4-.458.4s-.372-.22-.458-.4" transform="translate(-410.476 -199.578)" fill="#fff"/>
        <path id="패스_512" data-name="패스 512" d="M804.292,26.212a5.476,5.476,0,0,0-.568-3.924c-.65-2.071-2.619-2.212-4.448-2.5a4.626,4.626,0,0,0-4.579,1.493,5.6,5.6,0,0,0-1.285,6.375c1.231,2.113,3.9,2.661,6.151,2.807,2.39.032,3.927-2.264,4.729-4.255m9.434-6.1a6.305,6.305,0,0,1,.28,1.525c-.563,1.381-2.469,1.507-3.388,2.594a9.207,9.207,0,0,0,.245,2.32c.6.343,2.731,1.557,2.362,2.359a4.554,4.554,0,0,0-.764,1.354,14.672,14.672,0,0,1-1.253,1.917c-.361.383-.754,1.036-1.292,1.125-.994-.423-1.98-.9-3-1.276a8.428,8.428,0,0,0-1.351,1.686c.022,1.1.541,2.219.225,3.315-.233.311-.705.413-1.02.6a9.669,9.669,0,0,1-3.99,1.208.371.371,0,0,1-.309-.195c-.542-.968-.711-2.108-1.5-2.9a4.861,4.861,0,0,1-1.675.126,2.529,2.529,0,0,0-1.1-.037c-.411.395-.9.732-1.319,1.125,0,0,0,0,0,0l-.564.648v0c-.034.049-.064.1-.092.146.1.022.069.23-.037.212a.143.143,0,0,1-.111-.084c-.185.176-.36.433-.633.443-1.04-.337-1.965-.939-2.978-1.342-.381-.136-.823-.264-.744-.763-.057-1.224.579-2.4.7-3.585.136-.486-.642-.709-.961-.949-.407-.188-.773-.47-1.174-.667-.364-.135-.716-.459-1.1-.217a20.138,20.138,0,0,1-3,.931c-.307.02-.751-.007-.848-.351-.356-1.213-.817-2.382-1.2-3.585a1.518,1.518,0,0,1-.143-1.062c.151-.316.593-.463.828-.685a11.73,11.73,0,0,1,2.488-1.223,9.645,9.645,0,0,0-.227-1.9,5.971,5.971,0,0,1,.019-2.044,17.881,17.881,0,0,1-2.066-1.505.74.74,0,0,1-.289-.618,3.668,3.668,0,0,1,.168-.49c.321-.793.756-1.529,1-2.34a7.354,7.354,0,0,1,.583-1.272c.089-.094.187-.017.207.081a1.925,1.925,0,0,1,.551.156,12,12,0,0,0,2.165.58,10.44,10.44,0,0,0,2.4.559c.633-.623,1.433-1.046,2.07-1.663.02-.751-.3-3.079.479-3.392a14.449,14.449,0,0,1,2.985-.907.908.908,0,0,1,.648.075c.877,1.085,1.257,2.5,2.273,3.486a14.816,14.816,0,0,0,3.3-.353c.37-.371.637-.838,1.011-1.209a15.732,15.732,0,0,1,1.8-1.646.691.691,0,0,1,.554-.159,14.942,14.942,0,0,1,2.888,1.322.488.488,0,0,1,.276.62c-.252.786-.432,1.591-.622,2.394a14.774,14.774,0,0,0-.4,1.907,19.894,19.894,0,0,0,1.6,1.216,9.739,9.739,0,0,1,4.267-.259.4.4,0,0,1,.227.24c.222.789.413,1.614.563,2.419" transform="translate(-632.933 -8.12)"/>
        <path id="패스_513" data-name="패스 513" d="M22.366,394.062a5.476,5.476,0,0,0-.568-3.924c-.65-2.071-2.619-2.212-4.448-2.5a4.626,4.626,0,0,0-4.579,1.493,5.6,5.6,0,0,0-1.285,6.375c1.231,2.113,3.9,2.661,6.151,2.807,2.39.032,3.927-2.264,4.729-4.255m9.434-6.1a6.306,6.306,0,0,1,.28,1.525c-.562,1.381-2.469,1.507-3.388,2.594a9.209,9.209,0,0,0,.245,2.32c.6.343,2.731,1.557,2.362,2.358a4.549,4.549,0,0,0-.764,1.354,14.662,14.662,0,0,1-1.253,1.917c-.361.383-.754,1.036-1.292,1.125-.995-.423-1.981-.9-3-1.276a8.426,8.426,0,0,0-1.35,1.686c.022,1.1.541,2.219.225,3.314-.233.311-.705.413-1.02.6a9.668,9.668,0,0,1-3.989,1.208.371.371,0,0,1-.309-.195c-.542-.968-.711-2.108-1.5-2.9a4.851,4.851,0,0,1-1.675.126,2.532,2.532,0,0,0-1.1-.037c-.411.395-.9.732-1.319,1.125,0,0,0,0,0,0l-.564.648v0c-.034.049-.064.1-.092.146.1.022.069.23-.037.211a.142.142,0,0,1-.111-.084c-.185.176-.36.433-.633.443-1.04-.338-1.965-.939-2.978-1.342-.381-.136-.823-.264-.744-.763-.057-1.224.579-2.4.7-3.585.136-.486-.642-.709-.961-.949-.407-.188-.773-.47-1.174-.667-.365-.134-.716-.459-1.1-.217a20.164,20.164,0,0,1-3,.931c-.307.02-.751-.007-.848-.351-.356-1.213-.816-2.382-1.2-3.585a1.518,1.518,0,0,1-.143-1.062c.151-.316.593-.464.828-.685a11.719,11.719,0,0,1,2.488-1.223,9.664,9.664,0,0,0-.227-1.9,5.97,5.97,0,0,1,.018-2.044A17.846,17.846,0,0,1,1.1,387.212a.741.741,0,0,1-.289-.618,3.675,3.675,0,0,1,.168-.49c.321-.793.756-1.529,1-2.34a7.356,7.356,0,0,1,.583-1.272c.089-.094.187-.017.207.081a1.919,1.919,0,0,1,.551.156,11.991,11.991,0,0,0,2.165.58,10.433,10.433,0,0,0,2.4.559c.633-.623,1.433-1.046,2.07-1.663.02-.751-.3-3.079.479-3.392a14.442,14.442,0,0,1,2.985-.907.909.909,0,0,1,.648.075c.877,1.085,1.256,2.5,2.273,3.486a14.816,14.816,0,0,0,3.3-.353c.37-.371.637-.838,1.011-1.209a15.738,15.738,0,0,1,1.8-1.646A.692.692,0,0,1,23,378.1a14.954,14.954,0,0,1,2.888,1.322.488.488,0,0,1,.276.62c-.252.786-.432,1.591-.622,2.394a14.787,14.787,0,0,0-.4,1.907,19.862,19.862,0,0,0,1.6,1.216,9.737,9.737,0,0,1,4.267-.259.4.4,0,0,1,.227.24c.221.789.413,1.614.563,2.419" transform="translate(0 -305.877)"/>
        <path id="패스_514" data-name="패스 514" d="M145.127.04c4.95.147,9.9.357,14.848.669,5.322.677,10.643,1.361,15.974,1.953,6.647-.015,7.6,7.388,7.926,12.567,1.494,11.229-2.144,12.425-12.145,14.858l.009,0-.021,0h0c-11.006,2.206-22.394,2.152-33.559,1.444a34.025,34.025,0,0,0-4.9-.156c-3.511.07-7-.374-10.5-.583a43.772,43.772,0,0,0-4.148,4.66c-.428.485-.692,1.264-1.362,1.448-2.015-.08-1.127-5.121-1.038-6.509-3.641.292-6.078-2.809-7.289-5.9-.7-2.013-.288-4.18-.562-6.262-.193-4.088-.579-8.259.439-12.275.478-3.724,4.768-3.621,7.654-4.072,4.813-.6,9.675-.538,14.487-1.153l-.1.01A79.071,79.071,0,0,1,145.127.04M117.679,3.364c-.379.036-.759.069-1.137.111q.581-.059,1.137-.111m57.858,23.865c-.117.01-.235.03-.353.044l.353-.044m-57.42,4.52a.691.691,0,0,1-.23-.05c0,.175-.008.351-.014.527.081-.159.163-.318.245-.477" transform="translate(-87.52 0.002)"/>
        <path id="패스_515" data-name="패스 515" d="M223.584,123.309c.861,1.879-1.489,1.665-2.656,1.732-2.681.094-5.368.132-8.046.292a155.841,155.841,0,0,1-24,.853c-4.513-.016-9.019.435-13.529.067l.091,0c-1.948-.172-3.95.138-5.868-.266a.819.819,0,0,1-.358-1.379A4.876,4.876,0,0,1,171.5,124c3.805-.553,7.634.178,11.449.248h-.022c2.213.086,4.424.2,6.637.3h-.035l.054,0h-.021l.056,0h-.023c7.281.091,14.532-.428,21.8-.776,2.347-.409,4.734-.312,7.1-.514,1.161.128,4.5-.656,5.09.044" transform="translate(-136.779 -99.574)" fill="#fff"/>
        <path id="패스_516" data-name="패스 516" d="M217.27,92.407c.726.206.676,1.292.075,1.624-.663.342-1.484.144-2.206.3l.02,0c-2.594.274-5.173.672-7.772.9l.092-.01-.025,0,.037,0-.076.008.022,0a85.265,85.265,0,0,1-15.048.579c-8.427-.115-16.857.476-25.283.213-1.893-.108-3.783-.289-5.669-.482-.959.082-1.682-.873-.7-1.505a59.019,59.019,0,0,1,7.387-.228c12.987-.182,26,.744,38.964-.307l-.075.008c.172-.02.343-.036.516-.054l-.036,0c3.263-.273,6.513-.924,9.777-1.045" transform="translate(-129.731 -74.799)" fill="#fff"/>
        <path id="패스_517" data-name="패스 517" d="M220.135,62.932c1.3,2.248-2.826,1.454-3.976,1.655-2.64.007-5.278.082-7.918.1-6.187.183-12.379.675-18.573.539h.011l-.534-.021h.023l-.077,0h.021l-.877-.035.1,0c-6.034-.259-12.062.484-18.1.257-1.139-.2-6.669.391-5.176-1.754.572-.506,1.464-.324,2.173-.451,1.792-.146,3.59-.191,5.387-.2,6.046-.052,12.092.192,18.137.016,5.072-.192,10.148.323,15.214-.015a78.473,78.473,0,0,1,9.343-.155c1.543.13,3.4-.417,4.821.06" transform="translate(-133.403 -50.779)" fill="#fff"/>
        <path id="패스_518" data-name="패스 518" d="M175.271,19.844c8.881.057,17.768.2,26.64.359,2.276-.091,4.553-.011,6.827.107,1.2.3,4.875-.949,4.331,1.222.3.351-.134.7-.5.6a37.764,37.764,0,0,1-6.5-.045l.041,0-.112,0,.057,0c-7.027-.01-14.052-.045-21.076.191-8.617-.318-17.241.113-25.866.085-1.7.3-2.16-1.348-.517-1.654a94.124,94.124,0,0,1,16.677-.868" transform="translate(-127.547 -16.047)" fill="#fff"/>
        <path id="패스_519" data-name="패스 519" d="M880.03,285.744s-.507,7.857,2.028,5.576,3.042-6.843,3.042-6.843,5.323,3.295,6.336-4.055,1.014-21.8,0-24.079-14.7-3.295-21.29-2.281-24.153-1.774-23.989,2.281-2.535,22.051,0,26.106,28.8,4.562,33.874,3.295" transform="translate(-684.041 -205.333)"/>
        <path id="패스_520" data-name="패스 520" d="M869.08,309.92c-.658-1.306.233-2.278.994-2.155a32.858,32.858,0,0,1,4.456-.35,128.38,128.38,0,0,1,13.064-2.064,95.117,95.117,0,0,1,14.641.2c.773.381,3.664-.444,2.645,2.135-.608.677-2.163.04-2.966.256-3.276.091-6.55-.045-9.826.094-7.428.426-14.844,1.462-22.269,1.947l.026,0-.073.012.036-.005c-.243.011-.513.2-.728-.069" transform="translate(-703.294 -247.021)" fill="#fff"/>
        <path id="패스_521" data-name="패스 521" d="M868.082,351.765a1.844,1.844,0,0,1,.133-1.723c-.333-.868,1.026-.352,1.251-.466A64.171,64.171,0,0,1,881.06,348.5c5.731-.176,11.467-.91,17.2-.721a44.792,44.792,0,0,1,7.613.7c.3.039.534.538.458,1.079-.169,1.881-4.283.973-5.249,1.225a47.868,47.868,0,0,0-7.265-.062c-4.253.039-8.5-.3-12.757-.148-2.911.122-5.822.235-8.73.624-.987.174-1.972.413-2.956.652-.42,0-.939.41-1.291-.084" transform="translate(-702.546 -281.482)" fill="#fff"/>
      </g>
    </g>
  </g>
</svg>
