<svg id="그룹_200" data-name="그룹 200" xmlns="http://www.w3.org/2000/svg" width="335.936" height="343.366" viewBox="0 0 335.936 343.366">
  <path id="패스_794" data-name="패스 794" d="M206.812,242.358c-6.426.086-12.846.251-19.255.793q-.607-3.258-1.049-6.46c4.425-.251,8.849-.4,13.279-.553q2.788-.086,5.588-.12c.188.867.393,1.733.61,2.594l.051.205q.385,1.8.775,3.541" transform="translate(-80.166 -101.447)" fill="#231f20"/>
  <path id="패스_795" data-name="패스 795" d="M134.966,240.655c-1.585.017-3.176.057-4.761.12-4.6.188-9.18.462-13.764.781-4.425.3-8.855.7-13.291.867-1.939.08-3.877.114-5.816.114q-3.866,0-7.726-.182c-2.2-.1-4.39-.171-6.585-.331-2.155-.16-4.311-.422-6.466-.61-.7-.057-1.386-.108-2.081-.154-1.066-.063-2.138-.1-3.21-.108-1.089-.006-2.184-.017-3.273-.086a23.608,23.608,0,0,1-3.159-.422,4.023,4.023,0,0,1-1.528-.6,2.924,2.924,0,0,1-1.192-2,25.464,25.464,0,0,1-.2-2.794c-.057-1.043-.125-2.081-.188-3.125-.143-2.138-.262-4.276-.376-6.42q-.188-3.524-.2-7.042c-.006-2.172.046-4.339.063-6.506.034-4.51.143-9.02.086-13.53-.034-2.281-.108-4.567-.108-6.853.006-2.246.063-4.493.1-6.739.063-4.464-.091-8.929-.154-13.393-.063-4.55-.1-9.094-.068-13.644q.051-6.774.2-13.542c.091-4.6.148-9.185.308-13.781q.239-6.748.507-13.49c.086-2.161.205-4.316.3-6.477s.188-4.35.3-6.523c.12-2.252.245-4.51.445-6.757.194-2.155.4-4.316.564-6.477.125-2.281.143-4.561.165-6.848.011-1.157.034-2.321.12-3.472a19.7,19.7,0,0,1,1.078-6.2,2.152,2.152,0,0,1,3.786-.393c.268-.023.536-.034.8-.051.867-.063,1.745-.114,2.611-.171,1.779-.131,3.552-.291,5.325-.445,1.887-.165,3.769-.336,5.645-.547,3.666-.428,7.327-.9,11.01-1.118,2.178-.125,4.356-.211,6.534-.234,2.11-.023,4.208.125,6.306.262a.194.194,0,0,1,.057.006c.063,0,.12.006.182.011,1.825.1,3.655.171,5.479.143,1.756-.029,3.507-.165,5.251-.251,1.83-.086,3.661-.16,5.485-.171.445-.006.9-.006,1.34-.006-17.681,21.376-26.941,47.632-26.9,76.591-.165,18.1,3.946,37.306,12.567,58.688a89.025,89.025,0,0,0,24.426,33.908" transform="translate(-26.242 -30.719)" fill="#231f20"/>
  <path id="패스_796" data-name="패스 796" d="M234.534,167.11c-.131,2.053-.274,4.111-.439,6.169-.143,1.882-.314,3.769-.433,5.662a.1.1,0,0,0-.006.04c-.006.091-.011.177-.017.268v.046c-.017.239-.023.49-.051.73,0,.057-.006.114-.006.171v.006c0,.017-.006.029-.006.04v.034a.234.234,0,0,1-.006.063c0,.029-.006.051-.006.086-.1,1.756-.165,3.512-.262,5.268q-.162,2.908-.319,5.827c-.188,3.581-.314,7.167-.5,10.748-.188,3.717-.411,7.435-.542,11.153s-.314,7.418-.456,11.124c-.063,1.733-.086,3.467-.148,5.2-.017.439-.034.878-.046,1.317s.006.872-.034,1.306a3.306,3.306,0,0,1-.393,1.306,2.725,2.725,0,0,1-1.608,1.209,2.09,2.09,0,0,1-.587.086h-.12a2.1,2.1,0,0,1-1.186.821,11.875,11.875,0,0,1-2.252.222c-4.242.342-8.433,1.038-12.652,1.614q-3.207.445-6.426.8a11.94,11.94,0,0,0-7.6-3.2c-.114,0-.228.006-.342.006-24.061-19.42-31.77-38.15-38.03-67.434l-.051-.205c-5.662-22.413-2.343-46.794,9.357-68.649a106.043,106.043,0,0,1,21.786-28.167c.6.011,1.2.023,1.807.046,3.609.12,7.218.371,10.833.422s7.224.034,10.833.262l1.614.1h.046c2.058.125,4.111.251,6.169.4,1.842.137,3.678.371,5.525.5.314.017.633.023.952.034a3.729,3.729,0,0,1,.827.1,2.494,2.494,0,0,1,1.562,1.346,9.841,9.841,0,0,1,.821,2.754c.137.7.222,1.414.3,2.121.354,3.193.559,6.4.781,9.607v.046c.034.4.063.81.086,1.214.234,3.17.485,6.335.713,9.5.006.12.017.234.023.354v-.057c.006.143.017.285.029.433.262,3.609.542,7.235.5,10.856-.034,3.712-.177,7.424-.165,11.135.006,1.916.04,3.826.046,5.742.006,1.882-.023,3.763-.023,5.639.006,3.706.194,7.4.245,11.1.114,7.555.354,15.127-.148,22.67" transform="translate(-67.619 -30.418)" fill="#231f20"/>
  <path id="패스_797" data-name="패스 797" d="M407.078,238.9c-1.577-.055-3.154-.129-4.73-.2-1.878-.092-3.754-.147-5.634-.105-1.97.043-3.937.154-5.907.214-2.025.062-4.046.1-6.071.085-1.945-.011-3.892-.168-5.832-.283-2-.12-4-.193-6.008-.143-1.975.048-3.959.152-5.933.067-2.046-.09-4.07-.328-6.1-.586q-1.448-.183-2.9-.34c-.97-.105-1.944-.156-2.917-.239-.487-.042-.972-.085-1.457-.156a6.391,6.391,0,0,1-1.669-.4,3.206,3.206,0,0,1-1.487-1.271,3.6,3.6,0,0,1-.414-1.705c-.1-1.63-.11-3.267-.145-4.9-.041-1.947-.08-3.894-.08-5.841,0-1.918.017-3.832,0-5.749-.027-3.956-.186-7.907-.241-11.863-.055-3.931.085-7.859.111-11.788s-.021-7.831-.06-11.748c-.039-3.96.023-7.921.092-11.882.069-3.885.078-7.771.244-11.654q.259-6.089.775-12.167c.328-3.94.745-7.87,1.08-11.81q.127-1.507.232-3.012c.239-4,.379-7.994.572-11.994s.462-7.969.644-11.957c.181-4.037.19-8.08.446-12.114l-.007.094c.036-.575.074-1.149.108-1.721l-.014.241c.184-3,.74-5.986,1.177-8.963.2-1.384.414-2.768.579-4.161q.138-1.155.269-2.314c.034-.3.067-.6.105-.9a1.169,1.169,0,0,1,.018-.216c.007-.034.014-.066.021-.1a2.206,2.206,0,0,1,.246-.94,1.221,1.221,0,0,1,1.193-.593,1.182,1.182,0,0,1,.545.221c.754-.087,1.514-.122,2.269-.168l.032,0,.083,0c3.841-.292,7.659-.763,11.5-1.1q3-.269,6.006-.294c2.011-.019,4.023-.028,6.034-.058,3.931-.06,7.855-.223,11.783-.368,2.053-.076,4.107-.143,6.162-.182,1.9-.034,3.806-.041,5.712-.08,4.078-.08,8.144-.354,12.219-.513,2.727-.105,5.459-.1,8.19-.09,1.3,0,2.6.009,3.908,0,3.894-.023,7.783-.113,11.675-.156,3.935-.044,7.863-.014,11.8.055s7.866.066,11.789.275c2.039.108,4.066.26,6.089.552,1.887.274,3.774.556,5.652.878a14.213,14.213,0,0,1,2.811.692,3.168,3.168,0,0,1,1.86,2.136,11.487,11.487,0,0,1,.324,1.74,44.844,44.844,0,0,1,.1,5.981c-.1,3.993-.237,7.983-.267,11.978-.03,3.977-.149,7.947-.317,11.916s-.287,7.965-.327,11.951c-.041,3.947.007,7.893-.039,11.84-.046,3.965-.255,7.923-.223,11.888,0,.18,0,.361,0,.541.115,2.5.25,4.995.384,7.493.165,3.08.181,6.168.384,9.245.042.625.083,1.248.127,1.874,0,.032,0,.062.007.094a.1.1,0,0,1,0,.011s0-.007,0-.009c.018.239.035.478.053.717,0,.043.007.085.009.128v-.007c0-.027,0-.055,0-.083.027.381.055.766.083,1.147,0-.028,0-.058-.007-.087,0,.048.007.1.011.145s0,.071.007.105c0-.016,0-.032,0-.048.147,1.927.294,3.85.43,5.776,0-.014,0-.027,0-.041.223,3.176.359,6.36.473,9.541.055,1.543.14,3.085.186,4.628.048,1.616.067,3.232.064,4.85s-.018,3.253.018,4.878c.035,1.572.115,3.142.145,4.714.032,1.669.009,3.338.016,5.007.009,1.513.051,3.027.055,4.54.007,3.124-.1,6.253.062,9.376.078,1.538.184,3.073.285,4.609s.248,3.078.268,4.618c.009.525.012,1.046.009,1.568a2.485,2.485,0,0,1,.276.63,2.579,2.579,0,0,1-1.77,3.154c-.379.1-.765.177-1.156.243a2.559,2.559,0,0,1-.324.237,2.29,2.29,0,0,1-1.2.334,2.446,2.446,0,0,1-.868-.161q-.862.151-1.729.285c-1.9.3-3.806.544-5.728.708-3.878.336-7.761.607-11.645.839m.278-4.512q1.049-.066,2.094-.14l.064-.011q-1.076.08-2.159.152" transform="translate(-150.242 -31.363)" fill="#fff"/>
  <path id="패스_798" data-name="패스 798" d="M390.451,115.922c-.629-.073-1.324.144-1.89-.2a1.637,1.637,0,0,1,.557-2.786c4.079-.18,8.2-.318,12.289-.565a339.3,339.3,0,0,1,37.629-.665c11.279.1,22.563.015,33.837.378l-.144-.006a26.209,26.209,0,0,1,5.155.466,1.258,1.258,0,0,1-.035,2.151c-1.416.529-3.062.159-4.556.2l.146.007c-17.5-.148-35.019-.563-52.518-.082-10.166.2-20.3,1.1-30.472,1.1" transform="translate(-166.767 -47.916)" fill="#231f20"/>
  <path id="패스_799" data-name="패스 799" d="M406.439,128.722a145.905,145.905,0,0,1-15.858-1.327c-1.118-.087-2.9.578-3.477-.716-.842-.766.465-2.065,1.308-2.1,3.467.067,6.92-.442,10.391-.32,13.482-.693,26.962-.14,40.438.541h-.01l.162.007-.067,0c9.595.377,19.186-.1,28.773-.448,2.46.2,9.915-.671,11.212,1.283.831,3.032-6.343,2.021-8.179,2.536a156.858,156.858,0,0,1-17.508.538c-15.727-.5-31.459.482-47.185.013" transform="translate(-166.271 -53.271)" fill="#231f20"/>
  <path id="패스_800" data-name="패스 800" d="M449.237,149.268c-14.32-.314-28.642-.424-42.957-.887-2.607-.318-16.4,1.885-16.339-.83-.075-2.229,2.457-1.756,3.944-1.623a46.663,46.663,0,0,0,7.277-.213c10.89-.7,21.775-.592,32.684-.413,13.27.2,26.485-1.6,39.775-1.179,1.846.331,8.409-.809,8.6,1.333,1.608,3.849-29.423,3.56-32.982,3.811" transform="translate(-167.606 -61.921)" fill="#231f20"/>
  <path id="패스_801" data-name="패스 801" d="M113.431,215.588c.034,1.026.091,2.058.16,3.1q-7.21.479-14.425.838a.072.072,0,0,0-.034.006c-.576.023-1.2.279-1.728-.074-1.619-1.722.445-3.039,2.246-2.9,3.5-.325,7.007-.53,10.525-.587q1.625-.188,3.256-.382" transform="translate(-41.615 -92.666)" fill="#fff"/>
  <path id="패스_802" data-name="패스 802" d="M208.109,213.1c-1.408.918-5.114.114-7,.422-7.749.211-15.5.12-23.24.393-6.648.3-13.291.7-19.928,1.135-.131-1.289-.239-2.571-.325-3.866v-.006c3.159-.3,6.323-.542,9.493-.718,11.529-.342,23.115-.793,34.638-.131,1.847.485,8.65-.69,6.363,2.771" transform="translate(-67.747 -90.261)" fill="#fff"/>
  <path id="패스_803" data-name="패스 803" d="M114.136,232.268c.108.935.228,1.87.359,2.811q-3.669.2-7.344.513c-2.326.257-4.641.6-6.956.947-1,.011-2.2.57-3.062-.074a1.571,1.571,0,0,1,.234-2.3c-.832-1.146,2.406-.5,2.936-.656q6.893-.787,13.832-1.243" transform="translate(-41.578 -99.835)" fill="#fff"/>
  <path id="패스_804" data-name="패스 804" d="M214.679,231.013c-.308,2.509-10.086,1.414-12.356,1.779-5.73-.12-11.46-.262-17.185.114-8.2.137-16.4-.063-24.6.034-.211-.941-.4-1.882-.576-2.828,11.842-.479,23.674-1.334,35.539-1.249,6.01.108,12.059.034,18.04.724a1.214,1.214,0,0,1,1.135,1.425" transform="translate(-68.757 -98.369)" fill="#fff"/>
  <path id="패스_805" data-name="패스 805" d="M118.875,248.528q.316,1.668.673,3.358c-4.607.291-9.185,1.215-13.81.981a1.4,1.4,0,0,1-1.009-1.944c-2.03-2.275,9.066-1.579,10.274-2.036,1.289-.137,2.577-.262,3.871-.359" transform="translate(-44.909 -106.824)" fill="#fff"/>
  <path id="패스_806" data-name="패스 806" d="M215.289,248.924c-16.678-.348-33.332.639-49.993.884-.354.023-.707.051-1.061.068q-.376-1.582-.741-3.21c5.85-.074,11.7-.08,17.538-.228,8.689-.257,17.39-.485,26.085-.365,2.914.3,6.3-.325,8.963.861a1.3,1.3,0,0,1-.793,1.99" transform="translate(-70.275 -105.755)" fill="#fff"/>
  <path id="패스_807" data-name="패스 807" d="M122.414,292.688c.331.929.667,1.87,1.015,2.811-5.434.2-10.856.439-16.278.912-2.326.257-4.641.6-6.956.952-1,.006-2.2.57-3.062-.08a1.571,1.571,0,0,1,.234-2.3c-.832-1.146,2.406-.5,2.936-.656,7.338-.838,14.716-1.408,22.111-1.642" transform="translate(-41.578 -125.806)" fill="#fff"/>
  <path id="패스_808" data-name="패스 808" d="M221.878,292.133c-.308,2.514-10.086,1.414-12.356,1.779-5.73-.12-11.46-.257-17.185.114-4.744.08-9.482.046-14.226.023-.485-1.072-.946-2.155-1.4-3.256,8.661-.428,17.316-.872,25.988-.81,6.01.108,12.059.034,18.04.73a1.207,1.207,0,0,1,1.135,1.42" transform="translate(-75.957 -124.641)" fill="#fff"/>
  <path id="패스_809" data-name="패스 809" d="M129.206,308.685q.676,1.7,1.437,3.375c-3.387.143-6.779.274-10.166.468-4.921.205-9.807,1.271-14.739,1.021a1.4,1.4,0,0,1-1.009-1.944c-2.03-2.275,9.066-1.579,10.274-2.036,4.715-.507,9.448-.781,14.18-.941.006.017.017.04.023.057" transform="translate(-44.909 -132.657)" fill="#fff"/>
  <path id="패스_810" data-name="패스 810" d="M224.35,310.052c-12.7-.262-25.384.245-38.065.6-.593-.986-1.157-1.984-1.711-2.993,1.842-.023,3.678-.057,5.519-.1,8.689-.257,17.39-.485,26.085-.359,2.914.291,6.3-.331,8.963.855a1.307,1.307,0,0,1-.793,2" transform="translate(-79.335 -132.028)" fill="#fff"/>
  <path id="패스_811" data-name="패스 811" d="M114.958,108.17c3.968-.5,7.948-.861,11.934-1.112-.559,1.072-1.106,2.15-1.631,3.239q-3.934.214-7.88.4c-3.826.667-7.726.513-11.586.838-1.893-.205-7.344,1.072-8.307-.068-1.4-3.068,2.435-2.72,4.339-2.828,4.373-.154,8.758-.217,13.131-.473" transform="translate(-41.773 -46.017)" fill="#fff"/>
  <path id="패스_812" data-name="패스 812" d="M223.332,108.87c-1.015.821-2.475.764-3.712.992-6.209.9-12.458-.291-18.685-.4-3.592-.137-7.178-.325-10.771-.49a.176.176,0,0,1-.057-.006c.011,0,.023.006.034.006a.492.492,0,0,0-.091-.006c-2.167-.029-4.339-.023-6.506.011q.855-1.42,1.756-2.805,2.968.051,5.935.131c7.367.029,14.722-.707,22.083-.108a1.287,1.287,0,0,1-.148-.006c3.182.285,6.449-.222,9.579.433a1.338,1.338,0,0,1,.582,2.252" transform="translate(-78.893 -45.542)" fill="#fff"/>
  <path id="패스_813" data-name="패스 813" d="M111.013,123.567q5.174-.676,10.371-.929c-.445,1.066-.878,2.144-1.289,3.233q-4.259.188-8.518.525l.12-.017c-.257.034-.519.057-.781.086-5.325.445-10.628,1.505-15.959,1.7-1.186-.336-1.1-2.11-.125-2.651,1.083-.559,2.423-.234,3.6-.485H98.4c4.179-.439,8.33-1.078,12.515-1.454.017,0,.034-.006.051-.006h.011a.072.072,0,0,1,.034-.006" transform="translate(-40.44 -52.713)" fill="#fff"/>
  <path id="패스_814" data-name="패스 814" d="M221.834,125.162c-3.963.57-8.051.308-12.059.376-11.723.165-23.457-.222-35.18-.314.468-.986.958-1.967,1.46-2.942,11.791-.068,23.588-.73,35.379-.359,3.09.177,6.175.468,9.254.781,1.568-.131,2.743,1.425,1.146,2.457" transform="translate(-75.046 -52.358)" fill="#fff"/>
  <path id="패스_815" data-name="패스 815" d="M117.033,142.889l1.579-.051c-.291.975-.57,1.961-.838,2.948q-6.141.325-12.287.068c-2.52-.217-5.548.678-7.868-.1-2.115-3.666,4.613-2.372,6.489-2.7,4.311-.011,8.615-.137,12.926-.165" transform="translate(-41.784 -61.396)" fill="#fff"/>
  <path id="패스_816" data-name="패스 816" d="M217.286,143.616c-.929.827-2.389.53-3.546.736-2.925.239-5.856.308-8.792.319-9.864.086-19.734-.314-29.6-.023-2.953.114-5.9.074-8.855.006.4-1.18.827-2.355,1.277-3.524,3.107-.086,6.221-.114,9.334-.046l.872.034a.1.1,0,0,1-.04-.006.521.521,0,0,0,.091.006l1.271.051a1.493,1.493,0,0,0,.16.006c9.8.4,19.574-.793,29.381-.422,1.859.331,10.885-.639,8.444,2.862" transform="translate(-71.564 -60.469)" fill="#fff"/>
  <path id="패스_817" data-name="패스 817" d="M112.715,165.211c1.494,0,2.993.006,4.487.006-.194,1.038-.371,2.087-.53,3.136-2.782.023-5.565-.091-8.342-.234-1.956-.49-7.954,1.551-7.07-2-.5-.57.222-1.146.827-.986,3.427-.5,7.053-.029,10.537.074Z" transform="translate(-43.453 -70.883)" fill="#fff"/>
  <path id="패스_818" data-name="패스 818" d="M215.6,167.308c-8.974,1.528-18.137,1.494-27.22,1.414q-14.06-.086-28.132-.331.325-1.693.707-3.387,5.79-.068,11.586-.257c14.06.519,28.138-.188,42.216-.137,2.777-.5,3.524,2.2.844,2.7" transform="translate(-68.878 -70.728)" fill="#fff"/>
  <path id="패스_819" data-name="패스 819" d="M388.668,196.847a1.569,1.569,0,0,1,.218-2.3c-.835-1.142,2.407-.51,2.934-.671a265.694,265.694,0,0,1,27.362-1.9c13.545-.465,27.072-1.672,40.639-1.651,6.014.078,12.062-.027,18.047.631a1.214,1.214,0,0,1,1.143,1.419c-.3,2.512-10.077,1.467-12.345,1.842-5.734-.086-11.46-.194-17.188.21-10.057.223-20.126-.063-30.182.316-6.879.28-13.757.547-20.615,1.181-2.325.271-4.641.629-6.954.986-.994.013-2.2.583-3.058-.06" transform="translate(-166.885 -81.806)" fill="#231f20"/>
  <path id="패스_820" data-name="패스 820" d="M397.358,213.593a1.4,1.4,0,0,1-1.019-1.939c-2.046-2.266,9.055-1.631,10.263-2.093,13.509-1.525,27.107-1.186,40.656-1.6,8.688-.3,17.388-.579,26.083-.5,2.916.277,6.3-.363,8.966.809a1.3,1.3,0,0,1-.782,2c-16.678-.257-33.325.82-49.985,1.155-6.475.493-12.969.669-19.449,1.071-4.923.232-9.8,1.328-14.733,1.106" transform="translate(-170.25 -89.165)" fill="#231f20"/>
  <path id="패스_821" data-name="패스 821" d="M388.152,247.9a1.568,1.568,0,0,1,.287-2.291c-.8-1.167,2.422-.438,2.953-.582a265.59,265.59,0,0,1,27.407-1.081c13.553-.057,27.11-.856,40.67-.427,6.009.258,12.058.336,18.02,1.174a1.213,1.213,0,0,1,1.1,1.452c-.371,2.5-10.116,1.164-12.4,1.47-5.729-.259-11.45-.539-17.186-.308-10.06-.08-20.115-.669-30.178-.592-6.884.073-13.767.133-20.641.561-2.332.2-4.658.488-6.981.777-.994-.018-2.215.517-3.056-.153" transform="translate(-166.676 -104.616)" fill="#231f20"/>
  <path id="패스_822" data-name="패스 822" d="M396.376,264.738a1.4,1.4,0,0,1-.96-1.969c-1.977-2.326,9.1-1.358,10.321-1.784,13.548-1.117,27.131-.37,40.686-.379,8.693-.04,17.4-.055,26.086.282,2.907.364,6.308-.174,8.938,1.078a1.3,1.3,0,0,1-.842,1.973c-16.662-.758-33.335-.182-50-.35-6.487.3-12.983.278-19.472.486-4.927.083-9.835,1.032-14.759.661" transform="translate(-169.859 -111.915)" fill="#231f20"/>
  <path id="패스_823" data-name="패스 823" d="M64.311,420.669c.047.006.144.02.191.028,7.176-8.439,16.434-15.831,23.723-24.018,3.187-2.672,7.071-9.295,10.783-10.208,1.893-.04,3.5,1.566,5.035,2.536,1.024-1.38,2.192-2.658,3.315-3.958l-.007,0c4.324-4.934,8.745-9.331,13.1-14.457,3.729-3.039,9.823,2.92,11.766,6.158.859,5.7-13.425,16.183-16.882,21.535,6.672,5.231,1.983,8.524-2.341,13.174-6.8,6.746-13.47,15.123-20.7,21.8l-2.611,2.569c-6.57,6.865-12.364,14.454-19.185,21.05C60.014,467.068,49.338,477,39.148,487.5l.074-.08c-.257.258-.793.789-1.061,1.046l.083-.084c-2.266,2.314-4.73,4.552-7.2,6.792-2.913,2.656-6.341,9.4-10.471,6.336-3.258-2.569-6.191-5.676-9.521-8.106C7.943,490.377-1.367,486.6.17,481.525" transform="translate(0 -158.928)" fill="#231f20"/>
  <path id="패스_824" data-name="패스 824" d="M203.606,226.185c-3.815-1.473-7.816-2.285-11.73-3.416.183.064.363.129.546.194-3.214-1.478-8.558-3.521-8.081-7.806a84.132,84.132,0,0,1-36.38-41.242c-7.278-18.055-12.4-37.308-12.153-56.891,0,.166,0,.331,0,.494C135.495,16.17,255.885-34.052,333.281,25.643l-.113-.09c23.369,17.666,38.569,44.953,43.429,73.659,2.353,11.352,4.261,23.093,2.422,34.658-6.592,47.008-46.28,85.261-90.893,98.066-27.966,8.361-57.418,3.44-84.521-5.751m21.313-2.437c30.023,9.916,63.806,5.394,90.833-10.78l-.083.048c15.063-8.675,27.834-20.783,38.411-34.5-.106.139-.215.279-.321.418a106.656,106.656,0,0,0,15.7-30.533l-.056.2c.044-.161.09-.322.135-.482-.016.054-.031.109-.047.165q.246-.889.495-1.777c-.025.087-.05.173-.074.259,4.8-15.637,4.289-32.086.376-47.856-2.223-12.321-6.052-24.263-12.4-35.108C331.258,11.5,261.713-6.983,209.6,16.208c-46.982,18.833-76.91,72.694-64.358,122.355,6.847,32.029,15.795,51.834,42.17,72.382,3.5-1.737,5.954,2.092,8.612,3.695,9.554,3.3,19.014,6.859,28.9,9.108" transform="translate(-58.371)" fill="#231f20"/>
  <rect id="사각형_264" data-name="사각형 264" width="335.936" height="343.366" fill="none"/>
</svg>
