<svg xmlns="http://www.w3.org/2000/svg" xmlns:xlink="http://www.w3.org/1999/xlink" width="238.739" height="421.548" viewBox="0 0 238.739 421.548">
  <defs>
    <clipPath id="clip-path">
      <rect id="사각형_340" data-name="사각형 340" width="238.739" height="421.548" fill="none"/>
    </clipPath>
    <clipPath id="clip-path-2">
      <rect id="사각형_337" data-name="사각형 337" width="73.798" height="75.856" fill="none"/>
    </clipPath>
    <clipPath id="clip-path-3">
      <rect id="사각형_339" data-name="사각형 339" width="61.874" height="55.54" fill="#1947e5"/>
    </clipPath>
  </defs>
  <g id="그룹_252" data-name="그룹 252" transform="translate(-1561.495 -942)">
    <g id="그룹_251" data-name="그룹 251" transform="translate(1561.495 941.998)">
      <path id="패스_1202" data-name="패스 1202" d="M123.328,332.317,282.66,319.729l-2.093-212.515-4.7-54.808-72.871,3.251L110,62.415Z" transform="translate(-79.382 -37.818)" fill="#fff"/>
      <g id="그룹_250" data-name="그룹 250" transform="translate(0 0.002)">
        <g id="그룹_249" data-name="그룹 249" clip-path="url(#clip-path)">
          <path id="패스_1203" data-name="패스 1203" d="M124.063,306.405c-1-.027-1.993-.139-2.989-.2-.809-.024-1.627.012-2.433-.059-.389-.033-.772-.08-1.157-.141a11.945,11.945,0,0,1-1.18-.277,12.86,12.86,0,0,1-4.163-2.111,7.694,7.694,0,0,1-1.459-1.492,8.2,8.2,0,0,1-.607-.849,10.959,10.959,0,0,1-.537-1.038,18.092,18.092,0,0,1-.884-2.135,5.852,5.852,0,0,1-.224-1.588,8.677,8.677,0,0,1,.015-1.176c-.043-.111-.077-.216-.1-.3a6.3,6.3,0,0,1-.171-1.5c-.116-2.366-.433-4.717-.6-7.079-.076-1.083-.146-2.167-.234-3.249-.1-1.257-.2-2.514-.252-3.774-.06-1.333-.107-2.667-.148-4-.04-1.258-.039-2.517-.04-3.775,0-2.294.011-4.59-.058-6.884-.051-1.207-.119-2.414-.173-3.621-.062-1.392-.143-2.779-.275-4.166-.119-1.239-.238-2.48-.324-3.723-.092-1.322-.16-2.644-.276-3.965-.126-1.442-.273-2.882-.391-4.325s-.2-2.9-.3-4.349c-.1-1.415-.214-2.828-.283-4.245-.066-1.386-.074-2.773-.076-4.16,0-1.96-.031-3.919-.075-5.878-.025-1.105-.014-2.211-.033-3.318s-.05-2.223-.086-3.334c-.07-1.511-.2-3.019-.266-4.529-.089-1.928-.16-3.856-.3-5.781-.129-1.8-.266-3.594-.353-5.4-.048-.979-.082-1.957-.125-2.936s-.129-1.978-.239-2.964c-.1-.8-.2-1.6-.277-2.407-.076-.779-.129-1.559-.181-2.339-.109-1.647-.22-3.292-.293-4.942-.14-3.181-.188-6.364-.3-9.544-.045-1.07-.083-2.14-.122-3.21-.107-2.468-.278-4.933-.443-7.4-.076-1.145-.173-2.29-.249-3.436-.084-1.272-.129-2.546-.172-3.82-.078-1.857-.23-3.706-.443-5.553q.02.163.039.326c-.1-.81-.2-1.619-.256-2.431-.058-.78-.088-1.562-.116-2.342-.092-2.021-.325-4.035-.522-6.046-.1-1.049-.211-2.1-.291-3.147-.1-1.279-.122-2.563-.195-3.843-.077-1.373-.16-2.747-.277-4.117-.123-1.421-.245-2.842-.33-4.267-.019-.323-.034-.647-.048-.971,0-.113-.009-.225-.012-.337,0-.05-.005-.1-.008-.149,0-.112-.009-.223-.013-.335-.068-1.8-.055-3.6-.113-5.394-.063-1.331-.166-2.658-.207-3.99-.041-1.385-.035-2.771-.078-4.155-.1-2.193-.306-4.379-.445-6.57-.146-2.316-.269-4.634-.407-6.951-.072-1.182-.134-2.364-.224-3.544-.083-1.094-.21-2.184-.311-3.276-.2-2.171-.251-4.352-.325-6.53-.059-1.538-.117-3.077-.128-4.616-.009-1.59-.031-3.179-.083-4.768-.051-1.233-.112-2.465-.148-3.7-.033-1.14-.052-2.279-.091-3.419-.095-1.942-.333-3.873-.495-5.81-.089-1.062-.154-2.128-.216-3.193-.068-1.171-.129-2.342-.134-3.515-.01-2.252-.038-4.5-.1-6.754-.058-2.287-.016-4.575-.09-6.864-.087-1.91-.282-3.813-.463-5.717-.186-1.94-.306-3.886-.527-5.822,0,.018,0,.036.006.053,0-.028-.006-.057-.01-.085s-.009-.079-.014-.119l.01.085c-.092-.762-.184-1.523-.254-2.288-.087-.948-.126-1.9-.131-2.848,0-.895.029-1.788.072-2.683.019-.411.035-.824.072-1.235a3.921,3.921,0,0,1,.161-.9.769.769,0,0,1,.128-.245c-.041-.158-.074-.318-.106-.478a9.526,9.526,0,0,1-.15-1.113,6.617,6.617,0,0,1-.039-1.167,7.812,7.812,0,0,1,.6-2.233,8.7,8.7,0,0,1,1.271-2.04,14.215,14.215,0,0,1,2.024-1.96,12.459,12.459,0,0,1,2.533-1.6,26,26,0,0,1,2.508-1.113,16.356,16.356,0,0,1,2.523-.69c.457-.091.912-.183,1.368-.278,1.63-.376,3.24-.827,4.9-1.071,1.74-.257,3.5-.362,5.234-.63.886-.137,1.772-.282,2.66-.4.942-.125,1.884-.24,2.827-.352,1.793-.213,3.58-.471,5.372-.688,1.557-.189,3.114-.362,4.668-.576,1.523-.21,3.048-.373,4.583-.455,3.1-.165,6.213-.3,9.311-.563h0c1.3-.128,2.6-.288,3.909-.424,1.367-.141,2.736-.262,4.1-.391l-.152.014c1.359-.14,2.717-.284,4.079-.4s2.756-.2,4.132-.328c1.8-.189,3.59-.374,5.392-.5,1.839-.127,3.675-.274,5.512-.414,1.853-.14,3.7-.289,5.55-.465s3.679-.282,5.519-.42c.288-.022.574-.049.862-.075,1.689-.171,3.372-.383,5.07-.439.866-.028,1.734-.052,2.6-.107.9-.057,1.8-.132,2.7-.188,1.765-.111,3.534-.127,5.3-.18.857-.026,1.712-.083,2.568-.132.92-.052,1.84-.1,2.759-.162,1.833-.117,3.663-.294,5.5-.349.871-.026,1.743-.031,2.614-.059.926-.029,1.85-.074,2.776-.129,1.833-.111,3.668-.125,5.5-.122.665,0,1.333,0,2,0,1.095,0,2.191,0,3.286.008.809.006,1.618-.011,2.427-.028.91-.019,1.82-.038,2.73-.024.869.013,1.736.076,2.6.1s1.722.008,2.583-.016c1.816-.05,3.633-.116,5.45-.125.857,0,1.713-.027,2.568-.077.8-.047,1.592-.109,2.393-.077s1.6.086,2.4.112c.411.013.822.009,1.233.005.37,0,.74-.008,1.109,0,.906.024,1.81.1,2.715.158a17.263,17.263,0,0,1,2.41.284c.382.08.756.2,1.129.308s.755.227,1.132.349a16.793,16.793,0,0,1,2.177.9,12.322,12.322,0,0,1,1.615.914c.325.223.636.471.943.718a5.522,5.522,0,0,1,1.057,1.113,6.241,6.241,0,0,1,.568,1.189c.131.282.291.547.436.821a4.182,4.182,0,0,1,.343.892c.163.611.195,1.243.339,1.856.131.55.289,1.1.4,1.65a2.787,2.787,0,0,1,.024.875c-.04.358-.025.716-.076,1.074a1.238,1.238,0,0,1-.516.76c.072.872.1,1.746.185,2.617.085.92.167,1.838.214,2.762.083,1.654.157,3.307.249,4.961.1,1.853.326,3.7.4,5.551.014.37.025.738.039,1.107,0-.013,0-.025,0-.038,0,.078.006.157.009.236v0a.014.014,0,0,1,0,.006c0,.018,0,.035,0,.052v0l.009.24c0-.079-.006-.159-.009-.237.074,1.536.293,3.057.4,4.59.123,1.85.089,3.7.15,5.556.066,1.368.173,2.732.252,4.1.085,1.482.162,2.965.257,4.447.1,1.526.205,3.054.242,4.584s.015,3.07.06,4.6c.083,1.53.276,3.051.371,4.579.084,1.354.095,2.71.137,4.066.084,1.817.242,3.628.332,5.445.085,1.722.181,3.444.311,5.164.131,1.741.279,3.48.415,5.221.134,1.7.2,3.41.253,5.119.05,1.227.117,2.453.169,3.68.058,1.392.064,2.784.067,4.177.006,2.609,0,5.218.049,7.827.055,2.919.03,5.84.03,8.759,0,1.509.028,3.016.06,4.524.028,1.379.04,2.756.083,4.134.005.179.013.358.02.537q.052,1.422.1,2.843c.094,2.2.226,4.395.263,6.6s.018,4.388.09,6.584c.06,1.355.137,2.709.178,4.066.038,1.268.041,2.537.078,3.8.125,2.556.522,5.086.6,7.646.079,2.54.107,5.082.107,7.623q0,7.6,0,15.2c0,1.357,0,2.714-.024,4.071-.026,1.38-.082,2.756-.138,4.135-.1,2.707-.085,5.417-.08,8.125,0,2.754-.009,5.508-.005,8.261s0,5.479-.061,8.218c-.062,2.761-.092,5.529-.037,8.29.015.721.04,1.441.067,2.16v0c.1,2.576.152,5.148.154,7.727,0,2.879-.021,5.759-.05,8.638-.056,5.508-.133,11.016-.093,16.525.014,1.956,0,3.912.069,5.867.1,2.217.255,4.432.357,6.65.1,2.157.089,4.315.156,6.472.065,1.4.174,2.8.27,4.2.1,1.456.234,2.913.3,4.371.068,1.511.075,3.024.076,4.536q0,1.122,0,2.244c0,.357.01.716.006,1.074a.431.431,0,0,1,.145.344,5.824,5.824,0,0,1-.378,2.017,6.481,6.481,0,0,1-.515,1.156,7.913,7.913,0,0,1-.481.708,11.042,11.042,0,0,1-1.059,1.275,9.221,9.221,0,0,1-4.689,2.434c-.267.051-.535.1-.8.158-.516.117-1.026.262-1.546.363s-1.064.166-1.6.218l.151-.015c-.922.088-1.85.092-2.773.168-1.288.128-2.572.323-3.859.471-1.371.158-2.749.271-4.114.472-1.494.221-2.981.457-4.492.54-.673.036-1.346.064-2.019.1-.689.035-1.376.1-2.062.164-.8.079-1.595.161-2.394.209-.834.049-1.669.06-2.505.073-.787.013-1.575.049-2.362.061-.889.013-1.779.011-2.668.016-1.724.011-3.449.1-5.171.189q-1.3.067-2.593.174l-.031,0-.019,0q-.845.081-1.687.174c-.963.105-1.928.188-2.891.278-.786.084-1.569.185-2.349.315-.819.138-1.636.283-2.465.353-1.663.142-3.334.1-5,.22-.851.062-1.7.157-2.553.233s-1.725.138-2.589.2c-1.661.119-3.321.251-4.983.373q-.856.063-1.71.137c-1.343.134-2.683.3-4.029.385-1.453.1-2.911.105-4.364.173s-2.926.168-4.388.244q-2.039.106-4.071.284c-1.6.175-3.184.417-4.765.7-.813.147-1.626.3-2.447.39-.772.089-1.545.166-2.318.239h0l-.123.012.073-.007q-1.191.119-2.38.26-.657.076-1.313.15l-.522.053-.417.039c-.067.006-.136.016-.2.019l-.048,0c-.45.037-.9.072-1.35.1-.843.051-1.687.074-2.531.109s-1.658.084-2.488.1c-.918.013-1.833,0-2.75,0-.785-.008-1.571-.014-2.356-.008-1.137.009-2.273.03-3.41.059-1.164.029-2.327.091-3.49.137-1.091.043-2.184.011-3.275,0a31.8,31.8,0,0,0-3.32.165l.131-.013-.392.038.131-.013c-1.064.1-2.127.171-3.2.209-.969.033-1.936.052-2.9.1-.9.048-1.8.122-2.709.164-.94.043-1.881.065-2.819.137-.976.1-1.948.2-2.93.23-.515.015-1.032.014-1.548.013-.5,0-1,0-1.494.012-.824.024-1.645.063-2.468.063-.2,0-.4,0-.6-.008m120.774-9.27q.289-.024.576-.051l.026-.005c-.209.021-.409.039-.6.056M107.013,161.084q.184,1.877.313,3.759c.078,1.167.149,2.334.235,3.5.085,1.15.234,2.294.331,3.443.1,1.219.15,2.442.235,3.663.092,1.333.228,2.662.294,4,.033.658.03,1.317.035,1.975q.01,1.091.038,2.181c.033,1.211.16,2.416.275,3.621.135,1.418.234,2.838.348,4.257.105,1.316.282,2.621.443,3.93.152,1.241.254,2.482.32,3.729.072,1.358.12,2.719.152,4.08.034,1.381.048,2.764.129,4.142.076,1.288.172,2.573.187,3.863s.042,2.56.1,3.84.1,2.564.144,3.847c.045,1.242.077,2.484.148,3.724.077,1.364.194,2.723.287,4.084.172,2.51.3,5.021.429,7.533.065,1.287.111,2.575.162,3.863.046,1.162.115,2.323.152,3.486.04,1.23.063,2.462.162,3.688.107,1.335.286,2.662.334,4,.046,1.3.018,2.6.062,3.9.019.6.058,1.2.087,1.8.035.713.037,1.427.031,2.143-.009,1.225-.123,2.446-.125,3.673,0,.564.045,1.128.088,1.689.05.636.1,1.271.129,1.909s.018,1.259,0,1.886c-.015.656-.068,1.31-.068,1.966a36.372,36.372,0,0,0,.288,3.873c.143,1.315.226,2.636.316,3.958s.21,2.632.342,3.944c.08.8.184,1.593.285,2.388.092.727.174,1.456.264,2.185a33.936,33.936,0,0,0,.694,3.42c.054.214.11.427.165.642.18-.067.371-.115.557-.165.2-.054.411-.107.618-.146a14.282,14.282,0,0,1,1.487-.2c.883-.071,1.771-.059,2.656-.087.964-.03,1.929-.114,2.891-.195s1.919-.158,2.878-.246c.81-.078,1.618-.17,2.427-.264.791-.092,1.584-.176,2.38-.2s1.587-.016,2.38-.036c.817-.019,1.628-.061,2.441-.128,1.172-.122,2.342-.227,3.517-.3,1.09-.072,2.181-.118,3.27-.21,1.518-.161,3.025-.408,4.538-.593.836-.1,1.673-.2,2.508-.306.752-.1,1.507-.192,2.265-.248,1.612-.118,3.231-.163,4.846-.257.821-.048,1.641-.062,2.463-.057.753.007,1.506,0,2.257-.058.109-.008.219-.016.327-.026,1.219-.134,2.431-.343,3.656-.422,1.266-.082,2.533-.085,3.8-.185.777-.076,1.555-.161,2.332-.232.795-.072,1.592-.115,2.389-.16,1.581-.088,3.159-.232,4.738-.328,1.533-.095,3.07-.115,4.6-.192,1.59-.08,3.186-.145,4.772-.286.178-.015.357-.031.535-.048l-.162.017c1.6-.156,3.2-.328,4.8-.482l-.166.015.556-.053-.167.016c.755-.077,1.512-.151,2.267-.247.865-.11,1.728-.227,2.593-.327,1.64-.191,3.29-.239,4.937-.331.792-.046,1.585-.107,2.379-.139.865-.035,1.731-.05,2.6-.062,1.6-.021,3.2-.105,4.8-.2.873-.053,1.746-.115,2.617-.194,1.121-.113,2.241-.232,3.364-.331,1.076-.1,2.154-.174,3.229-.272l-.183.019c1.063-.1,2.123-.241,3.184-.358q1.633-.181,3.269-.279c2.1-.127,4.2-.3,6.3-.475,1.336-.134,2.667-.313,4-.432.7-.062,1.412-.079,2.119-.111.63-.028,1.256-.073,1.882-.129,1.61-.171,3.213-.406,4.819-.6,1.542-.185,3.088-.335,4.634-.481.775-.074,1.551-.146,2.329-.2.751-.052,1.5-.08,2.257-.124s1.523-.133,2.287-.177c.793-.046,1.587-.057,2.381-.048,1.083.01,2.165.029,3.247.048.47.008.939.024,1.409.043.139.005.278.01.418.009,0-.019,0-.04,0-.06.013-.278.037-.555.046-.835.009-.31-.006-.62-.02-.93-.021-.506-.059-1.01-.08-1.516-.026-.6-.017-1.2-.052-1.806-.072-1.215-.2-2.426-.236-3.643-.034-1.161-.024-2.33.031-3.491.059-1.195.172-2.385.187-3.582.015-1.178-.018-2.356.013-3.533.015-.6.055-1.2.087-1.8.032-.622.044-1.244.075-1.865.061-1.195.2-2.384.22-3.58.008-.541.009-1.082.024-1.623.018-.614.051-1.226.079-1.839s.04-1.217.039-1.825c0-.634-.038-1.268-.074-1.9-.065-1.147-.108-2.294-.092-3.444.015-1.135.1-2.267.139-3.4q.063-1.754.139-3.505c.048-1.128-.006-2.254-.023-3.382-.008-.594,0-1.189,0-1.785,0-.689,0-1.379-.01-2.069-.009-1.076.046-2.152-.012-3.226-.031-.578-.086-1.157-.122-1.735-.035-.555-.047-1.113-.036-1.667.012-.587.039-1.173.044-1.76,0-.745-.025-1.486-.069-2.229q-.113-1.967-.153-3.935c-.013-.557-.019-1.113-.027-1.67s-.04-1.125-.049-1.688c-.02-1.2.12-2.394.147-3.594.013-.585,0-1.171,0-1.756s.012-1.153.024-1.731c.029-1.31.009-2.618,0-3.927-.006-.63,0-1.261-.018-1.891-.016-.653-.048-1.305-.074-1.959-.049-1.191-.013-2.38.022-3.571.019-.673.037-1.346.038-2.019,0-.643,0-1.286.02-1.929.035-1.195.124-2.388.153-3.584s-.019-2.394-.035-3.59c-.019-1.215-.035-2.429-.077-3.644s-.119-2.438-.141-3.659c-.013-.627,0-1.255.005-1.881,0-.587-.008-1.173-.023-1.759-.013-.489-.024-.979-.047-1.468s-.082-1-.105-1.5c-.061-1.208-.19-2.41-.216-3.618-.013-.624-.027-1.247-.052-1.871-.024-.6-.075-1.192-.115-1.787-.083-1.242-.117-2.487-.116-3.73,0-1.3-.009-2.606-.009-3.909,0-1.182.075-2.363.051-3.545-.011-.529-.034-1.059-.082-1.586s-.119-1.075-.184-1.612c-.123-1.012-.145-2.03-.191-3.048-.024-.515-.06-1.031-.089-1.545-.036-.619-.048-1.238-.064-1.858-.033-1.233-.054-2.464-.021-3.7.016-.6.052-1.2.079-1.795.03-.632.039-1.263.045-1.9.011-1.412.077-2.822.127-4.234.047-1.32.066-2.641.144-3.96.074-1.249.222-2.494.3-3.744.041-.671.048-1.344.056-2.016.008-.7.027-1.4.043-2.107.031-1.4.026-2.8-.045-4.2-.061-1.2-.105-2.406-.162-3.609-.055-1.184-.119-2.367-.177-3.55-.064-1.291-.077-2.582-.083-3.875,0-1.247-.052-2.493-.085-3.74-.03-1.163-.017-2.328-.009-3.491.01-1.238-.017-2.474-.119-3.709-.054-.656-.111-1.313-.127-1.971-.015-.607-.017-1.214-.023-1.819-.011-1.281-.087-2.557-.125-3.836-.019-.621-.025-1.242-.042-1.862-.02-.759-.051-1.517-.073-2.276q-.059-2.029,0-4.056c.036-1.171.094-2.342.108-3.514.014-1.235-.075-2.468-.139-3.7-.062-1.163-.044-2.33-.065-3.495-.01-.5-.016-.993-.035-1.488-.025-.662-.088-1.317-.176-1.975-.077-.571-.128-1.141-.15-1.716-.028-.722-.005-1.445.012-2.166.015-.637.027-1.274.023-1.911,0-.674-.046-1.349-.092-2.021-.076-1.108-.175-2.215-.267-3.322-.087-1.032-.191-2.062-.329-3.089,0,.027.008.053.012.081-.131-.924-.258-1.848-.362-2.776-.124-1.1-.23-2.194-.328-3.292-.1-1.159-.171-2.318-.232-3.48q-.09-1.683-.239-3.36c-.082-.938-.176-1.878-.211-2.818-.035-.973-.015-1.949.019-2.921.034-.951.089-1.9.087-2.849,0-.451-.02-.9-.038-1.352-.362.012-.725.009-1.087.035-.577.06-1.151.137-1.73.181-.624.049-1.25.075-1.874.129-.522.053-1.043.119-1.567.148a7.678,7.678,0,0,1-.788-.016c-.276-.013-.551-.03-.828-.045-1.348-.067-2.7-.078-4.046-.086-1.408-.008-2.811.025-4.216.09-1.467.066-2.934.095-4.4.211-.719.058-1.437.11-2.158.144-.7.033-1.389.063-2.083.117-.782.077-1.562.165-2.344.23-.809.066-1.622.087-2.432.132-.865.049-1.729.129-2.593.193s-1.7.089-2.557.137c-.821.046-1.642.114-2.462.17-.848.058-1.7.07-2.548.088s-1.676.061-2.514.107c-.883.049-1.765.071-2.648.111-.865.039-1.725.124-2.589.2s-1.732.1-2.6.128c-1.7.05-3.4.129-5.1.184-1.74.057-3.48.15-5.218.254-.781.047-1.559.117-2.34.178q-1.251.1-2.5.15-1.435.065-2.864.195l-.389.037-.122.011c-.149.023-.3.029-.451.043l-.724.067c-.9.082-1.8.154-2.7.226-.868.068-1.737.1-2.607.117-.849.022-1.7.053-2.545.1-.78.046-1.557.11-2.337.135-.855.027-1.709.043-2.563.073-.811.027-1.622.067-2.432.105-.839.038-1.678.1-2.515.161-.783.06-1.566.136-2.351.17-.851.037-1.7.062-2.556.095-.829.031-1.659.073-2.489.095-.79.021-1.58.014-2.369.051-.841.039-1.682.095-2.522.125s-1.7.021-2.547.043c-.8.021-1.6.089-2.4.163l-.319.029c-1.269.124-2.536.236-3.81.314-.685.043-1.372.057-2.058.073s-1.344.053-2.015.111c-.657.076-1.311.169-1.967.252-.631.079-1.266.128-1.9.178s-1.276.092-1.914.15c-.671.06-1.34.124-2.012.176-.576.045-1.154.072-1.73.108-.662.041-1.323.1-1.985.153-.7.051-1.395.076-2.094.1-.679.02-1.354.06-2.03.115-.892.092-1.78.2-2.675.257-.915.051-1.83.083-2.743.153-1.3.135-2.6.333-3.9.489-1.349.161-2.7.346-4.045.505-.675.08-1.35.165-2.023.263-.657.1-1.311.209-1.967.313-1.374.218-2.768.235-4.151.353-.831.1-1.652.242-2.476.386-.868.151-1.737.271-2.611.375-1.7.2-3.413.31-5.121.463l-.155.016c.014.343.03.686.049,1.028.031.586.065,1.173.127,1.757.07.651.149,1.3.22,1.954a31.053,31.053,0,0,1,.1,3.422c-.006,1.22.028,2.439.049,3.658.045,2.665-.018,5.329.046,7.994.029,1.244.071,2.486.07,3.731,0,1.279-.047,2.558-.1,3.836-.05,1.194-.137,2.386-.163,3.581s0,2.391.055,3.584c.049,1.11.073,2.216.064,3.327-.005.576-.015,1.151-.018,1.728,0,.687.012,1.373.015,2.06.017,2.749-.035,5.5.092,8.244.052,1.145.126,2.288.155,3.434.033,1.241.082,2.481.1,3.722.033,2.417-.064,4.838.042,7.254.049,1.095.1,2.186.1,3.282,0,1.233-.062,2.464-.053,3.7,0,.612.031,1.223.041,1.835.012.693.016,1.385.019,2.079.006,1.318.018,2.637.064,3.954.089,2.567.287,5.128.424,7.692.049.906.071,1.814.1,2.72s.123,1.834.24,2.749c.084.591.176,1.182.266,1.774.1.684.177,1.373.251,2.06q.2,1.836.4,3.67c.126,1.166.238,2.332.322,3.5.1,1.358.168,2.718.259,4.076.085,1.278.206,2.553.276,3.831.076,1.384.028,2.772.05,4.157.011.661.023,1.323.068,1.983.049.7.11,1.406.158,2.109.1,1.419.1,2.84.166,4.261.053,1.2.21,2.4.375,3.592,0-.008,0-.016,0-.025.169,1.186.332,2.373.449,3.565M262.2,17.84l.253-.033.013-.014Z" transform="translate(-67.684 -0.002)"/>
          <path id="패스_1204" data-name="패스 1204" d="M10.649,865.789a3.646,3.646,0,0,1-.115-1.708c.171-1.538.4-3.07.6-4.6.229-1.753.415-3.511.6-5.27.244-2.443.454-4.889.58-7.34q.192-3.728.308-7.459c.073-2.428.158-4.856.278-7.282.127-2.571.25-5.147.306-7.722q.006-.246.011-.492c.054-4.331.078-8.66-.015-12.992-.094-4.286-.243-8.575-.53-12.853-.185-2.5-.394-5.006-.6-7.508-.217-2.632-.4-5.266-.615-7.9-.21-2.6-.542-5.178-.895-7.757-.336-2.464-.681-4.925-1.08-7.379s-.8-4.922-1.131-7.395c-.341-2.556-.639-5.12-.945-7.68-.6-5.047-1.172-10.1-1.922-15.128-.189-1.272-.4-2.542-.572-3.816-.178-1.295-.339-2.592-.5-3.889-.316-2.526-.649-5.049-.963-7.574-.318-2.555-.655-5.108-.913-7.671-.25-2.48-.461-4.966-.662-7.451-.182-2.246-.332-4.493-.488-6.741,0,.05.007.1.01.151-.2-2.526-.449-5.044-.71-7.563-.264-2.563-.442-5.128-.507-7.7-.065-2.619-.063-5.237-.087-7.857q-.036-3.661-.08-7.324-.023-1.964.034-3.928c.037-1.219.112-2.435.188-3.652.156-2.467.278-4.939.509-7.4.118-1.272.273-2.541.419-3.81s.305-2.547.5-3.814c.37-2.391.88-4.765,1.429-7.12a43.2,43.2,0,0,1,2.072-6.9,36.04,36.04,0,0,1,1.627-3.289c.64-1.172,1.332-2.314,2.061-3.432.639-.985,1.321-1.945,2.008-2.9a15.708,15.708,0,0,1,2.822-2.975,9.635,9.635,0,0,1,3.063-1.6,11.163,11.163,0,0,1,3.405-.632,15.813,15.813,0,0,1,1.856.087,11.3,11.3,0,0,1,1.845.412,17.2,17.2,0,0,1,1.8.659,10.778,10.778,0,0,1,3.115,1.954,14.144,14.144,0,0,1,1.255,1.234,21.209,21.209,0,0,1,2.154,2.786,24.489,24.489,0,0,1,1.776,3.353,30.744,30.744,0,0,1,1.343,3.583,54.588,54.588,0,0,1,1.409,7.238c.226,1.325.46,2.65.625,3.986s.328,2.7.554,4.038v0c.175,1.01.35,2.017.478,3.034a20.875,20.875,0,0,1,.15,2.928c-.014,1.062-.115,2.123-.187,3.183-.066.993-.1,1.985-.125,2.979-.007.646-.008,1.292-.009,1.937,0,.67.006,1.343-.052,2.01-.053.615-.144,1.22-.255,1.825a3.441,3.441,0,0,1-.337,1.161c-.1.165-.26.183-.316-.018a2.327,2.327,0,0,1-.034-.645c.008-.427.033-.853.047-1.278,0-.459-.016-.916-.045-1.375-.1-1.171-.183-2.341-.229-3.515-.05-1.276-.008-2.557.023-3.833.01-.641.009-1.28-.013-1.921-.048-.575-.116-1.145-.2-1.716-.238-1.316-.556-2.615-.8-3.929-.236-1.24-.4-2.491-.6-3.735-.257-1.443-.563-2.875-.834-4.316-.288-1.529-.554-3.053-.969-4.554a35.46,35.46,0,0,0-1.5-3.918,25.4,25.4,0,0,0-1.931-3.371,20.56,20.56,0,0,0-2.808-3.076c-.38-.3-.767-.587-1.172-.858a10.656,10.656,0,0,0-1.657-.854,19.262,19.262,0,0,0-1.945-.664,12.488,12.488,0,0,0-2.017-.372,11.664,11.664,0,0,0-1.759.013,15.038,15.038,0,0,0-1.873.315,11.778,11.778,0,0,0-2.354.9c-.346.221-.673.456-1,.71a18.138,18.138,0,0,0-1.424,1.379c-.827.982-1.584,2.022-2.322,3.071-.757,1.115-1.462,2.259-2.126,3.433-.4.737-.778,1.481-1.127,2.243-.189.447-.362.9-.526,1.353-.257.784-.489,1.573-.7,2.369q-.927,3.642-1.617,7.338c-.461,2.708-.757,5.44-1.052,8.171-.173,1.865-.274,3.735-.392,5.6-.122,1.935-.254,3.869-.311,5.807-.024,1.736-.007,3.469.021,5.2.031,1.831.041,3.662.061,5.493.039,3.7.036,7.4.27,11.1.2,2.446.49,4.882.73,7.323.245,2.491.434,4.986.642,7.481.41,4.923.893,9.844,1.529,14.743.327,2.521.673,5.04,1,7.562s.642,5.071,1.033,7.594c.193,1.257.4,2.512.589,3.77.178,1.21.344,2.421.511,3.633.352,2.562.674,5.126.987,7.693.619,5.061,1.216,10.129,2.043,15.162.408,2.487.841,4.967,1.2,7.461.348,2.437.723,4.874.995,7.32.288,2.6.486,5.2.688,7.8.2,2.545.445,5.086.653,7.63.214,2.609.425,5.221.544,7.836s.22,5.2.294,7.805q.111,3.931.105,7.861c0,2.656-.009,5.319-.1,7.974-.086,2.565-.2,5.128-.315,7.69-.112,2.433-.187,4.868-.264,7.3-.134,4.237-.339,8.469-.723,12.692-.195,2.15-.416,4.3-.682,6.441-.125,1-.262,2-.389,3.006-.112.881-.19,1.769-.316,2.648a4.723,4.723,0,0,1-.63,1.827c-.213.341-.547.772-.985.815a.653.653,0,0,1-.066,0c-.37,0-.605-.326-.73-.649" transform="translate(0 -446.302)"/>
          <path id="패스_1205" data-name="패스 1205" d="M723.382,324.068a2.244,2.244,0,0,1-.25-1.082,4.537,4.537,0,0,1,.326-1.784,10.75,10.75,0,0,1,.743-1.393q.387-.661.791-1.309c.552-.89,1.125-1.767,1.706-2.639s1.2-1.761,1.772-2.66q.842-1.324,1.607-2.694.7-1.283,1.41-2.564l-.016.028.024-.043.132-.238-.086.154c1.367-2.482,2.673-5,3.838-7.586.629-1.393,1.266-2.78,1.951-4.146.671-1.335,1.339-2.669,1.973-4.022.706-1.5,1.462-2.985,2.16-4.493.284-.676.551-1.355.8-2.043q.576-1.708,1.049-3.443c.142-.574.273-1.148.388-1.727.16-1.073.272-2.151.383-3.23.11-1.144.2-2.288.245-3.437,0-.585-.011-1.167-.042-1.752-.07-.763-.151-1.527-.282-2.282.017.094.033.188.049.283q-.052-.3-.1-.61c-.119-.575-.258-1.139-.419-1.7-.176-.5-.37-.981-.587-1.461a19.213,19.213,0,0,0-1.353-2.214,12.634,12.634,0,0,0-1.406-1.539,7.534,7.534,0,0,0-1.649-1.046,5.9,5.9,0,0,0-1.542-.307,9.6,9.6,0,0,0-2.812.35c-.388.116-.776.231-1.151.382a13.833,13.833,0,0,0-1.258.584,15.3,15.3,0,0,0-1.58,1.13,30.765,30.765,0,0,0-2.517,2.516c-.961,1.109-1.847,2.276-2.7,3.466-.291.426-.572.856-.838,1.3-.057.1-.112.207-.165.312a2.256,2.256,0,0,1-.207.7c-.1.2-.273.48-.521.505-.185.018-.3-.137-.359-.291a1.666,1.666,0,0,1-.019-.953c.009-.039.019-.078.029-.116a8.329,8.329,0,0,1,1.057-2.441c.37-.646.78-1.269,1.2-1.886.844-1.256,1.723-2.474,2.666-3.657a19.869,19.869,0,0,1,3.091-3.241,10,10,0,0,1,1.946-1.258,16.263,16.263,0,0,1,2.078-.809,7.975,7.975,0,0,1,4.727-.256,7.3,7.3,0,0,1,2.4,1.5,8.369,8.369,0,0,1,.747.771,10.734,10.734,0,0,1,.8,1.022,14.3,14.3,0,0,1,2.032,3.9,25.776,25.776,0,0,1,.928,4.583,42.049,42.049,0,0,1-.318,9.465,39.776,39.776,0,0,1-2.373,9.362,42.676,42.676,0,0,1-1.93,4.321c-.633,1.287-1.22,2.6-1.852,3.885-.662,1.35-1.359,2.683-2.008,4.04-.634,1.326-1.223,2.673-1.854,4-1.318,2.776-2.838,5.442-4.332,8.125l.155-.279c-.549.99-1.1,1.98-1.684,2.949-.565.931-1.158,1.844-1.767,2.747-1.181,1.753-2.346,3.523-3.383,5.367a4.412,4.412,0,0,1-.469.75,1.207,1.207,0,0,1-.735.507l-.057,0a.682.682,0,0,1-.571-.378" transform="translate(-521.622 -185.589)"/>
          <path id="패스_1206" data-name="패스 1206" d="M746.63,507.419a3.444,3.444,0,0,1-.037-1.871,9.314,9.314,0,0,1,1.27-2.692c.333-.583.67-1.164,1-1.748.4-.744.775-1.5,1.13-2.267q.586-1.357,1.085-2.747c1.047-3.05,1.975-6.134,2.812-9.248.154-.609.295-1.219.421-1.835.157-.99.268-1.982.371-2.978.167-1.745.307-3.49.357-5.244,0-1.354-.029-2.706-.088-4.058-.047-.59-.111-1.175-.2-1.763-.239-1.246-.554-2.47-.9-3.692-.107-.355-.215-.709-.342-1.057-.164-.449-.345-.888-.541-1.323-.19-.374-.383-.745-.6-1.1-.232-.38-.48-.747-.736-1.111-.289-.381-.583-.755-.892-1.121a11.8,11.8,0,0,0-1.07-1.091,7.914,7.914,0,0,0-1.77-1.137,5.784,5.784,0,0,0-1.561-.286,9.136,9.136,0,0,0-2.688.274c-.441.12-.876.252-1.3.414a11.5,11.5,0,0,0-1.249.577,16.753,16.753,0,0,0-1.879,1.322c-.506.429-1,.872-1.478,1.328s-.928.949-1.373,1.442c-.8.928-1.548,1.891-2.257,2.892-.688.994-1.381,1.984-2.026,3.007-.308.488-.6.986-.907,1.477-.138.221-.275.443-.426.655-.091.128-.192.314-.349.371-.051.017-.069-.04-.075-.078,0,0,0-.008,0-.012a1.536,1.536,0,0,1,.079-.6c.1-.325.214-.639.339-.952.245-.614.517-1.223.806-1.817.618-1.273,1.31-2.505,2.009-3.734a39.141,39.141,0,0,1,2.31-3.561,26.774,26.774,0,0,1,2.7-3.144,15.19,15.19,0,0,1,3.148-2.5,11.662,11.662,0,0,1,1.773-.821,9.931,9.931,0,0,1,1.9-.532,9.258,9.258,0,0,1,2.108-.123,5.034,5.034,0,0,1,1.538.316,6.919,6.919,0,0,1,1.287.712,12.236,12.236,0,0,1,2.8,2.83,15.933,15.933,0,0,1,1.783,2.924l-.094-.2.189.4-.095-.2a20.441,20.441,0,0,1,1.062,2.851l-.028-.094A32.564,32.564,0,0,1,757,468.667c.11.691.19,1.377.246,2.074.058.72.078,1.442.1,2.162.046,1.371.065,2.743,0,4.114s-.168,2.747-.292,4.116a45.315,45.315,0,0,1-.594,4.582c-.273,1.4-.667,2.771-1.05,4.14-.364,1.3-.728,2.605-1.138,3.894q-.667,2.094-1.391,4.166c-.378,1.079-.817,2.13-1.278,3.175a39.57,39.57,0,0,1-1.91,3.674c-.3.508-.595,1.012-.887,1.521-.125.217-.248.435-.373.652a2.083,2.083,0,0,1-.926,1,.64.64,0,0,1-.231.046.765.765,0,0,1-.653-.569" transform="translate(-527.049 -328.297)"/>
          <path id="패스_1207" data-name="패스 1207" d="M752.6,690.127a1.3,1.3,0,0,1-.464-.98,3.8,3.8,0,0,1,.871-2.9l.009-.01a24.808,24.808,0,0,0,1.634-2.04q1.438-2.173,2.74-4.434c.341-.632.659-1.271.958-1.924.737-1.72,1.406-3.469,2.034-5.23.261-.76.507-1.522.725-2.295.081-.351.156-.7.227-1.055.055-.387.1-.772.146-1.16.08-.986.141-1.971.174-2.959.007-1.057-.02-2.109-.083-3.164-.062-.668-.142-1.33-.238-1.994-.208-1.113-.472-2.206-.783-3.3-.5-1.624-1.055-3.231-1.638-4.827-.611-1.674-1.209-3.35-1.93-4.982-.562-1.186-1.157-2.355-1.808-3.495-.674-1.177-1.417-2.308-2.2-3.413-1.085-1.443-2.233-2.838-3.316-4.283-.543-.723-1.086-1.45-1.681-2.132-.312-.358-.63-.707-.968-1.042-.287-.284-.59-.548-.9-.809a17.842,17.842,0,0,0-3.957-2.424,5.241,5.241,0,0,0-1.152-.271c-.2-.021-.392-.034-.589-.045-.871-.035-1.745-.043-2.616.009a14.121,14.121,0,0,0-2.6.436c-.672.19-1.338.4-1.989.651a16.522,16.522,0,0,0-1.834.863l-.542.305c-.11.063-.323.234-.456.189l0,0c-.055-.015-.084-.105-.088-.176a1.427,1.427,0,0,1,.252-.769,6.046,6.046,0,0,1,.666-.888,10.823,10.823,0,0,1,1.606-1.444,16.117,16.117,0,0,1,3.795-2.051,19.646,19.646,0,0,1,3.953-1.015,5.627,5.627,0,0,1,2.6,0,10.718,10.718,0,0,1,1.976.814,16.706,16.706,0,0,1,3.449,2.351,25.573,25.573,0,0,1,2.782,3.116c.856,1.089,1.739,2.154,2.6,3.236a41.979,41.979,0,0,1,2.57,3.607,37.563,37.563,0,0,1,1.98,3.554,42.412,42.412,0,0,1,1.769,4.082c.988,2.661,1.976,5.329,2.762,8.057a31.766,31.766,0,0,1,.891,4.285c.111.768.153,1.547.2,2.32.04.682.054,1.364.054,2.046,0,1.54-.092,3.071-.228,4.6a23.071,23.071,0,0,1-.934,4.895c-.461,1.457-.981,2.893-1.533,4.318-.516,1.332-1.042,2.665-1.653,3.956a34.532,34.532,0,0,1-2.081,3.715c-.768,1.21-1.534,2.429-2.382,3.586a27.518,27.518,0,0,1-1.944,2.3.827.827,0,0,1-.577.283.511.511,0,0,1-.266-.072" transform="translate(-527.025 -450.984)"/>
          <path id="패스_1208" data-name="패스 1208" d="M513.168,1021.069a2.961,2.961,0,0,1-.168-.982,4.856,4.856,0,0,1,.235-1.637,6.171,6.171,0,0,1,.647-1.426c.15-.236.326-.457.495-.68q.414-.546.834-1.089.889-1.15,1.792-2.289,1.8-2.278,3.64-4.523c1.223-1.492,2.45-2.98,3.66-4.482,1.186-1.472,2.319-2.988,3.52-4.449,1.282-1.559,2.6-3.087,3.925-4.607q1.878-2.15,3.659-4.38c1.274-1.588,2.558-3.166,3.89-4.706,1.277-1.478,2.591-2.925,3.86-4.41q1.621-1.9,3.2-3.829c1.056-1.29,2.108-2.585,3.21-3.835l-.028.031.038-.043.156-.176-.1.109,1.108-1.247c.761-.854,1.53-1.7,2.3-2.551,2.01-2.273,3.973-4.589,6.046-6.8,1.015-1.084,2.055-2.144,3.074-3.224,1.077-1.141,2.135-2.3,3.187-3.46,1.279-1.445,2.548-2.9,3.82-4.35s2.584-2.894,3.838-4.375c.662-.783,1.331-1.562,1.963-2.371q.921-1.181,1.825-2.375c.613-.807,1.217-1.621,1.829-2.428s1.25-1.6,1.884-2.386c1.293-1.614,2.586-3.225,3.848-4.862,1.193-1.546,2.33-3.135,3.447-4.736l-.071.1.131-.19.05-.072-.035.05q1.276-1.845,2.553-3.686l-.183.262c.68-.985,1.36-1.969,2.008-2.973.668-1.037,1.3-2.093,1.917-3.16.524-.96,1.038-1.924,1.529-2.9.511-1.014.994-2.041,1.47-3.072.938-2.135,1.851-4.281,2.764-6.427.96-2.254,1.865-4.524,2.7-6.828q1.2-3.5,2.16-7.06c.255-1.04.489-2.08.693-3.131.1-.68.2-1.359.278-2.044q.4-4.214.517-8.441.02-1.308.011-2.615c-.007-.9-.063-1.794-.123-2.689q-.2-2.27-.492-4.529c-.181-1.371-.415-2.737-.646-4.1-.333-1.81-.747-3.595-1.254-5.365-.343-1.141-.7-2.28-1.1-3.4-.389-1.1-.847-2.162-1.328-3.22-.408-.838-.837-1.66-1.319-2.457-.562-.933-1.173-1.83-1.8-2.716a44.549,44.549,0,0,0-2.841-3.479c-.916-1.013-1.816-2.052-2.829-2.969a12.931,12.931,0,0,0-1.786-1.2c-.768-.425-1.536-.845-2.289-1.295-.706-.421-1.386-.883-2.1-1.286a20.643,20.643,0,0,0-2.083-1.015,12.471,12.471,0,0,0-1.229-.4,5.681,5.681,0,0,0-1.093-.145,8.113,8.113,0,0,0-1.782.115,6.754,6.754,0,0,0-1.162.472,8.769,8.769,0,0,0-.784.547c-.164.151-.322.3-.478.463-.134.161-.264.323-.392.49-.106.164-.207.329-.306.5l-.124.258c-.036.088-.071.177-.108.265-.069.216-.134.433-.2.651q-.041.2-.083.4c-.048.32-.09.638-.127.958q-.048.674-.08,1.346c-.005.608.007,1.213.036,1.821.107,1.272.28,2.531.481,3.792.3,1.661.645,3.308,1.08,4.94.442,1.655.915,3.3,1.4,4.945.181.565.357,1.133.573,1.686.24.618.5,1.223.779,1.826q.855,1.748,1.764,3.472a32.939,32.939,0,0,0,2.035,3.477c.3.4.611.79.9,1.2a.722.722,0,0,1,.107.749c.009-.019.017-.036.025-.053a.774.774,0,0,1-.111.2c-.213.272-.552.178-.826.055a5.382,5.382,0,0,1-1.9-1.638,48.431,48.431,0,0,1-3.134-4.544,18.635,18.635,0,0,1-1.314-2.506c-.389-.922-.72-1.863-1.04-2.809-.62-1.833-1.242-3.664-1.734-5.536a52.971,52.971,0,0,1-1.141-5.833,25.862,25.862,0,0,1-.128-6.243,15.89,15.89,0,0,1,.669-3.39,13.49,13.49,0,0,1,.659-1.682,11.867,11.867,0,0,1,.81-1.407,7.414,7.414,0,0,1,4.625-3.256,6.213,6.213,0,0,1,1.2-.078,12.913,12.913,0,0,1,1.376.083,6.993,6.993,0,0,1,1.3.324,13.456,13.456,0,0,1,1.273.492,22.55,22.55,0,0,1,2.359,1.179c.842.482,1.672.977,2.543,1.4a22.024,22.024,0,0,1,2.34,1.217,12.31,12.31,0,0,1,2.051,1.7c1.257,1.272,2.548,2.527,3.684,3.911a38.5,38.5,0,0,1,3.471,4.907,34.1,34.1,0,0,1,2.369,5.1c.33.864.6,1.753.883,2.634q.47,1.484.866,2.988c.518,1.964.871,3.955,1.19,5.959.287,1.8.534,3.608.722,5.422.2,1.888.336,3.789.345,5.688a107.24,107.24,0,0,1-.511,11.043l.015-.141-.031.3-.009.093c0-.013,0-.025,0-.038l-.064.633a44.321,44.321,0,0,1-1.115,6.229c-.491,1.974-1.071,3.923-1.678,5.865a119.879,119.879,0,0,1-4.336,11.281c-.721,1.684-1.432,3.373-2.17,5.048-.76,1.724-1.589,3.414-2.464,5.082-.887,1.69-1.836,3.349-2.874,4.95s-2.121,3.147-3.206,4.7l.131-.189c-1.162,1.674-2.3,3.366-3.507,5.009s-2.437,3.247-3.69,4.845c-1.272,1.621-2.588,3.207-3.853,4.834-1.2,1.538-2.338,3.118-3.535,4.657s-2.469,3-3.749,4.457q-2.008,2.292-4.01,4.586c-1.323,1.523-2.652,3.043-4.022,4.525-1.39,1.5-2.81,2.976-4.226,4.453-.719.748-1.415,1.519-2.111,2.288-1.024,1.16-2.037,2.333-3.063,3.491-1.157,1.3-2.327,2.6-3.489,3.9l-1.1,1.233.035-.039.055-.061.006-.007,0,0,.04-.044c-1.309,1.521-2.582,3.071-3.854,4.624q-1.84,2.249-3.766,4.43c-1.367,1.55-2.737,3.1-4.061,4.685-1.273,1.525-2.5,3.092-3.749,4.635-1.2,1.476-2.464,2.9-3.7,4.34-1.29,1.508-2.553,3.035-3.772,4.6-1.193,1.532-2.383,3.063-3.6,4.573q-1.812,2.241-3.627,4.48c-.9,1.113-1.771,2.247-2.644,3.379-.734.953-1.464,1.91-2.157,2.893-.141.211-.278.429-.432.629a3.294,3.294,0,0,1-.323.385,1.83,1.83,0,0,1-.524.344.642.642,0,0,1-.274.065c-.36,0-.637-.344-.766-.68m72.406-150.925c.02-.1.067-.028-.044.22a.634.634,0,0,0,.044-.22" transform="translate(-370.211 -600.201)"/>
          <path id="패스_1209" data-name="패스 1209" d="M274.77,1114.672a1.1,1.1,0,0,1-.395-.832c-.153-1.455-.319-2.909-.513-4.36-.176-1.319-.393-2.632-.616-3.943-.16-.9-.315-1.8-.518-2.688-.217-.952-.459-1.892-.728-2.831-.2-.628-.4-1.256-.638-1.873-.281-.734-.575-1.46-.88-2.184-.266-.629-.534-1.257-.789-1.89-.128-.315-.254-.633-.372-.953a4.412,4.412,0,0,1-.319-1.135,1.1,1.1,0,0,1,.073-.505c.04-.1.147-.328.287-.322a.415.415,0,0,1,.255.082,1.528,1.528,0,0,1,.221.206,4.944,4.944,0,0,1,.444.575c.282.388.533.8.785,1.21a27.035,27.035,0,0,1,3.516,8.918,86.1,86.1,0,0,1,1.641,9.884,3.485,3.485,0,0,1-.146,1.382,2.5,2.5,0,0,1-.595,1.079.759.759,0,0,1-.492.242.429.429,0,0,1-.222-.062" transform="translate(-194.126 -787.447)"/>
          <path id="패스_1210" data-name="패스 1210" d="M761.826,852.578a3.524,3.524,0,0,1-1.181-.324,6.214,6.214,0,0,1-.979-.529,4.142,4.142,0,0,1-1.147-1.182,5.645,5.645,0,0,1-.559-1.216,10.493,10.493,0,0,1-.431-1.711c-.053-.3-.1-.594-.128-.894a3.233,3.233,0,0,1,.062-1.2c.037-.129.2-.495.394-.378a.247.247,0,0,1,.1.153c.057.16.1.327.146.491a15.9,15.9,0,0,0,.74,1.967,6.433,6.433,0,0,0,.428.737,4.151,4.151,0,0,0,.534.573,6.5,6.5,0,0,0,1.507.86,4.49,4.49,0,0,0,1.257.336c.205.005.408,0,.614-.012a3.523,3.523,0,0,0,.571-.1,3.7,3.7,0,0,0,.569-.238,5.436,5.436,0,0,0,.493-.331c.116-.1.226-.207.332-.319.065-.08.129-.161.191-.245l-.01.014.008-.011c.059-.088.114-.177.17-.268a.692.692,0,0,1,.443-.368c.185-.018.3.138.359.291a1.58,1.58,0,0,1,.052.77,1.978,1.978,0,0,1-.284.823,5.571,5.571,0,0,1-1.66,1.664,5.138,5.138,0,0,1-.623.331,4.408,4.408,0,0,1-.695.213,3.757,3.757,0,0,1-.938.106c-.112,0-.225,0-.336-.009" transform="translate(-546.569 -609.895)"/>
          <path id="패스_1211" data-name="패스 1211" d="M763.154,646.33a4.3,4.3,0,0,1-1.391-.3,8.7,8.7,0,0,1-1.364-.694,7.354,7.354,0,0,1-1.169-.925,7.459,7.459,0,0,1-1.006-1.136,9.1,9.1,0,0,1-.757-1.4,15.454,15.454,0,0,1-.591-1.44,9.31,9.31,0,0,1-.494-2.442,7.675,7.675,0,0,1,.062-1.788.546.546,0,0,1,0-.092.516.516,0,0,1,.048-.163c.027-.114.059-.226.1-.336a1.133,1.133,0,0,1,.126-.288c.083-.131.314-.333.423-.1a2.226,2.226,0,0,1,.145.811c.018.238.052.472.089.707.057.274.121.543.2.813.1.3.208.586.331.875a14.706,14.706,0,0,0,1.066,1.821,5.216,5.216,0,0,0,.473.556c.177.177.366.342.557.5a9.771,9.771,0,0,0,1.236.87,12.075,12.075,0,0,0,1.345.664,5.589,5.589,0,0,0,.691.231,4.778,4.778,0,0,0,.787.118,4.6,4.6,0,0,0,1.045-.089,3.5,3.5,0,0,0,.5-.2,3.945,3.945,0,0,0,.392-.272c.111-.1.218-.206.322-.315.268-.31.521-.634.76-.967.048-.072.1-.145.141-.219l.007-.014.024-.058a1.768,1.768,0,0,1,.558-.8.435.435,0,0,1,.593.033,1.3,1.3,0,0,1,.254.85,3.212,3.212,0,0,1-.315,1.42,6.978,6.978,0,0,1-.986,1.424,11.151,11.151,0,0,1-1.382,1.5,3.518,3.518,0,0,1-1.416.72,4.982,4.982,0,0,1-1.128.13q-.137,0-.275-.007" transform="translate(-545.836 -458.345)"/>
          <path id="패스_1212" data-name="패스 1212" d="M14.2,659.241a5.216,5.216,0,0,1-1.462-.587,6.5,6.5,0,0,1-1.3-1.025,4.439,4.439,0,0,1-.595-.712,6.883,6.883,0,0,1-.478-.778,10.226,10.226,0,0,1-.72-1.929,11.711,11.711,0,0,1-.342-1.887,4.357,4.357,0,0,1,.162-1.891c.048-.128.246-.364.333-.128a3.955,3.955,0,0,1,.148.645c.052.275.121.546.193.816.138.444.3.877.481,1.306a10.056,10.056,0,0,0,.521.941c.128.171.259.337.4.5a5.16,5.16,0,0,0,.5.485,7.121,7.121,0,0,0,.724.509,6.859,6.859,0,0,0,.761.389,5.943,5.943,0,0,0,1.571.364,5.986,5.986,0,0,0,1.51-.165c.253-.078.5-.163.747-.258a4.909,4.909,0,0,0,.595-.293,10.345,10.345,0,0,0,.976-.692c.226-.206.443-.416.657-.634.186-.217.365-.435.541-.661.149-.22.291-.442.431-.669.167-.315.325-.633.474-.958.2-.5.389-1,.568-1.509.395-1.147.78-2.3,1.1-3.469.268-1.08.518-2.166.739-3.257.21-1.038.429-2.074.623-3.115.188-1.084.375-2.171.495-3.265.036-.45.06-.9.091-1.35.026-.393.054-.785.068-1.178,0-.129,0-.257-.008-.384-.01-.1-.021-.2-.03-.3a3.777,3.777,0,0,1,.149-1.424,2.6,2.6,0,0,1,.613-1.113.618.618,0,0,1,.737-.185,1.126,1.126,0,0,1,.407.858,21.552,21.552,0,0,1-.087,3.392c-.076,1.147-.232,2.278-.413,3.413s-.4,2.281-.636,3.414c-.227,1.084-.447,2.168-.7,3.245-.225.948-.451,1.9-.737,2.832-.3.974-.632,1.939-.967,2.9l.088-.254-.2.581c.029-.085.06-.17.089-.254-.2.577-.4,1.154-.639,1.719a16.9,16.9,0,0,1-.808,1.667,10.662,10.662,0,0,1-2.321,2.865,6.368,6.368,0,0,1-3.263,1.535,4.851,4.851,0,0,1-.712.051,5.544,5.544,0,0,1-1.067-.106" transform="translate(-6.693 -455.599)"/>
          <path id="패스_1213" data-name="패스 1213" d="M16.156,744.833a13.083,13.083,0,0,1-1.411-.732,4.467,4.467,0,0,1-.67-.434.377.377,0,0,1-.093-.344.564.564,0,0,1,.055-.185.359.359,0,0,1,.065-.1.365.365,0,0,1,.074-.04c0-.014,0-.021.026-.016l.052-.006a.622.622,0,0,1,.135.006c.1.013.2.027.3.043l.593.1c.422.072.848.119,1.27.191.125.022.184.176.209.282a1.461,1.461,0,0,1-.24,1.085.361.361,0,0,1-.266.165.256.256,0,0,1-.1-.021" transform="translate(-10.086 -536.181)"/>
          <path id="패스_1214" data-name="패스 1214" d="M15.995,761.435a2.432,2.432,0,0,1-.535-.117,1.193,1.193,0,0,1-.477-.282.38.38,0,0,1-.062-.268.724.724,0,0,1,.1-.341,1.112,1.112,0,0,1,.161-.2,2.147,2.147,0,0,1,.172-.139,1.714,1.714,0,0,1,.289-.16,1.923,1.923,0,0,1,.65-.152c.137-.012.222.1.265.215a1.171,1.171,0,0,1,.039.571,1.56,1.56,0,0,1-.21.609.473.473,0,0,1-.362.271l-.033,0" transform="translate(-10.767 -548.299)"/>
          <path id="패스_1215" data-name="패스 1215" d="M783.479,876.9a1.726,1.726,0,0,1-.02-.966,1.774,1.774,0,0,1,.425-.867l.046-.048c.4-.509.81-1.012,1.212-1.52.116-.148.3-.321.508-.275s.3.282.345.464a2.1,2.1,0,0,1-.022.931,1.932,1.932,0,0,1-.472.964c-.381.369-.774.726-1.141,1.108a.9.9,0,0,1-.426.477.327.327,0,0,1-.119.024.394.394,0,0,1-.336-.294" transform="translate(-565.35 -630.165)"/>
          <path id="패스_1216" data-name="패스 1216" d="M398.959,47.535a4.8,4.8,0,0,1,0-3.653c.164-.338.448-.757.873-.757s.709.419.873.757a4.8,4.8,0,0,1,0,3.653c-.164.338-.448.757-.873.757s-.709-.419-.873-.757" transform="translate(-287.653 -31.122)" fill="#fff"/>
        </g>
      </g>
    </g>
    <g id="그룹_244" data-name="그룹 244" transform="translate(1663.374 1018)">
      <g id="그룹_243" data-name="그룹 243" clip-path="url(#clip-path-2)">
        <path id="패스_1199" data-name="패스 1199" d="M49.905,44.007a23.846,23.846,0,0,0,.324-8.057c-1.075-3.093-3.637-7.566-7.162-8.021-.24.168-.5-.072-.771.008-.628-.012-1.527.356-1.843-.392a14.763,14.763,0,0,0-5.092.663,18.757,18.757,0,0,0-7.1,6.007,19.779,19.779,0,0,0-1.223,11.351c1.559,4.512,8.809,6.543,13.137,6.627,4.88.136,8.117-4.037,9.732-8.185m21.482-7.29c1.4.388,2.8,1.251,2.31,2.914a87.344,87.344,0,0,1-1.367,9.516c-.3,1.279-1.974,1.107-2.966,1.507-2.894.739-5.815,1.307-8.621,2.266-.927,1.251-1.658,2.63-2.566,3.9a61.742,61.742,0,0,1,4.76,8.561,1.508,1.508,0,0,1,.2,1.175,2.059,2.059,0,0,1-.807,1.015c-1.335.935-2.73,1.966-4,2.889-1.922,1.179-3.421,2.91-5.567,3.617-.907.1-1.583-.748-2.2-1.287-2.062-1.986-4.221-3.481-5.583-6.111-.152-.008-.3-.012-.448-.012a32.362,32.362,0,0,0-3.781.416,27.212,27.212,0,0,1-2.734,7.306c-.432.735-.755,1.787-1.83,1.379-2.934-.779-6.039-.344-8.873-1.487-2.69-.464.584-7.6.855-9.384-.931-.324-3.433-.755-4.169-1.771-1.647,1.519-2.97,3.369-4.924,4.556-1.023.588-1.986,1.583-3.162,1.783-3.477-1.886-6.97-4.552-8.677-8.225-.392-1.231.46-2.186,1.111-3.109a43.751,43.751,0,0,1,5.667-6.806c-.524-1.771-1.611-3.333-2.1-5.116a8.808,8.808,0,0,0-.568-2.106c-1.035-.727-2.522-.316-3.721-.575-2.346-.08-4.4-1.343-6.678-1.783-1.207-.236-.935-1.695-.883-2.61A47.1,47.1,0,0,1,2.057,28.712a42.729,42.729,0,0,1,1.475-4.289.5.5,0,0,1,.06-.112.665.665,0,0,1,.092-.408c.24-.208.62-.132.919-.124.172.012.384.056.4.256,2.338.787,4.744.551,7.146.8a62.381,62.381,0,0,1,5.531-6.139c-1.319-2.542-2.394-5.236-3.641-7.794a1.152,1.152,0,0,1,.2-.955c2.566-2.954,6.019-5,9.288-7.1,1.011-.659,1.959.432,2.638,1.087a62.533,62.533,0,0,1,5.152,6.131c2.426.34,5-.4,7.442-.6,1.023-2.762,2.35-5.436,3.6-8.073C42.6.711,43-.012,43.822.036c2.434-.224,4.732.672,7.022,1.347a23.177,23.177,0,0,1,6.439,2.506c.819,2.438-.947,5.3-1.707,7.618-.14.336-.28.672-.42,1.011a1.355,1.355,0,0,1,.556,1.1c.771,1.1,1.7,2.074,2.43,3.185,2.814-1.319,5.344-4.045,7.933-5.228,3.429,1.139,5.452,6.754,6.651,9.936a11.786,11.786,0,0,1,.364,1.215,2.748,2.748,0,0,1-1.127,1.95c-1.87,2-4.316,3.337-6.283,5.212-.635,1.691-.5,3.545-.623,5.32,2.134.412,4.248.9,6.331,1.507" transform="translate(0 0)" fill="#231f20"/>
      </g>
    </g>
    <g id="그룹_248" data-name="그룹 248" transform="translate(1632.437 1101.856)">
      <g id="그룹_247" data-name="그룹 247" clip-path="url(#clip-path-3)">
        <path id="패스_1201" data-name="패스 1201" d="M43.135,31.207c.826-2.524-.023-5.261-1.1-7.568-1.254-3.995-5.051-4.267-8.579-4.814-3.285-.962-6.551.512-8.832,2.88C21.16,24.669,20.386,29.9,22.152,34c2.375,4.076,7.516,5.132,11.864,5.414,4.61.061,7.574-4.367,9.12-8.206M61.33,19.433a12.166,12.166,0,0,1,.541,2.942c-1.085,2.663-4.763,2.906-6.535,5a17.773,17.773,0,0,0,.473,4.474c1.16.661,5.268,3,4.555,4.549a8.782,8.782,0,0,0-1.474,2.611,28.3,28.3,0,0,1-2.417,3.7c-.7.738-1.455,2-2.491,2.171-1.918-.817-3.82-1.74-5.79-2.462a16.245,16.245,0,0,0-2.6,3.253c.042,2.128,1.043,4.28.434,6.392-.45.6-1.361.8-1.966,1.15a18.655,18.655,0,0,1-7.694,2.329.717.717,0,0,1-.6-.376c-1.046-1.866-1.37-4.066-2.9-5.6a9.362,9.362,0,0,1-3.23.243,4.886,4.886,0,0,0-2.129-.072c-.794.762-1.733,1.413-2.543,2.171,0,0,0,0,0,0-.363.418-.726.833-1.089,1.251v0c-.065.094-.123.185-.178.282.2.042.133.444-.071.408a.274.274,0,0,1-.214-.162c-.356.34-.693.836-1.221.855-2.005-.651-3.791-1.811-5.744-2.588-.736-.262-1.588-.509-1.435-1.471-.11-2.362,1.118-4.626,1.351-6.914.263-.936-1.237-1.367-1.853-1.831-.784-.363-1.49-.907-2.264-1.286-.7-.259-1.38-.885-2.116-.418-1.957.58-3.768,1.526-5.786,1.8-.593.039-1.448-.013-1.636-.677-.687-2.339-1.574-4.594-2.32-6.914a2.929,2.929,0,0,1-.275-2.048c.292-.609,1.144-.894,1.6-1.322a22.6,22.6,0,0,1,4.8-2.359,18.6,18.6,0,0,0-.437-3.674A11.51,11.51,0,0,1,6.1,20.9a34.42,34.42,0,0,1-3.985-2.9A1.429,1.429,0,0,1,1.56,16.8a7.073,7.073,0,0,1,.324-.946c.619-1.529,1.458-2.948,1.928-4.513A14.167,14.167,0,0,1,4.935,8.891c.172-.182.36-.032.4.155a3.7,3.7,0,0,1,1.063.3,23.109,23.109,0,0,0,4.176,1.118c1.549.275,3.052,1.183,4.63,1.079,1.221-1.2,2.763-2.018,3.991-3.208.039-1.448-.58-5.939.923-6.541A27.852,27.852,0,0,1,25.874.047a1.753,1.753,0,0,1,1.251.146c1.691,2.093,2.423,4.817,4.383,6.722a28.594,28.594,0,0,0,6.363-.68c.713-.716,1.228-1.617,1.95-2.333A30.323,30.323,0,0,1,43.288.727,1.331,1.331,0,0,1,44.357.419a28.823,28.823,0,0,1,5.569,2.55.94.94,0,0,1,.531,1.2c-.486,1.516-.833,3.068-1.2,4.617a28.514,28.514,0,0,0-.771,3.677A38.373,38.373,0,0,0,51.578,14.8c2.718-.541,5.43-1.176,8.229-.5a.772.772,0,0,1,.437.463c.428,1.523.8,3.113,1.085,4.665" transform="translate(0 0)" fill="#1947e5"/>
      </g>
    </g>
  </g>
</svg>
